<?xml version="1.0" encoding="UTF-8" standalone="no"?>
<!DOCTYPE svg PUBLIC "-//W3C//DTD SVG 1.1//EN"
 "http://www.w3.org/Graphics/SVG/1.1/DTD/svg11.dtd">
<!-- Generated by graphviz version 2.28.0 (20111007.0958)
 -->
<!-- Title: G Pages: 1 -->
<svg width="512pt" height="67pt"
 viewBox="0.00 0.00 512.00 67.00" xmlns="http://www.w3.org/2000/svg" xmlns:xlink="http://www.w3.org/1999/xlink">
<g id="graph1" class="graph" transform="scale(1 1) rotate(0) translate(4 63)">
<title>G</title>
<polygon fill="white" stroke="white" points="-4,5 -4,-63 509,-63 509,5 -4,5"/>
<!-- Node1 -->
<g id="node1" class="node"><title>Node1</title>
<polygon fill="#bfbfbf" stroke="black" points="0.664,-19 0.664,-39 73.336,-39 73.336,-19 0.664,-19"/>
<text text-anchor="middle" x="37" y="-26" font-family="Helvetica,sans-Serif" font-size="10.00">survey2almn</text>
</g>
<!-- Node2 -->
<g id="node3" class="node"><title>Node2</title>
<a xlink:href="almn__survey__tools_8h.html#a1f981e4e6ee71554adbd1879e44875e4" target="_top" xlink:title="__f3dex_transforms_MOD_alnspring2almn">
<polygon fill="white" stroke="black" points="110.706,-39 110.706,-59 317.293,-59 317.293,-39 110.706,-39"/>
<text text-anchor="middle" x="214" y="-46" font-family="Helvetica,sans-Serif" font-size="10.00">__f3dex_transforms_MOD_alnspring2almn</text>
</a>
</g>
<!-- Node1&#45;&gt;Node2 -->
<g id="edge2" class="edge"><title>Node1&#45;&gt;Node2</title>
<path fill="none" stroke="midnightblue" d="M73.4139,-33.0473C85.6672,-34.4477 100.063,-36.0929 114.871,-37.7853"/>
<polygon fill="midnightblue" stroke="midnightblue" points="114.835,-41.3038 125.168,-38.962 115.63,-34.3491 114.835,-41.3038"/>
</g>
<!-- Node3 -->
<g id="node5" class="node"><title>Node3</title>
<a xlink:href="sbtools_8cpp.html#a59592d47006c78f79e11ae10d9df5760" target="_top" xlink:title="sphericalBesselJ">
<polygon fill="white" stroke="black" points="168.495,-0 168.495,-20 259.505,-20 259.505,-0 168.495,-0"/>
<text text-anchor="middle" x="214" y="-7" font-family="Helvetica,sans-Serif" font-size="10.00">sphericalBesselJ</text>
</a>
</g>
<!-- Node1&#45;&gt;Node3 -->
<g id="edge4" class="edge"><title>Node1&#45;&gt;Node3</title>
<path fill="none" stroke="midnightblue" d="M73.4139,-25.1551C97.7863,-22.5089 130.636,-18.9424 158.344,-15.934"/>
<polygon fill="midnightblue" stroke="midnightblue" points="158.731,-19.4127 168.295,-14.8537 157.976,-12.4536 158.731,-19.4127"/>
</g>
<!-- Node4 -->
<g id="node7" class="node"><title>Node4</title>
<a xlink:href="sbtools_8h.html#a1c1234e193b7123b6b9b55f97a395aea" target="_top" xlink:title="__f3dex_transforms_MOD_bjl">
<polygon fill="white" stroke="black" points="354.601,-0 354.601,-20 503.399,-20 503.399,-0 354.601,-0"/>
<text text-anchor="middle" x="429" y="-7" font-family="Helvetica,sans-Serif" font-size="10.00">__f3dex_transforms_MOD_bjl</text>
</a>
</g>
<!-- Node3&#45;&gt;Node4 -->
<g id="edge6" class="edge"><title>Node3&#45;&gt;Node4</title>
<path fill="none" stroke="midnightblue" d="M259.652,-10C284.204,-10 315.469,-10 344.374,-10"/>
<polygon fill="midnightblue" stroke="midnightblue" points="344.484,-13.5001 354.484,-10 344.484,-6.5001 344.484,-13.5001"/>
</g>
</g>
</svg>
