<?xml version="1.0" encoding="UTF-8" standalone="no"?>
<!DOCTYPE svg PUBLIC "-//W3C//DTD SVG 1.1//EN"
 "http://www.w3.org/Graphics/SVG/1.1/DTD/svg11.dtd">
<!-- Generated by graphviz version 2.28.0 (20111007.0958)
 -->
<!-- Title: G Pages: 1 -->
<svg width="938pt" height="204pt"
 viewBox="0.00 0.00 938.00 204.00" xmlns="http://www.w3.org/2000/svg" xmlns:xlink="http://www.w3.org/1999/xlink">
<g id="graph1" class="graph" transform="scale(1 1) rotate(0) translate(4 200)">
<title>G</title>
<polygon fill="white" stroke="white" points="-4,5 -4,-200 935,-200 935,5 -4,5"/>
<!-- Node1 -->
<g id="node1" class="node"><title>Node1</title>
<polygon fill="#bfbfbf" stroke="black" points="611.374,-175 611.374,-195 864.626,-195 864.626,-175 611.374,-175"/>
<text text-anchor="middle" x="738" y="-182" font-family="Helvetica,sans-Serif" font-size="10.00">/Users/bl/Dropbox/3DEX/src/cxx/almn_survey_tools.h</text>
</g>
<!-- Node2 -->
<g id="node3" class="node"><title>Node2</title>
<a xlink:href="survey_8h.html" target="_top" xlink:title="survey.h">
<polygon fill="white" stroke="black" points="331.108,-117 331.108,-137 384.892,-137 384.892,-117 331.108,-117"/>
<text text-anchor="middle" x="358" y="-124" font-family="Helvetica,sans-Serif" font-size="10.00">survey.h</text>
</a>
</g>
<!-- Node1&#45;&gt;Node2 -->
<g id="edge2" class="edge"><title>Node1&#45;&gt;Node2</title>
<path fill="none" stroke="midnightblue" d="M676.524,-174.94C596.933,-163.211 460.697,-143.134 395.246,-133.489"/>
<polygon fill="midnightblue" stroke="midnightblue" points="395.399,-129.974 384.996,-131.978 394.378,-136.899 395.399,-129.974"/>
</g>
<!-- Node12 -->
<g id="node23" class="node"><title>Node12</title>
<polygon fill="white" stroke="#bfbfbf" points="618.718,-1 618.718,-21 665.282,-21 665.282,-1 618.718,-1"/>
<text text-anchor="middle" x="642" y="-8" font-family="Helvetica,sans-Serif" font-size="10.00">math.h</text>
</g>
<!-- Node1&#45;&gt;Node12 -->
<g id="edge32" class="edge"><title>Node1&#45;&gt;Node12</title>
<path fill="none" stroke="midnightblue" d="M729.652,-174.978C721.655,-166.042 709.57,-151.74 701,-138 697.916,-133.055 665.938,-63.9288 650.393,-30.222"/>
<polygon fill="midnightblue" stroke="midnightblue" points="653.511,-28.6254 646.147,-21.0086 647.154,-31.5555 653.511,-28.6254"/>
</g>
<!-- Node13 -->
<g id="node25" class="node"><title>Node13</title>
<a xlink:href="sbtools_8h.html" target="_top" xlink:title="sbtools.h">
<polygon fill="white" stroke="black" points="709.994,-117 709.994,-137 766.006,-137 766.006,-117 709.994,-117"/>
<text text-anchor="middle" x="738" y="-124" font-family="Helvetica,sans-Serif" font-size="10.00">sbtools.h</text>
</a>
</g>
<!-- Node1&#45;&gt;Node13 -->
<g id="edge24" class="edge"><title>Node1&#45;&gt;Node13</title>
<path fill="none" stroke="midnightblue" d="M738,-174.753C738,-167.25 738,-156.424 738,-147.078"/>
<polygon fill="midnightblue" stroke="midnightblue" points="741.5,-147.075 738,-137.075 734.5,-147.075 741.5,-147.075"/>
</g>
<!-- Node15 -->
<g id="node29" class="node"><title>Node15</title>
<polygon fill="white" stroke="#bfbfbf" points="784.376,-117 784.376,-137 867.624,-137 867.624,-117 784.376,-117"/>
<text text-anchor="middle" x="826" y="-124" font-family="Helvetica,sans-Serif" font-size="10.00">healpix_base.h</text>
</g>
<!-- Node1&#45;&gt;Node15 -->
<g id="edge28" class="edge"><title>Node1&#45;&gt;Node15</title>
<path fill="none" stroke="midnightblue" d="M752.531,-174.753C766.243,-166.027 787.021,-152.805 802.985,-142.646"/>
<polygon fill="midnightblue" stroke="midnightblue" points="805.181,-145.397 811.739,-137.075 801.423,-139.491 805.181,-145.397"/>
</g>
<!-- Node16 -->
<g id="node31" class="node"><title>Node16</title>
<polygon fill="white" stroke="#bfbfbf" points="885.278,-117 885.278,-137 930.722,-137 930.722,-117 885.278,-117"/>
<text text-anchor="middle" x="908" y="-124" font-family="Helvetica,sans-Serif" font-size="10.00">cstring</text>
</g>
<!-- Node1&#45;&gt;Node16 -->
<g id="edge30" class="edge"><title>Node1&#45;&gt;Node16</title>
<path fill="none" stroke="midnightblue" d="M765.692,-174.878C795.745,-164.978 843.69,-149.184 875.504,-138.705"/>
<polygon fill="midnightblue" stroke="midnightblue" points="876.82,-141.956 885.223,-135.503 874.63,-135.307 876.82,-141.956"/>
</g>
<!-- Node3 -->
<g id="node5" class="node"><title>Node3</title>
<polygon fill="white" stroke="#bfbfbf" points="-0.2775,-59 -0.2775,-79 36.2775,-79 36.2775,-59 -0.2775,-59"/>
<text text-anchor="middle" x="18" y="-66" font-family="Helvetica,sans-Serif" font-size="10.00">arr.h</text>
</g>
<!-- Node2&#45;&gt;Node3 -->
<g id="edge4" class="edge"><title>Node2&#45;&gt;Node3</title>
<path fill="none" stroke="midnightblue" d="M330.829,-123.928C277.662,-119.468 156.16,-107.273 46.3388,-79.9219"/>
<polygon fill="midnightblue" stroke="midnightblue" points="46.9834,-76.4745 36.4294,-77.4039 45.2593,-83.2589 46.9834,-76.4745"/>
</g>
<!-- Node4 -->
<g id="node7" class="node"><title>Node4</title>
<polygon fill="white" stroke="#bfbfbf" points="54.2755,-59 54.2755,-79 119.725,-79 119.725,-59 54.2755,-59"/>
<text text-anchor="middle" x="87" y="-66" font-family="Helvetica,sans-Serif" font-size="10.00">paramfile.h</text>
</g>
<!-- Node2&#45;&gt;Node4 -->
<g id="edge6" class="edge"><title>Node2&#45;&gt;Node4</title>
<path fill="none" stroke="midnightblue" d="M331.012,-120.982C289.73,-113.224 208.197,-97.5805 130.09,-80.408"/>
<polygon fill="midnightblue" stroke="midnightblue" points="130.61,-76.9385 120.091,-78.1967 129.099,-83.7734 130.61,-76.9385"/>
</g>
<!-- Node5 -->
<g id="node9" class="node"><title>Node5</title>
<polygon fill="white" stroke="#bfbfbf" points="137.328,-59 137.328,-79 186.672,-79 186.672,-59 137.328,-59"/>
<text text-anchor="middle" x="162" y="-66" font-family="Helvetica,sans-Serif" font-size="10.00">trafos.h</text>
</g>
<!-- Node2&#45;&gt;Node5 -->
<g id="edge8" class="edge"><title>Node2&#45;&gt;Node5</title>
<path fill="none" stroke="midnightblue" d="M330.844,-118.508C300.351,-110.058 249.147,-95.7573 196.661,-80.4542"/>
<polygon fill="midnightblue" stroke="midnightblue" points="197.431,-77.0329 186.851,-77.5863 195.467,-83.7517 197.431,-77.0329"/>
</g>
<!-- Node6 -->
<g id="node11" class="node"><title>Node6</title>
<polygon fill="white" stroke="#bfbfbf" points="204.38,-59 204.38,-79 277.62,-79 277.62,-59 204.38,-59"/>
<text text-anchor="middle" x="241" y="-66" font-family="Helvetica,sans-Serif" font-size="10.00">planck_rng.h</text>
</g>
<!-- Node2&#45;&gt;Node6 -->
<g id="edge10" class="edge"><title>Node2&#45;&gt;Node6</title>
<path fill="none" stroke="midnightblue" d="M338.942,-116.878C319.989,-107.807 290.699,-93.7876 269.084,-83.4418"/>
<polygon fill="midnightblue" stroke="midnightblue" points="270.581,-80.2784 260.05,-79.1181 267.559,-86.5925 270.581,-80.2784"/>
</g>
<!-- Node7 -->
<g id="node13" class="node"><title>Node7</title>
<polygon fill="white" stroke="#bfbfbf" points="295.834,-59 295.834,-79 350.166,-79 350.166,-59 295.834,-59"/>
<text text-anchor="middle" x="323" y="-66" font-family="Helvetica,sans-Serif" font-size="10.00">iostream</text>
</g>
<!-- Node2&#45;&gt;Node7 -->
<g id="edge12" class="edge"><title>Node2&#45;&gt;Node7</title>
<path fill="none" stroke="midnightblue" d="M352.22,-116.753C347.277,-108.843 340.023,-97.2372 333.98,-87.5683"/>
<polygon fill="midnightblue" stroke="midnightblue" points="336.94,-85.7002 328.672,-79.0752 331.004,-89.4102 336.94,-85.7002"/>
</g>
<!-- Node8 -->
<g id="node15" class="node"><title>Node8</title>
<polygon fill="white" stroke="#bfbfbf" points="368.333,-59 368.333,-79 417.667,-79 417.667,-59 368.333,-59"/>
<text text-anchor="middle" x="393" y="-66" font-family="Helvetica,sans-Serif" font-size="10.00">fstream</text>
</g>
<!-- Node2&#45;&gt;Node8 -->
<g id="edge14" class="edge"><title>Node2&#45;&gt;Node8</title>
<path fill="none" stroke="midnightblue" d="M363.78,-116.753C368.723,-108.843 375.977,-97.2372 382.02,-87.5683"/>
<polygon fill="midnightblue" stroke="midnightblue" points="384.996,-89.4102 387.328,-79.0752 379.06,-85.7002 384.996,-89.4102"/>
</g>
<!-- Node9 -->
<g id="node17" class="node"><title>Node9</title>
<polygon fill="white" stroke="#bfbfbf" points="435.223,-59 435.223,-79 486.777,-79 486.777,-59 435.223,-59"/>
<text text-anchor="middle" x="461" y="-66" font-family="Helvetica,sans-Serif" font-size="10.00">sstream</text>
</g>
<!-- Node2&#45;&gt;Node9 -->
<g id="edge16" class="edge"><title>Node2&#45;&gt;Node9</title>
<path fill="none" stroke="midnightblue" d="M375.008,-116.753C391.432,-107.823 416.517,-94.1848 435.363,-83.9388"/>
<polygon fill="midnightblue" stroke="midnightblue" points="437.194,-86.9267 444.308,-79.0752 433.851,-80.7769 437.194,-86.9267"/>
</g>
<!-- Node10 -->
<g id="node19" class="node"><title>Node10</title>
<polygon fill="white" stroke="#bfbfbf" points="504.5,-59 504.5,-79 533.5,-79 533.5,-59 504.5,-59"/>
<text text-anchor="middle" x="518.609" y="-66" font-family="Helvetica,sans-Serif" font-size="10.00">list</text>
</g>
<!-- Node2&#45;&gt;Node10 -->
<g id="edge18" class="edge"><title>Node2&#45;&gt;Node10</title>
<path fill="none" stroke="midnightblue" d="M384.975,-117.566C412.748,-108.737 457.186,-94.2059 495,-80 495.095,-79.9643 495.19,-79.9284 495.286,-79.8924"/>
<polygon fill="midnightblue" stroke="midnightblue" points="496.337,-83.2407 504.343,-76.3005 493.757,-76.7337 496.337,-83.2407"/>
</g>
<!-- Node11 -->
<g id="node21" class="node"><title>Node11</title>
<a xlink:href="selection_function_8h.html" target="_top" xlink:title="selectionFunction.h">
<polygon fill="white" stroke="black" points="551.933,-59 551.933,-79 654.067,-79 654.067,-59 551.933,-59"/>
<text text-anchor="middle" x="603" y="-66" font-family="Helvetica,sans-Serif" font-size="10.00">selectionFunction.h</text>
</a>
</g>
<!-- Node2&#45;&gt;Node11 -->
<g id="edge20" class="edge"><title>Node2&#45;&gt;Node11</title>
<path fill="none" stroke="midnightblue" d="M385.155,-119.793C425.802,-110.502 503.1,-92.8343 553.837,-81.2374"/>
<polygon fill="midnightblue" stroke="midnightblue" points="554.642,-84.6435 563.611,-79.0032 553.083,-77.8195 554.642,-84.6435"/>
</g>
<!-- Node11&#45;&gt;Node12 -->
<g id="edge22" class="edge"><title>Node11&#45;&gt;Node12</title>
<path fill="none" stroke="midnightblue" d="M609.44,-58.7527C614.949,-50.8427 623.031,-39.2372 629.765,-29.5683"/>
<polygon fill="midnightblue" stroke="midnightblue" points="632.837,-31.2815 635.68,-21.0752 627.093,-27.281 632.837,-31.2815"/>
</g>
<!-- Node14 -->
<g id="node27" class="node"><title>Node14</title>
<polygon fill="white" stroke="#bfbfbf" points="713.884,-59 713.884,-79 762.116,-79 762.116,-59 713.884,-59"/>
<text text-anchor="middle" x="738" y="-66" font-family="Helvetica,sans-Serif" font-size="10.00">stdint.h</text>
</g>
<!-- Node13&#45;&gt;Node14 -->
<g id="edge26" class="edge"><title>Node13&#45;&gt;Node14</title>
<path fill="none" stroke="midnightblue" d="M738,-116.753C738,-109.25 738,-98.4238 738,-89.0781"/>
<polygon fill="midnightblue" stroke="midnightblue" points="741.5,-89.0752 738,-79.0752 734.5,-89.0752 741.5,-89.0752"/>
</g>
</g>
</svg>
