<?xml version="1.0" encoding="UTF-8" standalone="no"?>
<!DOCTYPE svg PUBLIC "-//W3C//DTD SVG 1.1//EN"
 "http://www.w3.org/Graphics/SVG/1.1/DTD/svg11.dtd">
<!-- Generated by graphviz version 2.28.0 (20111007.0958)
 -->
<!-- Title: G Pages: 1 -->
<svg width="628pt" height="223pt"
 viewBox="0.00 0.00 628.00 223.00" xmlns="http://www.w3.org/2000/svg" xmlns:xlink="http://www.w3.org/1999/xlink">
<g id="graph1" class="graph" transform="scale(1 1) rotate(0) translate(4 219)">
<title>G</title>
<polygon fill="white" stroke="white" points="-4,5 -4,-219 625,-219 625,5 -4,5"/>
<!-- Node1 -->
<g id="node1" class="node"><title>Node1</title>
<polygon fill="#bfbfbf" stroke="black" points="0.6115,-77 0.6115,-97 79.3885,-97 79.3885,-77 0.6115,-77"/>
<text text-anchor="middle" x="40" y="-84" font-family="Helvetica,sans-Serif" font-size="10.00">almnfile2rmap</text>
</g>
<!-- Node2 -->
<g id="node3" class="node"><title>Node2</title>
<a xlink:href="namespacef3dex__transforms.html#a3e792eb35f030b601d9262ac031cfdb9" target="_top" xlink:title="f3dex_transforms::almn2rmap">
<polygon fill="white" stroke="black" points="116.602,-165 116.602,-185 265.398,-185 265.398,-165 116.602,-165"/>
<text text-anchor="middle" x="191" y="-172" font-family="Helvetica,sans-Serif" font-size="10.00">f3dex_transforms::almn2rmap</text>
</a>
</g>
<!-- Node1&#45;&gt;Node2 -->
<g id="edge2" class="edge"><title>Node1&#45;&gt;Node2</title>
<path fill="none" stroke="midnightblue" d="M58.0922,-97.0947C84.0007,-112.396 133.413,-141.579 163.856,-159.559"/>
<polygon fill="midnightblue" stroke="midnightblue" points="162.258,-162.68 172.648,-164.752 165.818,-156.653 162.258,-162.68"/>
</g>
<!-- Node5 -->
<g id="node9" class="node"><title>Node5</title>
<a xlink:href="namespacef3dex__fitstools.html#a106cd0d1eb3bcd38d2c43228f499f57b" target="_top" xlink:title="Extracts almn&#39;s from fits file.">
<polygon fill="white" stroke="black" points="128.266,-97 128.266,-117 253.734,-117 253.734,-97 128.266,-97"/>
<text text-anchor="middle" x="191" y="-104" font-family="Helvetica,sans-Serif" font-size="10.00">f3dex_fitstools::fits2almn</text>
</a>
</g>
<!-- Node1&#45;&gt;Node5 -->
<g id="edge8" class="edge"><title>Node1&#45;&gt;Node5</title>
<path fill="none" stroke="midnightblue" d="M79.759,-92.2026C91.5088,-93.7797 104.813,-95.5655 118.012,-97.3372"/>
<polygon fill="midnightblue" stroke="midnightblue" points="117.68,-100.824 128.057,-98.6855 118.612,-93.8862 117.68,-100.824"/>
</g>
<!-- Node9 -->
<g id="node17" class="node"><title>Node9</title>
<a xlink:href="namespacef3dex__transforms.html#aa6cd797c56b97503bf2d52131f6e5554" target="_top" xlink:title="Computes series of normalization coefficients.">
<polygon fill="white" stroke="black" points="124.096,-48 124.096,-68 257.904,-68 257.904,-48 124.096,-48"/>
<text text-anchor="middle" x="191" y="-55" font-family="Helvetica,sans-Serif" font-size="10.00">f3dex_transforms::gen_cln</text>
</a>
</g>
<!-- Node1&#45;&gt;Node9 -->
<g id="edge16" class="edge"><title>Node1&#45;&gt;Node9</title>
<path fill="none" stroke="midnightblue" d="M79.759,-79.4563C94.6116,-76.5655 111.948,-73.1914 128.416,-69.9862"/>
<polygon fill="midnightblue" stroke="midnightblue" points="129.38,-73.3643 138.527,-68.0182 128.043,-66.4932 129.38,-73.3643"/>
</g>
<!-- Node11 -->
<g id="node22" class="node"><title>Node11</title>
<a xlink:href="namespacef3dex__utils.html#ac5aa172010ec6cd9bd4c5273904b0405" target="_top" xlink:title="Measures system time.">
<polygon fill="white" stroke="black" points="143.273,-9 143.273,-29 238.727,-29 238.727,-9 143.273,-9"/>
<text text-anchor="middle" x="191" y="-16" font-family="Helvetica,sans-Serif" font-size="10.00">f3dex_utils::wtime</text>
</a>
</g>
<!-- Node1&#45;&gt;Node11 -->
<g id="edge22" class="edge"><title>Node1&#45;&gt;Node11</title>
<path fill="none" stroke="midnightblue" d="M53.5308,-76.9497C67.852,-65.9229 92.3731,-48.4104 116,-38 121.443,-35.6017 127.25,-33.4606 133.126,-31.5602"/>
<polygon fill="midnightblue" stroke="midnightblue" points="134.458,-34.8147 143.029,-28.5863 132.444,-28.1105 134.458,-34.8147"/>
</g>
<!-- Node3 -->
<g id="node5" class="node"><title>Node3</title>
<a xlink:href="namespacef3dex__transforms.html#ad1ab102a8307876c7af8bd6868ea7ef2" target="_top" xlink:title="Computes series of jl(kln r)">
<polygon fill="white" stroke="black" points="319.486,-195 319.486,-215 450.514,-215 450.514,-195 319.486,-195"/>
<text text-anchor="middle" x="385" y="-202" font-family="Helvetica,sans-Serif" font-size="10.00">f3dex_transforms::gen_jln</text>
</a>
</g>
<!-- Node2&#45;&gt;Node3 -->
<g id="edge4" class="edge"><title>Node2&#45;&gt;Node3</title>
<path fill="none" stroke="midnightblue" d="M256.2,-185.031C273.333,-187.708 291.988,-190.623 309.618,-193.378"/>
<polygon fill="midnightblue" stroke="midnightblue" points="309.44,-196.892 319.86,-194.978 310.521,-189.976 309.44,-196.892"/>
</g>
<!-- Node4 -->
<g id="node7" class="node"><title>Node4</title>
<a xlink:href="namespacef3dex__transforms.html#a9b68481c890d75c3e3f4cbd4a7109830" target="_top" xlink:title="Compute the value of the l&#45;th order spherical bessel FUNCTION at x.">
<polygon fill="white" stroke="black" points="503.988,-117 503.988,-137 620.012,-137 620.012,-117 503.988,-117"/>
<text text-anchor="middle" x="562" y="-124" font-family="Helvetica,sans-Serif" font-size="10.00">f3dex_transforms::BJL</text>
</a>
</g>
<!-- Node3&#45;&gt;Node4 -->
<g id="edge6" class="edge"><title>Node3&#45;&gt;Node4</title>
<path fill="none" stroke="midnightblue" d="M437.988,-194.971C448.131,-192.278 458.546,-188.98 468,-185 494.225,-173.961 521.543,-156.029 539.73,-143.023"/>
<polygon fill="midnightblue" stroke="midnightblue" points="541.858,-145.803 547.88,-137.086 537.737,-140.146 541.858,-145.803"/>
</g>
<!-- Node6 -->
<g id="node11" class="node"><title>Node6</title>
<a xlink:href="namespacef3dex__fitstools.html#ada7b447f4ace46eabf663495c3a8c8c2" target="_top" xlink:title="f3dex_fitstools::f90ftgcvd">
<polygon fill="white" stroke="black" points="321.981,-156 321.981,-176 448.019,-176 448.019,-156 321.981,-156"/>
<text text-anchor="middle" x="385" y="-163" font-family="Helvetica,sans-Serif" font-size="10.00">f3dex_fitstools::f90ftgcvd</text>
</a>
</g>
<!-- Node5&#45;&gt;Node6 -->
<g id="edge10" class="edge"><title>Node5&#45;&gt;Node6</title>
<path fill="none" stroke="midnightblue" d="M217.98,-117.052C240.116,-125.414 272.876,-137.31 302,-146 310.765,-148.615 320.131,-151.144 329.284,-153.474"/>
<polygon fill="midnightblue" stroke="midnightblue" points="328.544,-156.896 339.093,-155.918 330.236,-150.104 328.544,-156.896"/>
</g>
<!-- Node7 -->
<g id="node13" class="node"><title>Node7</title>
<a xlink:href="namespacef3dex__fitstools.html#ab7baecf48bb7833c32bc7be570f947c1" target="_top" xlink:title="f3dex_fitstools::f90ftgkyd">
<polygon fill="white" stroke="black" points="321.981,-117 321.981,-137 448.019,-137 448.019,-117 321.981,-117"/>
<text text-anchor="middle" x="385" y="-124" font-family="Helvetica,sans-Serif" font-size="10.00">f3dex_fitstools::f90ftgkyd</text>
</a>
</g>
<!-- Node5&#45;&gt;Node7 -->
<g id="edge12" class="edge"><title>Node5&#45;&gt;Node7</title>
<path fill="none" stroke="midnightblue" d="M253.807,-113.438C272.299,-115.364 292.738,-117.493 311.833,-119.483"/>
<polygon fill="midnightblue" stroke="midnightblue" points="311.671,-122.985 321.98,-120.54 312.396,-116.022 311.671,-122.985"/>
</g>
<!-- Node8 -->
<g id="node15" class="node"><title>Node8</title>
<a xlink:href="namespacef3dex__fitstools.html#a0d143b6a055e5c50c19b86e75d94c663" target="_top" xlink:title="f3dex_fitstools::get_clean_header">
<polygon fill="white" stroke="black" points="302.25,-78 302.25,-98 467.75,-98 467.75,-78 302.25,-78"/>
<text text-anchor="middle" x="385" y="-85" font-family="Helvetica,sans-Serif" font-size="10.00">f3dex_fitstools::get_clean_header</text>
</a>
</g>
<!-- Node5&#45;&gt;Node8 -->
<g id="edge14" class="edge"><title>Node5&#45;&gt;Node8</title>
<path fill="none" stroke="midnightblue" d="M253.807,-100.884C265.917,-99.6853 278.862,-98.4043 291.718,-97.1321"/>
<polygon fill="midnightblue" stroke="midnightblue" points="292.385,-100.583 301.992,-96.1154 291.696,-93.6173 292.385,-100.583"/>
</g>
<!-- Node9&#45;&gt;Node4 -->
<g id="edge18" class="edge"><title>Node9&#45;&gt;Node4</title>
<path fill="none" stroke="midnightblue" d="M258.023,-50.8609C314.973,-46.9266 398.734,-46.5147 468,-68 496.093,-76.714 524.004,-96.2588 541.808,-110.472"/>
<polygon fill="midnightblue" stroke="midnightblue" points="539.744,-113.306 549.693,-116.95 544.188,-107.897 539.744,-113.306"/>
</g>
<!-- Node10 -->
<g id="node20" class="node"><title>Node10</title>
<a xlink:href="namespacef3dex__utils.html#a92226ca7c662562058c56ba005f6fc36" target="_top" xlink:title="Print preformated messages.">
<polygon fill="white" stroke="black" points="330.043,-0 330.043,-20 439.957,-20 439.957,-0 330.043,-0"/>
<text text-anchor="middle" x="385" y="-7" font-family="Helvetica,sans-Serif" font-size="10.00">f3dex_utils::message</text>
</a>
</g>
<!-- Node9&#45;&gt;Node10 -->
<g id="edge20" class="edge"><title>Node9&#45;&gt;Node10</title>
<path fill="none" stroke="midnightblue" d="M232.249,-47.9376C261.818,-40.5455 302.185,-30.4537 333.852,-22.5369"/>
<polygon fill="midnightblue" stroke="midnightblue" points="334.951,-25.8701 343.803,-20.0491 333.253,-19.0791 334.951,-25.8701"/>
</g>
</g>
</svg>
