<?xml version="1.0" encoding="UTF-8" standalone="no"?>
<!DOCTYPE svg PUBLIC "-//W3C//DTD SVG 1.1//EN"
 "http://www.w3.org/Graphics/SVG/1.1/DTD/svg11.dtd">
<!-- Generated by graphviz version 2.28.0 (20111007.0958)
 -->
<!-- Title: G Pages: 1 -->
<svg width="628pt" height="184pt"
 viewBox="0.00 0.00 628.00 184.00" xmlns="http://www.w3.org/2000/svg" xmlns:xlink="http://www.w3.org/1999/xlink">
<g id="graph1" class="graph" transform="scale(1 1) rotate(0) translate(4 180)">
<title>G</title>
<polygon fill="white" stroke="white" points="-4,5 -4,-180 625,-180 625,5 -4,5"/>
<!-- Node1 -->
<g id="node1" class="node"><title>Node1</title>
<polygon fill="#bfbfbf" stroke="black" points="0.6115,-58 0.6115,-78 79.3885,-78 79.3885,-58 0.6115,-58"/>
<text text-anchor="middle" x="40" y="-65" font-family="Helvetica,sans-Serif" font-size="10.00">almnfile2rmap</text>
</g>
<!-- Node2 -->
<g id="node3" class="node"><title>Node2</title>
<a xlink:href="namespacef3dex__transforms.html#a3e792eb35f030b601d9262ac031cfdb9" target="_top" xlink:title="f3dex_transforms::almn2rmap">
<polygon fill="white" stroke="black" points="116.602,-136 116.602,-156 265.398,-156 265.398,-136 116.602,-136"/>
<text text-anchor="middle" x="191" y="-143" font-family="Helvetica,sans-Serif" font-size="10.00">f3dex_transforms::almn2rmap</text>
</a>
</g>
<!-- Node1&#45;&gt;Node2 -->
<g id="edge2" class="edge"><title>Node1&#45;&gt;Node2</title>
<path fill="none" stroke="midnightblue" d="M60.1741,-78.0375C85.8482,-91.4776 131.605,-115.431 161.37,-131.013"/>
<polygon fill="midnightblue" stroke="midnightblue" points="159.944,-134.216 170.426,-135.753 163.19,-128.015 159.944,-134.216"/>
</g>
<!-- Node5 -->
<g id="node9" class="node"><title>Node5</title>
<a xlink:href="namespacef3dex__fitstools.html#a106cd0d1eb3bcd38d2c43228f499f57b" target="_top" xlink:title="f3dex_fitstools::fits2almn">
<polygon fill="white" stroke="black" points="128.266,-78 128.266,-98 253.734,-98 253.734,-78 128.266,-78"/>
<text text-anchor="middle" x="191" y="-85" font-family="Helvetica,sans-Serif" font-size="10.00">f3dex_fitstools::fits2almn</text>
</a>
</g>
<!-- Node1&#45;&gt;Node5 -->
<g id="edge8" class="edge"><title>Node1&#45;&gt;Node5</title>
<path fill="none" stroke="midnightblue" d="M79.759,-73.2026C91.5088,-74.7797 104.813,-76.5655 118.012,-78.3372"/>
<polygon fill="midnightblue" stroke="midnightblue" points="117.68,-81.824 128.057,-79.6855 118.612,-74.8862 117.68,-81.824"/>
</g>
<!-- Node9 -->
<g id="node17" class="node"><title>Node9</title>
<a xlink:href="namespacef3dex__transforms.html#aa6cd797c56b97503bf2d52131f6e5554" target="_top" xlink:title="f3dex_transforms::gen_cln">
<polygon fill="white" stroke="black" points="124.096,-39 124.096,-59 257.904,-59 257.904,-39 124.096,-39"/>
<text text-anchor="middle" x="191" y="-46" font-family="Helvetica,sans-Serif" font-size="10.00">f3dex_transforms::gen_cln</text>
</a>
</g>
<!-- Node1&#45;&gt;Node9 -->
<g id="edge16" class="edge"><title>Node1&#45;&gt;Node9</title>
<path fill="none" stroke="midnightblue" d="M79.759,-63.0576C90.3353,-61.7089 102.171,-60.1997 114.056,-58.6842"/>
<polygon fill="midnightblue" stroke="midnightblue" points="114.547,-62.15 124.024,-57.4131 113.661,-55.2062 114.547,-62.15"/>
</g>
<!-- Node10 -->
<g id="node20" class="node"><title>Node10</title>
<a xlink:href="namespacef3dex__utils.html#ac5aa172010ec6cd9bd4c5273904b0405" target="_top" xlink:title="f3dex_utils::wtime">
<polygon fill="white" stroke="black" points="143.273,-0 143.273,-20 238.727,-20 238.727,-0 143.273,-0"/>
<text text-anchor="middle" x="191" y="-7" font-family="Helvetica,sans-Serif" font-size="10.00">f3dex_utils::wtime</text>
</a>
</g>
<!-- Node1&#45;&gt;Node10 -->
<g id="edge20" class="edge"><title>Node1&#45;&gt;Node10</title>
<path fill="none" stroke="midnightblue" d="M57.7611,-57.8669C72.6314,-49.2259 95.1653,-36.9715 116,-29 121.853,-26.7604 128.067,-24.7003 134.308,-22.8297"/>
<polygon fill="midnightblue" stroke="midnightblue" points="135.43,-26.1496 144.091,-20.0477 133.515,-19.4165 135.43,-26.1496"/>
</g>
<!-- Node3 -->
<g id="node5" class="node"><title>Node3</title>
<a xlink:href="namespacef3dex__transforms.html#ad1ab102a8307876c7af8bd6868ea7ef2" target="_top" xlink:title="f3dex_transforms::gen_jln">
<polygon fill="white" stroke="black" points="319.486,-156 319.486,-176 450.514,-176 450.514,-156 319.486,-156"/>
<text text-anchor="middle" x="385" y="-163" font-family="Helvetica,sans-Serif" font-size="10.00">f3dex_transforms::gen_jln</text>
</a>
</g>
<!-- Node2&#45;&gt;Node3 -->
<g id="edge4" class="edge"><title>Node2&#45;&gt;Node3</title>
<path fill="none" stroke="midnightblue" d="M265.409,-153.647C279.72,-155.138 294.742,-156.702 309.101,-158.198"/>
<polygon fill="midnightblue" stroke="midnightblue" points="309.111,-161.718 319.42,-159.273 309.836,-154.756 309.111,-161.718"/>
</g>
<!-- Node4 -->
<g id="node7" class="node"><title>Node4</title>
<a xlink:href="namespacef3dex__transforms.html#a9b68481c890d75c3e3f4cbd4a7109830" target="_top" xlink:title="Compute the value of the l&#45;th order spherical bessel FUNCTION at x.">
<polygon fill="white" stroke="black" points="503.988,-78 503.988,-98 620.012,-98 620.012,-78 503.988,-78"/>
<text text-anchor="middle" x="562" y="-85" font-family="Helvetica,sans-Serif" font-size="10.00">f3dex_transforms::BJL</text>
</a>
</g>
<!-- Node3&#45;&gt;Node4 -->
<g id="edge6" class="edge"><title>Node3&#45;&gt;Node4</title>
<path fill="none" stroke="midnightblue" d="M437.988,-155.971C448.131,-153.278 458.546,-149.98 468,-146 494.225,-134.961 521.543,-117.029 539.73,-104.023"/>
<polygon fill="midnightblue" stroke="midnightblue" points="541.858,-106.803 547.88,-98.0863 537.737,-101.146 541.858,-106.803"/>
</g>
<!-- Node6 -->
<g id="node11" class="node"><title>Node6</title>
<a xlink:href="namespacef3dex__fitstools.html#ada7b447f4ace46eabf663495c3a8c8c2" target="_top" xlink:title="f3dex_fitstools::f90ftgcvd">
<polygon fill="white" stroke="black" points="321.981,-117 321.981,-137 448.019,-137 448.019,-117 321.981,-117"/>
<text text-anchor="middle" x="385" y="-124" font-family="Helvetica,sans-Serif" font-size="10.00">f3dex_fitstools::f90ftgcvd</text>
</a>
</g>
<!-- Node5&#45;&gt;Node6 -->
<g id="edge10" class="edge"><title>Node5&#45;&gt;Node6</title>
<path fill="none" stroke="midnightblue" d="M241.445,-98.0435C266.864,-103.207 298.028,-109.537 324.729,-114.961"/>
<polygon fill="midnightblue" stroke="midnightblue" points="324.226,-118.43 334.723,-116.991 325.62,-111.57 324.226,-118.43"/>
</g>
<!-- Node7 -->
<g id="node13" class="node"><title>Node7</title>
<a xlink:href="namespacef3dex__fitstools.html#ab7baecf48bb7833c32bc7be570f947c1" target="_top" xlink:title="f3dex_fitstools::f90ftgkyd">
<polygon fill="white" stroke="black" points="321.981,-78 321.981,-98 448.019,-98 448.019,-78 321.981,-78"/>
<text text-anchor="middle" x="385" y="-85" font-family="Helvetica,sans-Serif" font-size="10.00">f3dex_fitstools::f90ftgkyd</text>
</a>
</g>
<!-- Node5&#45;&gt;Node7 -->
<g id="edge12" class="edge"><title>Node5&#45;&gt;Node7</title>
<path fill="none" stroke="midnightblue" d="M253.807,-88C272.299,-88 292.738,-88 311.833,-88"/>
<polygon fill="midnightblue" stroke="midnightblue" points="311.98,-91.5001 321.98,-88 311.98,-84.5001 311.98,-91.5001"/>
</g>
<!-- Node8 -->
<g id="node15" class="node"><title>Node8</title>
<a xlink:href="namespacef3dex__fitstools.html#a0d143b6a055e5c50c19b86e75d94c663" target="_top" xlink:title="f3dex_fitstools::get_clean_header">
<polygon fill="white" stroke="black" points="302.25,-39 302.25,-59 467.75,-59 467.75,-39 302.25,-39"/>
<text text-anchor="middle" x="385" y="-46" font-family="Helvetica,sans-Serif" font-size="10.00">f3dex_fitstools::get_clean_header</text>
</a>
</g>
<!-- Node5&#45;&gt;Node8 -->
<g id="edge14" class="edge"><title>Node5&#45;&gt;Node8</title>
<path fill="none" stroke="midnightblue" d="M241.445,-77.9565C266.864,-72.7933 298.028,-66.463 324.729,-61.0394"/>
<polygon fill="midnightblue" stroke="midnightblue" points="325.62,-64.4301 334.723,-59.0094 324.226,-57.5702 325.62,-64.4301"/>
</g>
<!-- Node9&#45;&gt;Node4 -->
<g id="edge18" class="edge"><title>Node9&#45;&gt;Node4</title>
<path fill="none" stroke="midnightblue" d="M226.368,-38.9532C279.385,-25.1218 383.802,-4.54516 468,-29 496.246,-37.2039 524.126,-56.8517 541.881,-71.228"/>
<polygon fill="midnightblue" stroke="midnightblue" points="539.821,-74.0677 549.741,-77.7888 544.307,-68.6938 539.821,-74.0677"/>
</g>
</g>
</svg>
