<?xml version="1.0" encoding="UTF-8" standalone="no"?>
<!DOCTYPE svg PUBLIC "-//W3C//DTD SVG 1.1//EN"
 "http://www.w3.org/Graphics/SVG/1.1/DTD/svg11.dtd">
<!-- Generated by graphviz version 2.28.0 (20111007.0958)
 -->
<!-- Title: G Pages: 1 -->
<svg width="521pt" height="88pt"
 viewBox="0.00 0.00 521.00 88.00" xmlns="http://www.w3.org/2000/svg" xmlns:xlink="http://www.w3.org/1999/xlink">
<g id="graph1" class="graph" transform="scale(1 1) rotate(0) translate(4 84)">
<title>G</title>
<polygon fill="white" stroke="white" points="-4,5 -4,-84 518,-84 518,5 -4,5"/>
<!-- Node1 -->
<g id="node1" class="node"><title>Node1</title>
<polygon fill="#bfbfbf" stroke="black" points="124.374,-59 124.374,-79 377.626,-79 377.626,-59 124.374,-59"/>
<text text-anchor="middle" x="251" y="-66" font-family="Helvetica,sans-Serif" font-size="10.00">/Users/bl/Dropbox/3DEX/src/cxx/almn_survey_tools.h</text>
</g>
<!-- Node2 -->
<g id="node3" class="node"><title>Node2</title>
<a xlink:href="survey2almn_8cpp.html" target="_top" xlink:title="/Users/bl/Dropbox/3DEX/src/cxx/survey2almn.cpp">
<polygon fill="white" stroke="black" points="-0.568,-1 -0.568,-21 236.568,-21 236.568,-1 -0.568,-1"/>
<text text-anchor="middle" x="118" y="-8" font-family="Helvetica,sans-Serif" font-size="10.00">/Users/bl/Dropbox/3DEX/src/cxx/survey2almn.cpp</text>
</a>
</g>
<!-- Node1&#45;&gt;Node2 -->
<g id="edge2" class="edge"><title>Node1&#45;&gt;Node2</title>
<path fill="none" stroke="midnightblue" d="M220.052,-54.9693C195.389,-44.585 161.486,-30.3099 139.655,-21.1181"/>
<polygon fill="midnightblue" stroke="midnightblue" points="218.761,-58.2231 229.335,-58.878 221.477,-51.7716 218.761,-58.2231"/>
</g>
<!-- Node3 -->
<g id="node5" class="node"><title>Node3</title>
<a xlink:href="survey2almn__mpi_8cpp.html" target="_top" xlink:title="/Users/bl/Dropbox/3DEX/src/cxx/survey2almn_mpi.cpp">
<polygon fill="white" stroke="black" points="254.599,-1 254.599,-21 513.401,-21 513.401,-1 254.599,-1"/>
<text text-anchor="middle" x="384" y="-8" font-family="Helvetica,sans-Serif" font-size="10.00">/Users/bl/Dropbox/3DEX/src/cxx/survey2almn_mpi.cpp</text>
</a>
</g>
<!-- Node1&#45;&gt;Node3 -->
<g id="edge4" class="edge"><title>Node1&#45;&gt;Node3</title>
<path fill="none" stroke="midnightblue" d="M281.948,-54.9693C306.611,-44.585 340.514,-30.3099 362.345,-21.1181"/>
<polygon fill="midnightblue" stroke="midnightblue" points="280.523,-51.7716 272.665,-58.878 283.239,-58.2231 280.523,-51.7716"/>
</g>
</g>
</svg>
