<?xml version="1.0" encoding="UTF-8" standalone="no"?>
<!DOCTYPE svg PUBLIC "-//W3C//DTD SVG 1.1//EN"
 "http://www.w3.org/Graphics/SVG/1.1/DTD/svg11.dtd">
<!-- Generated by graphviz version 2.28.0 (20111007.0958)
 -->
<!-- Title: G Pages: 1 -->
<svg width="482pt" height="184pt"
 viewBox="0.00 0.00 482.00 184.00" xmlns="http://www.w3.org/2000/svg" xmlns:xlink="http://www.w3.org/1999/xlink">
<g id="graph1" class="graph" transform="scale(1 1) rotate(0) translate(4 180)">
<title>G</title>
<polygon fill="white" stroke="white" points="-4,5 -4,-180 479,-180 479,5 -4,5"/>
<!-- Node1 -->
<g id="node1" class="node"><title>Node1</title>
<polygon fill="#bfbfbf" stroke="black" points="0.6115,-58 0.6115,-78 79.3885,-78 79.3885,-58 0.6115,-58"/>
<text text-anchor="middle" x="40" y="-65" font-family="Helvetica,sans-Serif" font-size="10.00">almnfile2rmap</text>
</g>
<!-- Node2 -->
<g id="node3" class="node"><title>Node2</title>
<a xlink:href="namespacef3dex.html#ae2e71647b18208d49ce5ebc6dcc3dbea" target="_top" xlink:title="f3dex::almn2rmap">
<polygon fill="white" stroke="black" points="115.992,-136 115.992,-156 212.007,-156 212.007,-136 115.992,-136"/>
<text text-anchor="middle" x="164" y="-143" font-family="Helvetica,sans-Serif" font-size="10.00">f3dex::almn2rmap</text>
</a>
</g>
<!-- Node1&#45;&gt;Node2 -->
<g id="edge2" class="edge"><title>Node1&#45;&gt;Node2</title>
<path fill="none" stroke="midnightblue" d="M56.9494,-78.1971C77.6819,-91.4524 114.102,-114.737 138.39,-130.266"/>
<polygon fill="midnightblue" stroke="midnightblue" points="136.736,-133.363 147.047,-135.8 140.507,-127.465 136.736,-133.363"/>
</g>
<!-- Node5 -->
<g id="node9" class="node"><title>Node5</title>
<a xlink:href="namespacef3dex.html#a6630d20765692f55b9c5389e877e35ae" target="_top" xlink:title="f3dex::fits2almn">
<polygon fill="white" stroke="black" points="120.992,-78 120.992,-98 207.008,-98 207.008,-78 120.992,-78"/>
<text text-anchor="middle" x="164" y="-85" font-family="Helvetica,sans-Serif" font-size="10.00">f3dex::fits2almn</text>
</a>
</g>
<!-- Node1&#45;&gt;Node5 -->
<g id="edge8" class="edge"><title>Node1&#45;&gt;Node5</title>
<path fill="none" stroke="midnightblue" d="M79.6016,-74.3281C89.5472,-75.9586 100.415,-77.7402 110.922,-79.4627"/>
<polygon fill="midnightblue" stroke="midnightblue" points="110.409,-82.9252 120.844,-81.0891 111.542,-76.0174 110.409,-82.9252"/>
</g>
<!-- Node9 -->
<g id="node17" class="node"><title>Node9</title>
<a xlink:href="namespacef3dex.html#adcf1cf51ac34f733e7a776a7df065524" target="_top" xlink:title="f3dex::gen_cln">
<polygon fill="white" stroke="black" points="123.486,-39 123.486,-59 204.514,-59 204.514,-39 123.486,-39"/>
<text text-anchor="middle" x="164" y="-46" font-family="Helvetica,sans-Serif" font-size="10.00">f3dex::gen_cln</text>
</a>
</g>
<!-- Node1&#45;&gt;Node9 -->
<g id="edge16" class="edge"><title>Node1&#45;&gt;Node9</title>
<path fill="none" stroke="midnightblue" d="M79.6016,-61.9883C90.2911,-60.3235 102.046,-58.4928 113.273,-56.7443"/>
<polygon fill="midnightblue" stroke="midnightblue" points="114.048,-60.166 123.39,-55.1688 112.971,-53.2494 114.048,-60.166"/>
</g>
<!-- Node10 -->
<g id="node20" class="node"><title>Node10</title>
<a xlink:href="namespacef3dex.html#ac014e878f644407cfc3eb1af25137d44" target="_top" xlink:title="f3dex::wtime">
<polygon fill="white" stroke="black" points="127.941,-0 127.941,-20 200.06,-20 200.06,-0 127.941,-0"/>
<text text-anchor="middle" x="164" y="-7" font-family="Helvetica,sans-Serif" font-size="10.00">f3dex::wtime</text>
</a>
</g>
<!-- Node1&#45;&gt;Node10 -->
<g id="edge20" class="edge"><title>Node1&#45;&gt;Node10</title>
<path fill="none" stroke="midnightblue" d="M59.2498,-57.8872C74.2886,-49.7055 96.2735,-38.0911 116,-29 119.672,-27.3078 123.539,-25.6111 127.414,-23.966"/>
<polygon fill="midnightblue" stroke="midnightblue" points="129.053,-27.0754 136.953,-20.015 126.375,-20.6082 129.053,-27.0754"/>
</g>
<!-- Node3 -->
<g id="node5" class="node"><title>Node3</title>
<a xlink:href="namespacef3dex.html#ad15a4c29088690f9ee5b97799abfc4a5" target="_top" xlink:title="f3dex::gen_jln">
<polygon fill="white" stroke="black" points="271.877,-156 271.877,-176 350.123,-176 350.123,-156 271.877,-156"/>
<text text-anchor="middle" x="311" y="-163" font-family="Helvetica,sans-Serif" font-size="10.00">f3dex::gen_jln</text>
</a>
</g>
<!-- Node2&#45;&gt;Node3 -->
<g id="edge4" class="edge"><title>Node2&#45;&gt;Node3</title>
<path fill="none" stroke="midnightblue" d="M212.077,-152.493C227.951,-154.683 245.685,-157.129 261.655,-159.332"/>
<polygon fill="midnightblue" stroke="midnightblue" points="261.473,-162.84 271.857,-160.739 262.429,-155.905 261.473,-162.84"/>
</g>
<!-- Node4 -->
<g id="node7" class="node"><title>Node4</title>
<a xlink:href="namespacef3dex.html#ae7f16ddea56702ffd83912c6def516d4" target="_top" xlink:title="Compute the value of the l&#45;th order spherical bessel function at x.">
<polygon fill="white" stroke="black" points="410.379,-78 410.379,-98 473.621,-98 473.621,-78 410.379,-78"/>
<text text-anchor="middle" x="442" y="-85" font-family="Helvetica,sans-Serif" font-size="10.00">f3dex::BJL</text>
</a>
</g>
<!-- Node3&#45;&gt;Node4 -->
<g id="edge6" class="edge"><title>Node3&#45;&gt;Node4</title>
<path fill="none" stroke="midnightblue" d="M350.395,-156.273C358.45,-153.509 366.707,-150.106 374,-146 393.095,-135.249 411.683,-118.506 424.417,-105.767"/>
<polygon fill="midnightblue" stroke="midnightblue" points="427.078,-108.051 431.541,-98.4426 422.06,-103.171 427.078,-108.051"/>
</g>
<!-- Node6 -->
<g id="node11" class="node"><title>Node6</title>
<a xlink:href="namespacef3dex.html#a8bb386e1b869c35df30978b7e634b234" target="_top" xlink:title="f3dex::f90ftgcvd">
<polygon fill="white" stroke="black" points="267.707,-117 267.707,-137 354.293,-137 354.293,-117 267.707,-117"/>
<text text-anchor="middle" x="311" y="-124" font-family="Helvetica,sans-Serif" font-size="10.00">f3dex::f90ftgcvd</text>
</a>
</g>
<!-- Node5&#45;&gt;Node6 -->
<g id="edge10" class="edge"><title>Node5&#45;&gt;Node6</title>
<path fill="none" stroke="midnightblue" d="M202.341,-98.0435C220.861,-103.025 243.42,-109.092 263.094,-114.384"/>
<polygon fill="midnightblue" stroke="midnightblue" points="262.22,-117.773 272.785,-116.991 264.038,-111.013 262.22,-117.773"/>
</g>
<!-- Node7 -->
<g id="node13" class="node"><title>Node7</title>
<a xlink:href="namespacef3dex.html#abb1777616669f320b1792a0e8aba490a" target="_top" xlink:title="f3dex::f90ftgkyd">
<polygon fill="white" stroke="black" points="267.707,-78 267.707,-98 354.293,-98 354.293,-78 267.707,-78"/>
<text text-anchor="middle" x="311" y="-85" font-family="Helvetica,sans-Serif" font-size="10.00">f3dex::f90ftgkyd</text>
</a>
</g>
<!-- Node5&#45;&gt;Node7 -->
<g id="edge12" class="edge"><title>Node5&#45;&gt;Node7</title>
<path fill="none" stroke="midnightblue" d="M207.33,-88C223.044,-88 241.059,-88 257.567,-88"/>
<polygon fill="midnightblue" stroke="midnightblue" points="257.618,-91.5001 267.618,-88 257.618,-84.5001 257.618,-91.5001"/>
</g>
<!-- Node8 -->
<g id="node15" class="node"><title>Node8</title>
<a xlink:href="namespacef3dex.html#a11254efdbb3dec3e0a04346a3b4420b7" target="_top" xlink:title="f3dex::get_clean_header">
<polygon fill="white" stroke="black" points="247.976,-39 247.976,-59 374.024,-59 374.024,-39 247.976,-39"/>
<text text-anchor="middle" x="311" y="-46" font-family="Helvetica,sans-Serif" font-size="10.00">f3dex::get_clean_header</text>
</a>
</g>
<!-- Node5&#45;&gt;Node8 -->
<g id="edge14" class="edge"><title>Node5&#45;&gt;Node8</title>
<path fill="none" stroke="midnightblue" d="M202.341,-77.9565C220.861,-72.9753 243.42,-66.9077 263.094,-61.6161"/>
<polygon fill="midnightblue" stroke="midnightblue" points="264.038,-64.9867 272.785,-59.0094 262.22,-58.227 264.038,-64.9867"/>
</g>
<!-- Node9&#45;&gt;Node4 -->
<g id="edge18" class="edge"><title>Node9&#45;&gt;Node4</title>
<path fill="none" stroke="midnightblue" d="M192.073,-38.9675C232.92,-25.4527 312.107,-5.63274 374,-29 395.576,-37.1457 414.705,-55.7546 426.943,-69.9116"/>
<polygon fill="midnightblue" stroke="midnightblue" points="424.248,-72.1448 433.319,-77.6198 429.642,-67.6833 424.248,-72.1448"/>
</g>
</g>
</svg>
