<?xml version="1.0" encoding="UTF-8" standalone="no"?>
<!DOCTYPE svg PUBLIC "-//W3C//DTD SVG 1.1//EN"
 "http://www.w3.org/Graphics/SVG/1.1/DTD/svg11.dtd">
<!-- Generated by graphviz version 2.28.0 (20111007.0958)
 -->
<!-- Title: G Pages: 1 -->
<svg width="398pt" height="88pt"
 viewBox="0.00 0.00 398.00 88.00" xmlns="http://www.w3.org/2000/svg" xmlns:xlink="http://www.w3.org/1999/xlink">
<g id="graph1" class="graph" transform="scale(1 1) rotate(0) translate(4 84)">
<title>G</title>
<polygon fill="white" stroke="white" points="-4,5 -4,-84 395,-84 395,5 -4,5"/>
<!-- Node1 -->
<g id="node1" class="node"><title>Node1</title>
<polygon fill="#bfbfbf" stroke="black" points="0.38,-21 0.38,-41 73.62,-41 73.62,-21 0.38,-21"/>
<text text-anchor="middle" x="37" y="-28" font-family="Helvetica,sans-Serif" font-size="10.00">compute_qln</text>
</g>
<!-- Node2 -->
<g id="node3" class="node"><title>Node2</title>
<a xlink:href="namespacef3dex__fitstools.html#ae6aed20f64a46bb7d9d33b1c56f89cd0" target="_top" xlink:title="Write bi&#45;tab to file.">
<polygon fill="white" stroke="black" points="114.262,-60 114.262,-80 239.738,-80 239.738,-60 114.262,-60"/>
<text text-anchor="middle" x="177" y="-67" font-family="Helvetica,sans-Serif" font-size="10.00">f3dex_fitstools::bitab2fits</text>
</a>
</g>
<!-- Node1&#45;&gt;Node2 -->
<g id="edge2" class="edge"><title>Node1&#45;&gt;Node2</title>
<path fill="none" stroke="midnightblue" d="M73.5384,-41.0435C91.0035,-45.9792 112.242,-51.9816 130.845,-57.2388"/>
<polygon fill="midnightblue" stroke="midnightblue" points="130.007,-60.639 140.582,-59.9906 131.911,-53.9028 130.007,-60.639"/>
</g>
<!-- Node3 -->
<g id="node5" class="node"><title>Node3</title>
<a xlink:href="namespacef3dex__transforms.html#a02b926f933d186f2c9d9ab6d478a1601" target="_top" xlink:title="Computes series of roots of Bessel functions.">
<polygon fill="white" stroke="black" points="109.816,-21 109.816,-41 244.184,-41 244.184,-21 109.816,-21"/>
<text text-anchor="middle" x="177" y="-28" font-family="Helvetica,sans-Serif" font-size="10.00">f3dex_transforms::gen_qln</text>
</a>
</g>
<!-- Node1&#45;&gt;Node3 -->
<g id="edge4" class="edge"><title>Node1&#45;&gt;Node3</title>
<path fill="none" stroke="midnightblue" d="M73.8976,-31C81.9049,-31 90.6917,-31 99.6455,-31"/>
<polygon fill="midnightblue" stroke="midnightblue" points="99.7931,-34.5001 109.793,-31 99.793,-27.5001 99.7931,-34.5001"/>
</g>
<!-- Node4 -->
<g id="node7" class="node"><title>Node4</title>
<a xlink:href="namespacef3dex__utils.html#a92226ca7c662562058c56ba005f6fc36" target="_top" xlink:title="Print preformated messages.">
<polygon fill="white" stroke="black" points="280.043,-1 280.043,-21 389.957,-21 389.957,-1 280.043,-1"/>
<text text-anchor="middle" x="335" y="-8" font-family="Helvetica,sans-Serif" font-size="10.00">f3dex_utils::message</text>
</a>
</g>
<!-- Node1&#45;&gt;Node4 -->
<g id="edge8" class="edge"><title>Node1&#45;&gt;Node4</title>
<path fill="none" stroke="midnightblue" d="M69.197,-20.9219C81.735,-17.359 96.4143,-13.7932 110,-12 163.474,-4.94171 224.756,-5.23801 269.689,-6.99152"/>
<polygon fill="midnightblue" stroke="midnightblue" points="269.74,-10.4968 279.88,-7.42503 270.038,-3.50311 269.74,-10.4968"/>
</g>
<!-- Node3&#45;&gt;Node4 -->
<g id="edge6" class="edge"><title>Node3&#45;&gt;Node4</title>
<path fill="none" stroke="midnightblue" d="M244.611,-22.4602C252.971,-21.3884 261.509,-20.2937 269.831,-19.2268"/>
<polygon fill="midnightblue" stroke="midnightblue" points="270.374,-22.6859 279.848,-17.9426 269.484,-15.7428 270.374,-22.6859"/>
</g>
</g>
</svg>
