<?xml version="1.0" encoding="UTF-8" standalone="no"?>
<!DOCTYPE svg PUBLIC "-//W3C//DTD SVG 1.1//EN"
 "http://www.w3.org/Graphics/SVG/1.1/DTD/svg11.dtd">
<!-- Generated by graphviz version 2.28.0 (20111102.2313)
 -->
<!-- Title: G Pages: 1 -->
<svg width="284pt" height="106pt"
 viewBox="0.00 0.00 284.00 106.00" xmlns="http://www.w3.org/2000/svg" xmlns:xlink="http://www.w3.org/1999/xlink">
<g id="graph1" class="graph" transform="scale(1 1) rotate(0) translate(4 102)">
<title>G</title>
<polygon fill="white" stroke="white" points="-4,5 -4,-102 281,-102 281,5 -4,5"/>
<!-- Node1 -->
<g id="node1" class="node"><title>Node1</title>
<polygon fill="#bfbfbf" stroke="black" points="0.3265,-39 0.3265,-59 89.6735,-59 89.6735,-39 0.3265,-39"/>
<text text-anchor="middle" x="45" y="-46" font-family="Helvetica,sans-Serif" font-size="10.00">compute_qml_pl</text>
</g>
<!-- Node2 -->
<g id="node3" class="node"><title>Node2</title>
<a xlink:href="namespacef3dex__stats.html#ac34a6421249816395b51048aa0a3dde3" target="_top" xlink:title="Generates &lt;xxt&gt; correlation angles map.">
<polygon fill="white" stroke="black" points="126.307,-78 126.307,-98 275.693,-98 275.693,-78 126.307,-78"/>
<text text-anchor="middle" x="201" y="-85" font-family="Helvetica,sans-Serif" font-size="10.00">f3dex_stats::gen_angles_map</text>
</a>
</g>
<!-- Node1&#45;&gt;Node2 -->
<g id="edge2" class="edge"><title>Node1&#45;&gt;Node2</title>
<path fill="none" stroke="midnightblue" d="M85.6588,-59.0435C105.508,-64.0702 129.725,-70.2032 150.754,-75.5287"/>
<polygon fill="midnightblue" stroke="midnightblue" points="149.922,-78.9284 160.476,-77.9906 151.641,-72.1426 149.922,-78.9284"/>
</g>
<!-- Node3 -->
<g id="node5" class="node"><title>Node3</title>
<a xlink:href="namespacef3dex__utils.html#a92226ca7c662562058c56ba005f6fc36" target="_top" xlink:title="Print preformated messages.">
<polygon fill="white" stroke="black" points="146.043,-39 146.043,-59 255.957,-59 255.957,-39 146.043,-39"/>
<text text-anchor="middle" x="201" y="-46" font-family="Helvetica,sans-Serif" font-size="10.00">f3dex_utils::message</text>
</a>
</g>
<!-- Node1&#45;&gt;Node3 -->
<g id="edge4" class="edge"><title>Node1&#45;&gt;Node3</title>
<path fill="none" stroke="midnightblue" d="M89.7183,-49C104.089,-49 120.374,-49 135.934,-49"/>
<polygon fill="midnightblue" stroke="midnightblue" points="136.027,-52.5001 146.027,-49 136.027,-45.5001 136.027,-52.5001"/>
</g>
<!-- Node4 -->
<g id="node7" class="node"><title>Node4</title>
<a xlink:href="namespacef3dex__fitstools.html#a98c44872e5b5937bef4cccfcc2a21c43" target="_top" xlink:title="Write tri&#45;tab to file.">
<polygon fill="white" stroke="black" points="137.987,-0 137.987,-20 264.013,-20 264.013,-0 137.987,-0"/>
<text text-anchor="middle" x="201" y="-7" font-family="Helvetica,sans-Serif" font-size="10.00">f3dex_fitstools::tritab2fits</text>
</a>
</g>
<!-- Node1&#45;&gt;Node4 -->
<g id="edge6" class="edge"><title>Node1&#45;&gt;Node4</title>
<path fill="none" stroke="midnightblue" d="M85.6588,-38.9565C105.508,-33.9298 129.725,-27.7968 150.754,-22.4713"/>
<polygon fill="midnightblue" stroke="midnightblue" points="151.641,-25.8574 160.476,-20.0094 149.922,-19.0716 151.641,-25.8574"/>
</g>
</g>
</svg>
