<?xml version="1.0" encoding="UTF-8" standalone="no"?>
<!DOCTYPE svg PUBLIC "-//W3C//DTD SVG 1.1//EN"
 "http://www.w3.org/Graphics/SVG/1.1/DTD/svg11.dtd">
<!-- Generated by graphviz version 2.28.0 (20111007.0958)
 -->
<!-- Title: G Pages: 1 -->
<svg width="290pt" height="67pt"
 viewBox="0.00 0.00 290.00 67.00" xmlns="http://www.w3.org/2000/svg" xmlns:xlink="http://www.w3.org/1999/xlink">
<g id="graph1" class="graph" transform="scale(1 1) rotate(0) translate(4 63)">
<title>G</title>
<polygon fill="white" stroke="white" points="-4,5 -4,-63 287,-63 287,5 -4,5"/>
<!-- Node1 -->
<g id="node1" class="node"><title>Node1</title>
<polygon fill="#bfbfbf" stroke="black" points="0.2725,-19 0.2725,-39 45.7275,-39 45.7275,-19 0.2725,-19"/>
<text text-anchor="middle" x="23" y="-26" font-family="Helvetica,sans-Serif" font-size="10.00">hankel</text>
</g>
<!-- Node2 -->
<g id="node3" class="node"><title>Node2</title>
<a xlink:href="namespacef3dex.html#ae7f16ddea56702ffd83912c6def516d4" target="_top" xlink:title="Compute the value of the l&#45;th order spherical bessel function at x.">
<polygon fill="white" stroke="black" points="91.379,-39 91.379,-59 154.621,-59 154.621,-39 91.379,-39"/>
<text text-anchor="middle" x="123" y="-46" font-family="Helvetica,sans-Serif" font-size="10.00">f3dex::BJL</text>
</a>
</g>
<!-- Node1&#45;&gt;Node2 -->
<g id="edge2" class="edge"><title>Node1&#45;&gt;Node2</title>
<path fill="none" stroke="midnightblue" d="M45.7494,-33.4386C56.1463,-35.5605 68.9431,-38.1721 81.0632,-40.6456"/>
<polygon fill="midnightblue" stroke="midnightblue" points="80.5195,-44.1067 91.0174,-42.677 81.9193,-37.248 80.5195,-44.1067"/>
</g>
<!-- Node3 -->
<g id="node5" class="node"><title>Node3</title>
<a xlink:href="namespacef3dex.html#a7aceee3f16c8792cfe12b2d7a53d7acc" target="_top" xlink:title="f3dex::gen_kln">
<polygon fill="white" stroke="black" points="82.486,-0 82.486,-20 163.514,-20 163.514,-0 82.486,-0"/>
<text text-anchor="middle" x="123" y="-7" font-family="Helvetica,sans-Serif" font-size="10.00">f3dex::gen_kln</text>
</a>
</g>
<!-- Node1&#45;&gt;Node3 -->
<g id="edge4" class="edge"><title>Node1&#45;&gt;Node3</title>
<path fill="none" stroke="midnightblue" d="M45.7494,-24.7833C53.6175,-23.2578 62.8602,-21.4659 72.1438,-19.666"/>
<polygon fill="midnightblue" stroke="midnightblue" points="73.0196,-23.0615 82.1706,-17.722 71.6872,-16.1894 73.0196,-23.0615"/>
</g>
<!-- Node4 -->
<g id="node7" class="node"><title>Node4</title>
<a xlink:href="namespacef3dex.html#ac7199c2a98971bf758240066422f4a5e" target="_top" xlink:title="f3dex::gen_qln">
<polygon fill="white" stroke="black" points="200.207,-0 200.207,-20 281.793,-20 281.793,-0 200.207,-0"/>
<text text-anchor="middle" x="241" y="-7" font-family="Helvetica,sans-Serif" font-size="10.00">f3dex::gen_qln</text>
</a>
</g>
<!-- Node3&#45;&gt;Node4 -->
<g id="edge6" class="edge"><title>Node3&#45;&gt;Node4</title>
<path fill="none" stroke="midnightblue" d="M163.596,-10C172.088,-10 181.166,-10 189.993,-10"/>
<polygon fill="midnightblue" stroke="midnightblue" points="190.188,-13.5001 200.188,-10 190.188,-6.5001 190.188,-13.5001"/>
</g>
</g>
</svg>
