<?xml version="1.0" encoding="UTF-8" standalone="no"?>
<!DOCTYPE svg PUBLIC "-//W3C//DTD SVG 1.1//EN"
 "http://www.w3.org/Graphics/SVG/1.1/DTD/svg11.dtd">
<!-- Generated by graphviz version 2.28.0 (20111007.0958)
 -->
<!-- Title: G Pages: 1 -->
<svg width="128pt" height="180pt"
 viewBox="0.00 0.00 128.00 180.00" xmlns="http://www.w3.org/2000/svg" xmlns:xlink="http://www.w3.org/1999/xlink">
<g id="graph1" class="graph" transform="scale(1 1) rotate(0) translate(4 176)">
<title>G</title>
<polygon fill="white" stroke="white" points="-4,5 -4,-176 125,-176 125,5 -4,5"/>
<!-- Node1 -->
<g id="node1" class="node"><title>Node1</title>
<polygon fill="#bfbfbf" stroke="black" points="1.4295,-111 1.4295,-171 118.571,-171 118.571,-111 1.4295,-111"/>
<text text-anchor="middle" x="60" y="-158" font-family="Helvetica,sans-Serif" font-size="10.00">selectionFunction&lt; T &gt;</text>
<polyline fill="none" stroke="black" points="1.4295,-151 118.571,-151 "/>
<text text-anchor="middle" x="60" y="-138" font-family="Helvetica,sans-Serif" font-size="10.00"> </text>
<polyline fill="none" stroke="black" points="1.4295,-131 118.571,-131 "/>
<text text-anchor="start" x="9.4295" y="-118" font-family="Helvetica,sans-Serif" font-size="10.00">+ evaluate()</text>
</g>
<!-- Node2 -->
<g id="node3" class="node"><title>Node2</title>
<a xlink:href="modulegaussian_selection.html" target="_top" xlink:title="{gaussianSelection\&lt; T \&gt;\n|&#45; rho0_\l|+ gaussianSelection()\l+ evaluate()\l}">
<polygon fill="white" stroke="black" points="-0.2405,-1 -0.2405,-73 120.241,-73 120.241,-1 -0.2405,-1"/>
<text text-anchor="middle" x="60" y="-60" font-family="Helvetica,sans-Serif" font-size="10.00">gaussianSelection&lt; T &gt;</text>
<polyline fill="none" stroke="black" points="-0.2405,-53 120.241,-53 "/>
<text text-anchor="start" x="7.7595" y="-40" font-family="Helvetica,sans-Serif" font-size="10.00">&#45; rho0_</text>
<polyline fill="none" stroke="black" points="-0.2405,-33 120.241,-33 "/>
<text text-anchor="start" x="7.7595" y="-20" font-family="Helvetica,sans-Serif" font-size="10.00">+ gaussianSelection()</text>
<text text-anchor="start" x="7.7595" y="-8" font-family="Helvetica,sans-Serif" font-size="10.00">+ evaluate()</text>
</a>
</g>
<!-- Node1&#45;&gt;Node2 -->
<g id="edge2" class="edge"><title>Node1&#45;&gt;Node2</title>
<path fill="none" stroke="midnightblue" d="M60,-100.752C60,-91.6193 60,-81.9544 60,-73.0179"/>
<polygon fill="none" stroke="midnightblue" points="56.5001,-100.771 60,-110.771 63.5001,-100.771 56.5001,-100.771"/>
</g>
</g>
</svg>
