<?xml version="1.0" encoding="UTF-8" standalone="no"?>
<!DOCTYPE svg PUBLIC "-//W3C//DTD SVG 1.1//EN"
 "http://www.w3.org/Graphics/SVG/1.1/DTD/svg11.dtd">
<!-- Generated by graphviz version 2.28.0 (20111102.2313)
 -->
<!-- Title: G Pages: 1 -->
<svg width="328pt" height="67pt"
 viewBox="0.00 0.00 328.00 67.00" xmlns="http://www.w3.org/2000/svg" xmlns:xlink="http://www.w3.org/1999/xlink">
<g id="graph1" class="graph" transform="scale(1 1) rotate(0) translate(4 63)">
<title>G</title>
<polygon fill="white" stroke="white" points="-4,5 -4,-63 325,-63 325,5 -4,5"/>
<!-- Node1 -->
<g id="node1" class="node"><title>Node1</title>
<polygon fill="#bfbfbf" stroke="black" points="0.142,-19 0.142,-39 147.858,-39 147.858,-19 0.142,-19"/>
<text text-anchor="middle" x="74" y="-26" font-family="Helvetica,sans-Serif" font-size="10.00">f3dex_utests::utest_traceprod</text>
</g>
<!-- Node2 -->
<g id="node3" class="node"><title>Node2</title>
<a xlink:href="namespacef3dex__utils.html#ad4cb6613ee589637f453ef808466a0f9" target="_top" xlink:title="Assert if two doubles are equal.">
<polygon fill="white" stroke="black" points="193.989,-39 193.989,-59 310.011,-59 310.011,-39 193.989,-39"/>
<text text-anchor="middle" x="252" y="-46" font-family="Helvetica,sans-Serif" font-size="10.00">f3dex_utils::assert_DP</text>
</a>
</g>
<!-- Node1&#45;&gt;Node2 -->
<g id="edge2" class="edge"><title>Node1&#45;&gt;Node2</title>
<path fill="none" stroke="midnightblue" d="M148.111,-37.308C159.944,-38.6528 172.148,-40.0396 183.832,-41.3673"/>
<polygon fill="midnightblue" stroke="midnightblue" points="183.612,-44.8647 193.943,-42.5163 184.402,-37.9095 183.612,-44.8647"/>
</g>
<!-- Node3 -->
<g id="node5" class="node"><title>Node3</title>
<a xlink:href="namespacef3dex__stats.html#ae106140bb309de7d7779b6b086050bf4" target="_top" xlink:title="TRACE of a product of matrices.">
<polygon fill="white" stroke="black" points="184.269,-0 184.269,-20 319.731,-20 319.731,-0 184.269,-0"/>
<text text-anchor="middle" x="252" y="-7" font-family="Helvetica,sans-Serif" font-size="10.00">f3dex_stats::TRACEPROD</text>
</a>
</g>
<!-- Node1&#45;&gt;Node3 -->
<g id="edge4" class="edge"><title>Node1&#45;&gt;Node3</title>
<path fill="none" stroke="midnightblue" d="M148.111,-21.1074C156.664,-20.184 165.41,-19.2398 174.014,-18.311"/>
<polygon fill="midnightblue" stroke="midnightblue" points="174.462,-21.7831 184.029,-17.2299 173.711,-14.8235 174.462,-21.7831"/>
</g>
</g>
</svg>
