<?xml version="1.0" encoding="UTF-8" standalone="no"?>
<!DOCTYPE svg PUBLIC "-//W3C//DTD SVG 1.1//EN"
 "http://www.w3.org/Graphics/SVG/1.1/DTD/svg11.dtd">
<!-- Generated by graphviz version 2.28.0 (20111102.2313)
 -->
<!-- Title: G Pages: 1 -->
<svg width="568pt" height="106pt"
 viewBox="0.00 0.00 568.00 106.00" xmlns="http://www.w3.org/2000/svg" xmlns:xlink="http://www.w3.org/1999/xlink">
<g id="graph1" class="graph" transform="scale(1 1) rotate(0) translate(4 102)">
<title>G</title>
<polygon fill="white" stroke="white" points="-4,5 -4,-102 565,-102 565,5 -4,5"/>
<!-- Node1 -->
<g id="node1" class="node"><title>Node1</title>
<polygon fill="#bfbfbf" stroke="black" points="-0.198,-39 -0.198,-59 204.198,-59 204.198,-39 -0.198,-39"/>
<text text-anchor="middle" x="102" y="-46" font-family="Helvetica,sans-Serif" font-size="10.00">f3dex_utests::utest_legendre_angmatrices</text>
</g>
<!-- Node2 -->
<g id="node3" class="node"><title>Node2</title>
<a xlink:href="namespacef3dex__utils.html#a234414d8daaf5e3bfd03754331b467ed" target="_top" xlink:title="Assert if two arrays are equal.">
<polygon fill="white" stroke="black" points="246.436,-78 246.436,-98 383.564,-98 383.564,-78 246.436,-78"/>
<text text-anchor="middle" x="315" y="-85" font-family="Helvetica,sans-Serif" font-size="10.00">f3dex_utils::assert_DPARR</text>
</a>
</g>
<!-- Node1&#45;&gt;Node2 -->
<g id="edge2" class="edge"><title>Node1&#45;&gt;Node2</title>
<path fill="none" stroke="midnightblue" d="M157.338,-59.0435C185.518,-64.2522 220.125,-70.6487 249.638,-76.1038"/>
<polygon fill="midnightblue" stroke="midnightblue" points="249.377,-79.6146 259.846,-77.9906 250.649,-72.7312 249.377,-79.6146"/>
</g>
<!-- Node4 -->
<g id="node7" class="node"><title>Node4</title>
<a xlink:href="namespacef3dex__stats.html#ac34a6421249816395b51048aa0a3dde3" target="_top" xlink:title="Generates &lt;xxt&gt; correlation angles map.">
<polygon fill="white" stroke="black" points="240.307,-39 240.307,-59 389.693,-59 389.693,-39 240.307,-39"/>
<text text-anchor="middle" x="315" y="-46" font-family="Helvetica,sans-Serif" font-size="10.00">f3dex_stats::gen_angles_map</text>
</a>
</g>
<!-- Node1&#45;&gt;Node4 -->
<g id="edge6" class="edge"><title>Node1&#45;&gt;Node4</title>
<path fill="none" stroke="midnightblue" d="M204.483,-49C213.039,-49 221.631,-49 230.033,-49"/>
<polygon fill="midnightblue" stroke="midnightblue" points="230.171,-52.5001 240.171,-49 230.171,-45.5001 230.171,-52.5001"/>
</g>
<!-- Node5 -->
<g id="node9" class="node"><title>Node5</title>
<a xlink:href="namespacef3dex__stats.html#aa2fb45e013179295e3b876ced9eff015" target="_top" xlink:title="Computes legendre coefs of an array using recurrence.">
<polygon fill="white" stroke="black" points="248.091,-0 248.091,-20 381.909,-20 381.909,-0 248.091,-0"/>
<text text-anchor="middle" x="315" y="-7" font-family="Helvetica,sans-Serif" font-size="10.00">f3dex_stats::legendre_mat</text>
</a>
</g>
<!-- Node1&#45;&gt;Node5 -->
<g id="edge8" class="edge"><title>Node1&#45;&gt;Node5</title>
<path fill="none" stroke="midnightblue" d="M157.338,-38.9565C185.518,-33.7478 220.125,-27.3513 249.638,-21.8962"/>
<polygon fill="midnightblue" stroke="midnightblue" points="250.649,-25.2688 259.846,-20.0094 249.377,-18.3854 250.649,-25.2688"/>
</g>
<!-- Node3 -->
<g id="node5" class="node"><title>Node3</title>
<a xlink:href="namespacef3dex__utils.html#ad4cb6613ee589637f453ef808466a0f9" target="_top" xlink:title="Assert if two doubles are equal.">
<polygon fill="white" stroke="black" points="434.989,-78 434.989,-98 551.011,-98 551.011,-78 434.989,-78"/>
<text text-anchor="middle" x="493" y="-85" font-family="Helvetica,sans-Serif" font-size="10.00">f3dex_utils::assert_DP</text>
</a>
</g>
<!-- Node2&#45;&gt;Node3 -->
<g id="edge4" class="edge"><title>Node2&#45;&gt;Node3</title>
<path fill="none" stroke="midnightblue" d="M383.794,-88C397.221,-88 411.312,-88 424.721,-88"/>
<polygon fill="midnightblue" stroke="midnightblue" points="424.821,-91.5001 434.821,-88 424.821,-84.5001 424.821,-91.5001"/>
</g>
<!-- Node6 -->
<g id="node11" class="node"><title>Node6</title>
<a xlink:href="namespacef3dex__stats.html#a1f360b2a41b5a63c3379390a55ef07b2" target="_top" xlink:title="Computes legendre coefs of a double using recurrence.">
<polygon fill="white" stroke="black" points="426.645,-0 426.645,-20 559.355,-20 559.355,-0 426.645,-0"/>
<text text-anchor="middle" x="493" y="-7" font-family="Helvetica,sans-Serif" font-size="10.00">f3dex_stats::legendre_vec</text>
</a>
</g>
<!-- Node5&#45;&gt;Node6 -->
<g id="edge10" class="edge"><title>Node5&#45;&gt;Node6</title>
<path fill="none" stroke="midnightblue" d="M382.037,-10C393.164,-10 404.792,-10 416.144,-10"/>
<polygon fill="midnightblue" stroke="midnightblue" points="416.471,-13.5001 426.471,-10 416.471,-6.5001 416.471,-13.5001"/>
</g>
</g>
</svg>
