<?xml version="1.0" encoding="UTF-8" standalone="no"?>
<!DOCTYPE svg PUBLIC "-//W3C//DTD SVG 1.1//EN"
 "http://www.w3.org/Graphics/SVG/1.1/DTD/svg11.dtd">
<!-- Generated by graphviz version 2.28.0 (20111102.2313)
 -->
<!-- Title: G Pages: 1 -->
<svg width="294pt" height="67pt"
 viewBox="0.00 0.00 294.00 67.00" xmlns="http://www.w3.org/2000/svg" xmlns:xlink="http://www.w3.org/1999/xlink">
<g id="graph1" class="graph" transform="scale(1 1) rotate(0) translate(4 63)">
<title>G</title>
<polygon fill="white" stroke="white" points="-4,5 -4,-63 291,-63 291,5 -4,5"/>
<!-- Node1 -->
<g id="node1" class="node"><title>Node1</title>
<polygon fill="#bfbfbf" stroke="black" points="0.0955,-19 0.0955,-39 133.904,-39 133.904,-19 0.0955,-19"/>
<text text-anchor="middle" x="67" y="-26" font-family="Helvetica,sans-Serif" font-size="10.00">f3dex_transforms::gen_cln</text>
</g>
<!-- Node2 -->
<g id="node3" class="node"><title>Node2</title>
<a xlink:href="namespacef3dex__transforms.html#a9b68481c890d75c3e3f4cbd4a7109830" target="_top" xlink:title="Compute the value of the l&#45;th order spherical bessel FUNCTION at x.">
<polygon fill="white" stroke="black" points="169.988,-39 169.988,-59 286.012,-59 286.012,-39 169.988,-39"/>
<text text-anchor="middle" x="228" y="-46" font-family="Helvetica,sans-Serif" font-size="10.00">f3dex_transforms::BJL</text>
</a>
</g>
<!-- Node1&#45;&gt;Node2 -->
<g id="edge2" class="edge"><title>Node1&#45;&gt;Node2</title>
<path fill="none" stroke="midnightblue" d="M134.049,-37.308C142.481,-38.3686 151.12,-39.4554 159.573,-40.5186"/>
<polygon fill="midnightblue" stroke="midnightblue" points="159.406,-44.0251 169.765,-41.8006 160.28,-37.0799 159.406,-44.0251"/>
</g>
<!-- Node3 -->
<g id="node5" class="node"><title>Node3</title>
<a xlink:href="namespacef3dex__utils.html#a92226ca7c662562058c56ba005f6fc36" target="_top" xlink:title="Print preformated messages.">
<polygon fill="white" stroke="black" points="173.043,-0 173.043,-20 282.957,-20 282.957,-0 173.043,-0"/>
<text text-anchor="middle" x="228" y="-7" font-family="Helvetica,sans-Serif" font-size="10.00">f3dex_utils::message</text>
</a>
</g>
<!-- Node1&#45;&gt;Node3 -->
<g id="edge4" class="edge"><title>Node1&#45;&gt;Node3</title>
<path fill="none" stroke="midnightblue" d="M134.049,-21.1074C143.573,-19.9693 153.362,-18.7995 162.849,-17.6659"/>
<polygon fill="midnightblue" stroke="midnightblue" points="163.482,-21.1151 172.997,-16.4532 162.652,-14.1646 163.482,-21.1151"/>
</g>
</g>
</svg>
