<?xml version="1.0" encoding="UTF-8" standalone="no"?>
<!DOCTYPE svg PUBLIC "-//W3C//DTD SVG 1.1//EN"
 "http://www.w3.org/Graphics/SVG/1.1/DTD/svg11.dtd">
<!-- Generated by graphviz version 2.28.0 (20111007.0958)
 -->
<!-- Title: G Pages: 1 -->
<svg width="324pt" height="145pt"
 viewBox="0.00 0.00 324.00 145.00" xmlns="http://www.w3.org/2000/svg" xmlns:xlink="http://www.w3.org/1999/xlink">
<g id="graph1" class="graph" transform="scale(1 1) rotate(0) translate(4 141)">
<title>G</title>
<polygon fill="white" stroke="white" points="-4,5 -4,-141 321,-141 321,5 -4,5"/>
<!-- Node1 -->
<g id="node1" class="node"><title>Node1</title>
<polygon fill="#bfbfbf" stroke="black" points="0.0395,-58 0.0395,-78 129.96,-78 129.96,-58 0.0395,-58"/>
<text text-anchor="middle" x="65" y="-65" font-family="Helvetica,sans-Serif" font-size="10.00">f3dex_stats::map2cl_PCL</text>
</g>
<!-- Node2 -->
<g id="node3" class="node"><title>Node2</title>
<a xlink:href="namespacef3dex__stats.html#ac34a6421249816395b51048aa0a3dde3" target="_top" xlink:title="Generates &lt;xxt&gt; correlation angles map.">
<polygon fill="white" stroke="black" points="166.307,-117 166.307,-137 315.693,-137 315.693,-117 166.307,-117"/>
<text text-anchor="middle" x="241" y="-124" font-family="Helvetica,sans-Serif" font-size="10.00">f3dex_stats::gen_angles_map</text>
</a>
</g>
<!-- Node1&#45;&gt;Node2 -->
<g id="edge2" class="edge"><title>Node1&#45;&gt;Node2</title>
<path fill="none" stroke="midnightblue" d="M89.5798,-78.0282C109.68,-86.3748 139.449,-98.2627 166,-107 173.729,-109.543 181.987,-112.013 190.081,-114.298"/>
<polygon fill="midnightblue" stroke="midnightblue" points="189.254,-117.701 199.825,-116.988 191.117,-110.953 189.254,-117.701"/>
</g>
<!-- Node3 -->
<g id="node5" class="node"><title>Node3</title>
<a xlink:href="namespacef3dex__stats.html#a564304481b43b3d55989683f03460410" target="_top" xlink:title="Inverts matrix.">
<polygon fill="white" stroke="black" points="182.709,-78 182.709,-98 299.291,-98 299.291,-78 182.709,-78"/>
<text text-anchor="middle" x="241" y="-85" font-family="Helvetica,sans-Serif" font-size="10.00">f3dex_stats::INVERSE</text>
</a>
</g>
<!-- Node1&#45;&gt;Node3 -->
<g id="edge4" class="edge"><title>Node1&#45;&gt;Node3</title>
<path fill="none" stroke="midnightblue" d="M130.297,-75.3904C144.085,-76.9753 158.692,-78.6542 172.594,-80.2522"/>
<polygon fill="midnightblue" stroke="midnightblue" points="172.237,-83.7341 182.571,-81.399 173.036,-76.7799 172.237,-83.7341"/>
</g>
<!-- Node4 -->
<g id="node7" class="node"><title>Node4</title>
<a xlink:href="namespacef3dex__utils.html#a92226ca7c662562058c56ba005f6fc36" target="_top" xlink:title="Print preformated messages.">
<polygon fill="white" stroke="black" points="186.043,-39 186.043,-59 295.957,-59 295.957,-39 186.043,-39"/>
<text text-anchor="middle" x="241" y="-46" font-family="Helvetica,sans-Serif" font-size="10.00">f3dex_utils::message</text>
</a>
</g>
<!-- Node1&#45;&gt;Node4 -->
<g id="edge6" class="edge"><title>Node1&#45;&gt;Node4</title>
<path fill="none" stroke="midnightblue" d="M130.297,-60.9791C145.163,-59.3558 160.98,-57.6286 175.84,-56.0059"/>
<polygon fill="midnightblue" stroke="midnightblue" points="176.391,-59.4667 185.952,-54.9018 175.631,-52.5081 176.391,-59.4667"/>
</g>
<!-- Node5 -->
<g id="node9" class="node"><title>Node5</title>
<a xlink:href="namespacef3dex__stats.html#ae106140bb309de7d7779b6b086050bf4" target="_top" xlink:title="TRACE of a product of matrices.">
<polygon fill="white" stroke="black" points="173.269,-0 173.269,-20 308.731,-20 308.731,-0 173.269,-0"/>
<text text-anchor="middle" x="241" y="-7" font-family="Helvetica,sans-Serif" font-size="10.00">f3dex_stats::TRACEPROD</text>
</a>
</g>
<!-- Node1&#45;&gt;Node5 -->
<g id="edge8" class="edge"><title>Node1&#45;&gt;Node5</title>
<path fill="none" stroke="midnightblue" d="M90.4159,-57.9437C110.516,-49.8541 139.853,-38.4782 166,-30 173.74,-27.4903 182.004,-25.0386 190.1,-22.7603"/>
<polygon fill="midnightblue" stroke="midnightblue" points="191.134,-26.1057 199.845,-20.0751 189.275,-19.3572 191.134,-26.1057"/>
</g>
</g>
</svg>
