<?xml version="1.0" encoding="UTF-8" standalone="no"?>
<!DOCTYPE svg PUBLIC "-//W3C//DTD SVG 1.1//EN"
 "http://www.w3.org/Graphics/SVG/1.1/DTD/svg11.dtd">
<!-- Generated by graphviz version 2.28.0 (20111102.2313)
 -->
<!-- Title: G Pages: 1 -->
<svg width="472pt" height="67pt"
 viewBox="0.00 0.00 472.00 67.00" xmlns="http://www.w3.org/2000/svg" xmlns:xlink="http://www.w3.org/1999/xlink">
<g id="graph1" class="graph" transform="scale(1 1) rotate(0) translate(4 63)">
<title>G</title>
<polygon fill="white" stroke="white" points="-4,5 -4,-63 469,-63 469,5 -4,5"/>
<!-- Node1 -->
<g id="node1" class="node"><title>Node1</title>
<polygon fill="#bfbfbf" stroke="black" points="0.1455,-19 0.1455,-39 137.854,-39 137.854,-19 0.1455,-19"/>
<text text-anchor="middle" x="69" y="-26" font-family="Helvetica,sans-Serif" font-size="10.00">f3dex_utests::utest_inverse</text>
</g>
<!-- Node2 -->
<g id="node3" class="node"><title>Node2</title>
<a xlink:href="namespacef3dex__utils.html#a234414d8daaf5e3bfd03754331b467ed" target="_top" xlink:title="Assert if two arrays are equal.">
<polygon fill="white" stroke="black" points="174.436,-39 174.436,-59 311.564,-59 311.564,-39 174.436,-39"/>
<text text-anchor="middle" x="243" y="-46" font-family="Helvetica,sans-Serif" font-size="10.00">f3dex_utils::assert_DPARR</text>
</a>
</g>
<!-- Node1&#45;&gt;Node2 -->
<g id="edge2" class="edge"><title>Node1&#45;&gt;Node2</title>
<path fill="none" stroke="midnightblue" d="M137.979,-36.9045C146.55,-37.9012 155.372,-38.9269 164.082,-39.9397"/>
<polygon fill="midnightblue" stroke="midnightblue" points="163.896,-43.4416 174.233,-41.1201 164.704,-36.4885 163.896,-43.4416"/>
</g>
<!-- Node4 -->
<g id="node7" class="node"><title>Node4</title>
<a xlink:href="namespacef3dex__stats.html#a564304481b43b3d55989683f03460410" target="_top" xlink:title="Inverts matrix.">
<polygon fill="white" stroke="black" points="184.709,-0 184.709,-20 301.291,-20 301.291,-0 184.709,-0"/>
<text text-anchor="middle" x="243" y="-7" font-family="Helvetica,sans-Serif" font-size="10.00">f3dex_stats::INVERSE</text>
</a>
</g>
<!-- Node1&#45;&gt;Node4 -->
<g id="edge6" class="edge"><title>Node1&#45;&gt;Node4</title>
<path fill="none" stroke="midnightblue" d="M137.979,-21.4907C150.01,-20.1617 162.534,-18.7783 174.55,-17.4509"/>
<polygon fill="midnightblue" stroke="midnightblue" points="174.947,-20.9284 184.502,-16.3515 174.178,-13.9707 174.947,-20.9284"/>
</g>
<!-- Node3 -->
<g id="node5" class="node"><title>Node3</title>
<a xlink:href="namespacef3dex__utils.html#ad4cb6613ee589637f453ef808466a0f9" target="_top" xlink:title="Assert if two doubles are equal.">
<polygon fill="white" stroke="black" points="347.989,-39 347.989,-59 464.011,-59 464.011,-39 347.989,-39"/>
<text text-anchor="middle" x="406" y="-46" font-family="Helvetica,sans-Serif" font-size="10.00">f3dex_utils::assert_DP</text>
</a>
</g>
<!-- Node2&#45;&gt;Node3 -->
<g id="edge4" class="edge"><title>Node2&#45;&gt;Node3</title>
<path fill="none" stroke="midnightblue" d="M311.812,-49C320.459,-49 329.307,-49 337.943,-49"/>
<polygon fill="midnightblue" stroke="midnightblue" points="337.958,-52.5001 347.958,-49 337.958,-45.5001 337.958,-52.5001"/>
</g>
</g>
</svg>
