<?xml version="1.0" encoding="UTF-8" standalone="no"?>
<!DOCTYPE svg PUBLIC "-//W3C//DTD SVG 1.1//EN"
 "http://www.w3.org/Graphics/SVG/1.1/DTD/svg11.dtd">
<!-- Generated by graphviz version 2.28.0 (20111102.2313)
 -->
<!-- Title: G Pages: 1 -->
<svg width="286pt" height="106pt"
 viewBox="0.00 0.00 286.00 106.00" xmlns="http://www.w3.org/2000/svg" xmlns:xlink="http://www.w3.org/1999/xlink">
<g id="graph1" class="graph" transform="scale(1 1) rotate(0) translate(4 102)">
<title>G</title>
<polygon fill="white" stroke="white" points="-4,5 -4,-102 283,-102 283,5 -4,5"/>
<!-- Node1 -->
<g id="node1" class="node"><title>Node1</title>
<polygon fill="#bfbfbf" stroke="black" points="0.484,-39 0.484,-59 131.516,-59 131.516,-39 0.484,-39"/>
<text text-anchor="middle" x="66" y="-46" font-family="Helvetica,sans-Serif" font-size="10.00">f3dex_cosmotools::chi_z2</text>
</g>
<!-- Node2 -->
<g id="node3" class="node"><title>Node2</title>
<a xlink:href="namespacef3dex__cosmotools.html#abba0e9b02d0f46a5abce5a0830da7f4d" target="_top" xlink:title="Cosmological function.">
<polygon fill="white" stroke="black" points="168.042,-78 168.042,-98 277.957,-98 277.957,-78 168.042,-78"/>
<text text-anchor="middle" x="223" y="-85" font-family="Helvetica,sans-Serif" font-size="10.00">f3dex_cosmotools::fz</text>
</a>
</g>
<!-- Node1&#45;&gt;Node2 -->
<g id="edge2" class="edge"><title>Node1&#45;&gt;Node2</title>
<path fill="none" stroke="midnightblue" d="M106.916,-59.0435C126.894,-64.0702 151.269,-70.2032 172.435,-75.5287"/>
<polygon fill="midnightblue" stroke="midnightblue" points="171.667,-78.9446 182.219,-77.9906 173.375,-72.1562 171.667,-78.9446"/>
</g>
<!-- Node3 -->
<g id="node5" class="node"><title>Node3</title>
<a xlink:href="quadrule_8f90.html#a45c034914a08b905c6dbe38d8ef5c5d9" target="_top" xlink:title="ncc_set">
<polygon fill="white" stroke="black" points="197.772,-39 197.772,-59 248.228,-59 248.228,-39 197.772,-39"/>
<text text-anchor="middle" x="223" y="-46" font-family="Helvetica,sans-Serif" font-size="10.00">ncc_set</text>
</a>
</g>
<!-- Node1&#45;&gt;Node3 -->
<g id="edge4" class="edge"><title>Node1&#45;&gt;Node3</title>
<path fill="none" stroke="midnightblue" d="M131.836,-49C150.89,-49 170.994,-49 187.371,-49"/>
<polygon fill="midnightblue" stroke="midnightblue" points="187.547,-52.5001 197.547,-49 187.547,-45.5001 187.547,-52.5001"/>
</g>
<!-- Node4 -->
<g id="node7" class="node"><title>Node4</title>
<a xlink:href="quadrule_8f90.html#a268ec8eaa9ed225402666340aecb03d4" target="_top" xlink:title="sum_sub">
<polygon fill="white" stroke="black" points="194.718,-0 194.718,-20 251.282,-20 251.282,-0 194.718,-0"/>
<text text-anchor="middle" x="223" y="-7" font-family="Helvetica,sans-Serif" font-size="10.00">sum_sub</text>
</a>
</g>
<!-- Node1&#45;&gt;Node4 -->
<g id="edge6" class="edge"><title>Node1&#45;&gt;Node4</title>
<path fill="none" stroke="midnightblue" d="M106.916,-38.9565C130.826,-32.9406 161.032,-25.3403 184.499,-19.4358"/>
<polygon fill="midnightblue" stroke="midnightblue" points="185.588,-22.771 194.431,-16.9366 183.88,-15.9825 185.588,-22.771"/>
</g>
</g>
</svg>
