<?xml version="1.0" encoding="UTF-8" standalone="no"?>
<!DOCTYPE svg PUBLIC "-//W3C//DTD SVG 1.1//EN"
 "http://www.w3.org/Graphics/SVG/1.1/DTD/svg11.dtd">
<!-- Generated by graphviz version 2.28.0 (20111007.0958)
 -->
<!-- Title: G Pages: 1 -->
<svg width="528pt" height="262pt"
 viewBox="0.00 0.00 528.00 262.00" xmlns="http://www.w3.org/2000/svg" xmlns:xlink="http://www.w3.org/1999/xlink">
<g id="graph1" class="graph" transform="scale(1 1) rotate(0) translate(4 258)">
<title>G</title>
<polygon fill="white" stroke="white" points="-4,5 -4,-258 525,-258 525,5 -4,5"/>
<!-- Node1 -->
<g id="node1" class="node"><title>Node1</title>
<polygon fill="#bfbfbf" stroke="black" points="0.657,-136 0.657,-156 123.343,-156 123.343,-136 0.657,-136"/>
<text text-anchor="middle" x="62" y="-143" font-family="Helvetica,sans-Serif" font-size="10.00">cosmotools::cosmo_z2s</text>
</g>
<!-- Node2 -->
<g id="node3" class="node"><title>Node2</title>
<a xlink:href="namespacecosmotools.html#ab39be67e673296c9e6586952f5e6c181" target="_top" xlink:title="cosmotools::chi_z">
<polygon fill="white" stroke="black" points="160.271,-136 160.271,-156 255.729,-156 255.729,-136 160.271,-136"/>
<text text-anchor="middle" x="208" y="-143" font-family="Helvetica,sans-Serif" font-size="10.00">cosmotools::chi_z</text>
</a>
</g>
<!-- Node1&#45;&gt;Node2 -->
<g id="edge2" class="edge"><title>Node1&#45;&gt;Node2</title>
<path fill="none" stroke="midnightblue" d="M123.652,-146C132.286,-146 141.143,-146 149.71,-146"/>
<polygon fill="midnightblue" stroke="midnightblue" points="149.981,-149.5 159.981,-146 149.981,-142.5 149.981,-149.5"/>
</g>
<!-- Node3 -->
<g id="node5" class="node"><title>Node3</title>
<a xlink:href="namespacecosmotools.html#a681aca576953f69092d54f5474c18c2b" target="_top" xlink:title="cosmotools::fz">
<polygon fill="white" stroke="black" points="292.05,-156 292.05,-176 371.95,-176 371.95,-156 292.05,-156"/>
<text text-anchor="middle" x="332" y="-163" font-family="Helvetica,sans-Serif" font-size="10.00">cosmotools::fz</text>
</a>
</g>
<!-- Node2&#45;&gt;Node3 -->
<g id="edge4" class="edge"><title>Node2&#45;&gt;Node3</title>
<path fill="none" stroke="midnightblue" d="M255.819,-153.675C264.416,-155.085 273.411,-156.559 282.068,-157.978"/>
<polygon fill="midnightblue" stroke="midnightblue" points="281.597,-161.448 292.032,-159.612 282.729,-154.54 281.597,-161.448"/>
</g>
<!-- Node4 -->
<g id="node7" class="node"><title>Node4</title>
<a xlink:href="quadpack_8f90.html#a44906a25a31588f7e4f41f0e5253193a" target="_top" xlink:title="qag">
<polygon fill="white" stroke="black" points="315.661,-117 315.661,-137 348.339,-137 348.339,-117 315.661,-117"/>
<text text-anchor="middle" x="332" y="-124" font-family="Helvetica,sans-Serif" font-size="10.00">qag</text>
</a>
</g>
<!-- Node2&#45;&gt;Node4 -->
<g id="edge6" class="edge"><title>Node2&#45;&gt;Node4</title>
<path fill="none" stroke="midnightblue" d="M255.819,-138.708C272.633,-136.09 290.969,-133.234 305.323,-130.999"/>
<polygon fill="midnightblue" stroke="midnightblue" points="306.09,-134.422 315.432,-129.424 305.013,-127.505 306.09,-134.422"/>
</g>
<!-- Node5 -->
<g id="node9" class="node"><title>Node5</title>
<a xlink:href="quadpack_8f90.html#ab602437c218a2c74d6a13f9462f98854" target="_top" xlink:title="qage">
<polygon fill="white" stroke="black" points="407.882,-117 407.882,-137 446.118,-137 446.118,-117 407.882,-117"/>
<text text-anchor="middle" x="427" y="-124" font-family="Helvetica,sans-Serif" font-size="10.00">qage</text>
</a>
</g>
<!-- Node4&#45;&gt;Node5 -->
<g id="edge8" class="edge"><title>Node4&#45;&gt;Node5</title>
<path fill="none" stroke="midnightblue" d="M348.357,-127C361.73,-127 381.464,-127 397.69,-127"/>
<polygon fill="midnightblue" stroke="midnightblue" points="397.744,-130.5 407.744,-127 397.744,-123.5 397.744,-130.5"/>
</g>
<!-- Node6 -->
<g id="node11" class="node"><title>Node6</title>
<a xlink:href="quadpack_8f90.html#a1722ad5ba07cec52d38c9ebf9df80a2d" target="_top" xlink:title="qk15">
<polygon fill="white" stroke="black" points="482.161,-234 482.161,-254 519.838,-254 519.838,-234 482.161,-234"/>
<text text-anchor="middle" x="501" y="-241" font-family="Helvetica,sans-Serif" font-size="10.00">qk15</text>
</a>
</g>
<!-- Node5&#45;&gt;Node6 -->
<g id="edge10" class="edge"><title>Node5&#45;&gt;Node6</title>
<path fill="none" stroke="midnightblue" d="M432.672,-137.076C441.277,-155.205 460.71,-194.204 482,-224 482.448,-224.627 482.913,-225.257 483.391,-225.885"/>
<polygon fill="midnightblue" stroke="midnightblue" points="480.903,-228.366 490.006,-233.787 486.271,-223.872 480.903,-228.366"/>
</g>
<!-- Node7 -->
<g id="node13" class="node"><title>Node7</title>
<a xlink:href="quadpack_8f90.html#a27241a527b249e9de59a5ed6bee5f805" target="_top" xlink:title="qk21">
<polygon fill="white" stroke="black" points="482.161,-195 482.161,-215 519.838,-215 519.838,-195 482.161,-195"/>
<text text-anchor="middle" x="501" y="-202" font-family="Helvetica,sans-Serif" font-size="10.00">qk21</text>
</a>
</g>
<!-- Node5&#45;&gt;Node7 -->
<g id="edge12" class="edge"><title>Node5&#45;&gt;Node7</title>
<path fill="none" stroke="midnightblue" d="M437.413,-137.197C449.098,-149.857 469.228,-171.664 483.501,-187.126"/>
<polygon fill="midnightblue" stroke="midnightblue" points="481,-189.577 490.355,-194.551 486.144,-184.829 481,-189.577"/>
</g>
<!-- Node8 -->
<g id="node15" class="node"><title>Node8</title>
<a xlink:href="quadpack_8f90.html#aded2e8dd2218fbd159b78c0e8975a4cd" target="_top" xlink:title="qk31">
<polygon fill="white" stroke="black" points="482.161,-156 482.161,-176 519.838,-176 519.838,-156 482.161,-156"/>
<text text-anchor="middle" x="501" y="-163" font-family="Helvetica,sans-Serif" font-size="10.00">qk31</text>
</a>
</g>
<!-- Node5&#45;&gt;Node8 -->
<g id="edge14" class="edge"><title>Node5&#45;&gt;Node8</title>
<path fill="none" stroke="midnightblue" d="M446.169,-136.841C454.331,-141.263 464.13,-146.57 473.117,-151.439"/>
<polygon fill="midnightblue" stroke="midnightblue" points="471.627,-154.612 482.087,-156.297 474.961,-148.456 471.627,-154.612"/>
</g>
<!-- Node9 -->
<g id="node17" class="node"><title>Node9</title>
<a xlink:href="quadpack_8f90.html#aface4edf24710a0b323f5aaeb6bdec34" target="_top" xlink:title="qk41">
<polygon fill="white" stroke="black" points="482.161,-117 482.161,-137 519.838,-137 519.838,-117 482.161,-117"/>
<text text-anchor="middle" x="501" y="-124" font-family="Helvetica,sans-Serif" font-size="10.00">qk41</text>
</a>
</g>
<!-- Node5&#45;&gt;Node9 -->
<g id="edge16" class="edge"><title>Node5&#45;&gt;Node9</title>
<path fill="none" stroke="midnightblue" d="M446.169,-127C453.988,-127 463.308,-127 471.978,-127"/>
<polygon fill="midnightblue" stroke="midnightblue" points="472.087,-130.5 482.087,-127 472.087,-123.5 472.087,-130.5"/>
</g>
<!-- Node10 -->
<g id="node19" class="node"><title>Node10</title>
<a xlink:href="quadpack_8f90.html#a73edb4987a87a40ebf4731ab63d7f03e" target="_top" xlink:title="qk51">
<polygon fill="white" stroke="black" points="482.161,-78 482.161,-98 519.838,-98 519.838,-78 482.161,-78"/>
<text text-anchor="middle" x="501" y="-85" font-family="Helvetica,sans-Serif" font-size="10.00">qk51</text>
</a>
</g>
<!-- Node5&#45;&gt;Node10 -->
<g id="edge18" class="edge"><title>Node5&#45;&gt;Node10</title>
<path fill="none" stroke="midnightblue" d="M446.169,-117.159C454.331,-112.737 464.13,-107.43 473.117,-102.561"/>
<polygon fill="midnightblue" stroke="midnightblue" points="474.961,-105.544 482.087,-97.7031 471.627,-99.3885 474.961,-105.544"/>
</g>
<!-- Node11 -->
<g id="node21" class="node"><title>Node11</title>
<a xlink:href="quadpack_8f90.html#acb4a48f5e54a2c5f951d0828e8f8146d" target="_top" xlink:title="qk61">
<polygon fill="white" stroke="black" points="482.161,-39 482.161,-59 519.838,-59 519.838,-39 482.161,-39"/>
<text text-anchor="middle" x="501" y="-46" font-family="Helvetica,sans-Serif" font-size="10.00">qk61</text>
</a>
</g>
<!-- Node5&#45;&gt;Node11 -->
<g id="edge20" class="edge"><title>Node5&#45;&gt;Node11</title>
<path fill="none" stroke="midnightblue" d="M437.413,-116.803C449.098,-104.143 469.228,-82.336 483.501,-66.8739"/>
<polygon fill="midnightblue" stroke="midnightblue" points="486.144,-69.1706 490.355,-59.4486 481,-64.4227 486.144,-69.1706"/>
</g>
<!-- Node12 -->
<g id="node23" class="node"><title>Node12</title>
<a xlink:href="quadpack_8f90.html#a55e08a684c5a6315fb37dd0fdc66d8e6" target="_top" xlink:title="qsort">
<polygon fill="white" stroke="black" points="481.887,-0 481.887,-20 520.113,-20 520.113,-0 481.887,-0"/>
<text text-anchor="middle" x="501" y="-7" font-family="Helvetica,sans-Serif" font-size="10.00">qsort</text>
</a>
</g>
<!-- Node5&#45;&gt;Node12 -->
<g id="edge22" class="edge"><title>Node5&#45;&gt;Node12</title>
<path fill="none" stroke="midnightblue" d="M432.672,-116.924C441.277,-98.7954 460.71,-59.7963 482,-30 482.448,-29.3729 482.913,-28.7435 483.391,-28.1147"/>
<polygon fill="midnightblue" stroke="midnightblue" points="486.271,-30.1279 490.006,-20.2135 480.903,-25.6343 486.271,-30.1279"/>
</g>
</g>
</svg>
