<?xml version="1.0" encoding="UTF-8" standalone="no"?>
<!DOCTYPE svg PUBLIC "-//W3C//DTD SVG 1.1//EN"
 "http://www.w3.org/Graphics/SVG/1.1/DTD/svg11.dtd">
<!-- Generated by graphviz version 2.28.0 (20111102.2313)
 -->
<!-- Title: G Pages: 1 -->
<svg width="376pt" height="106pt"
 viewBox="0.00 0.00 376.00 106.00" xmlns="http://www.w3.org/2000/svg" xmlns:xlink="http://www.w3.org/1999/xlink">
<g id="graph1" class="graph" transform="scale(1 1) rotate(0) translate(4 102)">
<title>G</title>
<polygon fill="white" stroke="white" points="-4,5 -4,-102 373,-102 373,5 -4,5"/>
<!-- Node1 -->
<g id="node1" class="node"><title>Node1</title>
<polygon fill="#bfbfbf" stroke="black" points="0.4805,-39 0.4805,-59 171.519,-59 171.519,-39 0.4805,-39"/>
<text text-anchor="middle" x="86" y="-46" font-family="Helvetica,sans-Serif" font-size="10.00">f3dex_utests::utest_bilini_form_par</text>
</g>
<!-- Node2 -->
<g id="node3" class="node"><title>Node2</title>
<a xlink:href="namespacef3dex__utils.html#ad4cb6613ee589637f453ef808466a0f9" target="_top" xlink:title="Assert if two doubles are equal.">
<polygon fill="white" stroke="black" points="229.989,-78 229.989,-98 346.011,-98 346.011,-78 229.989,-78"/>
<text text-anchor="middle" x="288" y="-85" font-family="Helvetica,sans-Serif" font-size="10.00">f3dex_utils::assert_DP</text>
</a>
</g>
<!-- Node1&#45;&gt;Node2 -->
<g id="edge2" class="edge"><title>Node1&#45;&gt;Node2</title>
<path fill="none" stroke="midnightblue" d="M138.505,-59.0435C165.1,-64.2294 197.732,-70.5928 225.627,-76.0323"/>
<polygon fill="midnightblue" stroke="midnightblue" points="225.185,-79.5118 235.67,-77.9906 226.524,-72.6412 225.185,-79.5118"/>
</g>
<!-- Node3 -->
<g id="node5" class="node"><title>Node3</title>
<a xlink:href="namespacef3dex__stats.html#af0a10f88c8029206196ea18b3ad579ba" target="_top" xlink:title="Parallel bilinear form.">
<polygon fill="white" stroke="black" points="208.597,-39 208.597,-59 367.403,-59 367.403,-39 208.597,-39"/>
<text text-anchor="middle" x="288" y="-46" font-family="Helvetica,sans-Serif" font-size="10.00">f3dex_stats::BILIN_FORM_PAR</text>
</a>
</g>
<!-- Node1&#45;&gt;Node3 -->
<g id="edge4" class="edge"><title>Node1&#45;&gt;Node3</title>
<path fill="none" stroke="midnightblue" d="M171.528,-49C180.436,-49 189.512,-49 198.463,-49"/>
<polygon fill="midnightblue" stroke="midnightblue" points="198.501,-52.5001 208.501,-49 198.501,-45.5001 198.501,-52.5001"/>
</g>
<!-- Node4 -->
<g id="node7" class="node"><title>Node4</title>
<a xlink:href="namespacef3dex__utils.html#ac5aa172010ec6cd9bd4c5273904b0405" target="_top" xlink:title="Measures system time.">
<polygon fill="white" stroke="black" points="240.273,-0 240.273,-20 335.727,-20 335.727,-0 240.273,-0"/>
<text text-anchor="middle" x="288" y="-7" font-family="Helvetica,sans-Serif" font-size="10.00">f3dex_utils::wtime</text>
</a>
</g>
<!-- Node1&#45;&gt;Node4 -->
<g id="edge6" class="edge"><title>Node1&#45;&gt;Node4</title>
<path fill="none" stroke="midnightblue" d="M138.505,-38.9565C166.562,-33.4854 201.34,-26.7037 230.184,-21.0791"/>
<polygon fill="midnightblue" stroke="midnightblue" points="230.974,-24.4912 240.119,-19.1418 229.634,-17.6206 230.974,-24.4912"/>
</g>
</g>
</svg>
