<?xml version="1.0" encoding="UTF-8" standalone="no"?>
<!DOCTYPE svg PUBLIC "-//W3C//DTD SVG 1.1//EN"
 "http://www.w3.org/Graphics/SVG/1.1/DTD/svg11.dtd">
<!-- Generated by graphviz version 2.28.0 (20111007.0958)
 -->
<!-- Title: G Pages: 1 -->
<svg width="478pt" height="28pt"
 viewBox="0.00 0.00 478.00 28.00" xmlns="http://www.w3.org/2000/svg" xmlns:xlink="http://www.w3.org/1999/xlink">
<g id="graph1" class="graph" transform="scale(1 1) rotate(0) translate(4 24)">
<title>G</title>
<polygon fill="white" stroke="white" points="-4,5 -4,-24 475,-24 475,5 -4,5"/>
<!-- Node1 -->
<g id="node1" class="node"><title>Node1</title>
<polygon fill="#bfbfbf" stroke="black" points="0.602,-0 0.602,-20 149.398,-20 149.398,-0 0.602,-0"/>
<text text-anchor="middle" x="75" y="-7" font-family="Helvetica,sans-Serif" font-size="10.00">f3dex_transforms::almn2rmap</text>
</g>
<!-- Node2 -->
<g id="node3" class="node"><title>Node2</title>
<a xlink:href="namespacef3dex__transforms.html#ad1ab102a8307876c7af8bd6868ea7ef2" target="_top" xlink:title="Computes series of jl(kln r)">
<polygon fill="white" stroke="black" points="186.486,-0 186.486,-20 317.514,-20 317.514,-0 186.486,-0"/>
<text text-anchor="middle" x="252" y="-7" font-family="Helvetica,sans-Serif" font-size="10.00">f3dex_transforms::gen_jln</text>
</a>
</g>
<!-- Node1&#45;&gt;Node2 -->
<g id="edge2" class="edge"><title>Node1&#45;&gt;Node2</title>
<path fill="none" stroke="midnightblue" d="M149.455,-10C158.262,-10 167.264,-10 176.091,-10"/>
<polygon fill="midnightblue" stroke="midnightblue" points="176.352,-13.5001 186.352,-10 176.352,-6.5001 176.352,-13.5001"/>
</g>
<!-- Node3 -->
<g id="node5" class="node"><title>Node3</title>
<a xlink:href="namespacef3dex__transforms.html#a9b68481c890d75c3e3f4cbd4a7109830" target="_top" xlink:title="Compute the value of the l&#45;th order spherical bessel FUNCTION at x.">
<polygon fill="white" stroke="black" points="353.988,-0 353.988,-20 470.012,-20 470.012,-0 353.988,-0"/>
<text text-anchor="middle" x="412" y="-7" font-family="Helvetica,sans-Serif" font-size="10.00">f3dex_transforms::BJL</text>
</a>
</g>
<!-- Node2&#45;&gt;Node3 -->
<g id="edge4" class="edge"><title>Node2&#45;&gt;Node3</title>
<path fill="none" stroke="midnightblue" d="M317.721,-10C326.357,-10 335.23,-10 343.906,-10"/>
<polygon fill="midnightblue" stroke="midnightblue" points="343.975,-13.5001 353.975,-10 343.975,-6.5001 343.975,-13.5001"/>
</g>
</g>
</svg>
