<?xml version="1.0" encoding="UTF-8" standalone="no"?>
<!DOCTYPE svg PUBLIC "-//W3C//DTD SVG 1.1//EN"
 "http://www.w3.org/Graphics/SVG/1.1/DTD/svg11.dtd">
<!-- Generated by graphviz version 2.28.0 (20111007.0958)
 -->
<!-- Title: G Pages: 1 -->
<svg width="368pt" height="262pt"
 viewBox="0.00 0.00 368.00 262.00" xmlns="http://www.w3.org/2000/svg" xmlns:xlink="http://www.w3.org/1999/xlink">
<g id="graph1" class="graph" transform="scale(1 1) rotate(0) translate(4 258)">
<title>G</title>
<polygon fill="white" stroke="white" points="-4,5 -4,-258 365,-258 365,5 -4,5"/>
<!-- Node1 -->
<g id="node1" class="node"><title>Node1</title>
<polygon fill="#bfbfbf" stroke="black" points="0.271,-136 0.271,-156 95.729,-156 95.729,-136 0.271,-136"/>
<text text-anchor="middle" x="48" y="-143" font-family="Helvetica,sans-Serif" font-size="10.00">cosmotools::chi_z</text>
</g>
<!-- Node2 -->
<g id="node3" class="node"><title>Node2</title>
<a xlink:href="namespacecosmotools.html#a681aca576953f69092d54f5474c18c2b" target="_top" xlink:title="cosmotools::fz">
<polygon fill="white" stroke="black" points="132.05,-156 132.05,-176 211.95,-176 211.95,-156 132.05,-156"/>
<text text-anchor="middle" x="172" y="-163" font-family="Helvetica,sans-Serif" font-size="10.00">cosmotools::fz</text>
</a>
</g>
<!-- Node1&#45;&gt;Node2 -->
<g id="edge2" class="edge"><title>Node1&#45;&gt;Node2</title>
<path fill="none" stroke="midnightblue" d="M95.8195,-153.675C104.416,-155.085 113.411,-156.559 122.068,-157.978"/>
<polygon fill="midnightblue" stroke="midnightblue" points="121.597,-161.448 132.032,-159.612 122.729,-154.54 121.597,-161.448"/>
</g>
<!-- Node3 -->
<g id="node5" class="node"><title>Node3</title>
<a xlink:href="quadpack_8f90.html#a44906a25a31588f7e4f41f0e5253193a" target="_top" xlink:title="qag">
<polygon fill="white" stroke="black" points="155.661,-117 155.661,-137 188.339,-137 188.339,-117 155.661,-117"/>
<text text-anchor="middle" x="172" y="-124" font-family="Helvetica,sans-Serif" font-size="10.00">qag</text>
</a>
</g>
<!-- Node1&#45;&gt;Node3 -->
<g id="edge4" class="edge"><title>Node1&#45;&gt;Node3</title>
<path fill="none" stroke="midnightblue" d="M95.8195,-138.708C112.633,-136.09 130.969,-133.234 145.323,-130.999"/>
<polygon fill="midnightblue" stroke="midnightblue" points="146.09,-134.422 155.432,-129.424 145.013,-127.505 146.09,-134.422"/>
</g>
<!-- Node4 -->
<g id="node7" class="node"><title>Node4</title>
<a xlink:href="quadpack_8f90.html#ab602437c218a2c74d6a13f9462f98854" target="_top" xlink:title="qage">
<polygon fill="white" stroke="black" points="247.882,-117 247.882,-137 286.118,-137 286.118,-117 247.882,-117"/>
<text text-anchor="middle" x="267" y="-124" font-family="Helvetica,sans-Serif" font-size="10.00">qage</text>
</a>
</g>
<!-- Node3&#45;&gt;Node4 -->
<g id="edge6" class="edge"><title>Node3&#45;&gt;Node4</title>
<path fill="none" stroke="midnightblue" d="M188.357,-127C201.73,-127 221.464,-127 237.69,-127"/>
<polygon fill="midnightblue" stroke="midnightblue" points="237.744,-130.5 247.744,-127 237.744,-123.5 237.744,-130.5"/>
</g>
<!-- Node5 -->
<g id="node9" class="node"><title>Node5</title>
<a xlink:href="quadpack_8f90.html#a1722ad5ba07cec52d38c9ebf9df80a2d" target="_top" xlink:title="qk15">
<polygon fill="white" stroke="black" points="322.161,-234 322.161,-254 359.839,-254 359.839,-234 322.161,-234"/>
<text text-anchor="middle" x="341" y="-241" font-family="Helvetica,sans-Serif" font-size="10.00">qk15</text>
</a>
</g>
<!-- Node4&#45;&gt;Node5 -->
<g id="edge8" class="edge"><title>Node4&#45;&gt;Node5</title>
<path fill="none" stroke="midnightblue" d="M272.672,-137.076C281.277,-155.205 300.71,-194.204 322,-224 322.448,-224.627 322.913,-225.257 323.391,-225.885"/>
<polygon fill="midnightblue" stroke="midnightblue" points="320.903,-228.366 330.006,-233.787 326.271,-223.872 320.903,-228.366"/>
</g>
<!-- Node6 -->
<g id="node11" class="node"><title>Node6</title>
<a xlink:href="quadpack_8f90.html#a27241a527b249e9de59a5ed6bee5f805" target="_top" xlink:title="qk21">
<polygon fill="white" stroke="black" points="322.161,-195 322.161,-215 359.839,-215 359.839,-195 322.161,-195"/>
<text text-anchor="middle" x="341" y="-202" font-family="Helvetica,sans-Serif" font-size="10.00">qk21</text>
</a>
</g>
<!-- Node4&#45;&gt;Node6 -->
<g id="edge10" class="edge"><title>Node4&#45;&gt;Node6</title>
<path fill="none" stroke="midnightblue" d="M277.413,-137.197C289.098,-149.857 309.228,-171.664 323.501,-187.126"/>
<polygon fill="midnightblue" stroke="midnightblue" points="321,-189.577 330.355,-194.551 326.144,-184.829 321,-189.577"/>
</g>
<!-- Node7 -->
<g id="node13" class="node"><title>Node7</title>
<a xlink:href="quadpack_8f90.html#aded2e8dd2218fbd159b78c0e8975a4cd" target="_top" xlink:title="qk31">
<polygon fill="white" stroke="black" points="322.161,-156 322.161,-176 359.839,-176 359.839,-156 322.161,-156"/>
<text text-anchor="middle" x="341" y="-163" font-family="Helvetica,sans-Serif" font-size="10.00">qk31</text>
</a>
</g>
<!-- Node4&#45;&gt;Node7 -->
<g id="edge12" class="edge"><title>Node4&#45;&gt;Node7</title>
<path fill="none" stroke="midnightblue" d="M286.169,-136.841C294.331,-141.263 304.13,-146.57 313.117,-151.439"/>
<polygon fill="midnightblue" stroke="midnightblue" points="311.627,-154.612 322.087,-156.297 314.961,-148.456 311.627,-154.612"/>
</g>
<!-- Node8 -->
<g id="node15" class="node"><title>Node8</title>
<a xlink:href="quadpack_8f90.html#aface4edf24710a0b323f5aaeb6bdec34" target="_top" xlink:title="qk41">
<polygon fill="white" stroke="black" points="322.161,-117 322.161,-137 359.839,-137 359.839,-117 322.161,-117"/>
<text text-anchor="middle" x="341" y="-124" font-family="Helvetica,sans-Serif" font-size="10.00">qk41</text>
</a>
</g>
<!-- Node4&#45;&gt;Node8 -->
<g id="edge14" class="edge"><title>Node4&#45;&gt;Node8</title>
<path fill="none" stroke="midnightblue" d="M286.169,-127C293.988,-127 303.308,-127 311.978,-127"/>
<polygon fill="midnightblue" stroke="midnightblue" points="312.087,-130.5 322.087,-127 312.087,-123.5 312.087,-130.5"/>
</g>
<!-- Node9 -->
<g id="node17" class="node"><title>Node9</title>
<a xlink:href="quadpack_8f90.html#a73edb4987a87a40ebf4731ab63d7f03e" target="_top" xlink:title="qk51">
<polygon fill="white" stroke="black" points="322.161,-78 322.161,-98 359.839,-98 359.839,-78 322.161,-78"/>
<text text-anchor="middle" x="341" y="-85" font-family="Helvetica,sans-Serif" font-size="10.00">qk51</text>
</a>
</g>
<!-- Node4&#45;&gt;Node9 -->
<g id="edge16" class="edge"><title>Node4&#45;&gt;Node9</title>
<path fill="none" stroke="midnightblue" d="M286.169,-117.159C294.331,-112.737 304.13,-107.43 313.117,-102.561"/>
<polygon fill="midnightblue" stroke="midnightblue" points="314.961,-105.544 322.087,-97.7031 311.627,-99.3885 314.961,-105.544"/>
</g>
<!-- Node10 -->
<g id="node19" class="node"><title>Node10</title>
<a xlink:href="quadpack_8f90.html#acb4a48f5e54a2c5f951d0828e8f8146d" target="_top" xlink:title="qk61">
<polygon fill="white" stroke="black" points="322.161,-39 322.161,-59 359.839,-59 359.839,-39 322.161,-39"/>
<text text-anchor="middle" x="341" y="-46" font-family="Helvetica,sans-Serif" font-size="10.00">qk61</text>
</a>
</g>
<!-- Node4&#45;&gt;Node10 -->
<g id="edge18" class="edge"><title>Node4&#45;&gt;Node10</title>
<path fill="none" stroke="midnightblue" d="M277.413,-116.803C289.098,-104.143 309.228,-82.336 323.501,-66.8739"/>
<polygon fill="midnightblue" stroke="midnightblue" points="326.144,-69.1706 330.355,-59.4486 321,-64.4227 326.144,-69.1706"/>
</g>
<!-- Node11 -->
<g id="node21" class="node"><title>Node11</title>
<a xlink:href="quadpack_8f90.html#a55e08a684c5a6315fb37dd0fdc66d8e6" target="_top" xlink:title="qsort">
<polygon fill="white" stroke="black" points="321.887,-0 321.887,-20 360.113,-20 360.113,-0 321.887,-0"/>
<text text-anchor="middle" x="341" y="-7" font-family="Helvetica,sans-Serif" font-size="10.00">qsort</text>
</a>
</g>
<!-- Node4&#45;&gt;Node11 -->
<g id="edge20" class="edge"><title>Node4&#45;&gt;Node11</title>
<path fill="none" stroke="midnightblue" d="M272.672,-116.924C281.277,-98.7954 300.71,-59.7963 322,-30 322.448,-29.3729 322.913,-28.7435 323.391,-28.1147"/>
<polygon fill="midnightblue" stroke="midnightblue" points="326.271,-30.1279 330.006,-20.2135 320.903,-25.6343 326.271,-30.1279"/>
</g>
</g>
</svg>
