<?xml version="1.0" encoding="UTF-8" standalone="no"?>
<!DOCTYPE svg PUBLIC "-//W3C//DTD SVG 1.1//EN"
 "http://www.w3.org/Graphics/SVG/1.1/DTD/svg11.dtd">
<!-- Generated by graphviz version 2.28.0 (20111007.0958)
 -->
<!-- Title: G Pages: 1 -->
<svg width="336pt" height="106pt"
 viewBox="0.00 0.00 336.00 106.00" xmlns="http://www.w3.org/2000/svg" xmlns:xlink="http://www.w3.org/1999/xlink">
<g id="graph1" class="graph" transform="scale(1 1) rotate(0) translate(4 102)">
<title>G</title>
<polygon fill="white" stroke="white" points="-4,5 -4,-102 333,-102 333,5 -4,5"/>
<!-- Node1 -->
<g id="node1" class="node"><title>Node1</title>
<polygon fill="#bfbfbf" stroke="black" points="0.266,-39 0.266,-59 125.734,-59 125.734,-39 0.266,-39"/>
<text text-anchor="middle" x="63" y="-46" font-family="Helvetica,sans-Serif" font-size="10.00">f3dex_fitstools::fits2almn</text>
</g>
<!-- Node2 -->
<g id="node3" class="node"><title>Node2</title>
<a xlink:href="namespacef3dex__fitstools.html#ada7b447f4ace46eabf663495c3a8c8c2" target="_top" xlink:title="f3dex_fitstools::f90ftgcvd">
<polygon fill="white" stroke="black" points="181.981,-78 181.981,-98 308.019,-98 308.019,-78 181.981,-78"/>
<text text-anchor="middle" x="245" y="-85" font-family="Helvetica,sans-Serif" font-size="10.00">f3dex_fitstools::f90ftgcvd</text>
</a>
</g>
<!-- Node1&#45;&gt;Node2 -->
<g id="edge2" class="edge"><title>Node1&#45;&gt;Node2</title>
<path fill="none" stroke="midnightblue" d="M110.354,-59.0435C133.975,-64.1612 162.887,-70.4256 187.771,-75.8171"/>
<polygon fill="midnightblue" stroke="midnightblue" points="187.288,-79.2936 197.803,-77.9906 188.771,-72.4523 187.288,-79.2936"/>
</g>
<!-- Node3 -->
<g id="node5" class="node"><title>Node3</title>
<a xlink:href="namespacef3dex__fitstools.html#ab7baecf48bb7833c32bc7be570f947c1" target="_top" xlink:title="f3dex_fitstools::f90ftgkyd">
<polygon fill="white" stroke="black" points="181.981,-39 181.981,-59 308.019,-59 308.019,-39 181.981,-39"/>
<text text-anchor="middle" x="245" y="-46" font-family="Helvetica,sans-Serif" font-size="10.00">f3dex_fitstools::f90ftgkyd</text>
</a>
</g>
<!-- Node1&#45;&gt;Node3 -->
<g id="edge4" class="edge"><title>Node1&#45;&gt;Node3</title>
<path fill="none" stroke="midnightblue" d="M125.946,-49C140.653,-49 156.472,-49 171.599,-49"/>
<polygon fill="midnightblue" stroke="midnightblue" points="171.94,-52.5001 181.94,-49 171.94,-45.5001 171.94,-52.5001"/>
</g>
<!-- Node4 -->
<g id="node7" class="node"><title>Node4</title>
<a xlink:href="namespacef3dex__fitstools.html#a0d143b6a055e5c50c19b86e75d94c663" target="_top" xlink:title="f3dex_fitstools::get_clean_header">
<polygon fill="white" stroke="black" points="162.25,-0 162.25,-20 327.75,-20 327.75,-0 162.25,-0"/>
<text text-anchor="middle" x="245" y="-7" font-family="Helvetica,sans-Serif" font-size="10.00">f3dex_fitstools::get_clean_header</text>
</a>
</g>
<!-- Node1&#45;&gt;Node4 -->
<g id="edge6" class="edge"><title>Node1&#45;&gt;Node4</title>
<path fill="none" stroke="midnightblue" d="M110.354,-38.9565C133.975,-33.8388 162.887,-27.5744 187.771,-22.1829"/>
<polygon fill="midnightblue" stroke="midnightblue" points="188.771,-25.5477 197.803,-20.0094 187.288,-18.7064 188.771,-25.5477"/>
</g>
</g>
</svg>
