<?xml version="1.0" encoding="UTF-8" standalone="no"?>
<!DOCTYPE svg PUBLIC "-//W3C//DTD SVG 1.1//EN"
 "http://www.w3.org/Graphics/SVG/1.1/DTD/svg11.dtd">
<!-- Generated by graphviz version 2.28.0 (20111007.0958)
 -->
<!-- Title: G Pages: 1 -->
<svg width="386pt" height="67pt"
 viewBox="0.00 0.00 386.00 67.00" xmlns="http://www.w3.org/2000/svg" xmlns:xlink="http://www.w3.org/1999/xlink">
<g id="graph1" class="graph" transform="scale(1 1) rotate(0) translate(4 63)">
<title>G</title>
<polygon fill="white" stroke="white" points="-4,5 -4,-63 383,-63 383,5 -4,5"/>
<!-- Node1 -->
<g id="node1" class="node"><title>Node1</title>
<polygon fill="#bfbfbf" stroke="black" points="-0.1775,-19 -0.1775,-39 174.178,-39 174.178,-19 -0.1775,-19"/>
<text text-anchor="middle" x="87" y="-26" font-family="Helvetica,sans-Serif" font-size="10.00">f3dex_transforms::survey2almn_srs</text>
</g>
<!-- Node2 -->
<g id="node3" class="node"><title>Node2</title>
<a xlink:href="namespacef3dex__transforms.html#aef309274871cf8eb0405b63f14ab26a2" target="_top" xlink:title="f3dex_transforms::alnspring2almn">
<polygon fill="white" stroke="black" points="210.709,-39 210.709,-59 377.291,-59 377.291,-39 210.709,-39"/>
<text text-anchor="middle" x="294" y="-46" font-family="Helvetica,sans-Serif" font-size="10.00">f3dex_transforms::alnspring2almn</text>
</a>
</g>
<!-- Node1&#45;&gt;Node2 -->
<g id="edge2" class="edge"><title>Node1&#45;&gt;Node2</title>
<path fill="none" stroke="midnightblue" d="M174.344,-37.4238C182.996,-38.2679 191.804,-39.1273 200.516,-39.9772"/>
<polygon fill="midnightblue" stroke="midnightblue" points="200.39,-43.4814 210.682,-40.969 201.069,-36.5145 200.39,-43.4814"/>
</g>
<!-- Node3 -->
<g id="node5" class="node"><title>Node3</title>
<a xlink:href="namespacef3dex__transforms.html#a9b68481c890d75c3e3f4cbd4a7109830" target="_top" xlink:title="Compute the value of the l&#45;th order spherical bessel FUNCTION at x.">
<polygon fill="white" stroke="black" points="235.988,-0 235.988,-20 352.012,-20 352.012,-0 235.988,-0"/>
<text text-anchor="middle" x="294" y="-7" font-family="Helvetica,sans-Serif" font-size="10.00">f3dex_transforms::BJL</text>
</a>
</g>
<!-- Node1&#45;&gt;Node3 -->
<g id="edge4" class="edge"><title>Node1&#45;&gt;Node3</title>
<path fill="none" stroke="midnightblue" d="M174.344,-20.9974C191.561,-19.4016 209.402,-17.7481 225.858,-16.2229"/>
<polygon fill="midnightblue" stroke="midnightblue" points="226.272,-19.6996 235.907,-15.2916 225.626,-12.7295 226.272,-19.6996"/>
</g>
</g>
</svg>
