<?xml version="1.0" encoding="UTF-8" standalone="no"?>
<!DOCTYPE svg PUBLIC "-//W3C//DTD SVG 1.1//EN"
 "http://www.w3.org/Graphics/SVG/1.1/DTD/svg11.dtd">
<!-- Generated by graphviz version 2.28.0 (20111102.2313)
 -->
<!-- Title: G Pages: 1 -->
<svg width="326pt" height="145pt"
 viewBox="0.00 0.00 326.00 145.00" xmlns="http://www.w3.org/2000/svg" xmlns:xlink="http://www.w3.org/1999/xlink">
<g id="graph1" class="graph" transform="scale(1 1) rotate(0) translate(4 141)">
<title>G</title>
<polygon fill="white" stroke="white" points="-4,5 -4,-141 323,-141 323,5 -4,5"/>
<!-- Node1 -->
<g id="node1" class="node"><title>Node1</title>
<polygon fill="#bfbfbf" stroke="black" points="-0.0705,-58 -0.0705,-78 132.07,-78 132.07,-58 -0.0705,-58"/>
<text text-anchor="middle" x="66" y="-65" font-family="Helvetica,sans-Serif" font-size="10.00">f3dex_stats::map2cl_QML</text>
</g>
<!-- Node2 -->
<g id="node3" class="node"><title>Node2</title>
<a xlink:href="namespacef3dex__stats.html#ac34a6421249816395b51048aa0a3dde3" target="_top" xlink:title="Generates &lt;xxt&gt; correlation angles map.">
<polygon fill="white" stroke="black" points="168.307,-117 168.307,-137 317.693,-137 317.693,-117 168.307,-117"/>
<text text-anchor="middle" x="243" y="-124" font-family="Helvetica,sans-Serif" font-size="10.00">f3dex_stats::gen_angles_map</text>
</a>
</g>
<!-- Node1&#45;&gt;Node2 -->
<g id="edge2" class="edge"><title>Node1&#45;&gt;Node2</title>
<path fill="none" stroke="midnightblue" d="M90.8259,-78.0123C111.133,-86.3492 141.203,-98.2318 168,-107 175.733,-109.53 183.994,-111.993 192.088,-114.276"/>
<polygon fill="midnightblue" stroke="midnightblue" points="191.262,-117.679 201.833,-116.963 193.123,-110.93 191.262,-117.679"/>
</g>
<!-- Node3 -->
<g id="node5" class="node"><title>Node3</title>
<a xlink:href="namespacef3dex__stats.html#a564304481b43b3d55989683f03460410" target="_top" xlink:title="Inverts matrix.">
<polygon fill="white" stroke="black" points="184.709,-78 184.709,-98 301.291,-98 301.291,-78 184.709,-78"/>
<text text-anchor="middle" x="243" y="-85" font-family="Helvetica,sans-Serif" font-size="10.00">f3dex_stats::INVERSE</text>
</a>
</g>
<!-- Node1&#45;&gt;Node3 -->
<g id="edge4" class="edge"><title>Node1&#45;&gt;Node3</title>
<path fill="none" stroke="midnightblue" d="M132.164,-75.4473C146.005,-77.0291 160.645,-78.7022 174.568,-80.2935"/>
<polygon fill="midnightblue" stroke="midnightblue" points="174.226,-83.7771 184.558,-81.4352 175.02,-76.8223 174.226,-83.7771"/>
</g>
<!-- Node4 -->
<g id="node7" class="node"><title>Node4</title>
<a xlink:href="namespacef3dex__utils.html#a92226ca7c662562058c56ba005f6fc36" target="_top" xlink:title="Print preformated messages.">
<polygon fill="white" stroke="black" points="188.043,-39 188.043,-59 297.957,-59 297.957,-39 188.043,-39"/>
<text text-anchor="middle" x="243" y="-46" font-family="Helvetica,sans-Serif" font-size="10.00">f3dex_utils::message</text>
</a>
</g>
<!-- Node1&#45;&gt;Node4 -->
<g id="edge6" class="edge"><title>Node1&#45;&gt;Node4</title>
<path fill="none" stroke="midnightblue" d="M132.164,-60.9251C147.086,-59.3049 162.938,-57.5839 177.819,-55.9682"/>
<polygon fill="midnightblue" stroke="midnightblue" points="178.379,-59.428 187.943,-54.869 177.624,-52.4689 178.379,-59.428"/>
</g>
<!-- Node5 -->
<g id="node9" class="node"><title>Node5</title>
<a xlink:href="namespacef3dex__stats.html#ae106140bb309de7d7779b6b086050bf4" target="_top" xlink:title="TRACE of a product of matrices.">
<polygon fill="white" stroke="black" points="175.269,-0 175.269,-20 310.731,-20 310.731,-0 175.269,-0"/>
<text text-anchor="middle" x="243" y="-7" font-family="Helvetica,sans-Serif" font-size="10.00">f3dex_stats::TRACEPROD</text>
</a>
</g>
<!-- Node1&#45;&gt;Node5 -->
<g id="edge8" class="edge"><title>Node1&#45;&gt;Node5</title>
<path fill="none" stroke="midnightblue" d="M91.6701,-57.9601C111.977,-49.8801 141.61,-38.5089 168,-30 175.744,-27.503 184.01,-25.058 192.107,-22.7825"/>
<polygon fill="midnightblue" stroke="midnightblue" points="193.141,-26.128 201.853,-20.0988 191.283,-19.3792 193.141,-26.128"/>
</g>
</g>
</svg>
