<?xml version="1.0" encoding="UTF-8" standalone="no"?>
<!DOCTYPE svg PUBLIC "-//W3C//DTD SVG 1.1//EN"
 "http://www.w3.org/Graphics/SVG/1.1/DTD/svg11.dtd">
<!-- Generated by graphviz version 2.28.0 (20111102.2313)
 -->
<!-- Title: G Pages: 1 -->
<svg width="496pt" height="86pt"
 viewBox="0.00 0.00 496.00 86.00" xmlns="http://www.w3.org/2000/svg" xmlns:xlink="http://www.w3.org/1999/xlink">
<g id="graph1" class="graph" transform="scale(1 1) rotate(0) translate(4 82)">
<title>G</title>
<polygon fill="white" stroke="white" points="-4,5 -4,-82 493,-82 493,5 -4,5"/>
<!-- Node1 -->
<g id="node1" class="node"><title>Node1</title>
<polygon fill="#bfbfbf" stroke="black" points="-0.193,-19 -0.193,-39 144.193,-39 144.193,-19 -0.193,-19"/>
<text text-anchor="middle" x="72" y="-26" font-family="Helvetica,sans-Serif" font-size="10.00">f3dex_utests::utest_legendre</text>
</g>
<!-- Node2 -->
<g id="node3" class="node"><title>Node2</title>
<a xlink:href="namespacef3dex__utils.html#a234414d8daaf5e3bfd03754331b467ed" target="_top" xlink:title="Assert if two arrays are equal.">
<polygon fill="white" stroke="black" points="180.436,-58 180.436,-78 317.564,-78 317.564,-58 180.436,-58"/>
<text text-anchor="middle" x="249" y="-65" font-family="Helvetica,sans-Serif" font-size="10.00">f3dex_utils::assert_DPARR</text>
</a>
</g>
<!-- Node1&#45;&gt;Node2 -->
<g id="edge2" class="edge"><title>Node1&#45;&gt;Node2</title>
<path fill="none" stroke="midnightblue" d="M118.067,-39.0435C140.929,-44.1385 168.891,-50.3699 193.01,-55.7451"/>
<polygon fill="midnightblue" stroke="midnightblue" points="192.564,-59.2315 203.086,-57.9906 194.087,-52.3991 192.564,-59.2315"/>
</g>
<!-- Node4 -->
<g id="node7" class="node"><title>Node4</title>
<a xlink:href="namespacef3dex__stats.html#aa2fb45e013179295e3b876ced9eff015" target="_top" xlink:title="Computes legendre coefs of an array using recurrence.">
<polygon fill="white" stroke="black" points="182.091,-19 182.091,-39 315.909,-39 315.909,-19 182.091,-19"/>
<text text-anchor="middle" x="249" y="-26" font-family="Helvetica,sans-Serif" font-size="10.00">f3dex_stats::legendre_mat</text>
</a>
</g>
<!-- Node1&#45;&gt;Node4 -->
<g id="edge6" class="edge"><title>Node1&#45;&gt;Node4</title>
<path fill="none" stroke="midnightblue" d="M144.432,-29C153.427,-29 162.657,-29 171.724,-29"/>
<polygon fill="midnightblue" stroke="midnightblue" points="171.87,-32.5001 181.87,-29 171.87,-25.5001 171.87,-32.5001"/>
</g>
<!-- Node5 -->
<g id="node9" class="node"><title>Node5</title>
<a xlink:href="namespacef3dex__stats.html#a1f360b2a41b5a63c3379390a55ef07b2" target="_top" xlink:title="Computes legendre coefs of a double using recurrence.">
<polygon fill="white" stroke="black" points="354.645,-0 354.645,-20 487.355,-20 487.355,-0 354.645,-0"/>
<text text-anchor="middle" x="421" y="-7" font-family="Helvetica,sans-Serif" font-size="10.00">f3dex_stats::legendre_vec</text>
</a>
</g>
<!-- Node1&#45;&gt;Node5 -->
<g id="edge10" class="edge"><title>Node1&#45;&gt;Node5</title>
<path fill="none" stroke="midnightblue" d="M116.474,-18.9884C135.809,-15.025 158.924,-10.9528 180,-9 234.791,-3.92332 296.92,-4.35046 344.235,-5.95399"/>
<polygon fill="midnightblue" stroke="midnightblue" points="344.282,-9.45791 354.402,-6.32425 344.537,-2.46255 344.282,-9.45791"/>
</g>
<!-- Node3 -->
<g id="node5" class="node"><title>Node3</title>
<a xlink:href="namespacef3dex__utils.html#ad4cb6613ee589637f453ef808466a0f9" target="_top" xlink:title="Assert if two doubles are equal.">
<polygon fill="white" stroke="black" points="362.989,-58 362.989,-78 479.011,-78 479.011,-58 362.989,-58"/>
<text text-anchor="middle" x="421" y="-65" font-family="Helvetica,sans-Serif" font-size="10.00">f3dex_utils::assert_DP</text>
</a>
</g>
<!-- Node2&#45;&gt;Node3 -->
<g id="edge4" class="edge"><title>Node2&#45;&gt;Node3</title>
<path fill="none" stroke="midnightblue" d="M317.677,-68C329.279,-68 341.33,-68 352.916,-68"/>
<polygon fill="midnightblue" stroke="midnightblue" points="352.955,-71.5001 362.955,-68 352.955,-64.5001 352.955,-71.5001"/>
</g>
<!-- Node4&#45;&gt;Node5 -->
<g id="edge8" class="edge"><title>Node4&#45;&gt;Node5</title>
<path fill="none" stroke="midnightblue" d="M316.213,-21.5997C325.456,-20.5667 335.011,-19.4988 344.41,-18.4483"/>
<polygon fill="midnightblue" stroke="midnightblue" points="344.977,-21.9068 354.526,-17.3177 344.199,-14.9501 344.977,-21.9068"/>
</g>
</g>
</svg>
