<?xml version="1.0" encoding="UTF-8" standalone="no"?>
<!DOCTYPE svg PUBLIC "-//W3C//DTD SVG 1.1//EN"
 "http://www.w3.org/Graphics/SVG/1.1/DTD/svg11.dtd">
<!-- Generated by graphviz version 2.28.0 (20111007.0958)
 -->
<!-- Title: G Pages: 1 -->
<svg width="256pt" height="106pt"
 viewBox="0.00 0.00 256.00 106.00" xmlns="http://www.w3.org/2000/svg" xmlns:xlink="http://www.w3.org/1999/xlink">
<g id="graph1" class="graph" transform="scale(1 1) rotate(0) translate(4 102)">
<title>G</title>
<polygon fill="white" stroke="white" points="-4,5 -4,-102 253,-102 253,5 -4,5"/>
<!-- Node1 -->
<g id="node1" class="node"><title>Node1</title>
<polygon fill="#bfbfbf" stroke="black" points="-0.008,-39 -0.008,-59 86.008,-59 86.008,-39 -0.008,-39"/>
<text text-anchor="middle" x="43" y="-46" font-family="Helvetica,sans-Serif" font-size="10.00">f3dex::fits2almn</text>
</g>
<!-- Node2 -->
<g id="node3" class="node"><title>Node2</title>
<a xlink:href="namespacef3dex.html#a8bb386e1b869c35df30978b7e634b234" target="_top" xlink:title="f3dex::f90ftgcvd">
<polygon fill="white" stroke="black" points="141.707,-78 141.707,-98 228.293,-98 228.293,-78 141.707,-78"/>
<text text-anchor="middle" x="185" y="-85" font-family="Helvetica,sans-Serif" font-size="10.00">f3dex::f90ftgcvd</text>
</a>
</g>
<!-- Node1&#45;&gt;Node2 -->
<g id="edge2" class="edge"><title>Node1&#45;&gt;Node2</title>
<path fill="none" stroke="midnightblue" d="M80.0535,-59.0435C97.7716,-63.9792 119.318,-69.9816 138.19,-75.2388"/>
<polygon fill="midnightblue" stroke="midnightblue" points="137.496,-78.6786 148.069,-77.9906 139.375,-71.9353 137.496,-78.6786"/>
</g>
<!-- Node3 -->
<g id="node5" class="node"><title>Node3</title>
<a xlink:href="namespacef3dex.html#abb1777616669f320b1792a0e8aba490a" target="_top" xlink:title="f3dex::f90ftgkyd">
<polygon fill="white" stroke="black" points="141.707,-39 141.707,-59 228.293,-59 228.293,-39 141.707,-39"/>
<text text-anchor="middle" x="185" y="-46" font-family="Helvetica,sans-Serif" font-size="10.00">f3dex::f90ftgkyd</text>
</a>
</g>
<!-- Node1&#45;&gt;Node3 -->
<g id="edge4" class="edge"><title>Node1&#45;&gt;Node3</title>
<path fill="none" stroke="midnightblue" d="M86.3845,-49C100.509,-49 116.419,-49 131.232,-49"/>
<polygon fill="midnightblue" stroke="midnightblue" points="131.276,-52.5001 141.276,-49 131.276,-45.5001 131.276,-52.5001"/>
</g>
<!-- Node4 -->
<g id="node7" class="node"><title>Node4</title>
<a xlink:href="namespacef3dex.html#a11254efdbb3dec3e0a04346a3b4420b7" target="_top" xlink:title="f3dex::get_clean_header">
<polygon fill="white" stroke="black" points="121.976,-0 121.976,-20 248.024,-20 248.024,-0 121.976,-0"/>
<text text-anchor="middle" x="185" y="-7" font-family="Helvetica,sans-Serif" font-size="10.00">f3dex::get_clean_header</text>
</a>
</g>
<!-- Node1&#45;&gt;Node4 -->
<g id="edge6" class="edge"><title>Node1&#45;&gt;Node4</title>
<path fill="none" stroke="midnightblue" d="M80.0535,-38.9565C97.7716,-34.0208 119.318,-28.0184 138.19,-22.7612"/>
<polygon fill="midnightblue" stroke="midnightblue" points="139.375,-26.0647 148.069,-20.0094 137.496,-19.3214 139.375,-26.0647"/>
</g>
</g>
</svg>
