<?xml version="1.0" encoding="UTF-8" standalone="no"?>
<!DOCTYPE svg PUBLIC "-//W3C//DTD SVG 1.1//EN"
 "http://www.w3.org/Graphics/SVG/1.1/DTD/svg11.dtd">
<!-- Generated by graphviz version 2.28.0 (20111102.2313)
 -->
<!-- Title: G Pages: 1 -->
<svg width="288pt" height="67pt"
 viewBox="0.00 0.00 288.00 67.00" xmlns="http://www.w3.org/2000/svg" xmlns:xlink="http://www.w3.org/1999/xlink">
<g id="graph1" class="graph" transform="scale(1 1) rotate(0) translate(4 63)">
<title>G</title>
<polygon fill="white" stroke="white" points="-4,5 -4,-63 285,-63 285,5 -4,5"/>
<!-- Node1 -->
<g id="node1" class="node"><title>Node1</title>
<polygon fill="#bfbfbf" stroke="black" points="0.145,-19 0.145,-39 127.855,-39 127.855,-19 0.145,-19"/>
<text text-anchor="middle" x="64" y="-26" font-family="Helvetica,sans-Serif" font-size="10.00">f3dex_utests::utest_trace</text>
</g>
<!-- Node2 -->
<g id="node3" class="node"><title>Node2</title>
<a xlink:href="namespacef3dex__utils.html#ad4cb6613ee589637f453ef808466a0f9" target="_top" xlink:title="Assert if two doubles are equal.">
<polygon fill="white" stroke="black" points="163.989,-39 163.989,-59 280.011,-59 280.011,-39 163.989,-39"/>
<text text-anchor="middle" x="222" y="-46" font-family="Helvetica,sans-Serif" font-size="10.00">f3dex_utils::assert_DP</text>
</a>
</g>
<!-- Node1&#45;&gt;Node2 -->
<g id="edge2" class="edge"><title>Node1&#45;&gt;Node2</title>
<path fill="none" stroke="midnightblue" d="M128.002,-37.0771C136.511,-38.168 145.267,-39.2907 153.845,-40.3904"/>
<polygon fill="midnightblue" stroke="midnightblue" points="153.444,-43.8675 163.808,-41.6676 154.334,-36.9243 153.444,-43.8675"/>
</g>
<!-- Node3 -->
<g id="node5" class="node"><title>Node3</title>
<a xlink:href="namespacef3dex__stats.html#aa88d6eefa32a9edc04b3d93af96f5a2e" target="_top" xlink:title="TRACE.">
<polygon fill="white" stroke="black" points="168.713,-0 168.713,-20 275.288,-20 275.288,-0 168.713,-0"/>
<text text-anchor="middle" x="222" y="-7" font-family="Helvetica,sans-Serif" font-size="10.00">f3dex_stats::TRACE</text>
</a>
</g>
<!-- Node1&#45;&gt;Node3 -->
<g id="edge4" class="edge"><title>Node1&#45;&gt;Node3</title>
<path fill="none" stroke="midnightblue" d="M128.002,-21.3267C137.918,-20.119 148.17,-18.8703 158.084,-17.6628"/>
<polygon fill="midnightblue" stroke="midnightblue" points="158.762,-21.1062 168.265,-16.4228 157.916,-14.1576 158.762,-21.1062"/>
</g>
</g>
</svg>
