<?xml version="1.0" encoding="UTF-8" standalone="no"?>
<!DOCTYPE svg PUBLIC "-//W3C//DTD SVG 1.1//EN"
 "http://www.w3.org/Graphics/SVG/1.1/DTD/svg11.dtd">
<!-- Generated by graphviz version 2.28.0 (20111007.0958)
 -->
<!-- Title: G Pages: 1 -->
<svg width="434pt" height="301pt"
 viewBox="0.00 0.00 434.00 301.00" xmlns="http://www.w3.org/2000/svg" xmlns:xlink="http://www.w3.org/1999/xlink">
<g id="graph1" class="graph" transform="scale(1 1) rotate(0) translate(4 297)">
<title>G</title>
<polygon fill="white" stroke="white" points="-4,5 -4,-297 431,-297 431,5 -4,5"/>
<!-- Node1 -->
<g id="node1" class="node"><title>Node1</title>
<polygon fill="#bfbfbf" stroke="black" points="0.484,-199 0.484,-219 131.516,-219 131.516,-199 0.484,-199"/>
<text text-anchor="middle" x="66" y="-206" font-family="Helvetica,sans-Serif" font-size="10.00">f3dex_cosmotools::chi_z1</text>
</g>
<!-- Node2 -->
<g id="node3" class="node"><title>Node2</title>
<a xlink:href="namespacef3dex__cosmotools.html#abba0e9b02d0f46a5abce5a0830da7f4d" target="_top" xlink:title="f3dex_cosmotools::fz">
<polygon fill="white" stroke="black" points="168.042,-238 168.042,-258 277.957,-258 277.957,-238 168.042,-238"/>
<text text-anchor="middle" x="223" y="-245" font-family="Helvetica,sans-Serif" font-size="10.00">f3dex_cosmotools::fz</text>
</a>
</g>
<!-- Node1&#45;&gt;Node2 -->
<g id="edge2" class="edge"><title>Node1&#45;&gt;Node2</title>
<path fill="none" stroke="midnightblue" d="M106.916,-219.043C126.894,-224.07 151.269,-230.203 172.435,-235.529"/>
<polygon fill="midnightblue" stroke="midnightblue" points="171.667,-238.945 182.219,-237.991 173.375,-232.156 171.667,-238.945"/>
</g>
<!-- Node3 -->
<g id="node5" class="node"><title>Node3</title>
<a xlink:href="quadpack_8f90.html#a44906a25a31588f7e4f41f0e5253193a" target="_top" xlink:title="qag">
<polygon fill="white" stroke="black" points="206.661,-141 206.661,-161 239.339,-161 239.339,-141 206.661,-141"/>
<text text-anchor="middle" x="223" y="-148" font-family="Helvetica,sans-Serif" font-size="10.00">qag</text>
</a>
</g>
<!-- Node1&#45;&gt;Node3 -->
<g id="edge4" class="edge"><title>Node1&#45;&gt;Node3</title>
<path fill="none" stroke="midnightblue" d="M93.9989,-198.897C123.044,-188.029 168.852,-170.888 197.07,-160.329"/>
<polygon fill="midnightblue" stroke="midnightblue" points="198.468,-163.543 206.607,-156.76 196.015,-156.987 198.468,-163.543"/>
</g>
<!-- Node12 -->
<g id="node23" class="node"><title>Node12</title>
<a xlink:href="quadpack_8f90.html#a99cf2a02a14029fad4762555f04cac0e" target="_top" xlink:title="qagp">
<polygon fill="white" stroke="black" points="313.882,-214 313.882,-234 352.118,-234 352.118,-214 313.882,-214"/>
<text text-anchor="middle" x="333" y="-221" font-family="Helvetica,sans-Serif" font-size="10.00">qagp</text>
</a>
</g>
<!-- Node1&#45;&gt;Node12 -->
<g id="edge22" class="edge"><title>Node1&#45;&gt;Node12</title>
<path fill="none" stroke="midnightblue" d="M131.826,-212.669C186.824,-215.782 263.085,-220.099 303.769,-222.402"/>
<polygon fill="midnightblue" stroke="midnightblue" points="303.601,-225.898 313.783,-222.969 303.997,-218.909 303.601,-225.898"/>
</g>
<!-- Node4 -->
<g id="node7" class="node"><title>Node4</title>
<a xlink:href="quadpack_8f90.html#ab602437c218a2c74d6a13f9462f98854" target="_top" xlink:title="qage">
<polygon fill="white" stroke="black" points="313.882,-131 313.882,-151 352.118,-151 352.118,-131 313.882,-131"/>
<text text-anchor="middle" x="333" y="-138" font-family="Helvetica,sans-Serif" font-size="10.00">qage</text>
</a>
</g>
<!-- Node3&#45;&gt;Node4 -->
<g id="edge6" class="edge"><title>Node3&#45;&gt;Node4</title>
<path fill="none" stroke="midnightblue" d="M239.474,-149.567C256.162,-148.022 283.094,-145.528 303.609,-143.629"/>
<polygon fill="midnightblue" stroke="midnightblue" points="304.029,-147.105 313.664,-142.698 303.384,-140.135 304.029,-147.105"/>
</g>
<!-- Node5 -->
<g id="node9" class="node"><title>Node5</title>
<a xlink:href="quadpack_8f90.html#a1722ad5ba07cec52d38c9ebf9df80a2d" target="_top" xlink:title="qk15">
<polygon fill="white" stroke="black" points="388.161,-0 388.161,-20 425.839,-20 425.839,-0 388.161,-0"/>
<text text-anchor="middle" x="407" y="-7" font-family="Helvetica,sans-Serif" font-size="10.00">qk15</text>
</a>
</g>
<!-- Node4&#45;&gt;Node5 -->
<g id="edge8" class="edge"><title>Node4&#45;&gt;Node5</title>
<path fill="none" stroke="midnightblue" d="M337.666,-130.855C345.278,-110.497 364.1,-63.6504 388,-29 388.193,-28.7195 388.391,-28.4391 388.592,-28.159"/>
<polygon fill="midnightblue" stroke="midnightblue" points="391.387,-30.2727 395.101,-20.3503 386.01,-25.7907 391.387,-30.2727"/>
</g>
<!-- Node6 -->
<g id="node11" class="node"><title>Node6</title>
<a xlink:href="quadpack_8f90.html#a27241a527b249e9de59a5ed6bee5f805" target="_top" xlink:title="qk21">
<polygon fill="white" stroke="black" points="388.161,-234 388.161,-254 425.839,-254 425.839,-234 388.161,-234"/>
<text text-anchor="middle" x="407" y="-241" font-family="Helvetica,sans-Serif" font-size="10.00">qk21</text>
</a>
</g>
<!-- Node4&#45;&gt;Node6 -->
<g id="edge10" class="edge"><title>Node4&#45;&gt;Node6</title>
<path fill="none" stroke="midnightblue" d="M339.84,-151.05C349.268,-167.01 368.736,-198.911 388,-224 388.469,-224.611 388.953,-225.227 389.447,-225.844"/>
<polygon fill="midnightblue" stroke="midnightblue" points="386.991,-228.357 396.153,-233.678 392.309,-223.805 386.991,-228.357"/>
</g>
<!-- Node7 -->
<g id="node13" class="node"><title>Node7</title>
<a xlink:href="quadpack_8f90.html#aded2e8dd2218fbd159b78c0e8975a4cd" target="_top" xlink:title="qk31">
<polygon fill="white" stroke="black" points="388.161,-156 388.161,-176 425.839,-176 425.839,-156 388.161,-156"/>
<text text-anchor="middle" x="407" y="-163" font-family="Helvetica,sans-Serif" font-size="10.00">qk31</text>
</a>
</g>
<!-- Node4&#45;&gt;Node7 -->
<g id="edge12" class="edge"><title>Node4&#45;&gt;Node7</title>
<path fill="none" stroke="midnightblue" d="M352.169,-147.309C360.159,-150.083 369.718,-153.402 378.549,-156.468"/>
<polygon fill="midnightblue" stroke="midnightblue" points="377.492,-159.806 388.087,-159.78 379.788,-153.194 377.492,-159.806"/>
</g>
<!-- Node8 -->
<g id="node15" class="node"><title>Node8</title>
<a xlink:href="quadpack_8f90.html#aface4edf24710a0b323f5aaeb6bdec34" target="_top" xlink:title="qk41">
<polygon fill="white" stroke="black" points="388.161,-117 388.161,-137 425.839,-137 425.839,-117 388.161,-117"/>
<text text-anchor="middle" x="407" y="-124" font-family="Helvetica,sans-Serif" font-size="10.00">qk41</text>
</a>
</g>
<!-- Node4&#45;&gt;Node8 -->
<g id="edge14" class="edge"><title>Node4&#45;&gt;Node8</title>
<path fill="none" stroke="midnightblue" d="M352.169,-137.467C360.073,-135.93 369.513,-134.095 378.263,-132.393"/>
<polygon fill="midnightblue" stroke="midnightblue" points="378.939,-135.828 388.087,-130.483 377.602,-128.956 378.939,-135.828"/>
</g>
<!-- Node9 -->
<g id="node17" class="node"><title>Node9</title>
<a xlink:href="quadpack_8f90.html#a73edb4987a87a40ebf4731ab63d7f03e" target="_top" xlink:title="qk51">
<polygon fill="white" stroke="black" points="388.161,-78 388.161,-98 425.839,-98 425.839,-78 388.161,-78"/>
<text text-anchor="middle" x="407" y="-85" font-family="Helvetica,sans-Serif" font-size="10.00">qk51</text>
</a>
</g>
<!-- Node4&#45;&gt;Node9 -->
<g id="edge16" class="edge"><title>Node4&#45;&gt;Node9</title>
<path fill="none" stroke="midnightblue" d="M347.882,-130.781C358.142,-123.229 372.314,-112.797 384.095,-104.125"/>
<polygon fill="midnightblue" stroke="midnightblue" points="386.182,-106.934 392.16,-98.1876 382.032,-101.297 386.182,-106.934"/>
</g>
<!-- Node10 -->
<g id="node19" class="node"><title>Node10</title>
<a xlink:href="quadpack_8f90.html#acb4a48f5e54a2c5f951d0828e8f8146d" target="_top" xlink:title="qk61">
<polygon fill="white" stroke="black" points="388.161,-39 388.161,-59 425.839,-59 425.839,-39 388.161,-39"/>
<text text-anchor="middle" x="407" y="-46" font-family="Helvetica,sans-Serif" font-size="10.00">qk61</text>
</a>
</g>
<!-- Node4&#45;&gt;Node10 -->
<g id="edge18" class="edge"><title>Node4&#45;&gt;Node10</title>
<path fill="none" stroke="midnightblue" d="M340.964,-130.788C350.908,-116.397 369.974,-89.5044 388,-68 388.306,-67.6344 388.618,-67.2668 388.934,-66.898"/>
<polygon fill="midnightblue" stroke="midnightblue" points="391.746,-69.0066 395.863,-59.2442 386.557,-64.3088 391.746,-69.0066"/>
</g>
<!-- Node11 -->
<g id="node21" class="node"><title>Node11</title>
<a xlink:href="quadpack_8f90.html#a55e08a684c5a6315fb37dd0fdc66d8e6" target="_top" xlink:title="qsort">
<polygon fill="white" stroke="black" points="387.887,-195 387.887,-215 426.113,-215 426.113,-195 387.887,-195"/>
<text text-anchor="middle" x="407" y="-202" font-family="Helvetica,sans-Serif" font-size="10.00">qsort</text>
</a>
</g>
<!-- Node4&#45;&gt;Node11 -->
<g id="edge20" class="edge"><title>Node4&#45;&gt;Node11</title>
<path fill="none" stroke="midnightblue" d="M345.568,-151.283C356.761,-161.232 373.919,-176.483 387.096,-188.197"/>
<polygon fill="midnightblue" stroke="midnightblue" points="384.899,-190.926 394.698,-194.954 389.549,-185.694 384.899,-190.926"/>
</g>
<!-- Node12&#45;&gt;Node6 -->
<g id="edge26" class="edge"><title>Node12&#45;&gt;Node6</title>
<path fill="none" stroke="midnightblue" d="M352.169,-229.047C360.073,-231.243 369.513,-233.865 378.263,-236.295"/>
<polygon fill="midnightblue" stroke="midnightblue" points="377.515,-239.72 388.087,-239.024 379.388,-232.975 377.515,-239.72"/>
</g>
<!-- Node12&#45;&gt;Node11 -->
<g id="edge28" class="edge"><title>Node12&#45;&gt;Node11</title>
<path fill="none" stroke="midnightblue" d="M352.169,-219.205C359.954,-217.151 369.227,-214.704 377.865,-212.424"/>
<polygon fill="midnightblue" stroke="midnightblue" points="378.811,-215.795 387.587,-209.859 377.025,-209.027 378.811,-215.795"/>
</g>
<!-- Node13 -->
<g id="node25" class="node"><title>Node13</title>
<a xlink:href="quadpack_8f90.html#a5a75101d080f224c63adde98a0e64386" target="_top" xlink:title="qextr">
<polygon fill="white" stroke="black" points="387.887,-273 387.887,-293 426.113,-293 426.113,-273 387.887,-273"/>
<text text-anchor="middle" x="407" y="-280" font-family="Helvetica,sans-Serif" font-size="10.00">qextr</text>
</a>
</g>
<!-- Node12&#45;&gt;Node13 -->
<g id="edge24" class="edge"><title>Node12&#45;&gt;Node13</title>
<path fill="none" stroke="midnightblue" d="M346.214,-234.009C357.009,-242.854 372.969,-255.933 385.684,-266.352"/>
<polygon fill="midnightblue" stroke="midnightblue" points="383.531,-269.113 393.484,-272.744 387.968,-263.699 383.531,-269.113"/>
</g>
</g>
</svg>
