<?xml version="1.0" encoding="UTF-8" standalone="no"?>
<!DOCTYPE svg PUBLIC "-//W3C//DTD SVG 1.1//EN"
 "http://www.w3.org/Graphics/SVG/1.1/DTD/svg11.dtd">
<!-- Generated by graphviz version 2.28.0 (20111007.0958)
 -->
<!-- Title: G Pages: 1 -->
<svg width="550pt" height="106pt"
 viewBox="0.00 0.00 550.00 106.00" xmlns="http://www.w3.org/2000/svg" xmlns:xlink="http://www.w3.org/1999/xlink">
<g id="graph1" class="graph" transform="scale(1 1) rotate(0) translate(4 102)">
<title>G</title>
<polygon fill="white" stroke="white" points="-4,5 -4,-102 547,-102 547,5 -4,5"/>
<!-- Node1 -->
<g id="node1" class="node"><title>Node1</title>
<polygon fill="#bfbfbf" stroke="black" points="0.6495,-58 0.6495,-78 153.351,-78 153.351,-58 0.6495,-58"/>
<text text-anchor="middle" x="77" y="-65" font-family="Helvetica,sans-Serif" font-size="10.00">f3dex_cosmotools::cosmo_z2s</text>
</g>
<!-- Node2 -->
<g id="node3" class="node"><title>Node2</title>
<a xlink:href="namespacef3dex__cosmotools.html#abdbb37c7c522bf29ebf089412b9d7854" target="_top" xlink:title="f3dex_cosmotools::chi_z0">
<polygon fill="white" stroke="black" points="190.484,-58 190.484,-78 321.516,-78 321.516,-58 190.484,-58"/>
<text text-anchor="middle" x="256" y="-65" font-family="Helvetica,sans-Serif" font-size="10.00">f3dex_cosmotools::chi_z0</text>
</a>
</g>
<!-- Node1&#45;&gt;Node2 -->
<g id="edge2" class="edge"><title>Node1&#45;&gt;Node2</title>
<path fill="none" stroke="midnightblue" d="M153.577,-68C162.357,-68 171.31,-68 180.08,-68"/>
<polygon fill="midnightblue" stroke="midnightblue" points="180.271,-71.5001 190.271,-68 180.271,-64.5001 180.271,-71.5001"/>
</g>
<!-- Node3 -->
<g id="node5" class="node"><title>Node3</title>
<a xlink:href="namespacef3dex__cosmotools.html#abba0e9b02d0f46a5abce5a0830da7f4d" target="_top" xlink:title="f3dex_cosmotools::fz">
<polygon fill="white" stroke="black" points="358.043,-78 358.043,-98 467.957,-98 467.957,-78 358.043,-78"/>
<text text-anchor="middle" x="413" y="-85" font-family="Helvetica,sans-Serif" font-size="10.00">f3dex_cosmotools::fz</text>
</a>
</g>
<!-- Node2&#45;&gt;Node3 -->
<g id="edge4" class="edge"><title>Node2&#45;&gt;Node3</title>
<path fill="none" stroke="midnightblue" d="M321.836,-76.3659C330.422,-77.4738 339.221,-78.6092 347.796,-79.7157"/>
<polygon fill="midnightblue" stroke="midnightblue" points="347.368,-83.1894 357.734,-80.9979 348.264,-76.2469 347.368,-83.1894"/>
</g>
<!-- Node4 -->
<g id="node7" class="node"><title>Node4</title>
<a xlink:href="quadpack_8f90.html#a99cf2a02a14029fad4762555f04cac0e" target="_top" xlink:title="qagp">
<polygon fill="white" stroke="black" points="393.882,-39 393.882,-59 432.118,-59 432.118,-39 393.882,-39"/>
<text text-anchor="middle" x="413" y="-46" font-family="Helvetica,sans-Serif" font-size="10.00">qagp</text>
</a>
</g>
<!-- Node2&#45;&gt;Node4 -->
<g id="edge6" class="edge"><title>Node2&#45;&gt;Node4</title>
<path fill="none" stroke="midnightblue" d="M321.836,-60.0524C343.407,-57.4081 366.324,-54.599 383.656,-52.4745"/>
<polygon fill="midnightblue" stroke="midnightblue" points="384.164,-55.9385 393.663,-51.2477 383.312,-48.9905 384.164,-55.9385"/>
</g>
<!-- Node5 -->
<g id="node9" class="node"><title>Node5</title>
<a xlink:href="quadpack_8f90.html#a5a75101d080f224c63adde98a0e64386" target="_top" xlink:title="qextr">
<polygon fill="white" stroke="black" points="503.887,-78 503.887,-98 542.113,-98 542.113,-78 503.887,-78"/>
<text text-anchor="middle" x="523" y="-85" font-family="Helvetica,sans-Serif" font-size="10.00">qextr</text>
</a>
</g>
<!-- Node4&#45;&gt;Node5 -->
<g id="edge8" class="edge"><title>Node4&#45;&gt;Node5</title>
<path fill="none" stroke="midnightblue" d="M432.321,-55.6158C449.233,-61.7229 474.596,-70.8817 494.038,-77.9026"/>
<polygon fill="midnightblue" stroke="midnightblue" points="492.995,-81.2472 503.589,-81.3517 495.373,-74.6633 492.995,-81.2472"/>
</g>
<!-- Node6 -->
<g id="node11" class="node"><title>Node6</title>
<a xlink:href="quadpack_8f90.html#a27241a527b249e9de59a5ed6bee5f805" target="_top" xlink:title="qk21">
<polygon fill="white" stroke="black" points="504.161,-39 504.161,-59 541.838,-59 541.838,-39 504.161,-39"/>
<text text-anchor="middle" x="523" y="-46" font-family="Helvetica,sans-Serif" font-size="10.00">qk21</text>
</a>
</g>
<!-- Node4&#45;&gt;Node6 -->
<g id="edge10" class="edge"><title>Node4&#45;&gt;Node6</title>
<path fill="none" stroke="midnightblue" d="M432.321,-49C449.179,-49 474.435,-49 493.853,-49"/>
<polygon fill="midnightblue" stroke="midnightblue" points="493.95,-52.5001 503.95,-49 493.95,-45.5001 493.95,-52.5001"/>
</g>
<!-- Node7 -->
<g id="node13" class="node"><title>Node7</title>
<a xlink:href="quadpack_8f90.html#a55e08a684c5a6315fb37dd0fdc66d8e6" target="_top" xlink:title="qsort">
<polygon fill="white" stroke="black" points="503.887,-0 503.887,-20 542.113,-20 542.113,-0 503.887,-0"/>
<text text-anchor="middle" x="523" y="-7" font-family="Helvetica,sans-Serif" font-size="10.00">qsort</text>
</a>
</g>
<!-- Node4&#45;&gt;Node7 -->
<g id="edge12" class="edge"><title>Node4&#45;&gt;Node7</title>
<path fill="none" stroke="midnightblue" d="M432.321,-42.3842C449.233,-36.2771 474.596,-27.1183 494.038,-20.0974"/>
<polygon fill="midnightblue" stroke="midnightblue" points="495.373,-23.3367 503.589,-16.6483 492.995,-16.7528 495.373,-23.3367"/>
</g>
</g>
</svg>
