<?xml version="1.0" encoding="UTF-8" standalone="no"?>
<!DOCTYPE svg PUBLIC "-//W3C//DTD SVG 1.1//EN"
 "http://www.w3.org/Graphics/SVG/1.1/DTD/svg11.dtd">
<!-- Generated by graphviz version 2.28.0 (20111102.2313)
 -->
<!-- Title: G Pages: 1 -->
<svg width="360pt" height="106pt"
 viewBox="0.00 0.00 360.00 106.00" xmlns="http://www.w3.org/2000/svg" xmlns:xlink="http://www.w3.org/1999/xlink">
<g id="graph1" class="graph" transform="scale(1 1) rotate(0) translate(4 102)">
<title>G</title>
<polygon fill="white" stroke="white" points="-4,5 -4,-102 357,-102 357,5 -4,5"/>
<!-- Node1 -->
<g id="node1" class="node"><title>Node1</title>
<polygon fill="#bfbfbf" stroke="black" points="0.484,-58 0.484,-78 131.516,-78 131.516,-58 0.484,-58"/>
<text text-anchor="middle" x="66" y="-65" font-family="Helvetica,sans-Serif" font-size="10.00">f3dex_cosmotools::chi_z0</text>
</g>
<!-- Node2 -->
<g id="node3" class="node"><title>Node2</title>
<a xlink:href="namespacef3dex__cosmotools.html#abba0e9b02d0f46a5abce5a0830da7f4d" target="_top" xlink:title="Cosmological function.">
<polygon fill="white" stroke="black" points="168.042,-78 168.042,-98 277.957,-98 277.957,-78 168.042,-78"/>
<text text-anchor="middle" x="223" y="-85" font-family="Helvetica,sans-Serif" font-size="10.00">f3dex_cosmotools::fz</text>
</a>
</g>
<!-- Node1&#45;&gt;Node2 -->
<g id="edge2" class="edge"><title>Node1&#45;&gt;Node2</title>
<path fill="none" stroke="midnightblue" d="M131.836,-76.3659C140.422,-77.4738 149.221,-78.6092 157.796,-79.7157"/>
<polygon fill="midnightblue" stroke="midnightblue" points="157.368,-83.1894 167.734,-80.9979 158.264,-76.2469 157.368,-83.1894"/>
</g>
<!-- Node3 -->
<g id="node5" class="node"><title>Node3</title>
<a xlink:href="quadpack_8f90.html#a99cf2a02a14029fad4762555f04cac0e" target="_top" xlink:title="qagp">
<polygon fill="white" stroke="black" points="203.882,-39 203.882,-59 242.118,-59 242.118,-39 203.882,-39"/>
<text text-anchor="middle" x="223" y="-46" font-family="Helvetica,sans-Serif" font-size="10.00">qagp</text>
</a>
</g>
<!-- Node1&#45;&gt;Node3 -->
<g id="edge4" class="edge"><title>Node1&#45;&gt;Node3</title>
<path fill="none" stroke="midnightblue" d="M131.836,-60.0524C153.407,-57.4081 176.324,-54.599 193.656,-52.4745"/>
<polygon fill="midnightblue" stroke="midnightblue" points="194.164,-55.9385 203.663,-51.2477 193.312,-48.9905 194.164,-55.9385"/>
</g>
<!-- Node4 -->
<g id="node7" class="node"><title>Node4</title>
<a xlink:href="quadpack_8f90.html#a5a75101d080f224c63adde98a0e64386" target="_top" xlink:title="qextr">
<polygon fill="white" stroke="black" points="313.887,-78 313.887,-98 352.113,-98 352.113,-78 313.887,-78"/>
<text text-anchor="middle" x="333" y="-85" font-family="Helvetica,sans-Serif" font-size="10.00">qextr</text>
</a>
</g>
<!-- Node3&#45;&gt;Node4 -->
<g id="edge6" class="edge"><title>Node3&#45;&gt;Node4</title>
<path fill="none" stroke="midnightblue" d="M242.321,-55.6158C259.233,-61.7229 284.596,-70.8817 304.038,-77.9026"/>
<polygon fill="midnightblue" stroke="midnightblue" points="302.995,-81.2472 313.589,-81.3517 305.373,-74.6633 302.995,-81.2472"/>
</g>
<!-- Node5 -->
<g id="node9" class="node"><title>Node5</title>
<a xlink:href="quadpack_8f90.html#a27241a527b249e9de59a5ed6bee5f805" target="_top" xlink:title="qk21">
<polygon fill="white" stroke="black" points="314.161,-39 314.161,-59 351.839,-59 351.839,-39 314.161,-39"/>
<text text-anchor="middle" x="333" y="-46" font-family="Helvetica,sans-Serif" font-size="10.00">qk21</text>
</a>
</g>
<!-- Node3&#45;&gt;Node5 -->
<g id="edge8" class="edge"><title>Node3&#45;&gt;Node5</title>
<path fill="none" stroke="midnightblue" d="M242.321,-49C259.179,-49 284.435,-49 303.853,-49"/>
<polygon fill="midnightblue" stroke="midnightblue" points="303.95,-52.5001 313.95,-49 303.95,-45.5001 303.95,-52.5001"/>
</g>
<!-- Node6 -->
<g id="node11" class="node"><title>Node6</title>
<a xlink:href="quadpack_8f90.html#a55e08a684c5a6315fb37dd0fdc66d8e6" target="_top" xlink:title="qsort">
<polygon fill="white" stroke="black" points="313.887,-0 313.887,-20 352.113,-20 352.113,-0 313.887,-0"/>
<text text-anchor="middle" x="333" y="-7" font-family="Helvetica,sans-Serif" font-size="10.00">qsort</text>
</a>
</g>
<!-- Node3&#45;&gt;Node6 -->
<g id="edge10" class="edge"><title>Node3&#45;&gt;Node6</title>
<path fill="none" stroke="midnightblue" d="M242.321,-42.3842C259.233,-36.2771 284.596,-27.1183 304.038,-20.0974"/>
<polygon fill="midnightblue" stroke="midnightblue" points="305.373,-23.3367 313.589,-16.6483 302.995,-16.7528 305.373,-23.3367"/>
</g>
</g>
</svg>
