<?xml version="1.0" encoding="UTF-8" standalone="no"?>
<!DOCTYPE svg PUBLIC "-//W3C//DTD SVG 1.1//EN"
 "http://www.w3.org/Graphics/SVG/1.1/DTD/svg11.dtd">
<!-- Generated by graphviz version 2.28.0 (20111102.2313)
 -->
<!-- Title: G Pages: 1 -->
<svg width="344pt" height="106pt"
 viewBox="0.00 0.00 344.00 106.00" xmlns="http://www.w3.org/2000/svg" xmlns:xlink="http://www.w3.org/1999/xlink">
<g id="graph1" class="graph" transform="scale(1 1) rotate(0) translate(4 102)">
<title>G</title>
<polygon fill="white" stroke="white" points="-4,5 -4,-102 341,-102 341,5 -4,5"/>
<!-- Node1 -->
<g id="node1" class="node"><title>Node1</title>
<polygon fill="#bfbfbf" stroke="black" points="-0.132,-39 -0.132,-59 158.132,-59 158.132,-39 -0.132,-39"/>
<text text-anchor="middle" x="79" y="-46" font-family="Helvetica,sans-Serif" font-size="10.00">f3dex_utests::utest_matmul_par</text>
</g>
<!-- Node2 -->
<g id="node3" class="node"><title>Node2</title>
<a xlink:href="namespacef3dex__utils.html#ad4cb6613ee589637f453ef808466a0f9" target="_top" xlink:title="Assert if two doubles are equal.">
<polygon fill="white" stroke="black" points="206.989,-78 206.989,-98 323.011,-98 323.011,-78 206.989,-78"/>
<text text-anchor="middle" x="265" y="-85" font-family="Helvetica,sans-Serif" font-size="10.00">f3dex_utils::assert_DP</text>
</a>
</g>
<!-- Node1&#45;&gt;Node2 -->
<g id="edge2" class="edge"><title>Node1&#45;&gt;Node2</title>
<path fill="none" stroke="midnightblue" d="M127.385,-59.0435C151.637,-64.184 181.348,-70.4813 206.86,-75.8889"/>
<polygon fill="midnightblue" stroke="midnightblue" points="206.268,-79.3409 216.776,-77.9906 207.719,-72.4931 206.268,-79.3409"/>
</g>
<!-- Node3 -->
<g id="node5" class="node"><title>Node3</title>
<a xlink:href="namespacef3dex__stats.html#a046613d05a3a2eb1808a7ee99fba7509" target="_top" xlink:title="Parallel matrix multiplication.">
<polygon fill="white" stroke="black" points="194.49,-39 194.49,-59 335.51,-59 335.51,-39 194.49,-39"/>
<text text-anchor="middle" x="265" y="-46" font-family="Helvetica,sans-Serif" font-size="10.00">f3dex_stats::MATMUL_PAR</text>
</a>
</g>
<!-- Node1&#45;&gt;Node3 -->
<g id="edge4" class="edge"><title>Node1&#45;&gt;Node3</title>
<path fill="none" stroke="midnightblue" d="M158.299,-49C166.876,-49 175.616,-49 184.211,-49"/>
<polygon fill="midnightblue" stroke="midnightblue" points="184.215,-52.5001 194.215,-49 184.215,-45.5001 184.215,-52.5001"/>
</g>
<!-- Node4 -->
<g id="node7" class="node"><title>Node4</title>
<a xlink:href="namespacef3dex__utils.html#ac5aa172010ec6cd9bd4c5273904b0405" target="_top" xlink:title="Measures system time.">
<polygon fill="white" stroke="black" points="217.273,-0 217.273,-20 312.727,-20 312.727,-0 217.273,-0"/>
<text text-anchor="middle" x="265" y="-7" font-family="Helvetica,sans-Serif" font-size="10.00">f3dex_utils::wtime</text>
</a>
</g>
<!-- Node1&#45;&gt;Node4 -->
<g id="edge6" class="edge"><title>Node1&#45;&gt;Node4</title>
<path fill="none" stroke="midnightblue" d="M127.385,-38.9565C151.731,-33.7961 181.578,-27.4699 207.157,-22.0483"/>
<polygon fill="midnightblue" stroke="midnightblue" points="208.038,-25.4394 217.095,-19.9419 206.586,-18.5915 208.038,-25.4394"/>
</g>
</g>
</svg>
