<?xml version="1.0" encoding="UTF-8" standalone="no"?>
<!DOCTYPE svg PUBLIC "-//W3C//DTD SVG 1.1//EN"
 "http://www.w3.org/Graphics/SVG/1.1/DTD/svg11.dtd">
<!-- Generated by graphviz version 2.28.0 (20111007.0958)
 -->
<!-- Title: G Pages: 1 -->
<svg width="280pt" height="67pt"
 viewBox="0.00 0.00 280.00 67.00" xmlns="http://www.w3.org/2000/svg" xmlns:xlink="http://www.w3.org/1999/xlink">
<g id="graph1" class="graph" transform="scale(1 1) rotate(0) translate(4 63)">
<title>G</title>
<polygon fill="white" stroke="white" points="-4,5 -4,-63 277,-63 277,5 -4,5"/>
<!-- Node1 -->
<g id="node1" class="node"><title>Node1</title>
<polygon fill="#bfbfbf" stroke="black" points="0.213,-19 0.213,-39 121.787,-39 121.787,-19 0.213,-19"/>
<text text-anchor="middle" x="61" y="-26" font-family="Helvetica,sans-Serif" font-size="10.00">f3dex::survey2almn_srs</text>
</g>
<!-- Node2 -->
<g id="node3" class="node"><title>Node2</title>
<a xlink:href="namespacef3dex.html#ae28575da877299326cf5d412b7bda063" target="_top" xlink:title="f3dex::alnspring2almn">
<polygon fill="white" stroke="black" points="158.099,-39 158.099,-59 271.901,-59 271.901,-39 158.099,-39"/>
<text text-anchor="middle" x="215" y="-46" font-family="Helvetica,sans-Serif" font-size="10.00">f3dex::alnspring2almn</text>
</a>
</g>
<!-- Node1&#45;&gt;Node2 -->
<g id="edge2" class="edge"><title>Node1&#45;&gt;Node2</title>
<path fill="none" stroke="midnightblue" d="M122.074,-36.9045C130.544,-38.0189 139.289,-39.1696 147.864,-40.298"/>
<polygon fill="midnightblue" stroke="midnightblue" points="147.455,-43.7741 157.826,-41.6087 148.368,-36.834 147.455,-43.7741"/>
</g>
<!-- Node3 -->
<g id="node5" class="node"><title>Node3</title>
<a xlink:href="namespacef3dex.html#ae7f16ddea56702ffd83912c6def516d4" target="_top" xlink:title="Compute the value of the l&#45;th order spherical bessel function at x.">
<polygon fill="white" stroke="black" points="183.379,-0 183.379,-20 246.621,-20 246.621,-0 183.379,-0"/>
<text text-anchor="middle" x="215" y="-7" font-family="Helvetica,sans-Serif" font-size="10.00">f3dex::BJL</text>
</a>
</g>
<!-- Node1&#45;&gt;Node3 -->
<g id="edge4" class="edge"><title>Node1&#45;&gt;Node3</title>
<path fill="none" stroke="midnightblue" d="M122.074,-21.4907C139.065,-19.3669 157.167,-17.1041 172.775,-15.1531"/>
<polygon fill="midnightblue" stroke="midnightblue" points="173.649,-18.5712 183.138,-13.8578 172.781,-11.6253 173.649,-18.5712"/>
</g>
</g>
</svg>
