<?xml version="1.0" encoding="UTF-8" standalone="no"?>
<!DOCTYPE svg PUBLIC "-//W3C//DTD SVG 1.1//EN"
 "http://www.w3.org/Graphics/SVG/1.1/DTD/svg11.dtd">
<!-- Generated by graphviz version 2.28.0 (20111007.0958)
 -->
<!-- Title: G Pages: 1 -->
<svg width="308pt" height="67pt"
 viewBox="0.00 0.00 308.00 67.00" xmlns="http://www.w3.org/2000/svg" xmlns:xlink="http://www.w3.org/1999/xlink">
<g id="graph1" class="graph" transform="scale(1 1) rotate(0) translate(4 63)">
<title>G</title>
<polygon fill="white" stroke="white" points="-4,5 -4,-63 305,-63 305,5 -4,5"/>
<!-- Node1 -->
<g id="node1" class="node"><title>Node1</title>
<polygon fill="#bfbfbf" stroke="black" points="0.11,-19 0.11,-39 73.89,-39 73.89,-19 0.11,-19"/>
<text text-anchor="middle" x="37" y="-26" font-family="Helvetica,sans-Serif" font-size="10.00">hermite_com</text>
</g>
<!-- Node2 -->
<g id="node3" class="node"><title>Node2</title>
<a xlink:href="quadrule_8f90.html#a7841cf442902dd98d08b6a4d89a9a7bf" target="_top" xlink:title="dvec_reverse">
<polygon fill="white" stroke="black" points="109.994,-39 109.994,-59 186.006,-59 186.006,-39 109.994,-39"/>
<text text-anchor="middle" x="148" y="-46" font-family="Helvetica,sans-Serif" font-size="10.00">dvec_reverse</text>
</a>
</g>
<!-- Node1&#45;&gt;Node2 -->
<g id="edge2" class="edge"><title>Node1&#45;&gt;Node2</title>
<path fill="none" stroke="midnightblue" d="M73.9928,-35.6042C82.2828,-37.1253 91.221,-38.7653 99.9039,-40.3585"/>
<polygon fill="midnightblue" stroke="midnightblue" points="99.4578,-43.835 109.925,-42.1973 100.721,-36.95 99.4578,-43.835"/>
</g>
<!-- Node4 -->
<g id="node7" class="node"><title>Node4</title>
<a xlink:href="quadrule_8f90.html#ae9c37528989dee8bb6c51ff8a4626c05" target="_top" xlink:title="hermite_root">
<polygon fill="white" stroke="black" points="111.941,-0 111.941,-20 184.059,-20 184.059,-0 111.941,-0"/>
<text text-anchor="middle" x="148" y="-7" font-family="Helvetica,sans-Serif" font-size="10.00">hermite_root</text>
</a>
</g>
<!-- Node1&#45;&gt;Node4 -->
<g id="edge6" class="edge"><title>Node1&#45;&gt;Node4</title>
<path fill="none" stroke="midnightblue" d="M73.9928,-22.726C82.9184,-21.1702 92.5955,-19.4834 101.896,-17.8621"/>
<polygon fill="midnightblue" stroke="midnightblue" points="102.537,-21.3033 111.787,-16.138 101.335,-14.4073 102.537,-21.3033"/>
</g>
<!-- Node3 -->
<g id="node5" class="node"><title>Node3</title>
<a xlink:href="quadrule_8f90.html#ab73cf601dce50b6fc79d82a6ee87bb67" target="_top" xlink:title="d_swap">
<polygon fill="white" stroke="black" points="235.773,-39 235.773,-59 286.228,-59 286.228,-39 235.773,-39"/>
<text text-anchor="middle" x="261" y="-46" font-family="Helvetica,sans-Serif" font-size="10.00">d_swap</text>
</a>
</g>
<!-- Node2&#45;&gt;Node3 -->
<g id="edge4" class="edge"><title>Node2&#45;&gt;Node3</title>
<path fill="none" stroke="midnightblue" d="M186.27,-49C198.965,-49 213.091,-49 225.554,-49"/>
<polygon fill="midnightblue" stroke="midnightblue" points="225.564,-52.5001 235.564,-49 225.564,-45.5001 225.564,-52.5001"/>
</g>
<!-- Node5 -->
<g id="node9" class="node"><title>Node5</title>
<a xlink:href="quadrule_8f90.html#a837c192f4116548551a6c0b69465adbb" target="_top" xlink:title="hermite_recur">
<polygon fill="white" stroke="black" points="222.166,-0 222.166,-20 299.834,-20 299.834,-0 222.166,-0"/>
<text text-anchor="middle" x="261" y="-7" font-family="Helvetica,sans-Serif" font-size="10.00">hermite_recur</text>
</a>
</g>
<!-- Node4&#45;&gt;Node5 -->
<g id="edge8" class="edge"><title>Node4&#45;&gt;Node5</title>
<path fill="none" stroke="midnightblue" d="M184.121,-10C192.983,-10 202.651,-10 212.026,-10"/>
<polygon fill="midnightblue" stroke="midnightblue" points="212.033,-13.5001 222.033,-10 212.033,-6.5001 212.033,-13.5001"/>
</g>
</g>
</svg>
