<?xml version="1.0" encoding="UTF-8" standalone="no"?>
<!DOCTYPE svg PUBLIC "-//W3C//DTD SVG 1.1//EN"
 "http://www.w3.org/Graphics/SVG/1.1/DTD/svg11.dtd">
<!-- Generated by graphviz version 2.28.0 (20111102.2313)
 -->
<!-- Title: G Pages: 1 -->
<svg width="290pt" height="164pt"
 viewBox="0.00 0.00 290.00 164.00" xmlns="http://www.w3.org/2000/svg" xmlns:xlink="http://www.w3.org/1999/xlink">
<g id="graph1" class="graph" transform="scale(1 1) rotate(0) translate(4 160)">
<title>G</title>
<polygon fill="white" stroke="white" points="-4,5 -4,-160 287,-160 287,5 -4,5"/>
<!-- Node1 -->
<g id="node1" class="node"><title>Node1</title>
<polygon fill="#bfbfbf" stroke="black" points="0.6625,-39 0.6625,-59 43.3375,-59 43.3375,-39 0.6625,-39"/>
<text text-anchor="middle" x="22" y="-46" font-family="Helvetica,sans-Serif" font-size="10.00">qawfe</text>
</g>
<!-- Node2 -->
<g id="node3" class="node"><title>Node2</title>
<a xlink:href="quadpack_8f90.html#ac59eaf7c56c1d421d129425895fa0107" target="_top" xlink:title="qagi">
<polygon fill="white" stroke="black" points="82.552,-0 82.552,-20 117.448,-20 117.448,-0 82.552,-0"/>
<text text-anchor="middle" x="100" y="-7" font-family="Helvetica,sans-Serif" font-size="10.00">qagi</text>
</a>
</g>
<!-- Node1&#45;&gt;Node2 -->
<g id="edge2" class="edge"><title>Node1&#45;&gt;Node2</title>
<path fill="none" stroke="midnightblue" d="M42.5719,-38.9565C51.9041,-34.1676 63.1928,-28.3747 73.2136,-23.2325"/>
<polygon fill="midnightblue" stroke="midnightblue" points="75.0283,-26.2352 82.3274,-18.5557 71.8324,-20.0074 75.0283,-26.2352"/>
</g>
<!-- Node3 -->
<g id="node5" class="node"><title>Node3</title>
<a xlink:href="quadpack_8f90.html#a5a75101d080f224c63adde98a0e64386" target="_top" xlink:title="qextr">
<polygon fill="white" stroke="black" points="158.887,-39 158.887,-59 197.113,-59 197.113,-39 158.887,-39"/>
<text text-anchor="middle" x="178" y="-46" font-family="Helvetica,sans-Serif" font-size="10.00">qextr</text>
</a>
</g>
<!-- Node1&#45;&gt;Node3 -->
<g id="edge10" class="edge"><title>Node1&#45;&gt;Node3</title>
<path fill="none" stroke="midnightblue" d="M43.45,-49C70.4117,-49 117.989,-49 148.477,-49"/>
<polygon fill="midnightblue" stroke="midnightblue" points="148.866,-52.5001 158.866,-49 148.866,-45.5001 148.866,-52.5001"/>
</g>
<!-- Node6 -->
<g id="node12" class="node"><title>Node6</title>
<a xlink:href="quadpack_8f90.html#abbba06307e0e8c4daa2651945570ba1c" target="_top" xlink:title="qfour">
<polygon fill="white" stroke="black" points="80.6075,-78 80.6075,-98 119.392,-98 119.392,-78 80.6075,-78"/>
<text text-anchor="middle" x="100" y="-85" font-family="Helvetica,sans-Serif" font-size="10.00">qfour</text>
</a>
</g>
<!-- Node1&#45;&gt;Node6 -->
<g id="edge12" class="edge"><title>Node1&#45;&gt;Node6</title>
<path fill="none" stroke="midnightblue" d="M42.5719,-59.0435C51.3461,-63.546 61.8498,-68.9361 71.4031,-73.8385"/>
<polygon fill="midnightblue" stroke="midnightblue" points="70.0455,-77.0756 80.5404,-78.5273 73.2414,-70.8478 70.0455,-77.0756"/>
</g>
<!-- Node2&#45;&gt;Node3 -->
<g id="edge4" class="edge"><title>Node2&#45;&gt;Node3</title>
<path fill="none" stroke="midnightblue" d="M117.491,-18.4624C126.878,-23.2794 138.876,-29.4361 149.636,-34.9579"/>
<polygon fill="midnightblue" stroke="midnightblue" points="148.182,-38.1456 158.677,-39.5973 151.378,-31.9177 148.182,-38.1456"/>
</g>
<!-- Node4 -->
<g id="node7" class="node"><title>Node4</title>
<a xlink:href="quadpack_8f90.html#a59164415fc33f2f3bf4ebc4ee2220f7e" target="_top" xlink:title="qk15i">
<polygon fill="white" stroke="black" points="158.052,-0 158.052,-20 197.948,-20 197.948,-0 158.052,-0"/>
<text text-anchor="middle" x="178" y="-7" font-family="Helvetica,sans-Serif" font-size="10.00">qk15i</text>
</a>
</g>
<!-- Node2&#45;&gt;Node4 -->
<g id="edge6" class="edge"><title>Node2&#45;&gt;Node4</title>
<path fill="none" stroke="midnightblue" d="M117.491,-10C126.304,-10 137.419,-10 147.65,-10"/>
<polygon fill="midnightblue" stroke="midnightblue" points="147.859,-13.5001 157.859,-10 147.859,-6.5001 147.859,-13.5001"/>
</g>
<!-- Node5 -->
<g id="node9" class="node"><title>Node5</title>
<a xlink:href="quadpack_8f90.html#a55e08a684c5a6315fb37dd0fdc66d8e6" target="_top" xlink:title="qsort">
<polygon fill="white" stroke="black" points="158.887,-78 158.887,-98 197.113,-98 197.113,-78 158.887,-78"/>
<text text-anchor="middle" x="178" y="-85" font-family="Helvetica,sans-Serif" font-size="10.00">qsort</text>
</a>
</g>
<!-- Node2&#45;&gt;Node5 -->
<g id="edge8" class="edge"><title>Node2&#45;&gt;Node5</title>
<path fill="none" stroke="midnightblue" d="M110.581,-20.4191C121.433,-32.1473 139.729,-51.6937 156,-68 156.92,-68.9222 157.869,-69.8622 158.831,-70.8072"/>
<polygon fill="midnightblue" stroke="midnightblue" points="156.588,-73.5064 166.215,-77.9294 161.447,-68.468 156.588,-73.5064"/>
</g>
<!-- Node6&#45;&gt;Node3 -->
<g id="edge20" class="edge"><title>Node6&#45;&gt;Node3</title>
<path fill="none" stroke="midnightblue" d="M119.397,-78.5592C128.453,-73.9125 139.553,-68.2163 149.584,-63.0688"/>
<polygon fill="midnightblue" stroke="midnightblue" points="151.473,-66.0334 158.772,-58.3539 148.277,-59.8055 151.473,-66.0334"/>
</g>
<!-- Node6&#45;&gt;Node5 -->
<g id="edge22" class="edge"><title>Node6&#45;&gt;Node5</title>
<path fill="none" stroke="midnightblue" d="M119.397,-88C128.173,-88 138.868,-88 148.65,-88"/>
<polygon fill="midnightblue" stroke="midnightblue" points="148.772,-91.5001 158.772,-88 148.772,-84.5001 148.772,-91.5001"/>
</g>
<!-- Node7 -->
<g id="node14" class="node"><title>Node7</title>
<a xlink:href="quadpack_8f90.html#ab0843f4831942d2c9bf3430cb71aca06" target="_top" xlink:title="qc25o">
<polygon fill="white" stroke="black" points="156.382,-117 156.382,-137 199.618,-137 199.618,-117 156.382,-117"/>
<text text-anchor="middle" x="178" y="-124" font-family="Helvetica,sans-Serif" font-size="10.00">qc25o</text>
</a>
</g>
<!-- Node6&#45;&gt;Node7 -->
<g id="edge14" class="edge"><title>Node6&#45;&gt;Node7</title>
<path fill="none" stroke="midnightblue" d="M119.397,-97.4408C128.12,-101.917 138.739,-107.366 148.473,-112.361"/>
<polygon fill="midnightblue" stroke="midnightblue" points="146.949,-115.513 157.444,-116.964 150.145,-109.285 146.949,-115.513"/>
</g>
<!-- Node8 -->
<g id="node16" class="node"><title>Node8</title>
<a xlink:href="quadpack_8f90.html#ad5beefcfdb335ea68ccf8397536c8c36" target="_top" xlink:title="qcheb">
<polygon fill="white" stroke="black" points="237.382,-136 237.382,-156 280.618,-156 280.618,-136 237.382,-136"/>
<text text-anchor="middle" x="259" y="-143" font-family="Helvetica,sans-Serif" font-size="10.00">qcheb</text>
</a>
</g>
<!-- Node7&#45;&gt;Node8 -->
<g id="edge16" class="edge"><title>Node7&#45;&gt;Node8</title>
<path fill="none" stroke="midnightblue" d="M199.756,-131.992C208.127,-134.005 217.959,-136.37 227.137,-138.577"/>
<polygon fill="midnightblue" stroke="midnightblue" points="226.567,-142.04 237.108,-140.975 228.204,-135.234 226.567,-142.04"/>
</g>
<!-- Node9 -->
<g id="node18" class="node"><title>Node9</title>
<a xlink:href="quadpack_8f90.html#a0c083838940925726abd5bc85fa29587" target="_top" xlink:title="qk15w">
<polygon fill="white" stroke="black" points="236.552,-97 236.552,-117 281.448,-117 281.448,-97 236.552,-97"/>
<text text-anchor="middle" x="259" y="-104" font-family="Helvetica,sans-Serif" font-size="10.00">qk15w</text>
</a>
</g>
<!-- Node7&#45;&gt;Node9 -->
<g id="edge18" class="edge"><title>Node7&#45;&gt;Node9</title>
<path fill="none" stroke="midnightblue" d="M199.756,-121.745C207.927,-119.677 217.491,-117.255 226.48,-114.98"/>
<polygon fill="midnightblue" stroke="midnightblue" points="227.444,-118.346 236.279,-112.499 225.726,-111.56 227.444,-118.346"/>
</g>
</g>
</svg>
