<?xml version="1.0" encoding="UTF-8" standalone="no"?>
<!DOCTYPE svg PUBLIC "-//W3C//DTD SVG 1.1//EN"
 "http://www.w3.org/Graphics/SVG/1.1/DTD/svg11.dtd">
<!-- Generated by graphviz version 2.28.0 (20111007.0958)
 -->
<!-- Title: G Pages: 1 -->
<svg width="364pt" height="164pt"
 viewBox="0.00 0.00 364.00 164.00" xmlns="http://www.w3.org/2000/svg" xmlns:xlink="http://www.w3.org/1999/xlink">
<g id="graph1" class="graph" transform="scale(1 1) rotate(0) translate(4 160)">
<title>G</title>
<polygon fill="white" stroke="white" points="-4,5 -4,-160 361,-160 361,5 -4,5"/>
<!-- Node1 -->
<g id="node1" class="node"><title>Node1</title>
<polygon fill="#bfbfbf" stroke="black" points="0.442,-39 0.442,-59 37.558,-59 37.558,-39 0.442,-39"/>
<text text-anchor="middle" x="19" y="-46" font-family="Helvetica,sans-Serif" font-size="10.00">qawf</text>
</g>
<!-- Node2 -->
<g id="node3" class="node"><title>Node2</title>
<a xlink:href="quadpack_8f90.html#abe17af7f3ad5cf264791d326bbd15192" target="_top" xlink:title="qawfe">
<polygon fill="white" stroke="black" points="74.6625,-39 74.6625,-59 117.338,-59 117.338,-39 74.6625,-39"/>
<text text-anchor="middle" x="96" y="-46" font-family="Helvetica,sans-Serif" font-size="10.00">qawfe</text>
</a>
</g>
<!-- Node1&#45;&gt;Node2 -->
<g id="edge2" class="edge"><title>Node1&#45;&gt;Node2</title>
<path fill="none" stroke="midnightblue" d="M37.774,-49C45.6821,-49 55.2264,-49 64.2346,-49"/>
<polygon fill="midnightblue" stroke="midnightblue" points="64.4331,-52.5001 74.4331,-49 64.433,-45.5001 64.4331,-52.5001"/>
</g>
<!-- Node3 -->
<g id="node5" class="node"><title>Node3</title>
<a xlink:href="quadpack_8f90.html#ac59eaf7c56c1d421d129425895fa0107" target="_top" xlink:title="qagi">
<polygon fill="white" stroke="black" points="156.552,-0 156.552,-20 191.448,-20 191.448,-0 156.552,-0"/>
<text text-anchor="middle" x="174" y="-7" font-family="Helvetica,sans-Serif" font-size="10.00">qagi</text>
</a>
</g>
<!-- Node2&#45;&gt;Node3 -->
<g id="edge4" class="edge"><title>Node2&#45;&gt;Node3</title>
<path fill="none" stroke="midnightblue" d="M116.572,-38.9565C125.904,-34.1676 137.193,-28.3747 147.214,-23.2325"/>
<polygon fill="midnightblue" stroke="midnightblue" points="149.028,-26.2352 156.327,-18.5557 145.832,-20.0074 149.028,-26.2352"/>
</g>
<!-- Node4 -->
<g id="node7" class="node"><title>Node4</title>
<a xlink:href="quadpack_8f90.html#a5a75101d080f224c63adde98a0e64386" target="_top" xlink:title="qextr">
<polygon fill="white" stroke="black" points="232.887,-39 232.887,-59 271.113,-59 271.113,-39 232.887,-39"/>
<text text-anchor="middle" x="252" y="-46" font-family="Helvetica,sans-Serif" font-size="10.00">qextr</text>
</a>
</g>
<!-- Node2&#45;&gt;Node4 -->
<g id="edge12" class="edge"><title>Node2&#45;&gt;Node4</title>
<path fill="none" stroke="midnightblue" d="M117.45,-49C144.412,-49 191.989,-49 222.477,-49"/>
<polygon fill="midnightblue" stroke="midnightblue" points="222.866,-52.5001 232.866,-49 222.866,-45.5001 222.866,-52.5001"/>
</g>
<!-- Node7 -->
<g id="node14" class="node"><title>Node7</title>
<a xlink:href="quadpack_8f90.html#abbba06307e0e8c4daa2651945570ba1c" target="_top" xlink:title="qfour">
<polygon fill="white" stroke="black" points="154.608,-78 154.608,-98 193.392,-98 193.392,-78 154.608,-78"/>
<text text-anchor="middle" x="174" y="-85" font-family="Helvetica,sans-Serif" font-size="10.00">qfour</text>
</a>
</g>
<!-- Node2&#45;&gt;Node7 -->
<g id="edge14" class="edge"><title>Node2&#45;&gt;Node7</title>
<path fill="none" stroke="midnightblue" d="M116.572,-59.0435C125.346,-63.546 135.85,-68.9361 145.403,-73.8385"/>
<polygon fill="midnightblue" stroke="midnightblue" points="144.045,-77.0756 154.54,-78.5273 147.241,-70.8478 144.045,-77.0756"/>
</g>
<!-- Node3&#45;&gt;Node4 -->
<g id="edge6" class="edge"><title>Node3&#45;&gt;Node4</title>
<path fill="none" stroke="midnightblue" d="M191.491,-18.4624C200.878,-23.2794 212.876,-29.4361 223.636,-34.9579"/>
<polygon fill="midnightblue" stroke="midnightblue" points="222.182,-38.1456 232.677,-39.5973 225.378,-31.9177 222.182,-38.1456"/>
</g>
<!-- Node5 -->
<g id="node9" class="node"><title>Node5</title>
<a xlink:href="quadpack_8f90.html#a59164415fc33f2f3bf4ebc4ee2220f7e" target="_top" xlink:title="qk15i">
<polygon fill="white" stroke="black" points="232.052,-0 232.052,-20 271.948,-20 271.948,-0 232.052,-0"/>
<text text-anchor="middle" x="252" y="-7" font-family="Helvetica,sans-Serif" font-size="10.00">qk15i</text>
</a>
</g>
<!-- Node3&#45;&gt;Node5 -->
<g id="edge8" class="edge"><title>Node3&#45;&gt;Node5</title>
<path fill="none" stroke="midnightblue" d="M191.491,-10C200.304,-10 211.419,-10 221.65,-10"/>
<polygon fill="midnightblue" stroke="midnightblue" points="221.859,-13.5001 231.859,-10 221.859,-6.5001 221.859,-13.5001"/>
</g>
<!-- Node6 -->
<g id="node11" class="node"><title>Node6</title>
<a xlink:href="quadpack_8f90.html#a55e08a684c5a6315fb37dd0fdc66d8e6" target="_top" xlink:title="qsort">
<polygon fill="white" stroke="black" points="232.887,-78 232.887,-98 271.113,-98 271.113,-78 232.887,-78"/>
<text text-anchor="middle" x="252" y="-85" font-family="Helvetica,sans-Serif" font-size="10.00">qsort</text>
</a>
</g>
<!-- Node3&#45;&gt;Node6 -->
<g id="edge10" class="edge"><title>Node3&#45;&gt;Node6</title>
<path fill="none" stroke="midnightblue" d="M184.581,-20.4191C195.433,-32.1473 213.729,-51.6937 230,-68 230.92,-68.9222 231.869,-69.8622 232.831,-70.8072"/>
<polygon fill="midnightblue" stroke="midnightblue" points="230.588,-73.5064 240.215,-77.9294 235.447,-68.468 230.588,-73.5064"/>
</g>
<!-- Node7&#45;&gt;Node4 -->
<g id="edge22" class="edge"><title>Node7&#45;&gt;Node4</title>
<path fill="none" stroke="midnightblue" d="M193.397,-78.5592C202.453,-73.9125 213.553,-68.2163 223.584,-63.0688"/>
<polygon fill="midnightblue" stroke="midnightblue" points="225.473,-66.0334 232.772,-58.3539 222.277,-59.8055 225.473,-66.0334"/>
</g>
<!-- Node7&#45;&gt;Node6 -->
<g id="edge24" class="edge"><title>Node7&#45;&gt;Node6</title>
<path fill="none" stroke="midnightblue" d="M193.397,-88C202.173,-88 212.868,-88 222.65,-88"/>
<polygon fill="midnightblue" stroke="midnightblue" points="222.772,-91.5001 232.772,-88 222.772,-84.5001 222.772,-91.5001"/>
</g>
<!-- Node8 -->
<g id="node16" class="node"><title>Node8</title>
<a xlink:href="quadpack_8f90.html#ab0843f4831942d2c9bf3430cb71aca06" target="_top" xlink:title="qc25o">
<polygon fill="white" stroke="black" points="230.382,-117 230.382,-137 273.618,-137 273.618,-117 230.382,-117"/>
<text text-anchor="middle" x="252" y="-124" font-family="Helvetica,sans-Serif" font-size="10.00">qc25o</text>
</a>
</g>
<!-- Node7&#45;&gt;Node8 -->
<g id="edge16" class="edge"><title>Node7&#45;&gt;Node8</title>
<path fill="none" stroke="midnightblue" d="M193.397,-97.4408C202.12,-101.917 212.739,-107.366 222.473,-112.361"/>
<polygon fill="midnightblue" stroke="midnightblue" points="220.949,-115.513 231.444,-116.964 224.145,-109.285 220.949,-115.513"/>
</g>
<!-- Node9 -->
<g id="node18" class="node"><title>Node9</title>
<a xlink:href="quadpack_8f90.html#ad5beefcfdb335ea68ccf8397536c8c36" target="_top" xlink:title="qcheb">
<polygon fill="white" stroke="black" points="311.382,-136 311.382,-156 354.618,-156 354.618,-136 311.382,-136"/>
<text text-anchor="middle" x="333" y="-143" font-family="Helvetica,sans-Serif" font-size="10.00">qcheb</text>
</a>
</g>
<!-- Node8&#45;&gt;Node9 -->
<g id="edge18" class="edge"><title>Node8&#45;&gt;Node9</title>
<path fill="none" stroke="midnightblue" d="M273.756,-131.992C282.127,-134.005 291.959,-136.37 301.137,-138.577"/>
<polygon fill="midnightblue" stroke="midnightblue" points="300.567,-142.04 311.108,-140.975 302.204,-135.234 300.567,-142.04"/>
</g>
<!-- Node10 -->
<g id="node20" class="node"><title>Node10</title>
<a xlink:href="quadpack_8f90.html#a0c083838940925726abd5bc85fa29587" target="_top" xlink:title="qk15w">
<polygon fill="white" stroke="black" points="310.552,-97 310.552,-117 355.448,-117 355.448,-97 310.552,-97"/>
<text text-anchor="middle" x="333" y="-104" font-family="Helvetica,sans-Serif" font-size="10.00">qk15w</text>
</a>
</g>
<!-- Node8&#45;&gt;Node10 -->
<g id="edge20" class="edge"><title>Node8&#45;&gt;Node10</title>
<path fill="none" stroke="midnightblue" d="M273.756,-121.745C281.927,-119.677 291.491,-117.255 300.48,-114.98"/>
<polygon fill="midnightblue" stroke="midnightblue" points="301.444,-118.346 310.279,-112.499 299.726,-111.56 301.444,-118.346"/>
</g>
</g>
</svg>
