<?xml version="1.0" encoding="UTF-8" standalone="no"?>
<!DOCTYPE svg PUBLIC "-//W3C//DTD SVG 1.1//EN"
 "http://www.w3.org/Graphics/SVG/1.1/DTD/svg11.dtd">
<!-- Generated by graphviz version 2.28.0 (20111007.0958)
 -->
<!-- Title: G Pages: 1 -->
<svg width="286pt" height="125pt"
 viewBox="0.00 0.00 286.00 125.00" xmlns="http://www.w3.org/2000/svg" xmlns:xlink="http://www.w3.org/1999/xlink">
<g id="graph1" class="graph" transform="scale(1 1) rotate(0) translate(4 121)">
<title>G</title>
<polygon fill="white" stroke="white" points="-4,5 -4,-121 283,-121 283,5 -4,5"/>
<!-- Node1 -->
<g id="node1" class="node"><title>Node1</title>
<polygon fill="#bfbfbf" stroke="black" points="0.052,-39 0.052,-59 39.948,-59 39.948,-39 0.052,-39"/>
<text text-anchor="middle" x="20" y="-46" font-family="Helvetica,sans-Serif" font-size="10.00">qawo</text>
</g>
<!-- Node2 -->
<g id="node3" class="node"><title>Node2</title>
<a xlink:href="quadpack_8f90.html#abbba06307e0e8c4daa2651945570ba1c" target="_top" xlink:title="qfour">
<polygon fill="white" stroke="black" points="76.6075,-39 76.6075,-59 115.392,-59 115.392,-39 76.6075,-39"/>
<text text-anchor="middle" x="96" y="-46" font-family="Helvetica,sans-Serif" font-size="10.00">qfour</text>
</a>
</g>
<!-- Node1&#45;&gt;Node2 -->
<g id="edge2" class="edge"><title>Node1&#45;&gt;Node2</title>
<path fill="none" stroke="midnightblue" d="M40.0568,-49C48.0334,-49 57.478,-49 66.2667,-49"/>
<polygon fill="midnightblue" stroke="midnightblue" points="66.5191,-52.5001 76.5191,-49 66.519,-45.5001 66.5191,-52.5001"/>
</g>
<!-- Node3 -->
<g id="node5" class="node"><title>Node3</title>
<a xlink:href="quadpack_8f90.html#ab0843f4831942d2c9bf3430cb71aca06" target="_top" xlink:title="qc25o">
<polygon fill="white" stroke="black" points="152.382,-78 152.382,-98 195.618,-98 195.618,-78 152.382,-78"/>
<text text-anchor="middle" x="174" y="-85" font-family="Helvetica,sans-Serif" font-size="10.00">qc25o</text>
</a>
</g>
<!-- Node2&#45;&gt;Node3 -->
<g id="edge4" class="edge"><title>Node2&#45;&gt;Node3</title>
<path fill="none" stroke="midnightblue" d="M115.397,-58.4408C124.12,-62.9167 134.739,-68.3663 144.473,-73.3613"/>
<polygon fill="midnightblue" stroke="midnightblue" points="142.949,-76.5128 153.444,-77.9644 146.145,-70.2849 142.949,-76.5128"/>
</g>
<!-- Node6 -->
<g id="node11" class="node"><title>Node6</title>
<a xlink:href="quadpack_8f90.html#a5a75101d080f224c63adde98a0e64386" target="_top" xlink:title="qextr">
<polygon fill="white" stroke="black" points="154.887,-39 154.887,-59 193.113,-59 193.113,-39 154.887,-39"/>
<text text-anchor="middle" x="174" y="-46" font-family="Helvetica,sans-Serif" font-size="10.00">qextr</text>
</a>
</g>
<!-- Node2&#45;&gt;Node6 -->
<g id="edge10" class="edge"><title>Node2&#45;&gt;Node6</title>
<path fill="none" stroke="midnightblue" d="M115.397,-49C124.173,-49 134.868,-49 144.65,-49"/>
<polygon fill="midnightblue" stroke="midnightblue" points="144.772,-52.5001 154.772,-49 144.772,-45.5001 144.772,-52.5001"/>
</g>
<!-- Node7 -->
<g id="node13" class="node"><title>Node7</title>
<a xlink:href="quadpack_8f90.html#a55e08a684c5a6315fb37dd0fdc66d8e6" target="_top" xlink:title="qsort">
<polygon fill="white" stroke="black" points="154.887,-0 154.887,-20 193.113,-20 193.113,-0 154.887,-0"/>
<text text-anchor="middle" x="174" y="-7" font-family="Helvetica,sans-Serif" font-size="10.00">qsort</text>
</a>
</g>
<!-- Node2&#45;&gt;Node7 -->
<g id="edge12" class="edge"><title>Node2&#45;&gt;Node7</title>
<path fill="none" stroke="midnightblue" d="M115.397,-39.5592C124.453,-34.9125 135.553,-29.2163 145.584,-24.0688"/>
<polygon fill="midnightblue" stroke="midnightblue" points="147.473,-27.0334 154.772,-19.3539 144.277,-20.8055 147.473,-27.0334"/>
</g>
<!-- Node4 -->
<g id="node7" class="node"><title>Node4</title>
<a xlink:href="quadpack_8f90.html#ad5beefcfdb335ea68ccf8397536c8c36" target="_top" xlink:title="qcheb">
<polygon fill="white" stroke="black" points="233.382,-97 233.382,-117 276.618,-117 276.618,-97 233.382,-97"/>
<text text-anchor="middle" x="255" y="-104" font-family="Helvetica,sans-Serif" font-size="10.00">qcheb</text>
</a>
</g>
<!-- Node3&#45;&gt;Node4 -->
<g id="edge6" class="edge"><title>Node3&#45;&gt;Node4</title>
<path fill="none" stroke="midnightblue" d="M195.756,-92.992C204.127,-95.0051 213.959,-97.3698 223.137,-99.5771"/>
<polygon fill="midnightblue" stroke="midnightblue" points="222.567,-103.04 233.108,-101.975 224.204,-96.2339 222.567,-103.04"/>
</g>
<!-- Node5 -->
<g id="node9" class="node"><title>Node5</title>
<a xlink:href="quadpack_8f90.html#a0c083838940925726abd5bc85fa29587" target="_top" xlink:title="qk15w">
<polygon fill="white" stroke="black" points="232.552,-58 232.552,-78 277.448,-78 277.448,-58 232.552,-58"/>
<text text-anchor="middle" x="255" y="-65" font-family="Helvetica,sans-Serif" font-size="10.00">qk15w</text>
</a>
</g>
<!-- Node3&#45;&gt;Node5 -->
<g id="edge8" class="edge"><title>Node3&#45;&gt;Node5</title>
<path fill="none" stroke="midnightblue" d="M195.756,-82.7452C203.927,-80.6766 213.491,-78.2554 222.48,-75.9798"/>
<polygon fill="midnightblue" stroke="midnightblue" points="223.444,-79.3462 232.279,-73.499 221.726,-72.5603 223.444,-79.3462"/>
</g>
</g>
</svg>
