<?xml version="1.0" encoding="UTF-8" standalone="no"?>
<!DOCTYPE svg PUBLIC "-//W3C//DTD SVG 1.1//EN"
 "http://www.w3.org/Graphics/SVG/1.1/DTD/svg11.dtd">
<!-- Generated by graphviz version 2.28.0 (20111007.0958)
 -->
<!-- Title: G Pages: 1 -->
<svg width="120pt" height="262pt"
 viewBox="0.00 0.00 120.00 262.00" xmlns="http://www.w3.org/2000/svg" xmlns:xlink="http://www.w3.org/1999/xlink">
<g id="graph1" class="graph" transform="scale(1 1) rotate(0) translate(4 258)">
<title>G</title>
<polygon fill="white" stroke="white" points="-4,5 -4,-258 117,-258 117,5 -4,5"/>
<!-- Node1 -->
<g id="node1" class="node"><title>Node1</title>
<polygon fill="#bfbfbf" stroke="black" points="-0.118,-117 -0.118,-137 38.118,-137 38.118,-117 -0.118,-117"/>
<text text-anchor="middle" x="19" y="-124" font-family="Helvetica,sans-Serif" font-size="10.00">qage</text>
</g>
<!-- Node2 -->
<g id="node3" class="node"><title>Node2</title>
<a xlink:href="quadpack_8f90.html#a1722ad5ba07cec52d38c9ebf9df80a2d" target="_top" xlink:title="qk15">
<polygon fill="white" stroke="black" points="74.1615,-234 74.1615,-254 111.838,-254 111.838,-234 74.1615,-234"/>
<text text-anchor="middle" x="93" y="-241" font-family="Helvetica,sans-Serif" font-size="10.00">qk15</text>
</a>
</g>
<!-- Node1&#45;&gt;Node2 -->
<g id="edge2" class="edge"><title>Node1&#45;&gt;Node2</title>
<path fill="none" stroke="midnightblue" d="M24.6718,-137.076C33.2771,-155.205 52.7104,-194.204 74,-224 74.4481,-224.627 74.9132,-225.257 75.3913,-225.885"/>
<polygon fill="midnightblue" stroke="midnightblue" points="72.9032,-228.366 82.0063,-233.787 78.2705,-223.872 72.9032,-228.366"/>
</g>
<!-- Node3 -->
<g id="node5" class="node"><title>Node3</title>
<a xlink:href="quadpack_8f90.html#a27241a527b249e9de59a5ed6bee5f805" target="_top" xlink:title="qk21">
<polygon fill="white" stroke="black" points="74.1615,-195 74.1615,-215 111.838,-215 111.838,-195 74.1615,-195"/>
<text text-anchor="middle" x="93" y="-202" font-family="Helvetica,sans-Serif" font-size="10.00">qk21</text>
</a>
</g>
<!-- Node1&#45;&gt;Node3 -->
<g id="edge4" class="edge"><title>Node1&#45;&gt;Node3</title>
<path fill="none" stroke="midnightblue" d="M29.4127,-137.197C41.0983,-149.857 61.2283,-171.664 75.5011,-187.126"/>
<polygon fill="midnightblue" stroke="midnightblue" points="73.0005,-189.577 82.3551,-194.551 78.1441,-184.829 73.0005,-189.577"/>
</g>
<!-- Node4 -->
<g id="node7" class="node"><title>Node4</title>
<a xlink:href="quadpack_8f90.html#aded2e8dd2218fbd159b78c0e8975a4cd" target="_top" xlink:title="qk31">
<polygon fill="white" stroke="black" points="74.1615,-156 74.1615,-176 111.838,-176 111.838,-156 74.1615,-156"/>
<text text-anchor="middle" x="93" y="-163" font-family="Helvetica,sans-Serif" font-size="10.00">qk31</text>
</a>
</g>
<!-- Node1&#45;&gt;Node4 -->
<g id="edge6" class="edge"><title>Node1&#45;&gt;Node4</title>
<path fill="none" stroke="midnightblue" d="M38.1686,-136.841C46.3312,-141.263 56.13,-146.57 65.1173,-151.439"/>
<polygon fill="midnightblue" stroke="midnightblue" points="63.6266,-154.612 74.0866,-156.297 66.9607,-148.456 63.6266,-154.612"/>
</g>
<!-- Node5 -->
<g id="node9" class="node"><title>Node5</title>
<a xlink:href="quadpack_8f90.html#aface4edf24710a0b323f5aaeb6bdec34" target="_top" xlink:title="qk41">
<polygon fill="white" stroke="black" points="74.1615,-117 74.1615,-137 111.838,-137 111.838,-117 74.1615,-117"/>
<text text-anchor="middle" x="93" y="-124" font-family="Helvetica,sans-Serif" font-size="10.00">qk41</text>
</a>
</g>
<!-- Node1&#45;&gt;Node5 -->
<g id="edge8" class="edge"><title>Node1&#45;&gt;Node5</title>
<path fill="none" stroke="midnightblue" d="M38.1686,-127C45.9875,-127 55.3077,-127 63.9779,-127"/>
<polygon fill="midnightblue" stroke="midnightblue" points="64.0866,-130.5 74.0866,-127 64.0866,-123.5 64.0866,-130.5"/>
</g>
<!-- Node6 -->
<g id="node11" class="node"><title>Node6</title>
<a xlink:href="quadpack_8f90.html#a73edb4987a87a40ebf4731ab63d7f03e" target="_top" xlink:title="qk51">
<polygon fill="white" stroke="black" points="74.1615,-78 74.1615,-98 111.838,-98 111.838,-78 74.1615,-78"/>
<text text-anchor="middle" x="93" y="-85" font-family="Helvetica,sans-Serif" font-size="10.00">qk51</text>
</a>
</g>
<!-- Node1&#45;&gt;Node6 -->
<g id="edge10" class="edge"><title>Node1&#45;&gt;Node6</title>
<path fill="none" stroke="midnightblue" d="M38.1686,-117.159C46.3312,-112.737 56.13,-107.43 65.1173,-102.561"/>
<polygon fill="midnightblue" stroke="midnightblue" points="66.9607,-105.544 74.0866,-97.7031 63.6266,-99.3885 66.9607,-105.544"/>
</g>
<!-- Node7 -->
<g id="node13" class="node"><title>Node7</title>
<a xlink:href="quadpack_8f90.html#acb4a48f5e54a2c5f951d0828e8f8146d" target="_top" xlink:title="qk61">
<polygon fill="white" stroke="black" points="74.1615,-39 74.1615,-59 111.838,-59 111.838,-39 74.1615,-39"/>
<text text-anchor="middle" x="93" y="-46" font-family="Helvetica,sans-Serif" font-size="10.00">qk61</text>
</a>
</g>
<!-- Node1&#45;&gt;Node7 -->
<g id="edge12" class="edge"><title>Node1&#45;&gt;Node7</title>
<path fill="none" stroke="midnightblue" d="M29.4127,-116.803C41.0983,-104.143 61.2283,-82.336 75.5011,-66.8739"/>
<polygon fill="midnightblue" stroke="midnightblue" points="78.1441,-69.1706 82.3551,-59.4486 73.0005,-64.4227 78.1441,-69.1706"/>
</g>
<!-- Node8 -->
<g id="node15" class="node"><title>Node8</title>
<a xlink:href="quadpack_8f90.html#a55e08a684c5a6315fb37dd0fdc66d8e6" target="_top" xlink:title="qsort">
<polygon fill="white" stroke="black" points="73.887,-0 73.887,-20 112.113,-20 112.113,-0 73.887,-0"/>
<text text-anchor="middle" x="93" y="-7" font-family="Helvetica,sans-Serif" font-size="10.00">qsort</text>
</a>
</g>
<!-- Node1&#45;&gt;Node8 -->
<g id="edge14" class="edge"><title>Node1&#45;&gt;Node8</title>
<path fill="none" stroke="midnightblue" d="M24.6718,-116.924C33.2771,-98.7954 52.7104,-59.7963 74,-30 74.4481,-29.3729 74.9132,-28.7435 75.3913,-28.1147"/>
<polygon fill="midnightblue" stroke="midnightblue" points="78.2705,-30.1279 82.0063,-20.2135 72.9032,-25.6343 78.2705,-30.1279"/>
</g>
</g>
</svg>
