<?xml version="1.0" encoding="UTF-8" standalone="no"?>
<!DOCTYPE svg PUBLIC "-//W3C//DTD SVG 1.1//EN"
 "http://www.w3.org/Graphics/SVG/1.1/DTD/svg11.dtd">
<!-- Generated by graphviz version 2.28.0 (20111007.0958)
 -->
<!-- Title: G Pages: 1 -->
<svg width="316pt" height="28pt"
 viewBox="0.00 0.00 316.00 28.00" xmlns="http://www.w3.org/2000/svg" xmlns:xlink="http://www.w3.org/1999/xlink">
<g id="graph1" class="graph" transform="scale(1 1) rotate(0) translate(4 24)">
<title>G</title>
<polygon fill="white" stroke="white" points="-4,5 -4,-24 313,-24 313,5 -4,5"/>
<!-- Node1 -->
<g id="node1" class="node"><title>Node1</title>
<polygon fill="#bfbfbf" stroke="black" points="0.4405,-0 0.4405,-20 77.5595,-20 77.5595,-0 0.4405,-0"/>
<text text-anchor="middle" x="39" y="-7" font-family="Helvetica,sans-Serif" font-size="10.00">laguerre_com</text>
</g>
<!-- Node2 -->
<g id="node3" class="node"><title>Node2</title>
<a xlink:href="quadrule_8f90.html#a50878552a6862bdc03e4e7d904d7b154" target="_top" xlink:title="laguerre_root">
<polygon fill="white" stroke="black" points="114.272,-0 114.272,-20 189.728,-20 189.728,-0 114.272,-0"/>
<text text-anchor="middle" x="152" y="-7" font-family="Helvetica,sans-Serif" font-size="10.00">laguerre_root</text>
</a>
</g>
<!-- Node1&#45;&gt;Node2 -->
<g id="edge2" class="edge"><title>Node1&#45;&gt;Node2</title>
<path fill="none" stroke="midnightblue" d="M77.5795,-10C86.0781,-10 95.2048,-10 104.036,-10"/>
<polygon fill="midnightblue" stroke="midnightblue" points="104.212,-13.5001 114.212,-10 104.212,-6.5001 104.212,-13.5001"/>
</g>
<!-- Node3 -->
<g id="node5" class="node"><title>Node3</title>
<a xlink:href="quadrule_8f90.html#a37a4edc203821495156eaa63b1c4d7fa" target="_top" xlink:title="laguerre_recur">
<polygon fill="white" stroke="black" points="226.496,-0 226.496,-20 307.504,-20 307.504,-0 226.496,-0"/>
<text text-anchor="middle" x="267" y="-7" font-family="Helvetica,sans-Serif" font-size="10.00">laguerre_recur</text>
</a>
</g>
<!-- Node2&#45;&gt;Node3 -->
<g id="edge4" class="edge"><title>Node2&#45;&gt;Node3</title>
<path fill="none" stroke="midnightblue" d="M190,-10C198.328,-10 207.299,-10 216.058,-10"/>
<polygon fill="midnightblue" stroke="midnightblue" points="216.19,-13.5001 226.19,-10 216.19,-6.5001 216.19,-13.5001"/>
</g>
</g>
</svg>
