<?xml version="1.0" encoding="UTF-8" standalone="no"?>
<!DOCTYPE svg PUBLIC "-//W3C//DTD SVG 1.1//EN"
 "http://www.w3.org/Graphics/SVG/1.1/DTD/svg11.dtd">
<!-- Generated by graphviz version 2.28.0 (20111102.2313)
 -->
<!-- Title: G Pages: 1 -->
<svg width="190pt" height="262pt"
 viewBox="0.00 0.00 190.00 262.00" xmlns="http://www.w3.org/2000/svg" xmlns:xlink="http://www.w3.org/1999/xlink">
<g id="graph1" class="graph" transform="scale(1 1) rotate(0) translate(4 258)">
<title>G</title>
<polygon fill="white" stroke="white" points="-4,5 -4,-258 187,-258 187,5 -4,5"/>
<!-- Node1 -->
<g id="node1" class="node"><title>Node1</title>
<polygon fill="#bfbfbf" stroke="black" points="0.6615,-117 0.6615,-137 33.3385,-137 33.3385,-117 0.6615,-117"/>
<text text-anchor="middle" x="17" y="-124" font-family="Helvetica,sans-Serif" font-size="10.00">qag</text>
</g>
<!-- Node2 -->
<g id="node3" class="node"><title>Node2</title>
<a xlink:href="quadpack_8f90.html#ab602437c218a2c74d6a13f9462f98854" target="_top" xlink:title="qage">
<polygon fill="white" stroke="black" points="69.882,-117 69.882,-137 108.118,-137 108.118,-117 69.882,-117"/>
<text text-anchor="middle" x="89" y="-124" font-family="Helvetica,sans-Serif" font-size="10.00">qage</text>
</a>
</g>
<!-- Node1&#45;&gt;Node2 -->
<g id="edge2" class="edge"><title>Node1&#45;&gt;Node2</title>
<path fill="none" stroke="midnightblue" d="M33.5353,-127C41.236,-127 50.78,-127 59.717,-127"/>
<polygon fill="midnightblue" stroke="midnightblue" points="59.7825,-130.5 69.7825,-127 59.7825,-123.5 59.7825,-130.5"/>
</g>
<!-- Node3 -->
<g id="node5" class="node"><title>Node3</title>
<a xlink:href="quadpack_8f90.html#a1722ad5ba07cec52d38c9ebf9df80a2d" target="_top" xlink:title="qk15">
<polygon fill="white" stroke="black" points="144.161,-234 144.161,-254 181.839,-254 181.839,-234 144.161,-234"/>
<text text-anchor="middle" x="163" y="-241" font-family="Helvetica,sans-Serif" font-size="10.00">qk15</text>
</a>
</g>
<!-- Node2&#45;&gt;Node3 -->
<g id="edge4" class="edge"><title>Node2&#45;&gt;Node3</title>
<path fill="none" stroke="midnightblue" d="M94.6718,-137.076C103.277,-155.205 122.71,-194.204 144,-224 144.448,-224.627 144.913,-225.257 145.391,-225.885"/>
<polygon fill="midnightblue" stroke="midnightblue" points="142.903,-228.366 152.006,-233.787 148.271,-223.872 142.903,-228.366"/>
</g>
<!-- Node4 -->
<g id="node7" class="node"><title>Node4</title>
<a xlink:href="quadpack_8f90.html#a27241a527b249e9de59a5ed6bee5f805" target="_top" xlink:title="qk21">
<polygon fill="white" stroke="black" points="144.161,-195 144.161,-215 181.839,-215 181.839,-195 144.161,-195"/>
<text text-anchor="middle" x="163" y="-202" font-family="Helvetica,sans-Serif" font-size="10.00">qk21</text>
</a>
</g>
<!-- Node2&#45;&gt;Node4 -->
<g id="edge6" class="edge"><title>Node2&#45;&gt;Node4</title>
<path fill="none" stroke="midnightblue" d="M99.4127,-137.197C111.098,-149.857 131.228,-171.664 145.501,-187.126"/>
<polygon fill="midnightblue" stroke="midnightblue" points="143,-189.577 152.355,-194.551 148.144,-184.829 143,-189.577"/>
</g>
<!-- Node5 -->
<g id="node9" class="node"><title>Node5</title>
<a xlink:href="quadpack_8f90.html#aded2e8dd2218fbd159b78c0e8975a4cd" target="_top" xlink:title="qk31">
<polygon fill="white" stroke="black" points="144.161,-156 144.161,-176 181.839,-176 181.839,-156 144.161,-156"/>
<text text-anchor="middle" x="163" y="-163" font-family="Helvetica,sans-Serif" font-size="10.00">qk31</text>
</a>
</g>
<!-- Node2&#45;&gt;Node5 -->
<g id="edge8" class="edge"><title>Node2&#45;&gt;Node5</title>
<path fill="none" stroke="midnightblue" d="M108.169,-136.841C116.331,-141.263 126.13,-146.57 135.117,-151.439"/>
<polygon fill="midnightblue" stroke="midnightblue" points="133.627,-154.612 144.087,-156.297 136.961,-148.456 133.627,-154.612"/>
</g>
<!-- Node6 -->
<g id="node11" class="node"><title>Node6</title>
<a xlink:href="quadpack_8f90.html#aface4edf24710a0b323f5aaeb6bdec34" target="_top" xlink:title="qk41">
<polygon fill="white" stroke="black" points="144.161,-117 144.161,-137 181.839,-137 181.839,-117 144.161,-117"/>
<text text-anchor="middle" x="163" y="-124" font-family="Helvetica,sans-Serif" font-size="10.00">qk41</text>
</a>
</g>
<!-- Node2&#45;&gt;Node6 -->
<g id="edge10" class="edge"><title>Node2&#45;&gt;Node6</title>
<path fill="none" stroke="midnightblue" d="M108.169,-127C115.988,-127 125.308,-127 133.978,-127"/>
<polygon fill="midnightblue" stroke="midnightblue" points="134.087,-130.5 144.087,-127 134.087,-123.5 134.087,-130.5"/>
</g>
<!-- Node7 -->
<g id="node13" class="node"><title>Node7</title>
<a xlink:href="quadpack_8f90.html#a73edb4987a87a40ebf4731ab63d7f03e" target="_top" xlink:title="qk51">
<polygon fill="white" stroke="black" points="144.161,-78 144.161,-98 181.839,-98 181.839,-78 144.161,-78"/>
<text text-anchor="middle" x="163" y="-85" font-family="Helvetica,sans-Serif" font-size="10.00">qk51</text>
</a>
</g>
<!-- Node2&#45;&gt;Node7 -->
<g id="edge12" class="edge"><title>Node2&#45;&gt;Node7</title>
<path fill="none" stroke="midnightblue" d="M108.169,-117.159C116.331,-112.737 126.13,-107.43 135.117,-102.561"/>
<polygon fill="midnightblue" stroke="midnightblue" points="136.961,-105.544 144.087,-97.7031 133.627,-99.3885 136.961,-105.544"/>
</g>
<!-- Node8 -->
<g id="node15" class="node"><title>Node8</title>
<a xlink:href="quadpack_8f90.html#acb4a48f5e54a2c5f951d0828e8f8146d" target="_top" xlink:title="qk61">
<polygon fill="white" stroke="black" points="144.161,-39 144.161,-59 181.839,-59 181.839,-39 144.161,-39"/>
<text text-anchor="middle" x="163" y="-46" font-family="Helvetica,sans-Serif" font-size="10.00">qk61</text>
</a>
</g>
<!-- Node2&#45;&gt;Node8 -->
<g id="edge14" class="edge"><title>Node2&#45;&gt;Node8</title>
<path fill="none" stroke="midnightblue" d="M99.4127,-116.803C111.098,-104.143 131.228,-82.336 145.501,-66.8739"/>
<polygon fill="midnightblue" stroke="midnightblue" points="148.144,-69.1706 152.355,-59.4486 143,-64.4227 148.144,-69.1706"/>
</g>
<!-- Node9 -->
<g id="node17" class="node"><title>Node9</title>
<a xlink:href="quadpack_8f90.html#a55e08a684c5a6315fb37dd0fdc66d8e6" target="_top" xlink:title="qsort">
<polygon fill="white" stroke="black" points="143.887,-0 143.887,-20 182.113,-20 182.113,-0 143.887,-0"/>
<text text-anchor="middle" x="163" y="-7" font-family="Helvetica,sans-Serif" font-size="10.00">qsort</text>
</a>
</g>
<!-- Node2&#45;&gt;Node9 -->
<g id="edge16" class="edge"><title>Node2&#45;&gt;Node9</title>
<path fill="none" stroke="midnightblue" d="M94.6718,-116.924C103.277,-98.7954 122.71,-59.7963 144,-30 144.448,-29.3729 144.913,-28.7435 145.391,-28.1147"/>
<polygon fill="midnightblue" stroke="midnightblue" points="148.271,-30.1279 152.006,-20.2135 142.903,-25.6343 148.271,-30.1279"/>
</g>
</g>
</svg>
