<?xml version="1.0" encoding="UTF-8" standalone="no"?>
<!DOCTYPE svg PUBLIC "-//W3C//DTD SVG 1.1//EN"
 "http://www.w3.org/Graphics/SVG/1.1/DTD/svg11.dtd">
<!-- Generated by graphviz version 2.28.0 (20111102.2313)
 -->
<!-- Title: G Pages: 1 -->
<svg width="134pt" height="67pt"
 viewBox="0.00 0.00 134.00 67.00" xmlns="http://www.w3.org/2000/svg" xmlns:xlink="http://www.w3.org/1999/xlink">
<g id="graph1" class="graph" transform="scale(1 1) rotate(0) translate(4 63)">
<title>G</title>
<polygon fill="white" stroke="white" points="-4,5 -4,-63 131,-63 131,5 -4,5"/>
<!-- Node1 -->
<g id="node1" class="node"><title>Node1</title>
<polygon fill="#bfbfbf" stroke="black" points="0.382,-19 0.382,-39 43.618,-39 43.618,-19 0.382,-19"/>
<text text-anchor="middle" x="22" y="-26" font-family="Helvetica,sans-Serif" font-size="10.00">qc25o</text>
</g>
<!-- Node2 -->
<g id="node3" class="node"><title>Node2</title>
<a xlink:href="quadpack_8f90.html#ad5beefcfdb335ea68ccf8397536c8c36" target="_top" xlink:title="qcheb">
<polygon fill="white" stroke="black" points="81.382,-39 81.382,-59 124.618,-59 124.618,-39 81.382,-39"/>
<text text-anchor="middle" x="103" y="-46" font-family="Helvetica,sans-Serif" font-size="10.00">qcheb</text>
</a>
</g>
<!-- Node1&#45;&gt;Node2 -->
<g id="edge2" class="edge"><title>Node1&#45;&gt;Node2</title>
<path fill="none" stroke="midnightblue" d="M43.7563,-34.2548C52.1265,-36.3738 61.9586,-38.8629 71.1365,-41.1865"/>
<polygon fill="midnightblue" stroke="midnightblue" points="70.5549,-44.6496 81.108,-43.7109 72.2729,-37.8636 70.5549,-44.6496"/>
</g>
<!-- Node3 -->
<g id="node5" class="node"><title>Node3</title>
<a xlink:href="quadpack_8f90.html#a0c083838940925726abd5bc85fa29587" target="_top" xlink:title="qk15w">
<polygon fill="white" stroke="black" points="80.552,-0 80.552,-20 125.448,-20 125.448,-0 80.552,-0"/>
<text text-anchor="middle" x="103" y="-7" font-family="Helvetica,sans-Serif" font-size="10.00">qk15w</text>
</a>
</g>
<!-- Node1&#45;&gt;Node3 -->
<g id="edge4" class="edge"><title>Node1&#45;&gt;Node3</title>
<path fill="none" stroke="midnightblue" d="M43.7563,-24.008C51.9273,-22.0428 61.4912,-19.7426 70.4799,-17.5808"/>
<polygon fill="midnightblue" stroke="midnightblue" points="71.3747,-20.9655 80.279,-15.224 69.7378,-14.1595 71.3747,-20.9655"/>
</g>
</g>
</svg>
