<?xml version="1.0" encoding="UTF-8" standalone="no"?>
<!DOCTYPE svg PUBLIC "-//W3C//DTD SVG 1.1//EN"
 "http://www.w3.org/Graphics/SVG/1.1/DTD/svg11.dtd">
<!-- Generated by graphviz version 2.28.0 (20111102.2313)
 -->
<!-- Title: G Pages: 1 -->
<svg width="134pt" height="67pt"
 viewBox="0.00 0.00 134.00 67.00" xmlns="http://www.w3.org/2000/svg" xmlns:xlink="http://www.w3.org/1999/xlink">
<g id="graph1" class="graph" transform="scale(1 1) rotate(0) translate(4 63)">
<title>G</title>
<polygon fill="white" stroke="white" points="-4,5 -4,-63 131,-63 131,5 -4,5"/>
<!-- Node1 -->
<g id="node1" class="node"><title>Node1</title>
<polygon fill="#bfbfbf" stroke="black" points="0.6615,-19 0.6615,-39 43.3385,-39 43.3385,-19 0.6615,-19"/>
<text text-anchor="middle" x="22" y="-26" font-family="Helvetica,sans-Serif" font-size="10.00">qc25s</text>
</g>
<!-- Node2 -->
<g id="node3" class="node"><title>Node2</title>
<a xlink:href="quadpack_8f90.html#ad5beefcfdb335ea68ccf8397536c8c36" target="_top" xlink:title="qcheb">
<polygon fill="white" stroke="black" points="81.382,-39 81.382,-59 124.618,-59 124.618,-39 81.382,-39"/>
<text text-anchor="middle" x="103" y="-46" font-family="Helvetica,sans-Serif" font-size="10.00">qcheb</text>
</a>
</g>
<!-- Node1&#45;&gt;Node2 -->
<g id="edge2" class="edge"><title>Node1&#45;&gt;Node2</title>
<path fill="none" stroke="midnightblue" d="M43.3445,-34.1505C51.8721,-36.3094 61.9715,-38.8662 71.3654,-41.2444"/>
<polygon fill="midnightblue" stroke="midnightblue" points="70.6211,-44.6663 81.1743,-43.7277 72.3391,-37.8804 70.6211,-44.6663"/>
</g>
<!-- Node3 -->
<g id="node5" class="node"><title>Node3</title>
<a xlink:href="quadpack_8f90.html#a0c083838940925726abd5bc85fa29587" target="_top" xlink:title="qk15w">
<polygon fill="white" stroke="black" points="80.552,-0 80.552,-20 125.448,-20 125.448,-0 80.552,-0"/>
<text text-anchor="middle" x="103" y="-7" font-family="Helvetica,sans-Serif" font-size="10.00">qk15w</text>
</a>
</g>
<!-- Node1&#45;&gt;Node3 -->
<g id="edge4" class="edge"><title>Node1&#45;&gt;Node3</title>
<path fill="none" stroke="midnightblue" d="M43.3445,-24.107C51.5821,-22.1258 61.2863,-19.7919 70.4046,-17.5989"/>
<polygon fill="midnightblue" stroke="midnightblue" points="71.4368,-20.9505 80.3411,-15.2091 69.7999,-14.1446 71.4368,-20.9505"/>
</g>
</g>
</svg>
