<?xml version="1.0" encoding="UTF-8" standalone="no"?>
<!DOCTYPE svg PUBLIC "-//W3C//DTD SVG 1.1//EN"
 "http://www.w3.org/Graphics/SVG/1.1/DTD/svg11.dtd">
<!-- Generated by graphviz version 2.28.0 (20111102.2313)
 -->
<!-- Title: G Pages: 1 -->
<svg width="222pt" height="125pt"
 viewBox="0.00 0.00 222.00 125.00" xmlns="http://www.w3.org/2000/svg" xmlns:xlink="http://www.w3.org/1999/xlink">
<g id="graph1" class="graph" transform="scale(1 1) rotate(0) translate(4 121)">
<title>G</title>
<polygon fill="white" stroke="white" points="-4,5 -4,-121 219,-121 219,5 -4,5"/>
<!-- Node1 -->
<g id="node1" class="node"><title>Node1</title>
<polygon fill="#bfbfbf" stroke="black" points="0.552,-39 0.552,-59 45.448,-59 45.448,-39 0.552,-39"/>
<text text-anchor="middle" x="23" y="-46" font-family="Helvetica,sans-Serif" font-size="10.00">qawse</text>
</g>
<!-- Node2 -->
<g id="node3" class="node"><title>Node2</title>
<a xlink:href="quadpack_8f90.html#a034546450320f53f05096bc12af9b5bc" target="_top" xlink:title="qc25s">
<polygon fill="white" stroke="black" points="85.6615,-78 85.6615,-98 128.339,-98 128.339,-78 85.6615,-78"/>
<text text-anchor="middle" x="107" y="-85" font-family="Helvetica,sans-Serif" font-size="10.00">qc25s</text>
</a>
</g>
<!-- Node1&#45;&gt;Node2 -->
<g id="edge2" class="edge"><title>Node1&#45;&gt;Node2</title>
<path fill="none" stroke="midnightblue" d="M45.117,-59.0435C54.6358,-63.5707 66.0413,-68.9952 76.3939,-73.919"/>
<polygon fill="midnightblue" stroke="midnightblue" points="74.9872,-77.1257 85.5211,-78.26 77.9938,-70.8042 74.9872,-77.1257"/>
</g>
<!-- Node5 -->
<g id="node9" class="node"><title>Node5</title>
<a xlink:href="quadpack_8f90.html#aa732651ae77f9486d6e3d17999c699ab" target="_top" xlink:title="qmomo">
<polygon fill="white" stroke="black" points="82.3325,-39 82.3325,-59 131.667,-59 131.667,-39 82.3325,-39"/>
<text text-anchor="middle" x="107" y="-46" font-family="Helvetica,sans-Serif" font-size="10.00">qmomo</text>
</a>
</g>
<!-- Node1&#45;&gt;Node5 -->
<g id="edge8" class="edge"><title>Node1&#45;&gt;Node5</title>
<path fill="none" stroke="midnightblue" d="M45.5445,-49C53.6617,-49 63.1034,-49 72.0783,-49"/>
<polygon fill="midnightblue" stroke="midnightblue" points="72.2926,-52.5001 82.2925,-49 72.2925,-45.5001 72.2926,-52.5001"/>
</g>
<!-- Node6 -->
<g id="node11" class="node"><title>Node6</title>
<a xlink:href="quadpack_8f90.html#a55e08a684c5a6315fb37dd0fdc66d8e6" target="_top" xlink:title="qsort">
<polygon fill="white" stroke="black" points="87.887,-0 87.887,-20 126.113,-20 126.113,-0 87.887,-0"/>
<text text-anchor="middle" x="107" y="-7" font-family="Helvetica,sans-Serif" font-size="10.00">qsort</text>
</a>
</g>
<!-- Node1&#45;&gt;Node6 -->
<g id="edge10" class="edge"><title>Node1&#45;&gt;Node6</title>
<path fill="none" stroke="midnightblue" d="M45.117,-38.9565C55.3202,-34.1038 67.691,-28.2201 78.6094,-23.0272"/>
<polygon fill="midnightblue" stroke="midnightblue" points="80.2121,-26.1407 87.7395,-18.6849 77.2055,-19.8193 80.2121,-26.1407"/>
</g>
<!-- Node3 -->
<g id="node5" class="node"><title>Node3</title>
<a xlink:href="quadpack_8f90.html#ad5beefcfdb335ea68ccf8397536c8c36" target="_top" xlink:title="qcheb">
<polygon fill="white" stroke="black" points="169.382,-97 169.382,-117 212.618,-117 212.618,-97 169.382,-97"/>
<text text-anchor="middle" x="191" y="-104" font-family="Helvetica,sans-Serif" font-size="10.00">qcheb</text>
</a>
</g>
<!-- Node2&#45;&gt;Node3 -->
<g id="edge4" class="edge"><title>Node2&#45;&gt;Node3</title>
<path fill="none" stroke="midnightblue" d="M128.692,-92.7945C138.015,-94.9547 149.212,-97.5492 159.472,-99.9264"/>
<polygon fill="midnightblue" stroke="midnightblue" points="158.783,-103.359 169.315,-102.207 160.363,-96.54 158.783,-103.359"/>
</g>
<!-- Node4 -->
<g id="node7" class="node"><title>Node4</title>
<a xlink:href="quadpack_8f90.html#a0c083838940925726abd5bc85fa29587" target="_top" xlink:title="qk15w">
<polygon fill="white" stroke="black" points="168.552,-58 168.552,-78 213.448,-78 213.448,-58 168.552,-58"/>
<text text-anchor="middle" x="191" y="-65" font-family="Helvetica,sans-Serif" font-size="10.00">qk15w</text>
</a>
</g>
<!-- Node2&#45;&gt;Node4 -->
<g id="edge6" class="edge"><title>Node2&#45;&gt;Node4</title>
<path fill="none" stroke="midnightblue" d="M128.692,-82.9532C137.707,-80.7545 148.473,-78.1284 158.451,-75.695"/>
<polygon fill="midnightblue" stroke="midnightblue" points="159.57,-79.0247 168.455,-73.2548 157.911,-72.2241 159.57,-79.0247"/>
</g>
</g>
</svg>
