<?xml version="1.0" encoding="UTF-8" standalone="no"?>
<!DOCTYPE svg PUBLIC "-//W3C//DTD SVG 1.1//EN"
 "http://www.w3.org/Graphics/SVG/1.1/DTD/svg11.dtd">
<!-- Generated by graphviz version 2.28.0 (20111102.2313)
 -->
<!-- Title: G Pages: 1 -->
<svg width="216pt" height="86pt"
 viewBox="0.00 0.00 216.00 86.00" xmlns="http://www.w3.org/2000/svg" xmlns:xlink="http://www.w3.org/1999/xlink">
<g id="graph1" class="graph" transform="scale(1 1) rotate(0) translate(4 82)">
<title>G</title>
<polygon fill="white" stroke="white" points="-4,5 -4,-82 213,-82 213,5 -4,5"/>
<!-- Node1 -->
<g id="node1" class="node"><title>Node1</title>
<polygon fill="#bfbfbf" stroke="black" points="0.552,-19 0.552,-39 45.448,-39 45.448,-19 0.552,-19"/>
<text text-anchor="middle" x="23" y="-26" font-family="Helvetica,sans-Serif" font-size="10.00">qawce</text>
</g>
<!-- Node2 -->
<g id="node3" class="node"><title>Node2</title>
<a xlink:href="quadpack_8f90.html#af8148c1623b7cf59159c491cfb1856f4" target="_top" xlink:title="qc25c">
<polygon fill="white" stroke="black" points="82.6615,-39 82.6615,-59 125.338,-59 125.338,-39 82.6615,-39"/>
<text text-anchor="middle" x="104" y="-46" font-family="Helvetica,sans-Serif" font-size="10.00">qc25c</text>
</a>
</g>
<!-- Node1&#45;&gt;Node2 -->
<g id="edge2" class="edge"><title>Node1&#45;&gt;Node2</title>
<path fill="none" stroke="midnightblue" d="M45.5871,-34.4651C53.9516,-36.5827 63.6758,-39.0445 72.7175,-41.3336"/>
<polygon fill="midnightblue" stroke="midnightblue" points="71.9739,-44.7556 82.5271,-43.817 73.6919,-37.9697 71.9739,-44.7556"/>
</g>
<!-- Node5 -->
<g id="node9" class="node"><title>Node5</title>
<a xlink:href="quadpack_8f90.html#a55e08a684c5a6315fb37dd0fdc66d8e6" target="_top" xlink:title="qsort">
<polygon fill="white" stroke="black" points="84.887,-0 84.887,-20 123.113,-20 123.113,-0 84.887,-0"/>
<text text-anchor="middle" x="104" y="-7" font-family="Helvetica,sans-Serif" font-size="10.00">qsort</text>
</a>
</g>
<!-- Node1&#45;&gt;Node5 -->
<g id="edge8" class="edge"><title>Node1&#45;&gt;Node5</title>
<path fill="none" stroke="midnightblue" d="M45.5871,-23.8082C54.5784,-21.6457 65.1407,-19.1054 74.7376,-16.7973"/>
<polygon fill="midnightblue" stroke="midnightblue" points="75.7481,-20.1541 84.6524,-14.4127 74.1112,-13.3482 75.7481,-20.1541"/>
</g>
<!-- Node3 -->
<g id="node5" class="node"><title>Node3</title>
<a xlink:href="quadpack_8f90.html#ad5beefcfdb335ea68ccf8397536c8c36" target="_top" xlink:title="qcheb">
<polygon fill="white" stroke="black" points="163.382,-58 163.382,-78 206.618,-78 206.618,-58 163.382,-58"/>
<text text-anchor="middle" x="185" y="-65" font-family="Helvetica,sans-Serif" font-size="10.00">qcheb</text>
</a>
</g>
<!-- Node2&#45;&gt;Node3 -->
<g id="edge4" class="edge"><title>Node2&#45;&gt;Node3</title>
<path fill="none" stroke="midnightblue" d="M125.344,-53.893C133.872,-55.9439 143.971,-58.3729 153.365,-60.6322"/>
<polygon fill="midnightblue" stroke="midnightblue" points="152.633,-64.0558 163.174,-62.9913 154.27,-57.2499 152.633,-64.0558"/>
</g>
<!-- Node4 -->
<g id="node7" class="node"><title>Node4</title>
<a xlink:href="quadpack_8f90.html#a0c083838940925726abd5bc85fa29587" target="_top" xlink:title="qk15w">
<polygon fill="white" stroke="black" points="162.552,-19 162.552,-39 207.448,-39 207.448,-19 162.552,-19"/>
<text text-anchor="middle" x="185" y="-26" font-family="Helvetica,sans-Serif" font-size="10.00">qk15w</text>
</a>
</g>
<!-- Node2&#45;&gt;Node4 -->
<g id="edge6" class="edge"><title>Node2&#45;&gt;Node4</title>
<path fill="none" stroke="midnightblue" d="M125.344,-43.8495C133.582,-41.764 143.286,-39.3073 152.405,-36.9988"/>
<polygon fill="midnightblue" stroke="midnightblue" points="153.506,-40.3305 162.341,-34.4833 151.788,-33.5446 153.506,-40.3305"/>
</g>
</g>
</svg>
