<?xml version="1.0" encoding="UTF-8" standalone="no"?>
<!DOCTYPE svg PUBLIC "-//W3C//DTD SVG 1.1//EN"
 "http://www.w3.org/Graphics/SVG/1.1/DTD/svg11.dtd">
<!-- Generated by graphviz version 2.28.0 (20111102.2313)
 -->
<!-- Title: G Pages: 1 -->
<svg width="210pt" height="125pt"
 viewBox="0.00 0.00 210.00 125.00" xmlns="http://www.w3.org/2000/svg" xmlns:xlink="http://www.w3.org/1999/xlink">
<g id="graph1" class="graph" transform="scale(1 1) rotate(0) translate(4 121)">
<title>G</title>
<polygon fill="white" stroke="white" points="-4,5 -4,-121 207,-121 207,5 -4,5"/>
<!-- Node1 -->
<g id="node1" class="node"><title>Node1</title>
<polygon fill="#bfbfbf" stroke="black" points="0.6075,-39 0.6075,-59 39.3925,-59 39.3925,-39 0.6075,-39"/>
<text text-anchor="middle" x="20" y="-46" font-family="Helvetica,sans-Serif" font-size="10.00">qfour</text>
</g>
<!-- Node2 -->
<g id="node3" class="node"><title>Node2</title>
<a xlink:href="quadpack_8f90.html#ab0843f4831942d2c9bf3430cb71aca06" target="_top" xlink:title="qc25o">
<polygon fill="white" stroke="black" points="76.382,-78 76.382,-98 119.618,-98 119.618,-78 76.382,-78"/>
<text text-anchor="middle" x="98" y="-85" font-family="Helvetica,sans-Serif" font-size="10.00">qc25o</text>
</a>
</g>
<!-- Node1&#45;&gt;Node2 -->
<g id="edge2" class="edge"><title>Node1&#45;&gt;Node2</title>
<path fill="none" stroke="midnightblue" d="M39.3975,-58.4408C48.1197,-62.9167 58.7394,-68.3663 68.4733,-73.3613"/>
<polygon fill="midnightblue" stroke="midnightblue" points="66.9486,-76.5128 77.4435,-77.9644 70.1445,-70.2849 66.9486,-76.5128"/>
</g>
<!-- Node5 -->
<g id="node9" class="node"><title>Node5</title>
<a xlink:href="quadpack_8f90.html#a5a75101d080f224c63adde98a0e64386" target="_top" xlink:title="qextr">
<polygon fill="white" stroke="black" points="78.887,-39 78.887,-59 117.113,-59 117.113,-39 78.887,-39"/>
<text text-anchor="middle" x="98" y="-46" font-family="Helvetica,sans-Serif" font-size="10.00">qextr</text>
</a>
</g>
<!-- Node1&#45;&gt;Node5 -->
<g id="edge8" class="edge"><title>Node1&#45;&gt;Node5</title>
<path fill="none" stroke="midnightblue" d="M39.3975,-49C48.1726,-49 58.8682,-49 68.6502,-49"/>
<polygon fill="midnightblue" stroke="midnightblue" points="68.772,-52.5001 78.7719,-49 68.7719,-45.5001 68.772,-52.5001"/>
</g>
<!-- Node6 -->
<g id="node11" class="node"><title>Node6</title>
<a xlink:href="quadpack_8f90.html#a55e08a684c5a6315fb37dd0fdc66d8e6" target="_top" xlink:title="qsort">
<polygon fill="white" stroke="black" points="78.887,-0 78.887,-20 117.113,-20 117.113,-0 78.887,-0"/>
<text text-anchor="middle" x="98" y="-7" font-family="Helvetica,sans-Serif" font-size="10.00">qsort</text>
</a>
</g>
<!-- Node1&#45;&gt;Node6 -->
<g id="edge10" class="edge"><title>Node1&#45;&gt;Node6</title>
<path fill="none" stroke="midnightblue" d="M39.3975,-39.5592C48.4527,-34.9125 59.5529,-29.2163 69.5839,-24.0688"/>
<polygon fill="midnightblue" stroke="midnightblue" points="71.4729,-27.0334 78.7719,-19.3539 68.277,-20.8055 71.4729,-27.0334"/>
</g>
<!-- Node3 -->
<g id="node5" class="node"><title>Node3</title>
<a xlink:href="quadpack_8f90.html#ad5beefcfdb335ea68ccf8397536c8c36" target="_top" xlink:title="qcheb">
<polygon fill="white" stroke="black" points="157.382,-97 157.382,-117 200.618,-117 200.618,-97 157.382,-97"/>
<text text-anchor="middle" x="179" y="-104" font-family="Helvetica,sans-Serif" font-size="10.00">qcheb</text>
</a>
</g>
<!-- Node2&#45;&gt;Node3 -->
<g id="edge4" class="edge"><title>Node2&#45;&gt;Node3</title>
<path fill="none" stroke="midnightblue" d="M119.756,-92.992C128.127,-95.0051 137.959,-97.3698 147.137,-99.5771"/>
<polygon fill="midnightblue" stroke="midnightblue" points="146.567,-103.04 157.108,-101.975 148.204,-96.2339 146.567,-103.04"/>
</g>
<!-- Node4 -->
<g id="node7" class="node"><title>Node4</title>
<a xlink:href="quadpack_8f90.html#a0c083838940925726abd5bc85fa29587" target="_top" xlink:title="qk15w">
<polygon fill="white" stroke="black" points="156.552,-58 156.552,-78 201.448,-78 201.448,-58 156.552,-58"/>
<text text-anchor="middle" x="179" y="-65" font-family="Helvetica,sans-Serif" font-size="10.00">qk15w</text>
</a>
</g>
<!-- Node2&#45;&gt;Node4 -->
<g id="edge6" class="edge"><title>Node2&#45;&gt;Node4</title>
<path fill="none" stroke="midnightblue" d="M119.756,-82.7452C127.927,-80.6766 137.491,-78.2554 146.48,-75.9798"/>
<polygon fill="midnightblue" stroke="midnightblue" points="147.444,-79.3462 156.279,-73.499 145.726,-72.5603 147.444,-79.3462"/>
</g>
</g>
</svg>
