<?xml version="1.0" encoding="UTF-8" standalone="no"?>
<!DOCTYPE svg PUBLIC "-//W3C//DTD SVG 1.1//EN"
 "http://www.w3.org/Graphics/SVG/1.1/DTD/svg11.dtd">
<!-- Generated by graphviz version 2.28.0 (20111102.2313)
 -->
<!-- Title: G Pages: 1 -->
<svg width="120pt" height="106pt"
 viewBox="0.00 0.00 120.00 106.00" xmlns="http://www.w3.org/2000/svg" xmlns:xlink="http://www.w3.org/1999/xlink">
<g id="graph1" class="graph" transform="scale(1 1) rotate(0) translate(4 102)">
<title>G</title>
<polygon fill="white" stroke="white" points="-4,5 -4,-102 117,-102 117,5 -4,5"/>
<!-- Node1 -->
<g id="node1" class="node"><title>Node1</title>
<polygon fill="#bfbfbf" stroke="black" points="0.552,-39 0.552,-59 35.448,-59 35.448,-39 0.552,-39"/>
<text text-anchor="middle" x="18" y="-46" font-family="Helvetica,sans-Serif" font-size="10.00">qagi</text>
</g>
<!-- Node2 -->
<g id="node3" class="node"><title>Node2</title>
<a xlink:href="quadpack_8f90.html#a5a75101d080f224c63adde98a0e64386" target="_top" xlink:title="qextr">
<polygon fill="white" stroke="black" points="72.887,-78 72.887,-98 111.113,-98 111.113,-78 72.887,-78"/>
<text text-anchor="middle" x="92" y="-85" font-family="Helvetica,sans-Serif" font-size="10.00">qextr</text>
</a>
</g>
<!-- Node1&#45;&gt;Node2 -->
<g id="edge2" class="edge"><title>Node1&#45;&gt;Node2</title>
<path fill="none" stroke="midnightblue" d="M35.6992,-58.0454C44.0492,-62.5683 54.3659,-68.1565 63.8184,-73.2766"/>
<polygon fill="midnightblue" stroke="midnightblue" points="62.4179,-76.4985 72.8778,-78.1838 65.7519,-70.3434 62.4179,-76.4985"/>
</g>
<!-- Node3 -->
<g id="node5" class="node"><title>Node3</title>
<a xlink:href="quadpack_8f90.html#a59164415fc33f2f3bf4ebc4ee2220f7e" target="_top" xlink:title="qk15i">
<polygon fill="white" stroke="black" points="72.052,-39 72.052,-59 111.948,-59 111.948,-39 72.052,-39"/>
<text text-anchor="middle" x="92" y="-46" font-family="Helvetica,sans-Serif" font-size="10.00">qk15i</text>
</a>
</g>
<!-- Node1&#45;&gt;Node3 -->
<g id="edge4" class="edge"><title>Node1&#45;&gt;Node3</title>
<path fill="none" stroke="midnightblue" d="M35.6992,-49C43.4624,-49 52.9257,-49 61.8138,-49"/>
<polygon fill="midnightblue" stroke="midnightblue" points="61.8472,-52.5001 71.8471,-49 61.8471,-45.5001 61.8472,-52.5001"/>
</g>
<!-- Node4 -->
<g id="node7" class="node"><title>Node4</title>
<a xlink:href="quadpack_8f90.html#a55e08a684c5a6315fb37dd0fdc66d8e6" target="_top" xlink:title="qsort">
<polygon fill="white" stroke="black" points="72.887,-0 72.887,-20 111.113,-20 111.113,-0 72.887,-0"/>
<text text-anchor="middle" x="92" y="-7" font-family="Helvetica,sans-Serif" font-size="10.00">qsort</text>
</a>
</g>
<!-- Node1&#45;&gt;Node4 -->
<g id="edge6" class="edge"><title>Node1&#45;&gt;Node4</title>
<path fill="none" stroke="midnightblue" d="M35.6992,-39.9546C44.0492,-35.4317 54.3659,-29.8435 63.8184,-24.7234"/>
<polygon fill="midnightblue" stroke="midnightblue" points="65.7519,-27.6566 72.8778,-19.8162 62.4179,-21.5015 65.7519,-27.6566"/>
</g>
</g>
</svg>
