<?xml version="1.0" encoding="UTF-8" standalone="no"?>
<!DOCTYPE svg PUBLIC "-//W3C//DTD SVG 1.1//EN"
 "http://www.w3.org/Graphics/SVG/1.1/DTD/svg11.dtd">
<!-- Generated by graphviz version 2.28.0 (20111102.2313)
 -->
<!-- Title: G Pages: 1 -->
<svg width="120pt" height="106pt"
 viewBox="0.00 0.00 120.00 106.00" xmlns="http://www.w3.org/2000/svg" xmlns:xlink="http://www.w3.org/1999/xlink">
<g id="graph1" class="graph" transform="scale(1 1) rotate(0) translate(4 102)">
<title>G</title>
<polygon fill="white" stroke="white" points="-4,5 -4,-102 117,-102 117,5 -4,5"/>
<!-- Node1 -->
<g id="node1" class="node"><title>Node1</title>
<polygon fill="#bfbfbf" stroke="black" points="0.1615,-39 0.1615,-59 37.8385,-59 37.8385,-39 0.1615,-39"/>
<text text-anchor="middle" x="19" y="-46" font-family="Helvetica,sans-Serif" font-size="10.00">qags</text>
</g>
<!-- Node2 -->
<g id="node3" class="node"><title>Node2</title>
<a xlink:href="quadpack_8f90.html#a5a75101d080f224c63adde98a0e64386" target="_top" xlink:title="qextr">
<polygon fill="white" stroke="black" points="73.887,-78 73.887,-98 112.113,-98 112.113,-78 73.887,-78"/>
<text text-anchor="middle" x="93" y="-85" font-family="Helvetica,sans-Serif" font-size="10.00">qextr</text>
</a>
</g>
<!-- Node1&#45;&gt;Node2 -->
<g id="edge2" class="edge"><title>Node1&#45;&gt;Node2</title>
<path fill="none" stroke="midnightblue" d="M38.1686,-58.8413C46.2075,-63.1957 55.8334,-68.4098 64.7082,-73.2169"/>
<polygon fill="midnightblue" stroke="midnightblue" points="63.1268,-76.3408 73.5867,-78.0261 66.4608,-70.1857 63.1268,-76.3408"/>
</g>
<!-- Node3 -->
<g id="node5" class="node"><title>Node3</title>
<a xlink:href="quadpack_8f90.html#a27241a527b249e9de59a5ed6bee5f805" target="_top" xlink:title="qk21">
<polygon fill="white" stroke="black" points="74.1615,-39 74.1615,-59 111.838,-59 111.838,-39 74.1615,-39"/>
<text text-anchor="middle" x="93" y="-46" font-family="Helvetica,sans-Serif" font-size="10.00">qk21</text>
</a>
</g>
<!-- Node1&#45;&gt;Node3 -->
<g id="edge4" class="edge"><title>Node1&#45;&gt;Node3</title>
<path fill="none" stroke="midnightblue" d="M38.1686,-49C45.9875,-49 55.3077,-49 63.9779,-49"/>
<polygon fill="midnightblue" stroke="midnightblue" points="64.0866,-52.5001 74.0866,-49 64.0866,-45.5001 64.0866,-52.5001"/>
</g>
<!-- Node4 -->
<g id="node7" class="node"><title>Node4</title>
<a xlink:href="quadpack_8f90.html#a55e08a684c5a6315fb37dd0fdc66d8e6" target="_top" xlink:title="qsort">
<polygon fill="white" stroke="black" points="73.887,-0 73.887,-20 112.113,-20 112.113,-0 73.887,-0"/>
<text text-anchor="middle" x="93" y="-7" font-family="Helvetica,sans-Serif" font-size="10.00">qsort</text>
</a>
</g>
<!-- Node1&#45;&gt;Node4 -->
<g id="edge6" class="edge"><title>Node1&#45;&gt;Node4</title>
<path fill="none" stroke="midnightblue" d="M38.1686,-39.1587C46.2075,-34.8043 55.8334,-29.5902 64.7082,-24.7831"/>
<polygon fill="midnightblue" stroke="midnightblue" points="66.4608,-27.8143 73.5867,-19.9739 63.1268,-21.6592 66.4608,-27.8143"/>
</g>
</g>
</svg>
