<?xml version="1.0" encoding="UTF-8" standalone="no"?>
<!DOCTYPE svg PUBLIC "-//W3C//DTD SVG 1.1//EN"
 "http://www.w3.org/Graphics/SVG/1.1/DTD/svg11.dtd">
<!-- Generated by graphviz version 2.28.0 (20111102.2313)
 -->
<!-- Title: G Pages: 1 -->
<svg width="298pt" height="125pt"
 viewBox="0.00 0.00 298.00 125.00" xmlns="http://www.w3.org/2000/svg" xmlns:xlink="http://www.w3.org/1999/xlink">
<g id="graph1" class="graph" transform="scale(1 1) rotate(0) translate(4 121)">
<title>G</title>
<polygon fill="white" stroke="white" points="-4,5 -4,-121 295,-121 295,5 -4,5"/>
<!-- Node1 -->
<g id="node1" class="node"><title>Node1</title>
<polygon fill="#bfbfbf" stroke="black" points="0.3315,-39 0.3315,-59 39.6685,-59 39.6685,-39 0.3315,-39"/>
<text text-anchor="middle" x="20" y="-46" font-family="Helvetica,sans-Serif" font-size="10.00">qaws</text>
</g>
<!-- Node2 -->
<g id="node3" class="node"><title>Node2</title>
<a xlink:href="quadpack_8f90.html#adf40beeb87b948ed57824e42c023f518" target="_top" xlink:title="qawse">
<polygon fill="white" stroke="black" points="76.552,-39 76.552,-59 121.448,-59 121.448,-39 76.552,-39"/>
<text text-anchor="middle" x="99" y="-46" font-family="Helvetica,sans-Serif" font-size="10.00">qawse</text>
</a>
</g>
<!-- Node1&#45;&gt;Node2 -->
<g id="edge2" class="edge"><title>Node1&#45;&gt;Node2</title>
<path fill="none" stroke="midnightblue" d="M40.0337,-49C47.9721,-49 57.4088,-49 66.3385,-49"/>
<polygon fill="midnightblue" stroke="midnightblue" points="66.4681,-52.5001 76.468,-49 66.468,-45.5001 66.4681,-52.5001"/>
</g>
<!-- Node3 -->
<g id="node5" class="node"><title>Node3</title>
<a xlink:href="quadpack_8f90.html#a034546450320f53f05096bc12af9b5bc" target="_top" xlink:title="qc25s">
<polygon fill="white" stroke="black" points="161.661,-78 161.661,-98 204.339,-98 204.339,-78 161.661,-78"/>
<text text-anchor="middle" x="183" y="-85" font-family="Helvetica,sans-Serif" font-size="10.00">qc25s</text>
</a>
</g>
<!-- Node2&#45;&gt;Node3 -->
<g id="edge4" class="edge"><title>Node2&#45;&gt;Node3</title>
<path fill="none" stroke="midnightblue" d="M121.117,-59.0435C130.636,-63.5707 142.041,-68.9952 152.394,-73.919"/>
<polygon fill="midnightblue" stroke="midnightblue" points="150.987,-77.1257 161.521,-78.26 153.994,-70.8042 150.987,-77.1257"/>
</g>
<!-- Node6 -->
<g id="node11" class="node"><title>Node6</title>
<a xlink:href="quadpack_8f90.html#aa732651ae77f9486d6e3d17999c699ab" target="_top" xlink:title="qmomo">
<polygon fill="white" stroke="black" points="158.333,-39 158.333,-59 207.667,-59 207.667,-39 158.333,-39"/>
<text text-anchor="middle" x="183" y="-46" font-family="Helvetica,sans-Serif" font-size="10.00">qmomo</text>
</a>
</g>
<!-- Node2&#45;&gt;Node6 -->
<g id="edge10" class="edge"><title>Node2&#45;&gt;Node6</title>
<path fill="none" stroke="midnightblue" d="M121.545,-49C129.662,-49 139.103,-49 148.078,-49"/>
<polygon fill="midnightblue" stroke="midnightblue" points="148.293,-52.5001 158.293,-49 148.292,-45.5001 148.293,-52.5001"/>
</g>
<!-- Node7 -->
<g id="node13" class="node"><title>Node7</title>
<a xlink:href="quadpack_8f90.html#a55e08a684c5a6315fb37dd0fdc66d8e6" target="_top" xlink:title="qsort">
<polygon fill="white" stroke="black" points="163.887,-0 163.887,-20 202.113,-20 202.113,-0 163.887,-0"/>
<text text-anchor="middle" x="183" y="-7" font-family="Helvetica,sans-Serif" font-size="10.00">qsort</text>
</a>
</g>
<!-- Node2&#45;&gt;Node7 -->
<g id="edge12" class="edge"><title>Node2&#45;&gt;Node7</title>
<path fill="none" stroke="midnightblue" d="M121.117,-38.9565C131.32,-34.1038 143.691,-28.2201 154.609,-23.0272"/>
<polygon fill="midnightblue" stroke="midnightblue" points="156.212,-26.1407 163.739,-18.6849 153.206,-19.8193 156.212,-26.1407"/>
</g>
<!-- Node4 -->
<g id="node7" class="node"><title>Node4</title>
<a xlink:href="quadpack_8f90.html#ad5beefcfdb335ea68ccf8397536c8c36" target="_top" xlink:title="qcheb">
<polygon fill="white" stroke="black" points="245.382,-97 245.382,-117 288.618,-117 288.618,-97 245.382,-97"/>
<text text-anchor="middle" x="267" y="-104" font-family="Helvetica,sans-Serif" font-size="10.00">qcheb</text>
</a>
</g>
<!-- Node3&#45;&gt;Node4 -->
<g id="edge6" class="edge"><title>Node3&#45;&gt;Node4</title>
<path fill="none" stroke="midnightblue" d="M204.692,-92.7945C214.015,-94.9547 225.212,-97.5492 235.472,-99.9264"/>
<polygon fill="midnightblue" stroke="midnightblue" points="234.783,-103.359 245.315,-102.207 236.363,-96.54 234.783,-103.359"/>
</g>
<!-- Node5 -->
<g id="node9" class="node"><title>Node5</title>
<a xlink:href="quadpack_8f90.html#a0c083838940925726abd5bc85fa29587" target="_top" xlink:title="qk15w">
<polygon fill="white" stroke="black" points="244.552,-58 244.552,-78 289.448,-78 289.448,-58 244.552,-58"/>
<text text-anchor="middle" x="267" y="-65" font-family="Helvetica,sans-Serif" font-size="10.00">qk15w</text>
</a>
</g>
<!-- Node3&#45;&gt;Node5 -->
<g id="edge8" class="edge"><title>Node3&#45;&gt;Node5</title>
<path fill="none" stroke="midnightblue" d="M204.692,-82.9532C213.707,-80.7545 224.473,-78.1284 234.451,-75.695"/>
<polygon fill="midnightblue" stroke="midnightblue" points="235.57,-79.0247 244.455,-73.2548 233.911,-72.2241 235.57,-79.0247"/>
</g>
</g>
</svg>
