<?xml version="1.0" encoding="UTF-8" standalone="no"?>
<!DOCTYPE svg PUBLIC "-//W3C//DTD SVG 1.1//EN"
 "http://www.w3.org/Graphics/SVG/1.1/DTD/svg11.dtd">
<!-- Generated by graphviz version 2.28.0 (20111007.0958)
 -->
<!-- Title: G Pages: 1 -->
<svg width="294pt" height="67pt"
 viewBox="0.00 0.00 294.00 67.00" xmlns="http://www.w3.org/2000/svg" xmlns:xlink="http://www.w3.org/1999/xlink">
<g id="graph1" class="graph" transform="scale(1 1) rotate(0) translate(4 63)">
<title>G</title>
<polygon fill="white" stroke="white" points="-4,5 -4,-63 291,-63 291,5 -4,5"/>
<!-- Node1 -->
<g id="node1" class="node"><title>Node1</title>
<polygon fill="#bfbfbf" stroke="black" points="0.719,-19 0.719,-39 67.281,-39 67.281,-19 0.719,-19"/>
<text text-anchor="middle" x="34" y="-26" font-family="Helvetica,sans-Serif" font-size="10.00">jacobi_com</text>
</g>
<!-- Node2 -->
<g id="node3" class="node"><title>Node2</title>
<a xlink:href="quadrule_8f90.html#a7841cf442902dd98d08b6a4d89a9a7bf" target="_top" xlink:title="dvec_reverse">
<polygon fill="white" stroke="black" points="103.994,-39 103.994,-59 180.006,-59 180.006,-39 103.994,-39"/>
<text text-anchor="middle" x="142" y="-46" font-family="Helvetica,sans-Serif" font-size="10.00">dvec_reverse</text>
</a>
</g>
<!-- Node1&#45;&gt;Node2 -->
<g id="edge2" class="edge"><title>Node1&#45;&gt;Node2</title>
<path fill="none" stroke="midnightblue" d="M67.3795,-35.1093C75.6959,-36.6785 84.8147,-38.399 93.716,-40.0785"/>
<polygon fill="midnightblue" stroke="midnightblue" points="93.1435,-43.5321 103.619,-41.947 94.4414,-36.6535 93.1435,-43.5321"/>
</g>
<!-- Node4 -->
<g id="node7" class="node"><title>Node4</title>
<a xlink:href="quadrule_8f90.html#a37ab0713ac179df20db1cbade4750d7c" target="_top" xlink:title="jacobi_root">
<polygon fill="white" stroke="black" points="109.55,-0 109.55,-20 174.45,-20 174.45,-0 109.55,-0"/>
<text text-anchor="middle" x="142" y="-7" font-family="Helvetica,sans-Serif" font-size="10.00">jacobi_root</text>
</a>
</g>
<!-- Node1&#45;&gt;Node4 -->
<g id="edge6" class="edge"><title>Node1&#45;&gt;Node4</title>
<path fill="none" stroke="midnightblue" d="M67.3795,-23.1961C77.53,-21.3767 88.876,-19.343 99.5627,-17.4274"/>
<polygon fill="midnightblue" stroke="midnightblue" points="100.321,-20.8475 109.546,-15.6379 99.0855,-13.9573 100.321,-20.8475"/>
</g>
<!-- Node3 -->
<g id="node5" class="node"><title>Node3</title>
<a xlink:href="quadrule_8f90.html#ab73cf601dce50b6fc79d82a6ee87bb67" target="_top" xlink:title="d_swap">
<polygon fill="white" stroke="black" points="225.773,-39 225.773,-59 276.228,-59 276.228,-39 225.773,-39"/>
<text text-anchor="middle" x="251" y="-46" font-family="Helvetica,sans-Serif" font-size="10.00">d_swap</text>
</a>
</g>
<!-- Node2&#45;&gt;Node3 -->
<g id="edge4" class="edge"><title>Node2&#45;&gt;Node3</title>
<path fill="none" stroke="midnightblue" d="M180.123,-49C191.558,-49 204.099,-49 215.36,-49"/>
<polygon fill="midnightblue" stroke="midnightblue" points="215.688,-52.5001 225.688,-49 215.688,-45.5001 215.688,-52.5001"/>
</g>
<!-- Node5 -->
<g id="node9" class="node"><title>Node5</title>
<a xlink:href="quadrule_8f90.html#a23d5d91dbc68f334297c326bf251545b" target="_top" xlink:title="jacobi_recur">
<polygon fill="white" stroke="black" points="215.775,-0 215.775,-20 286.225,-20 286.225,-0 215.775,-0"/>
<text text-anchor="middle" x="251" y="-7" font-family="Helvetica,sans-Serif" font-size="10.00">jacobi_recur</text>
</a>
</g>
<!-- Node4&#45;&gt;Node5 -->
<g id="edge8" class="edge"><title>Node4&#45;&gt;Node5</title>
<path fill="none" stroke="midnightblue" d="M174.525,-10C184.234,-10 195.112,-10 205.521,-10"/>
<polygon fill="midnightblue" stroke="midnightblue" points="205.712,-13.5001 215.712,-10 205.712,-6.5001 205.712,-13.5001"/>
</g>
</g>
</svg>
