<?xml version="1.0" encoding="UTF-8" standalone="no"?>
<!DOCTYPE svg PUBLIC "-//W3C//DTD SVG 1.1//EN"
 "http://www.w3.org/Graphics/SVG/1.1/DTD/svg11.dtd">
<!-- Generated by graphviz version 2.28.0 (20111007.0958)
 -->
<!-- Title: G Pages: 1 -->
<svg width="292pt" height="86pt"
 viewBox="0.00 0.00 292.00 86.00" xmlns="http://www.w3.org/2000/svg" xmlns:xlink="http://www.w3.org/1999/xlink">
<g id="graph1" class="graph" transform="scale(1 1) rotate(0) translate(4 82)">
<title>G</title>
<polygon fill="white" stroke="white" points="-4,5 -4,-82 289,-82 289,5 -4,5"/>
<!-- Node1 -->
<g id="node1" class="node"><title>Node1</title>
<polygon fill="#bfbfbf" stroke="black" points="0.3315,-19 0.3315,-39 39.6685,-39 39.6685,-19 0.3315,-19"/>
<text text-anchor="middle" x="20" y="-26" font-family="Helvetica,sans-Serif" font-size="10.00">qawc</text>
</g>
<!-- Node2 -->
<g id="node3" class="node"><title>Node2</title>
<a xlink:href="quadpack_8f90.html#a51d7f754a9214f7490c035740fc0aef7" target="_top" xlink:title="qawce">
<polygon fill="white" stroke="black" points="76.552,-19 76.552,-39 121.448,-39 121.448,-19 76.552,-19"/>
<text text-anchor="middle" x="99" y="-26" font-family="Helvetica,sans-Serif" font-size="10.00">qawce</text>
</a>
</g>
<!-- Node1&#45;&gt;Node2 -->
<g id="edge2" class="edge"><title>Node1&#45;&gt;Node2</title>
<path fill="none" stroke="midnightblue" d="M40.0337,-29C47.9721,-29 57.4088,-29 66.3385,-29"/>
<polygon fill="midnightblue" stroke="midnightblue" points="66.4681,-32.5001 76.468,-29 66.468,-25.5001 66.4681,-32.5001"/>
</g>
<!-- Node3 -->
<g id="node5" class="node"><title>Node3</title>
<a xlink:href="quadpack_8f90.html#af8148c1623b7cf59159c491cfb1856f4" target="_top" xlink:title="qc25c">
<polygon fill="white" stroke="black" points="158.661,-39 158.661,-59 201.339,-59 201.339,-39 158.661,-39"/>
<text text-anchor="middle" x="180" y="-46" font-family="Helvetica,sans-Serif" font-size="10.00">qc25c</text>
</a>
</g>
<!-- Node2&#45;&gt;Node3 -->
<g id="edge4" class="edge"><title>Node2&#45;&gt;Node3</title>
<path fill="none" stroke="midnightblue" d="M121.587,-34.4651C129.952,-36.5827 139.676,-39.0445 148.718,-41.3336"/>
<polygon fill="midnightblue" stroke="midnightblue" points="147.974,-44.7556 158.527,-43.817 149.692,-37.9697 147.974,-44.7556"/>
</g>
<!-- Node6 -->
<g id="node11" class="node"><title>Node6</title>
<a xlink:href="quadpack_8f90.html#a55e08a684c5a6315fb37dd0fdc66d8e6" target="_top" xlink:title="qsort">
<polygon fill="white" stroke="black" points="160.887,-0 160.887,-20 199.113,-20 199.113,-0 160.887,-0"/>
<text text-anchor="middle" x="180" y="-7" font-family="Helvetica,sans-Serif" font-size="10.00">qsort</text>
</a>
</g>
<!-- Node2&#45;&gt;Node6 -->
<g id="edge10" class="edge"><title>Node2&#45;&gt;Node6</title>
<path fill="none" stroke="midnightblue" d="M121.587,-23.8082C130.578,-21.6457 141.141,-19.1054 150.738,-16.7973"/>
<polygon fill="midnightblue" stroke="midnightblue" points="151.748,-20.1541 160.652,-14.4127 150.111,-13.3482 151.748,-20.1541"/>
</g>
<!-- Node4 -->
<g id="node7" class="node"><title>Node4</title>
<a xlink:href="quadpack_8f90.html#ad5beefcfdb335ea68ccf8397536c8c36" target="_top" xlink:title="qcheb">
<polygon fill="white" stroke="black" points="239.382,-58 239.382,-78 282.618,-78 282.618,-58 239.382,-58"/>
<text text-anchor="middle" x="261" y="-65" font-family="Helvetica,sans-Serif" font-size="10.00">qcheb</text>
</a>
</g>
<!-- Node3&#45;&gt;Node4 -->
<g id="edge6" class="edge"><title>Node3&#45;&gt;Node4</title>
<path fill="none" stroke="midnightblue" d="M201.344,-53.893C209.872,-55.9439 219.971,-58.3729 229.365,-60.6322"/>
<polygon fill="midnightblue" stroke="midnightblue" points="228.633,-64.0558 239.174,-62.9913 230.27,-57.2499 228.633,-64.0558"/>
</g>
<!-- Node5 -->
<g id="node9" class="node"><title>Node5</title>
<a xlink:href="quadpack_8f90.html#a0c083838940925726abd5bc85fa29587" target="_top" xlink:title="qk15w">
<polygon fill="white" stroke="black" points="238.552,-19 238.552,-39 283.448,-39 283.448,-19 238.552,-19"/>
<text text-anchor="middle" x="261" y="-26" font-family="Helvetica,sans-Serif" font-size="10.00">qk15w</text>
</a>
</g>
<!-- Node3&#45;&gt;Node5 -->
<g id="edge8" class="edge"><title>Node3&#45;&gt;Node5</title>
<path fill="none" stroke="midnightblue" d="M201.344,-43.8495C209.582,-41.764 219.286,-39.3073 228.405,-36.9988"/>
<polygon fill="midnightblue" stroke="midnightblue" points="229.506,-40.3305 238.341,-34.4833 227.788,-33.5446 229.506,-40.3305"/>
</g>
</g>
</svg>
