<?xml version="1.0" encoding="UTF-8" standalone="no"?>
<!DOCTYPE svg PUBLIC "-//W3C//DTD SVG 1.1//EN"
 "http://www.w3.org/Graphics/SVG/1.1/DTD/svg11.dtd">
<!-- Generated by graphviz version 2.28.0 (20111007.0958)
 -->
<!-- Title: G Pages: 1 -->
<svg width="616pt" height="146pt"
 viewBox="0.00 0.00 616.00 146.00" xmlns="http://www.w3.org/2000/svg" xmlns:xlink="http://www.w3.org/1999/xlink">
<g id="graph1" class="graph" transform="scale(1 1) rotate(0) translate(4 142)">
<title>G</title>
<polygon fill="white" stroke="white" points="-4,5 -4,-142 613,-142 613,5 -4,5"/>
<!-- Node1 -->
<g id="node1" class="node"><title>Node1</title>
<polygon fill="#bfbfbf" stroke="black" points="275.21,-117 275.21,-137 476.79,-137 476.79,-117 275.21,-117"/>
<text text-anchor="middle" x="376" y="-124" font-family="Helvetica,sans-Serif" font-size="10.00">/Users/bl/Dropbox/3DEX/src/cxx/sbtools.h</text>
</g>
<!-- Node2 -->
<g id="node3" class="node"><title>Node2</title>
<a xlink:href="almn__survey__tools_8h.html" target="_top" xlink:title="/Users/bl/Dropbox/3DEX/src/cxx/almn_survey_tools.h">
<polygon fill="white" stroke="black" points="124.374,-59 124.374,-79 377.626,-79 377.626,-59 124.374,-59"/>
<text text-anchor="middle" x="251" y="-66" font-family="Helvetica,sans-Serif" font-size="10.00">/Users/bl/Dropbox/3DEX/src/cxx/almn_survey_tools.h</text>
</a>
</g>
<!-- Node1&#45;&gt;Node2 -->
<g id="edge2" class="edge"><title>Node1&#45;&gt;Node2</title>
<path fill="none" stroke="midnightblue" d="M346.296,-112.693C323.171,-102.333 291.689,-88.2285 271.353,-79.1181"/>
<polygon fill="midnightblue" stroke="midnightblue" points="345.081,-115.984 355.638,-116.878 347.943,-109.595 345.081,-115.984"/>
</g>
<!-- Node5 -->
<g id="node9" class="node"><title>Node5</title>
<a xlink:href="sbtools_8cpp.html" target="_top" xlink:title="/Users/bl/Dropbox/3DEX/src/cxx/sbtools.cpp">
<polygon fill="white" stroke="black" points="395.93,-59 395.93,-79 608.07,-79 608.07,-59 395.93,-59"/>
<text text-anchor="middle" x="502" y="-66" font-family="Helvetica,sans-Serif" font-size="10.00">/Users/bl/Dropbox/3DEX/src/cxx/sbtools.cpp</text>
</a>
</g>
<!-- Node1&#45;&gt;Node5 -->
<g id="edge8" class="edge"><title>Node1&#45;&gt;Node5</title>
<path fill="none" stroke="midnightblue" d="M405.941,-112.693C429.251,-102.333 460.986,-88.2285 481.484,-79.1181"/>
<polygon fill="midnightblue" stroke="midnightblue" points="404.241,-109.618 396.525,-116.878 407.084,-116.015 404.241,-109.618"/>
</g>
<!-- Node3 -->
<g id="node5" class="node"><title>Node3</title>
<a xlink:href="survey2almn_8cpp.html" target="_top" xlink:title="/Users/bl/Dropbox/3DEX/src/cxx/survey2almn.cpp">
<polygon fill="white" stroke="black" points="-0.568,-1 -0.568,-21 236.568,-21 236.568,-1 -0.568,-1"/>
<text text-anchor="middle" x="118" y="-8" font-family="Helvetica,sans-Serif" font-size="10.00">/Users/bl/Dropbox/3DEX/src/cxx/survey2almn.cpp</text>
</a>
</g>
<!-- Node2&#45;&gt;Node3 -->
<g id="edge4" class="edge"><title>Node2&#45;&gt;Node3</title>
<path fill="none" stroke="midnightblue" d="M220.052,-54.9693C195.389,-44.585 161.486,-30.3099 139.655,-21.1181"/>
<polygon fill="midnightblue" stroke="midnightblue" points="218.761,-58.2231 229.335,-58.878 221.477,-51.7716 218.761,-58.2231"/>
</g>
<!-- Node4 -->
<g id="node7" class="node"><title>Node4</title>
<a xlink:href="survey2almn__mpi_8cpp.html" target="_top" xlink:title="/Users/bl/Dropbox/3DEX/src/cxx/survey2almn_mpi.cpp">
<polygon fill="white" stroke="black" points="254.599,-1 254.599,-21 513.401,-21 513.401,-1 254.599,-1"/>
<text text-anchor="middle" x="384" y="-8" font-family="Helvetica,sans-Serif" font-size="10.00">/Users/bl/Dropbox/3DEX/src/cxx/survey2almn_mpi.cpp</text>
</a>
</g>
<!-- Node2&#45;&gt;Node4 -->
<g id="edge6" class="edge"><title>Node2&#45;&gt;Node4</title>
<path fill="none" stroke="midnightblue" d="M281.948,-54.9693C306.611,-44.585 340.514,-30.3099 362.345,-21.1181"/>
<polygon fill="midnightblue" stroke="midnightblue" points="280.523,-51.7716 272.665,-58.878 283.239,-58.2231 280.523,-51.7716"/>
</g>
</g>
</svg>
