<?xml version="1.0" encoding="UTF-8" standalone="no"?>
<!DOCTYPE svg PUBLIC "-//W3C//DTD SVG 1.1//EN"
 "http://www.w3.org/Graphics/SVG/1.1/DTD/svg11.dtd">
<!-- Generated by graphviz version 2.28.0 (20111007.0958)
 -->
<!-- Title: G Pages: 1 -->
<svg width="289pt" height="146pt"
 viewBox="0.00 0.00 289.00 146.00" xmlns="http://www.w3.org/2000/svg" xmlns:xlink="http://www.w3.org/1999/xlink">
<g id="graph1" class="graph" transform="scale(1 1) rotate(0) translate(4 142)">
<title>G</title>
<polygon fill="white" stroke="white" points="-4,5 -4,-142 286,-142 286,5 -4,5"/>
<!-- Node1 -->
<g id="node1" class="node"><title>Node1</title>
<polygon fill="#bfbfbf" stroke="black" points="40.9305,-117 40.9305,-137 253.07,-137 253.07,-117 40.9305,-117"/>
<text text-anchor="middle" x="147" y="-124" font-family="Helvetica,sans-Serif" font-size="10.00">/Users/bl/Dropbox/3DEX/src/cxx/sbtools.cpp</text>
</g>
<!-- Node2 -->
<g id="node3" class="node"><title>Node2</title>
<a xlink:href="sbtools_8h.html" target="_top" xlink:title="sbtools.h">
<polygon fill="white" stroke="black" points="-0.0065,-59 -0.0065,-79 56.0065,-79 56.0065,-59 -0.0065,-59"/>
<text text-anchor="middle" x="28" y="-66" font-family="Helvetica,sans-Serif" font-size="10.00">sbtools.h</text>
</a>
</g>
<!-- Node1&#45;&gt;Node2 -->
<g id="edge2" class="edge"><title>Node1&#45;&gt;Node2</title>
<path fill="none" stroke="midnightblue" d="M127.616,-116.878C108.339,-107.807 78.5486,-93.7876 56.5638,-83.4418"/>
<polygon fill="midnightblue" stroke="midnightblue" points="57.9145,-80.2093 47.376,-79.1181 54.9338,-86.543 57.9145,-80.2093"/>
</g>
<!-- Node4 -->
<g id="node7" class="node"><title>Node4</title>
<polygon fill="white" stroke="#bfbfbf" points="74.4355,-59 74.4355,-79 141.565,-79 141.565,-59 74.4355,-59"/>
<text text-anchor="middle" x="108" y="-66" font-family="Helvetica,sans-Serif" font-size="10.00">fitshandle.h</text>
</g>
<!-- Node1&#45;&gt;Node4 -->
<g id="edge6" class="edge"><title>Node1&#45;&gt;Node4</title>
<path fill="none" stroke="midnightblue" d="M140.56,-116.753C135.051,-108.843 126.969,-97.2372 120.235,-87.5683"/>
<polygon fill="midnightblue" stroke="midnightblue" points="122.907,-85.281 114.32,-79.0752 117.163,-89.2815 122.907,-85.281"/>
</g>
<!-- Node5 -->
<g id="node9" class="node"><title>Node5</title>
<polygon fill="white" stroke="#bfbfbf" points="159.834,-59 159.834,-79 214.166,-79 214.166,-59 159.834,-59"/>
<text text-anchor="middle" x="187" y="-66" font-family="Helvetica,sans-Serif" font-size="10.00">iostream</text>
</g>
<!-- Node1&#45;&gt;Node5 -->
<g id="edge8" class="edge"><title>Node1&#45;&gt;Node5</title>
<path fill="none" stroke="midnightblue" d="M153.605,-116.753C159.313,-108.761 167.716,-96.9975 174.664,-87.2698"/>
<polygon fill="midnightblue" stroke="midnightblue" points="177.553,-89.2469 180.518,-79.0752 171.857,-85.1782 177.553,-89.2469"/>
</g>
<!-- Node6 -->
<g id="node11" class="node"><title>Node6</title>
<polygon fill="white" stroke="#bfbfbf" points="232.333,-59 232.333,-79 281.667,-79 281.667,-59 232.333,-59"/>
<text text-anchor="middle" x="257" y="-66" font-family="Helvetica,sans-Serif" font-size="10.00">fstream</text>
</g>
<!-- Node1&#45;&gt;Node6 -->
<g id="edge10" class="edge"><title>Node1&#45;&gt;Node6</title>
<path fill="none" stroke="midnightblue" d="M165.164,-116.753C182.864,-107.742 209.984,-93.9353 230.17,-83.6589"/>
<polygon fill="midnightblue" stroke="midnightblue" points="231.85,-86.7312 239.174,-79.0752 228.674,-80.493 231.85,-86.7312"/>
</g>
<!-- Node3 -->
<g id="node5" class="node"><title>Node3</title>
<polygon fill="white" stroke="#bfbfbf" points="3.8835,-1 3.8835,-21 52.1165,-21 52.1165,-1 3.8835,-1"/>
<text text-anchor="middle" x="28" y="-8" font-family="Helvetica,sans-Serif" font-size="10.00">stdint.h</text>
</g>
<!-- Node2&#45;&gt;Node3 -->
<g id="edge4" class="edge"><title>Node2&#45;&gt;Node3</title>
<path fill="none" stroke="midnightblue" d="M28,-58.7527C28,-51.2504 28,-40.4238 28,-31.0781"/>
<polygon fill="midnightblue" stroke="midnightblue" points="31.5001,-31.0752 28,-21.0752 24.5001,-31.0752 31.5001,-31.0752"/>
</g>
</g>
</svg>
