<?xml version="1.0" encoding="UTF-8" standalone="no"?>
<!DOCTYPE svg PUBLIC "-//W3C//DTD SVG 1.1//EN"
 "http://www.w3.org/Graphics/SVG/1.1/DTD/svg11.dtd">
<!-- Generated by graphviz version 2.28.0 (20111007.0958)
 -->
<!-- Title: G Pages: 1 -->
<svg width="662pt" height="204pt"
 viewBox="0.00 0.00 662.00 204.00" xmlns="http://www.w3.org/2000/svg" xmlns:xlink="http://www.w3.org/1999/xlink">
<g id="graph1" class="graph" transform="scale(1 1) rotate(0) translate(4 200)">
<title>G</title>
<polygon fill="white" stroke="white" points="-4,5 -4,-200 659,-200 659,5 -4,5"/>
<!-- Node1 -->
<g id="node1" class="node"><title>Node1</title>
<polygon fill="#bfbfbf" stroke="black" points="215.149,-175 215.149,-195 462.851,-195 462.851,-175 215.149,-175"/>
<text text-anchor="middle" x="339" y="-182" font-family="Helvetica,sans-Serif" font-size="10.00">/Users/bl/Dropbox/3DEX/src/cxx/selectionFunction.h</text>
</g>
<!-- Node2 -->
<g id="node3" class="node"><title>Node2</title>
<a xlink:href="survey_8h.html" target="_top" xlink:title="/Users/bl/Dropbox/3DEX/src/cxx/survey.h">
<polygon fill="white" stroke="black" points="239.324,-117 239.324,-137 438.676,-137 438.676,-117 239.324,-117"/>
<text text-anchor="middle" x="339" y="-124" font-family="Helvetica,sans-Serif" font-size="10.00">/Users/bl/Dropbox/3DEX/src/cxx/survey.h</text>
</a>
</g>
<!-- Node1&#45;&gt;Node2 -->
<g id="edge2" class="edge"><title>Node1&#45;&gt;Node2</title>
<path fill="none" stroke="midnightblue" d="M339,-164.707C339,-155.338 339,-144.526 339,-137.075"/>
<polygon fill="midnightblue" stroke="midnightblue" points="335.5,-164.753 339,-174.753 342.5,-164.753 335.5,-164.753"/>
</g>
<!-- Node3 -->
<g id="node5" class="node"><title>Node3</title>
<a xlink:href="almn__survey__tools_8h.html" target="_top" xlink:title="/Users/bl/Dropbox/3DEX/src/cxx/almn_survey_tools.h">
<polygon fill="white" stroke="black" points="135.374,-59 135.374,-79 388.626,-79 388.626,-59 135.374,-59"/>
<text text-anchor="middle" x="262" y="-66" font-family="Helvetica,sans-Serif" font-size="10.00">/Users/bl/Dropbox/3DEX/src/cxx/almn_survey_tools.h</text>
</a>
</g>
<!-- Node2&#45;&gt;Node3 -->
<g id="edge4" class="edge"><title>Node2&#45;&gt;Node3</title>
<path fill="none" stroke="midnightblue" d="M318.191,-110.866C304.222,-100.707 286.283,-87.6601 274.478,-79.0752"/>
<polygon fill="midnightblue" stroke="midnightblue" points="316.139,-113.702 326.285,-116.753 320.256,-108.04 316.139,-113.702"/>
</g>
<!-- Node4 -->
<g id="node7" class="node"><title>Node4</title>
<a xlink:href="survey2almn_8cpp.html" target="_top" xlink:title="/Users/bl/Dropbox/3DEX/src/cxx/survey2almn.cpp">
<polygon fill="white" stroke="black" points="-0.568,-1 -0.568,-21 236.568,-21 236.568,-1 -0.568,-1"/>
<text text-anchor="middle" x="118" y="-8" font-family="Helvetica,sans-Serif" font-size="10.00">/Users/bl/Dropbox/3DEX/src/cxx/survey2almn.cpp</text>
</a>
</g>
<!-- Node2&#45;&gt;Node4 -->
<g id="edge12" class="edge"><title>Node2&#45;&gt;Node4</title>
<path fill="none" stroke="midnightblue" d="M238.393,-115.515C191.053,-108.425 141.588,-97.1539 126,-80 111.291,-63.8129 113.593,-35.7659 116.052,-21.2698"/>
<polygon fill="midnightblue" stroke="midnightblue" points="238.053,-119.002 248.45,-116.965 239.052,-112.074 238.053,-119.002"/>
</g>
<!-- Node5 -->
<g id="node9" class="node"><title>Node5</title>
<a xlink:href="survey2almn__mpi_8cpp.html" target="_top" xlink:title="/Users/bl/Dropbox/3DEX/src/cxx/survey2almn_mpi.cpp">
<polygon fill="white" stroke="black" points="276.599,-1 276.599,-21 535.401,-21 535.401,-1 276.599,-1"/>
<text text-anchor="middle" x="406" y="-8" font-family="Helvetica,sans-Serif" font-size="10.00">/Users/bl/Dropbox/3DEX/src/cxx/survey2almn_mpi.cpp</text>
</a>
</g>
<!-- Node2&#45;&gt;Node5 -->
<g id="edge14" class="edge"><title>Node2&#45;&gt;Node5</title>
<path fill="none" stroke="midnightblue" d="M365.364,-111.479C376.972,-103.691 389.623,-93.0061 397,-80 407.693,-61.1477 407.73,-34.7316 406.859,-21.0351"/>
<polygon fill="midnightblue" stroke="midnightblue" points="363.403,-108.578 356.796,-116.86 367.126,-114.506 363.403,-108.578"/>
</g>
<!-- Node6 -->
<g id="node11" class="node"><title>Node6</title>
<a xlink:href="survey_8cpp.html" target="_top" xlink:title="/Users/bl/Dropbox/3DEX/src/cxx/survey.cpp">
<polygon fill="white" stroke="black" points="445.044,-59 445.044,-79 654.956,-79 654.956,-59 445.044,-59"/>
<text text-anchor="middle" x="550" y="-66" font-family="Helvetica,sans-Serif" font-size="10.00">/Users/bl/Dropbox/3DEX/src/cxx/survey.cpp</text>
</a>
</g>
<!-- Node2&#45;&gt;Node6 -->
<g id="edge10" class="edge"><title>Node2&#45;&gt;Node6</title>
<path fill="none" stroke="midnightblue" d="M383.274,-114.249C422.826,-103.752 479.933,-88.596 515.994,-79.0253"/>
<polygon fill="midnightblue" stroke="midnightblue" points="382.138,-110.93 373.37,-116.878 383.934,-117.696 382.138,-110.93"/>
</g>
<!-- Node3&#45;&gt;Node4 -->
<g id="edge6" class="edge"><title>Node3&#45;&gt;Node4</title>
<path fill="none" stroke="midnightblue" d="M229.199,-55.2441C202.441,-44.8381 165.292,-30.3912 141.447,-21.1181"/>
<polygon fill="midnightblue" stroke="midnightblue" points="227.955,-58.5155 238.543,-58.878 230.492,-51.9915 227.955,-58.5155"/>
</g>
<!-- Node3&#45;&gt;Node5 -->
<g id="edge8" class="edge"><title>Node3&#45;&gt;Node5</title>
<path fill="none" stroke="midnightblue" d="M294.801,-55.2441C321.559,-44.8381 358.708,-30.3912 382.553,-21.1181"/>
<polygon fill="midnightblue" stroke="midnightblue" points="293.508,-51.9915 285.457,-58.878 296.045,-58.5155 293.508,-51.9915"/>
</g>
</g>
</svg>
