<?xml version="1.0" encoding="UTF-8" standalone="no"?>
<!DOCTYPE svg PUBLIC "-//W3C//DTD SVG 1.1//EN"
 "http://www.w3.org/Graphics/SVG/1.1/DTD/svg11.dtd">
<!-- Generated by graphviz version 2.28.0 (20111102.2313)
 -->
<!-- Title: G Pages: 1 -->
<svg width="842pt" height="418pt"
 viewBox="0.00 0.00 842.00 418.00" xmlns="http://www.w3.org/2000/svg" xmlns:xlink="http://www.w3.org/1999/xlink">
<g id="graph1" class="graph" transform="scale(1 1) rotate(0) translate(4 414)">
<title>G</title>
<polygon fill="white" stroke="white" points="-4,5 -4,-414 839,-414 839,5 -4,5"/>
<!-- Node1 -->
<g id="node1" class="node"><title>Node1</title>
<polygon fill="#bfbfbf" stroke="black" points="0.104,-195 0.104,-215 123.896,-215 123.896,-195 0.104,-195"/>
<text text-anchor="middle" x="62" y="-202" font-family="Helvetica,sans-Serif" font-size="10.00">survey2almn_interactive</text>
</g>
<!-- Node2 -->
<g id="node3" class="node"><title>Node2</title>
<a xlink:href="namespacef3dex__stats.html#af82543b20c426be1736a4fed0d1ca80c" target="_top" xlink:title="Naive estimator for the almn&#39;s.">
<polygon fill="white" stroke="black" points="203.926,-390 203.926,-410 346.074,-410 346.074,-390 203.926,-390"/>
<text text-anchor="middle" x="275" y="-397" font-family="Helvetica,sans-Serif" font-size="10.00">f3dex_stats::almn2cln_naive</text>
</a>
</g>
<!-- Node1&#45;&gt;Node2 -->
<g id="edge2" class="edge"><title>Node1&#45;&gt;Node2</title>
<path fill="none" stroke="midnightblue" d="M65.405,-215.378C73.1201,-246.162 100.311,-337.463 160,-380 170.071,-387.177 181.889,-392.06 194.032,-395.336"/>
<polygon fill="midnightblue" stroke="midnightblue" points="193.277,-398.753 203.812,-397.631 194.877,-391.939 193.277,-398.753"/>
</g>
<!-- Node3 -->
<g id="node5" class="node"><title>Node3</title>
<a xlink:href="namespacef3dex__fitstools.html#a3bb8fd149a1c137d3176d484e28bbef0" target="_top" xlink:title="Write a_lmn&#39;s to file.">
<polygon fill="white" stroke="black" points="212.266,-312 212.266,-332 337.734,-332 337.734,-312 212.266,-312"/>
<text text-anchor="middle" x="275" y="-319" font-family="Helvetica,sans-Serif" font-size="10.00">f3dex_fitstools::almn2fits</text>
</a>
</g>
<!-- Node1&#45;&gt;Node3 -->
<g id="edge4" class="edge"><title>Node1&#45;&gt;Node3</title>
<path fill="none" stroke="midnightblue" d="M69.8795,-215.248C84.0835,-235.508 118.797,-280.574 160,-302 172.892,-308.704 187.596,-313.216 202.061,-316.24"/>
<polygon fill="midnightblue" stroke="midnightblue" points="201.538,-319.703 212.011,-318.105 202.827,-312.823 201.538,-319.703"/>
</g>
<!-- Node5 -->
<g id="node9" class="node"><title>Node5</title>
<a xlink:href="namespacef3dex__transforms.html#a3e792eb35f030b601d9262ac031cfdb9" target="_top" xlink:title="f3dex_transforms::almn2rmap">
<polygon fill="white" stroke="black" points="200.602,-195 200.602,-215 349.398,-215 349.398,-195 200.602,-195"/>
<text text-anchor="middle" x="275" y="-202" font-family="Helvetica,sans-Serif" font-size="10.00">f3dex_transforms::almn2rmap</text>
</a>
</g>
<!-- Node1&#45;&gt;Node5 -->
<g id="edge8" class="edge"><title>Node1&#45;&gt;Node5</title>
<path fill="none" stroke="midnightblue" d="M124.03,-205C144.717,-205 168.197,-205 190.335,-205"/>
<polygon fill="midnightblue" stroke="midnightblue" points="190.397,-208.5 200.397,-205 190.397,-201.5 190.397,-208.5"/>
</g>
<!-- Node8 -->
<g id="node15" class="node"><title>Node8</title>
<a xlink:href="namespacef3dex__fitstools.html#aab1f14e65c2837494cb15ff4fd54b372" target="_top" xlink:title="Write power spectrum to file.">
<polygon fill="white" stroke="black" points="216.71,-351 216.71,-371 333.29,-371 333.29,-351 216.71,-351"/>
<text text-anchor="middle" x="275" y="-358" font-family="Helvetica,sans-Serif" font-size="10.00">f3dex_fitstools::cln2fits</text>
</a>
</g>
<!-- Node1&#45;&gt;Node8 -->
<g id="edge14" class="edge"><title>Node1&#45;&gt;Node8</title>
<path fill="none" stroke="midnightblue" d="M67.0271,-215.267C77.7597,-241.158 109.706,-309.296 160,-341 173.866,-349.741 190.469,-354.942 206.658,-357.971"/>
<polygon fill="midnightblue" stroke="midnightblue" points="206.226,-361.447 216.657,-359.589 207.344,-354.537 206.226,-361.447"/>
</g>
<!-- Node9 -->
<g id="node18" class="node"><title>Node9</title>
<a xlink:href="namespacef3dex__cosmotools.html#a78ae43d2bd5f180e65c710dc694bcee4" target="_top" xlink:title="Converts series of redshift values into radial coordinates.">
<polygon fill="white" stroke="black" points="198.649,-273 198.649,-293 351.351,-293 351.351,-273 198.649,-273"/>
<text text-anchor="middle" x="275" y="-280" font-family="Helvetica,sans-Serif" font-size="10.00">f3dex_cosmotools::cosmo_z2s</text>
</a>
</g>
<!-- Node1&#45;&gt;Node9 -->
<g id="edge18" class="edge"><title>Node1&#45;&gt;Node9</title>
<path fill="none" stroke="midnightblue" d="M76.3226,-215.148C94.3076,-228.318 127.819,-251.023 160,-263 169.11,-266.39 178.848,-269.214 188.651,-271.563"/>
<polygon fill="midnightblue" stroke="midnightblue" points="187.931,-274.989 198.454,-273.758 189.461,-268.158 187.931,-274.989"/>
</g>
<!-- Node16 -->
<g id="node32" class="node"><title>Node16</title>
<a xlink:href="namespacef3dex__cosmotools.html#aaef3c07f112a83e6ff7a2762d5202fae" target="_top" xlink:title="Extracts parameters from file.">
<polygon fill="white" stroke="black" points="189.214,-234 189.214,-254 360.786,-254 360.786,-234 189.214,-234"/>
<text text-anchor="middle" x="275" y="-241" font-family="Helvetica,sans-Serif" font-size="10.00">f3dex_cosmotools::extractFromFile</text>
</a>
</g>
<!-- Node1&#45;&gt;Node16 -->
<g id="edge32" class="edge"><title>Node1&#45;&gt;Node16</title>
<path fill="none" stroke="midnightblue" d="M113.309,-215.05C128.318,-217.996 144.815,-221.181 160,-224 174.688,-226.727 190.459,-229.556 205.445,-232.199"/>
<polygon fill="midnightblue" stroke="midnightblue" points="205.218,-235.713 215.672,-233.996 206.429,-228.818 205.218,-235.713"/>
</g>
<!-- Node18 -->
<g id="node36" class="node"><title>Node18</title>
<a xlink:href="namespacef3dex__transforms.html#aa6cd797c56b97503bf2d52131f6e5554" target="_top" xlink:title="Computes series of normalization coefficients.">
<polygon fill="white" stroke="black" points="450.096,-97 450.096,-117 583.904,-117 583.904,-97 450.096,-97"/>
<text text-anchor="middle" x="517" y="-104" font-family="Helvetica,sans-Serif" font-size="10.00">f3dex_transforms::gen_cln</text>
</a>
</g>
<!-- Node1&#45;&gt;Node18 -->
<g id="edge36" class="edge"><title>Node1&#45;&gt;Node18</title>
<path fill="none" stroke="midnightblue" d="M75.9113,-194.782C93.7017,-181.314 127.279,-158.04 160,-147 252.868,-115.667 366.302,-107.753 439.791,-106.298"/>
<polygon fill="midnightblue" stroke="midnightblue" points="439.948,-109.796 449.89,-106.134 439.834,-102.797 439.948,-109.796"/>
</g>
<!-- Node20 -->
<g id="node41" class="node"><title>Node20</title>
<a xlink:href="namespacef3dex__transforms.html#a4b80bc7cad52998fd0aff935a1695ee7" target="_top" xlink:title="Computes k spectrum.">
<polygon fill="white" stroke="black" points="208.096,-39 208.096,-59 341.904,-59 341.904,-39 208.096,-39"/>
<text text-anchor="middle" x="275" y="-46" font-family="Helvetica,sans-Serif" font-size="10.00">f3dex_transforms::gen_kln</text>
</a>
</g>
<!-- Node1&#45;&gt;Node20 -->
<g id="edge42" class="edge"><title>Node1&#45;&gt;Node20</title>
<path fill="none" stroke="midnightblue" d="M67.0271,-194.733C77.7597,-168.842 109.706,-100.704 160,-69 171.311,-61.8701 184.443,-57.0954 197.686,-53.9333"/>
<polygon fill="midnightblue" stroke="midnightblue" points="198.735,-57.2898 207.807,-51.8172 197.302,-50.438 198.735,-57.2898"/>
</g>
<!-- Node22 -->
<g id="node46" class="node"><title>Node22</title>
<a xlink:href="namespacef3dex__cosmotools.html#a8405dbd12e86a408520f40f1b0a68919" target="_top" xlink:title="Extracts parameters.">
<polygon fill="white" stroke="black" points="160.032,-78 160.032,-98 389.968,-98 389.968,-78 160.032,-78"/>
<text text-anchor="middle" x="275" y="-85" font-family="Helvetica,sans-Serif" font-size="10.00">f3dex_cosmotools::getParameters_survey2almn</text>
</a>
</g>
<!-- Node1&#45;&gt;Node22 -->
<g id="edge48" class="edge"><title>Node1&#45;&gt;Node22</title>
<path fill="none" stroke="midnightblue" d="M70.5413,-194.839C85.3875,-175.616 120.421,-133.98 160,-113 169.458,-107.987 179.866,-103.978 190.431,-100.773"/>
<polygon fill="midnightblue" stroke="midnightblue" points="191.469,-104.117 200.154,-98.0491 189.581,-97.3762 191.469,-104.117"/>
</g>
<!-- Node24 -->
<g id="node50" class="node"><title>Node24</title>
<a xlink:href="namespacef3dex__transforms.html#ae19f381573ccd64c64102bbd4181483f" target="_top" xlink:title="Performs the Fourier&#45;Bessel decomposition (backward algorithm) of a discrete survey.">
<polygon fill="white" stroke="black" points="187.822,-156 187.822,-176 362.178,-176 362.178,-156 187.822,-156"/>
<text text-anchor="middle" x="275" y="-163" font-family="Helvetica,sans-Serif" font-size="10.00">f3dex_transforms::survey2almn_srs</text>
</a>
</g>
<!-- Node1&#45;&gt;Node24 -->
<g id="edge52" class="edge"><title>Node1&#45;&gt;Node24</title>
<path fill="none" stroke="midnightblue" d="M113.309,-194.95C128.318,-192.004 144.815,-188.819 160,-186 174.688,-183.273 190.459,-180.444 205.445,-177.801"/>
<polygon fill="midnightblue" stroke="midnightblue" points="206.429,-181.182 215.672,-176.004 205.218,-174.287 206.429,-181.182"/>
</g>
<!-- Node26 -->
<g id="node55" class="node"><title>Node26</title>
<a xlink:href="namespacef3dex__utils.html#ac5aa172010ec6cd9bd4c5273904b0405" target="_top" xlink:title="Measures system time.">
<polygon fill="white" stroke="black" points="227.273,-0 227.273,-20 322.727,-20 322.727,-0 227.273,-0"/>
<text text-anchor="middle" x="275" y="-7" font-family="Helvetica,sans-Serif" font-size="10.00">f3dex_utils::wtime</text>
</a>
</g>
<!-- Node1&#45;&gt;Node26 -->
<g id="edge58" class="edge"><title>Node1&#45;&gt;Node26</title>
<path fill="none" stroke="midnightblue" d="M65.405,-194.622C73.1201,-163.838 100.311,-72.5375 160,-30 176.443,-18.2818 197.542,-12.6814 217.108,-10.2015"/>
<polygon fill="midnightblue" stroke="midnightblue" points="217.575,-13.6721 227.167,-9.17329 216.863,-6.7084 217.575,-13.6721"/>
</g>
<!-- Node4 -->
<g id="node7" class="node"><title>Node4</title>
<a xlink:href="namespacef3dex__fitstools.html#a83e1158f828e86e43f1dc68bc0e7c59b" target="_top" xlink:title="f3dex_fitstools::f90ftpcld">
<polygon fill="white" stroke="black" points="455.371,-331 455.371,-351 578.629,-351 578.629,-331 455.371,-331"/>
<text text-anchor="middle" x="517" y="-338" font-family="Helvetica,sans-Serif" font-size="10.00">f3dex_fitstools::f90ftpcld</text>
</a>
</g>
<!-- Node3&#45;&gt;Node4 -->
<g id="edge6" class="edge"><title>Node3&#45;&gt;Node4</title>
<path fill="none" stroke="midnightblue" d="M337.806,-326.893C370.531,-329.484 410.875,-332.678 444.895,-335.371"/>
<polygon fill="midnightblue" stroke="midnightblue" points="444.989,-338.889 455.234,-336.189 445.542,-331.911 444.989,-338.889"/>
</g>
<!-- Node6 -->
<g id="node11" class="node"><title>Node6</title>
<a xlink:href="namespacef3dex__transforms.html#ad1ab102a8307876c7af8bd6868ea7ef2" target="_top" xlink:title="Computes series of jl(kln r)">
<polygon fill="white" stroke="black" points="451.486,-214 451.486,-234 582.514,-234 582.514,-214 451.486,-214"/>
<text text-anchor="middle" x="517" y="-221" font-family="Helvetica,sans-Serif" font-size="10.00">f3dex_transforms::gen_jln</text>
</a>
</g>
<!-- Node5&#45;&gt;Node6 -->
<g id="edge10" class="edge"><title>Node5&#45;&gt;Node6</title>
<path fill="none" stroke="midnightblue" d="M349.639,-210.83C378.728,-213.133 412.112,-215.776 441.304,-218.087"/>
<polygon fill="midnightblue" stroke="midnightblue" points="441.195,-221.589 451.44,-218.889 441.748,-214.611 441.195,-221.589"/>
</g>
<!-- Node7 -->
<g id="node13" class="node"><title>Node7</title>
<a xlink:href="namespacef3dex__transforms.html#a9b68481c890d75c3e3f4cbd4a7109830" target="_top" xlink:title="Compute the value of the l&#45;th order spherical bessel FUNCTION at x.">
<polygon fill="white" stroke="black" points="643.988,-175 643.988,-195 760.012,-195 760.012,-175 643.988,-175"/>
<text text-anchor="middle" x="702" y="-182" font-family="Helvetica,sans-Serif" font-size="10.00">f3dex_transforms::BJL</text>
</a>
</g>
<!-- Node6&#45;&gt;Node7 -->
<g id="edge12" class="edge"><title>Node6&#45;&gt;Node7</title>
<path fill="none" stroke="midnightblue" d="M565.127,-213.957C589.248,-208.816 618.797,-202.519 644.171,-197.111"/>
<polygon fill="midnightblue" stroke="midnightblue" points="644.982,-200.517 654.033,-195.009 643.523,-193.671 644.982,-200.517"/>
</g>
<!-- Node8&#45;&gt;Node4 -->
<g id="edge16" class="edge"><title>Node8&#45;&gt;Node4</title>
<path fill="none" stroke="midnightblue" d="M333.486,-356.21C366.933,-353.422 409.37,-349.886 444.905,-346.925"/>
<polygon fill="midnightblue" stroke="midnightblue" points="445.537,-350.384 455.211,-346.066 444.955,-343.408 445.537,-350.384"/>
</g>
<!-- Node10 -->
<g id="node20" class="node"><title>Node10</title>
<a xlink:href="namespacef3dex__cosmotools.html#abdbb37c7c522bf29ebf089412b9d7854" target="_top" xlink:title="Raw chi to rad conversion, using QUADPACK integration.">
<polygon fill="white" stroke="black" points="451.484,-292 451.484,-312 582.516,-312 582.516,-292 451.484,-292"/>
<text text-anchor="middle" x="517" y="-299" font-family="Helvetica,sans-Serif" font-size="10.00">f3dex_cosmotools::chi_z0</text>
</a>
</g>
<!-- Node9&#45;&gt;Node10 -->
<g id="edge20" class="edge"><title>Node9&#45;&gt;Node10</title>
<path fill="none" stroke="midnightblue" d="M351.608,-288.986C380.121,-291.243 412.526,-293.808 440.984,-296.061"/>
<polygon fill="midnightblue" stroke="midnightblue" points="441.03,-299.576 451.275,-296.876 441.583,-292.598 441.03,-299.576"/>
</g>
<!-- Node11 -->
<g id="node22" class="node"><title>Node11</title>
<a xlink:href="namespacef3dex__cosmotools.html#abba0e9b02d0f46a5abce5a0830da7f4d" target="_top" xlink:title="Cosmological function.">
<polygon fill="white" stroke="black" points="647.043,-311 647.043,-331 756.957,-331 756.957,-311 647.043,-311"/>
<text text-anchor="middle" x="702" y="-318" font-family="Helvetica,sans-Serif" font-size="10.00">f3dex_cosmotools::fz</text>
</a>
</g>
<!-- Node10&#45;&gt;Node11 -->
<g id="edge22" class="edge"><title>Node10&#45;&gt;Node11</title>
<path fill="none" stroke="midnightblue" d="M582.519,-308.699C600.067,-310.521 619.07,-312.494 636.611,-314.315"/>
<polygon fill="midnightblue" stroke="midnightblue" points="636.44,-317.816 646.748,-315.367 637.163,-310.853 636.44,-317.816"/>
</g>
<!-- Node12 -->
<g id="node24" class="node"><title>Node12</title>
<a xlink:href="quadpack_8f90.html#a99cf2a02a14029fad4762555f04cac0e" target="_top" xlink:title="qagp">
<polygon fill="white" stroke="black" points="682.882,-272 682.882,-292 721.118,-292 721.118,-272 682.882,-272"/>
<text text-anchor="middle" x="702" y="-279" font-family="Helvetica,sans-Serif" font-size="10.00">qagp</text>
</a>
</g>
<!-- Node10&#45;&gt;Node12 -->
<g id="edge24" class="edge"><title>Node10&#45;&gt;Node12</title>
<path fill="none" stroke="midnightblue" d="M582.519,-294.949C613.216,-291.594 648.364,-287.753 672.354,-285.131"/>
<polygon fill="midnightblue" stroke="midnightblue" points="672.975,-288.584 682.536,-284.018 672.215,-281.625 672.975,-288.584"/>
</g>
<!-- Node13 -->
<g id="node26" class="node"><title>Node13</title>
<a xlink:href="quadpack_8f90.html#a5a75101d080f224c63adde98a0e64386" target="_top" xlink:title="qextr">
<polygon fill="white" stroke="black" points="795.887,-311 795.887,-331 834.113,-331 834.113,-311 795.887,-311"/>
<text text-anchor="middle" x="815" y="-318" font-family="Helvetica,sans-Serif" font-size="10.00">qextr</text>
</a>
</g>
<!-- Node12&#45;&gt;Node13 -->
<g id="edge26" class="edge"><title>Node12&#45;&gt;Node13</title>
<path fill="none" stroke="midnightblue" d="M721.227,-288.391C732.416,-292.315 747.038,-297.446 760,-302 768.399,-304.951 777.532,-308.163 785.857,-311.093"/>
<polygon fill="midnightblue" stroke="midnightblue" points="784.912,-314.471 795.507,-314.489 787.236,-307.867 784.912,-314.471"/>
</g>
<!-- Node14 -->
<g id="node28" class="node"><title>Node14</title>
<a xlink:href="quadpack_8f90.html#a27241a527b249e9de59a5ed6bee5f805" target="_top" xlink:title="qk21">
<polygon fill="white" stroke="black" points="796.162,-272 796.162,-292 833.838,-292 833.838,-272 796.162,-272"/>
<text text-anchor="middle" x="815" y="-279" font-family="Helvetica,sans-Serif" font-size="10.00">qk21</text>
</a>
</g>
<!-- Node12&#45;&gt;Node14 -->
<g id="edge28" class="edge"><title>Node12&#45;&gt;Node14</title>
<path fill="none" stroke="midnightblue" d="M721.329,-282C738.867,-282 765.569,-282 785.813,-282"/>
<polygon fill="midnightblue" stroke="midnightblue" points="786.012,-285.5 796.012,-282 786.012,-278.5 786.012,-285.5"/>
</g>
<!-- Node15 -->
<g id="node30" class="node"><title>Node15</title>
<a xlink:href="quadpack_8f90.html#a55e08a684c5a6315fb37dd0fdc66d8e6" target="_top" xlink:title="qsort">
<polygon fill="white" stroke="black" points="795.887,-233 795.887,-253 834.113,-253 834.113,-233 795.887,-233"/>
<text text-anchor="middle" x="815" y="-240" font-family="Helvetica,sans-Serif" font-size="10.00">qsort</text>
</a>
</g>
<!-- Node12&#45;&gt;Node15 -->
<g id="edge30" class="edge"><title>Node12&#45;&gt;Node15</title>
<path fill="none" stroke="midnightblue" d="M721.329,-275.56C738.923,-269.378 765.741,-259.956 786.008,-252.835"/>
<polygon fill="midnightblue" stroke="midnightblue" points="787.369,-256.067 795.643,-249.45 785.049,-249.462 787.369,-256.067"/>
</g>
<!-- Node17 -->
<g id="node34" class="node"><title>Node17</title>
<a xlink:href="namespacef3dex__utils.html#a2cce76cb1a695da8315cbf60507ec322" target="_top" xlink:title="Raw function doing bubble sort.">
<polygon fill="white" stroke="black" points="465.103,-253 465.103,-273 568.897,-273 568.897,-253 465.103,-253"/>
<text text-anchor="middle" x="517" y="-260" font-family="Helvetica,sans-Serif" font-size="10.00">f3dex_utils::BSORT</text>
</a>
</g>
<!-- Node16&#45;&gt;Node17 -->
<g id="edge34" class="edge"><title>Node16&#45;&gt;Node17</title>
<path fill="none" stroke="midnightblue" d="M360.953,-250.725C391.938,-253.178 426.34,-255.902 454.851,-258.159"/>
<polygon fill="midnightblue" stroke="midnightblue" points="454.826,-261.668 465.071,-258.968 455.379,-254.69 454.826,-261.668"/>
</g>
<!-- Node18&#45;&gt;Node7 -->
<g id="edge38" class="edge"><title>Node18&#45;&gt;Node7</title>
<path fill="none" stroke="midnightblue" d="M576.98,-117.09C587.503,-119.736 598.222,-123.002 608,-127 634.337,-137.769 661.636,-155.746 679.788,-168.836"/>
<polygon fill="midnightblue" stroke="midnightblue" points="677.791,-171.712 687.92,-174.817 681.938,-166.073 677.791,-171.712"/>
</g>
<!-- Node19 -->
<g id="node39" class="node"><title>Node19</title>
<a xlink:href="namespacef3dex__utils.html#a92226ca7c662562058c56ba005f6fc36" target="_top" xlink:title="Print preformated messages.">
<polygon fill="white" stroke="black" points="647.043,-58 647.043,-78 756.957,-78 756.957,-58 647.043,-58"/>
<text text-anchor="middle" x="702" y="-65" font-family="Helvetica,sans-Serif" font-size="10.00">f3dex_utils::message</text>
</a>
</g>
<!-- Node18&#45;&gt;Node19 -->
<g id="edge40" class="edge"><title>Node18&#45;&gt;Node19</title>
<path fill="none" stroke="midnightblue" d="M565.127,-96.9565C589.248,-91.816 618.797,-85.5187 644.171,-80.1111"/>
<polygon fill="midnightblue" stroke="midnightblue" points="644.982,-83.517 654.033,-78.0094 643.523,-76.6707 644.982,-83.517"/>
</g>
<!-- Node21 -->
<g id="node43" class="node"><title>Node21</title>
<a xlink:href="namespacef3dex__transforms.html#a02b926f933d186f2c9d9ab6d478a1601" target="_top" xlink:title="Computes series of roots of Bessel functions.">
<polygon fill="white" stroke="black" points="449.816,-19 449.816,-39 584.184,-39 584.184,-19 449.816,-19"/>
<text text-anchor="middle" x="517" y="-26" font-family="Helvetica,sans-Serif" font-size="10.00">f3dex_transforms::gen_qln</text>
</a>
</g>
<!-- Node20&#45;&gt;Node21 -->
<g id="edge44" class="edge"><title>Node20&#45;&gt;Node21</title>
<path fill="none" stroke="midnightblue" d="M342.216,-43.482C372.389,-40.9676 408.282,-37.9765 439.592,-35.3673"/>
<polygon fill="midnightblue" stroke="midnightblue" points="439.909,-38.8532 449.584,-34.5347 439.327,-31.8773 439.909,-38.8532"/>
</g>
<!-- Node21&#45;&gt;Node19 -->
<g id="edge46" class="edge"><title>Node21&#45;&gt;Node19</title>
<path fill="none" stroke="midnightblue" d="M565.127,-39.0435C589.248,-44.184 618.797,-50.4813 644.171,-55.8889"/>
<polygon fill="midnightblue" stroke="midnightblue" points="643.523,-59.3293 654.033,-57.9906 644.982,-52.483 643.523,-59.3293"/>
</g>
<!-- Node23 -->
<g id="node48" class="node"><title>Node23</title>
<a xlink:href="namespacef3dex__cosmotools.html#a609d3f29da9fc1be3bf27757e25532eb" target="_top" xlink:title="Scope and scan for parameters.">
<polygon fill="white" stroke="black" points="426.205,-58 426.205,-78 607.795,-78 607.795,-58 426.205,-58"/>
<text text-anchor="middle" x="517" y="-65" font-family="Helvetica,sans-Serif" font-size="10.00">f3dex_cosmotools::txtfile2parameters</text>
</a>
</g>
<!-- Node22&#45;&gt;Node23 -->
<g id="edge50" class="edge"><title>Node22&#45;&gt;Node23</title>
<path fill="none" stroke="midnightblue" d="M390.026,-78.4979C398.719,-77.7735 407.453,-77.0456 416.047,-76.3294"/>
<polygon fill="midnightblue" stroke="midnightblue" points="416.385,-79.8135 426.059,-75.495 415.803,-72.8377 416.385,-79.8135"/>
</g>
<!-- Node24&#45;&gt;Node7 -->
<g id="edge56" class="edge"><title>Node24&#45;&gt;Node7</title>
<path fill="none" stroke="midnightblue" d="M362.261,-169.856C442.439,-173.441 560.229,-178.707 633.679,-181.99"/>
<polygon fill="midnightblue" stroke="midnightblue" points="633.594,-185.49 643.74,-182.44 633.907,-178.497 633.594,-185.49"/>
</g>
<!-- Node25 -->
<g id="node52" class="node"><title>Node25</title>
<a xlink:href="namespacef3dex__transforms.html#aef309274871cf8eb0405b63f14ab26a2" target="_top" xlink:title="f3dex_transforms::alnspring2almn">
<polygon fill="white" stroke="black" points="433.709,-136 433.709,-156 600.291,-156 600.291,-136 433.709,-136"/>
<text text-anchor="middle" x="517" y="-143" font-family="Helvetica,sans-Serif" font-size="10.00">f3dex_transforms::alnspring2almn</text>
</a>
</g>
<!-- Node24&#45;&gt;Node25 -->
<g id="edge54" class="edge"><title>Node24&#45;&gt;Node25</title>
<path fill="none" stroke="midnightblue" d="M362.306,-158.808C382.195,-157.15 403.427,-155.381 423.565,-153.703"/>
<polygon fill="midnightblue" stroke="midnightblue" points="423.991,-157.18 433.666,-152.861 423.41,-150.204 423.991,-157.18"/>
</g>
</g>
</svg>
