<?xml version="1.0" encoding="UTF-8" standalone="no"?>
<!DOCTYPE svg PUBLIC "-//W3C//DTD SVG 1.1//EN"
 "http://www.w3.org/Graphics/SVG/1.1/DTD/svg11.dtd">
<!-- Generated by graphviz version 2.28.0 (20111102.2313)
 -->
<!-- Title: G Pages: 1 -->
<svg width="642pt" height="262pt"
 viewBox="0.00 0.00 642.00 262.00" xmlns="http://www.w3.org/2000/svg" xmlns:xlink="http://www.w3.org/1999/xlink">
<g id="graph1" class="graph" transform="scale(1 1) rotate(0) translate(4 258)">
<title>G</title>
<polygon fill="white" stroke="white" points="-4,5 -4,-258 639,-258 639,5 -4,5"/>
<!-- Node1 -->
<g id="node1" class="node"><title>Node1</title>
<polygon fill="#bfbfbf" stroke="black" points="0.664,-117 0.664,-137 73.336,-137 73.336,-117 0.664,-117"/>
<text text-anchor="middle" x="37" y="-124" font-family="Helvetica,sans-Serif" font-size="10.00">survey2almn</text>
</g>
<!-- Node2 -->
<g id="node3" class="node"><title>Node2</title>
<a xlink:href="namespacef3dex__stats.html#af82543b20c426be1736a4fed0d1ca80c" target="_top" xlink:title="Naive estimator for the almn&#39;s.">
<polygon fill="white" stroke="black" points="125.926,-234 125.926,-254 268.074,-254 268.074,-234 125.926,-234"/>
<text text-anchor="middle" x="197" y="-241" font-family="Helvetica,sans-Serif" font-size="10.00">f3dex_stats::almn2cln_naive</text>
</a>
</g>
<!-- Node1&#45;&gt;Node2 -->
<g id="edge2" class="edge"><title>Node1&#45;&gt;Node2</title>
<path fill="none" stroke="midnightblue" d="M42.4905,-137.078C51.9262,-157.032 75.8002,-201.575 110,-224 113.533,-226.317 117.303,-228.367 121.216,-230.18"/>
<polygon fill="midnightblue" stroke="midnightblue" points="119.985,-233.458 130.567,-233.996 122.631,-226.977 119.985,-233.458"/>
</g>
<!-- Node3 -->
<g id="node5" class="node"><title>Node3</title>
<a xlink:href="namespacef3dex__fitstools.html#a3bb8fd149a1c137d3176d484e28bbef0" target="_top" xlink:title="Write a_lmn&#39;s to file.">
<polygon fill="white" stroke="black" points="134.266,-156 134.266,-176 259.734,-176 259.734,-156 134.266,-156"/>
<text text-anchor="middle" x="197" y="-163" font-family="Helvetica,sans-Serif" font-size="10.00">f3dex_fitstools::almn2fits</text>
</a>
</g>
<!-- Node1&#45;&gt;Node3 -->
<g id="edge4" class="edge"><title>Node1&#45;&gt;Node3</title>
<path fill="none" stroke="midnightblue" d="M73.4696,-136.582C85.0918,-139.663 98.0801,-143.042 110,-146 120.26,-148.546 131.233,-151.172 141.79,-153.649"/>
<polygon fill="midnightblue" stroke="midnightblue" points="141.214,-157.109 151.748,-155.972 142.804,-150.292 141.214,-157.109"/>
</g>
<!-- Node5 -->
<g id="node9" class="node"><title>Node5</title>
<a xlink:href="namespacef3dex__fitstools.html#aab1f14e65c2837494cb15ff4fd54b372" target="_top" xlink:title="Write power spectrum to file.">
<polygon fill="white" stroke="black" points="138.71,-195 138.71,-215 255.29,-215 255.29,-195 138.71,-195"/>
<text text-anchor="middle" x="197" y="-202" font-family="Helvetica,sans-Serif" font-size="10.00">f3dex_fitstools::cln2fits</text>
</a>
</g>
<!-- Node1&#45;&gt;Node5 -->
<g id="edge8" class="edge"><title>Node1&#45;&gt;Node5</title>
<path fill="none" stroke="midnightblue" d="M47.7008,-137.275C60.6527,-150.37 84.8915,-172.769 110,-185 115.788,-187.82 121.992,-190.252 128.319,-192.349"/>
<polygon fill="midnightblue" stroke="midnightblue" points="127.736,-195.829 138.321,-195.375 129.763,-189.129 127.736,-195.829"/>
</g>
<!-- Node6 -->
<g id="node12" class="node"><title>Node6</title>
<a xlink:href="namespacef3dex__transforms.html#aa6cd797c56b97503bf2d52131f6e5554" target="_top" xlink:title="Computes series of normalization coefficients.">
<polygon fill="white" stroke="black" points="130.096,-78 130.096,-98 263.904,-98 263.904,-78 130.096,-78"/>
<text text-anchor="middle" x="197" y="-85" font-family="Helvetica,sans-Serif" font-size="10.00">f3dex_transforms::gen_cln</text>
</a>
</g>
<!-- Node1&#45;&gt;Node6 -->
<g id="edge12" class="edge"><title>Node1&#45;&gt;Node6</title>
<path fill="none" stroke="midnightblue" d="M72.6913,-116.959C84.4949,-113.651 97.7892,-110.042 110,-107 119.25,-104.695 129.095,-102.386 138.697,-100.212"/>
<polygon fill="midnightblue" stroke="midnightblue" points="139.585,-103.599 148.579,-98.0001 138.056,-96.7684 139.585,-103.599"/>
</g>
<!-- Node9 -->
<g id="node18" class="node"><title>Node9</title>
<a xlink:href="namespacef3dex__transforms.html#a4b80bc7cad52998fd0aff935a1695ee7" target="_top" xlink:title="Computes k spectrum.">
<polygon fill="white" stroke="black" points="130.096,-117 130.096,-137 263.904,-137 263.904,-117 130.096,-117"/>
<text text-anchor="middle" x="197" y="-124" font-family="Helvetica,sans-Serif" font-size="10.00">f3dex_transforms::gen_kln</text>
</a>
</g>
<!-- Node1&#45;&gt;Node9 -->
<g id="edge18" class="edge"><title>Node1&#45;&gt;Node9</title>
<path fill="none" stroke="midnightblue" d="M73.4583,-127C87.2466,-127 103.608,-127 119.812,-127"/>
<polygon fill="midnightblue" stroke="midnightblue" points="119.857,-130.5 129.857,-127 119.857,-123.5 119.857,-130.5"/>
</g>
<!-- Node11 -->
<g id="node23" class="node"><title>Node11</title>
<a xlink:href="namespacef3dex__transforms.html#ae19f381573ccd64c64102bbd4181483f" target="_top" xlink:title="Performs the Fourier&#45;Bessel decomposition (backward algorithm) of a discrete survey.">
<polygon fill="white" stroke="black" points="109.823,-39 109.823,-59 284.178,-59 284.178,-39 109.823,-39"/>
<text text-anchor="middle" x="197" y="-46" font-family="Helvetica,sans-Serif" font-size="10.00">f3dex_transforms::survey2almn_srs</text>
</a>
</g>
<!-- Node1&#45;&gt;Node11 -->
<g id="edge24" class="edge"><title>Node1&#45;&gt;Node11</title>
<path fill="none" stroke="midnightblue" d="M47.203,-116.955C59.9768,-103.65 84.413,-80.4219 110,-68 114.526,-65.8026 119.31,-63.8561 124.21,-62.1324"/>
<polygon fill="midnightblue" stroke="midnightblue" points="125.281,-65.4647 133.739,-59.0849 123.149,-58.7973 125.281,-65.4647"/>
</g>
<!-- Node13 -->
<g id="node28" class="node"><title>Node13</title>
<a xlink:href="namespacef3dex__utils.html#ac5aa172010ec6cd9bd4c5273904b0405" target="_top" xlink:title="Measures system time.">
<polygon fill="white" stroke="black" points="149.273,-0 149.273,-20 244.727,-20 244.727,-0 149.273,-0"/>
<text text-anchor="middle" x="197" y="-7" font-family="Helvetica,sans-Serif" font-size="10.00">f3dex_utils::wtime</text>
</a>
</g>
<!-- Node1&#45;&gt;Node13 -->
<g id="edge30" class="edge"><title>Node1&#45;&gt;Node13</title>
<path fill="none" stroke="midnightblue" d="M42.4399,-116.786C51.7846,-96.5687 75.5032,-51.4684 110,-29 118.739,-23.3084 128.925,-19.3009 139.168,-16.4841"/>
<polygon fill="midnightblue" stroke="midnightblue" points="140.054,-19.871 148.96,-14.1323 138.419,-13.0645 140.054,-19.871"/>
</g>
<!-- Node4 -->
<g id="node7" class="node"><title>Node4</title>
<a xlink:href="namespacef3dex__fitstools.html#a83e1158f828e86e43f1dc68bc0e7c59b" target="_top" xlink:title="f3dex_fitstools::f90ftpcld">
<polygon fill="white" stroke="black" points="342.371,-175 342.371,-195 465.629,-195 465.629,-175 342.371,-175"/>
<text text-anchor="middle" x="404" y="-182" font-family="Helvetica,sans-Serif" font-size="10.00">f3dex_fitstools::f90ftpcld</text>
</a>
</g>
<!-- Node3&#45;&gt;Node4 -->
<g id="edge6" class="edge"><title>Node3&#45;&gt;Node4</title>
<path fill="none" stroke="midnightblue" d="M259.785,-171.726C282.48,-173.83 308.356,-176.228 331.812,-178.402"/>
<polygon fill="midnightblue" stroke="midnightblue" points="331.767,-181.913 342.048,-179.351 332.413,-174.943 331.767,-181.913"/>
</g>
<!-- Node5&#45;&gt;Node4 -->
<g id="edge10" class="edge"><title>Node5&#45;&gt;Node4</title>
<path fill="none" stroke="midnightblue" d="M255.377,-199.402C279.113,-197.087 306.882,-194.377 331.892,-191.937"/>
<polygon fill="midnightblue" stroke="midnightblue" points="332.442,-195.4 342.055,-190.946 331.762,-188.434 332.442,-195.4"/>
</g>
<!-- Node7 -->
<g id="node14" class="node"><title>Node7</title>
<a xlink:href="namespacef3dex__transforms.html#a9b68481c890d75c3e3f4cbd4a7109830" target="_top" xlink:title="Compute the value of the l&#45;th order spherical bessel FUNCTION at x.">
<polygon fill="white" stroke="black" points="345.988,-39 345.988,-59 462.012,-59 462.012,-39 345.988,-39"/>
<text text-anchor="middle" x="404" y="-46" font-family="Helvetica,sans-Serif" font-size="10.00">f3dex_transforms::BJL</text>
</a>
</g>
<!-- Node6&#45;&gt;Node7 -->
<g id="edge14" class="edge"><title>Node6&#45;&gt;Node7</title>
<path fill="none" stroke="midnightblue" d="M250.793,-77.9565C278.172,-72.7478 311.794,-66.3513 340.469,-60.8962"/>
<polygon fill="midnightblue" stroke="midnightblue" points="341.217,-64.3168 350.386,-59.0094 339.908,-57.4401 341.217,-64.3168"/>
</g>
<!-- Node8 -->
<g id="node16" class="node"><title>Node8</title>
<a xlink:href="namespacef3dex__utils.html#a92226ca7c662562058c56ba005f6fc36" target="_top" xlink:title="Print preformated messages.">
<polygon fill="white" stroke="black" points="524.043,-97 524.043,-117 633.957,-117 633.957,-97 524.043,-97"/>
<text text-anchor="middle" x="579" y="-104" font-family="Helvetica,sans-Serif" font-size="10.00">f3dex_utils::message</text>
</a>
</g>
<!-- Node6&#45;&gt;Node8 -->
<g id="edge16" class="edge"><title>Node6&#45;&gt;Node8</title>
<path fill="none" stroke="midnightblue" d="M264.191,-91.3095C334.274,-94.8137 444.162,-100.308 513.569,-103.778"/>
<polygon fill="midnightblue" stroke="midnightblue" points="513.765,-107.293 523.927,-104.296 514.115,-100.301 513.765,-107.293"/>
</g>
<!-- Node10 -->
<g id="node20" class="node"><title>Node10</title>
<a xlink:href="namespacef3dex__transforms.html#a02b926f933d186f2c9d9ab6d478a1601" target="_top" xlink:title="Computes series of roots of Bessel functions.">
<polygon fill="white" stroke="black" points="336.816,-117 336.816,-137 471.184,-137 471.184,-117 336.816,-117"/>
<text text-anchor="middle" x="404" y="-124" font-family="Helvetica,sans-Serif" font-size="10.00">f3dex_transforms::gen_qln</text>
</a>
</g>
<!-- Node9&#45;&gt;Node10 -->
<g id="edge20" class="edge"><title>Node9&#45;&gt;Node10</title>
<path fill="none" stroke="midnightblue" d="M263.992,-127C283.918,-127 305.961,-127 326.51,-127"/>
<polygon fill="midnightblue" stroke="midnightblue" points="326.781,-130.5 336.781,-127 326.781,-123.5 326.781,-130.5"/>
</g>
<!-- Node10&#45;&gt;Node8 -->
<g id="edge22" class="edge"><title>Node10&#45;&gt;Node8</title>
<path fill="none" stroke="midnightblue" d="M471.392,-119.325C485.211,-117.727 499.756,-116.046 513.506,-114.456"/>
<polygon fill="midnightblue" stroke="midnightblue" points="514.308,-117.887 523.84,-113.261 513.504,-110.933 514.308,-117.887"/>
</g>
<!-- Node11&#45;&gt;Node7 -->
<g id="edge28" class="edge"><title>Node11&#45;&gt;Node7</title>
<path fill="none" stroke="midnightblue" d="M284.344,-49C301.561,-49 319.402,-49 335.858,-49"/>
<polygon fill="midnightblue" stroke="midnightblue" points="335.907,-52.5001 345.907,-49 335.907,-45.5001 335.907,-52.5001"/>
</g>
<!-- Node12 -->
<g id="node25" class="node"><title>Node12</title>
<a xlink:href="namespacef3dex__transforms.html#aef309274871cf8eb0405b63f14ab26a2" target="_top" xlink:title="f3dex_transforms::alnspring2almn">
<polygon fill="white" stroke="black" points="320.709,-0 320.709,-20 487.291,-20 487.291,-0 320.709,-0"/>
<text text-anchor="middle" x="404" y="-7" font-family="Helvetica,sans-Serif" font-size="10.00">f3dex_transforms::alnspring2almn</text>
</a>
</g>
<!-- Node11&#45;&gt;Node12 -->
<g id="edge26" class="edge"><title>Node11&#45;&gt;Node12</title>
<path fill="none" stroke="midnightblue" d="M250.793,-38.9565C278.172,-33.7478 311.794,-27.3513 340.469,-21.8962"/>
<polygon fill="midnightblue" stroke="midnightblue" points="341.217,-25.3168 350.386,-20.0094 339.908,-18.4401 341.217,-25.3168"/>
</g>
</g>
</svg>
