<?xml version="1.0" encoding="UTF-8" standalone="no"?>
<!DOCTYPE svg PUBLIC "-//W3C//DTD SVG 1.1//EN"
 "http://www.w3.org/Graphics/SVG/1.1/DTD/svg11.dtd">
<!-- Generated by graphviz version 2.28.0 (20111007.0958)
 -->
<!-- Title: G Pages: 1 -->
<svg width="939pt" height="262pt"
 viewBox="0.00 0.00 939.00 262.00" xmlns="http://www.w3.org/2000/svg" xmlns:xlink="http://www.w3.org/1999/xlink">
<g id="graph1" class="graph" transform="scale(1 1) rotate(0) translate(4 258)">
<title>G</title>
<polygon fill="white" stroke="white" points="-4,5 -4,-258 936,-258 936,5 -4,5"/>
<!-- Node1 -->
<g id="node1" class="node"><title>Node1</title>
<polygon fill="#bfbfbf" stroke="black" points="491.432,-233 491.432,-253 728.568,-253 728.568,-233 491.432,-233"/>
<text text-anchor="middle" x="610" y="-240" font-family="Helvetica,sans-Serif" font-size="10.00">/Users/bl/Dropbox/3DEX/src/cxx/survey2almn.cpp</text>
</g>
<!-- Node2 -->
<g id="node3" class="node"><title>Node2</title>
<a xlink:href="survey_8h.html" target="_top" xlink:title="survey.h">
<polygon fill="white" stroke="black" points="366.108,-117 366.108,-137 419.892,-137 419.892,-117 366.108,-117"/>
<text text-anchor="middle" x="393" y="-124" font-family="Helvetica,sans-Serif" font-size="10.00">survey.h</text>
</a>
</g>
<!-- Node1&#45;&gt;Node2 -->
<g id="edge2" class="edge"><title>Node1&#45;&gt;Node2</title>
<path fill="none" stroke="midnightblue" d="M592.609,-232.864C554.661,-212.928 464.24,-165.425 419.293,-141.813"/>
<polygon fill="midnightblue" stroke="midnightblue" points="420.653,-138.574 410.173,-137.022 417.398,-144.771 420.653,-138.574"/>
</g>
<!-- Node13 -->
<g id="node25" class="node"><title>Node13</title>
<a xlink:href="almn__survey__tools_8h.html" target="_top" xlink:title="almn_survey_tools.h">
<polygon fill="white" stroke="black" points="656.158,-175 656.158,-195 763.842,-195 763.842,-175 656.158,-175"/>
<text text-anchor="middle" x="710" y="-182" font-family="Helvetica,sans-Serif" font-size="10.00">almn_survey_tools.h</text>
</a>
</g>
<!-- Node1&#45;&gt;Node13 -->
<g id="edge24" class="edge"><title>Node1&#45;&gt;Node13</title>
<path fill="none" stroke="midnightblue" d="M626.513,-232.753C642.386,-223.864 666.591,-210.309 684.858,-200.079"/>
<polygon fill="midnightblue" stroke="midnightblue" points="686.779,-203.015 693.794,-195.075 683.359,-196.907 686.779,-203.015"/>
</g>
<!-- Node3 -->
<g id="node5" class="node"><title>Node3</title>
<polygon fill="white" stroke="#bfbfbf" points="-0.2775,-59 -0.2775,-79 36.2775,-79 36.2775,-59 -0.2775,-59"/>
<text text-anchor="middle" x="18" y="-66" font-family="Helvetica,sans-Serif" font-size="10.00">arr.h</text>
</g>
<!-- Node2&#45;&gt;Node3 -->
<g id="edge4" class="edge"><title>Node2&#45;&gt;Node3</title>
<path fill="none" stroke="midnightblue" d="M365.988,-124.487C308.529,-120.834 169.978,-109.722 46.4233,-79.9043"/>
<polygon fill="midnightblue" stroke="midnightblue" points="46.967,-76.4337 36.4202,-77.4404 45.2929,-83.2306 46.967,-76.4337"/>
</g>
<!-- Node4 -->
<g id="node7" class="node"><title>Node4</title>
<polygon fill="white" stroke="#bfbfbf" points="54.2755,-59 54.2755,-79 119.725,-79 119.725,-59 54.2755,-59"/>
<text text-anchor="middle" x="87" y="-66" font-family="Helvetica,sans-Serif" font-size="10.00">paramfile.h</text>
</g>
<!-- Node2&#45;&gt;Node4 -->
<g id="edge6" class="edge"><title>Node2&#45;&gt;Node4</title>
<path fill="none" stroke="midnightblue" d="M365.8,-121.898C319.356,-114.762 221.588,-99.1613 130.053,-80.3396"/>
<polygon fill="midnightblue" stroke="midnightblue" points="130.577,-76.8739 120.075,-78.2696 129.155,-83.728 130.577,-76.8739"/>
</g>
<!-- Node5 -->
<g id="node9" class="node"><title>Node5</title>
<polygon fill="white" stroke="#bfbfbf" points="137.328,-59 137.328,-79 186.672,-79 186.672,-59 137.328,-59"/>
<text text-anchor="middle" x="162" y="-66" font-family="Helvetica,sans-Serif" font-size="10.00">trafos.h</text>
</g>
<!-- Node2&#45;&gt;Node5 -->
<g id="edge8" class="edge"><title>Node2&#45;&gt;Node5</title>
<path fill="none" stroke="midnightblue" d="M365.958,-120.31C329.498,-112.51 262.363,-97.6989 196.518,-80.2973"/>
<polygon fill="midnightblue" stroke="midnightblue" points="197.38,-76.905 186.816,-77.7115 195.577,-83.6689 197.38,-76.905"/>
</g>
<!-- Node6 -->
<g id="node11" class="node"><title>Node6</title>
<polygon fill="white" stroke="#bfbfbf" points="204.38,-59 204.38,-79 277.62,-79 277.62,-59 204.38,-59"/>
<text text-anchor="middle" x="241" y="-66" font-family="Helvetica,sans-Serif" font-size="10.00">planck_rng.h</text>
</g>
<!-- Node2&#45;&gt;Node6 -->
<g id="edge10" class="edge"><title>Node2&#45;&gt;Node6</title>
<path fill="none" stroke="midnightblue" d="M368.24,-116.878C342.956,-107.563 303.509,-93.0296 275.24,-82.6149"/>
<polygon fill="midnightblue" stroke="midnightblue" points="276.343,-79.291 265.749,-79.1181 273.923,-85.8594 276.343,-79.291"/>
</g>
<!-- Node7 -->
<g id="node13" class="node"><title>Node7</title>
<polygon fill="white" stroke="#bfbfbf" points="295.834,-59 295.834,-79 350.166,-79 350.166,-59 295.834,-59"/>
<text text-anchor="middle" x="323" y="-66" font-family="Helvetica,sans-Serif" font-size="10.00">iostream</text>
</g>
<!-- Node2&#45;&gt;Node7 -->
<g id="edge12" class="edge"><title>Node2&#45;&gt;Node7</title>
<path fill="none" stroke="midnightblue" d="M381.441,-116.753C370.84,-108.272 354.929,-95.543 342.384,-85.5073"/>
<polygon fill="midnightblue" stroke="midnightblue" points="344.339,-82.5891 334.344,-79.0752 339.966,-88.0552 344.339,-82.5891"/>
</g>
<!-- Node8 -->
<g id="node15" class="node"><title>Node8</title>
<polygon fill="white" stroke="#bfbfbf" points="368.333,-59 368.333,-79 417.667,-79 417.667,-59 368.333,-59"/>
<text text-anchor="middle" x="393" y="-66" font-family="Helvetica,sans-Serif" font-size="10.00">fstream</text>
</g>
<!-- Node2&#45;&gt;Node8 -->
<g id="edge14" class="edge"><title>Node2&#45;&gt;Node8</title>
<path fill="none" stroke="midnightblue" d="M393,-116.753C393,-109.25 393,-98.4238 393,-89.0781"/>
<polygon fill="midnightblue" stroke="midnightblue" points="396.5,-89.0752 393,-79.0752 389.5,-89.0752 396.5,-89.0752"/>
</g>
<!-- Node9 -->
<g id="node17" class="node"><title>Node9</title>
<polygon fill="white" stroke="#bfbfbf" points="435.223,-59 435.223,-79 486.777,-79 486.777,-59 435.223,-59"/>
<text text-anchor="middle" x="461" y="-66" font-family="Helvetica,sans-Serif" font-size="10.00">sstream</text>
</g>
<!-- Node2&#45;&gt;Node9 -->
<g id="edge16" class="edge"><title>Node2&#45;&gt;Node9</title>
<path fill="none" stroke="midnightblue" d="M404.229,-116.753C414.527,-108.272 429.984,-95.543 442.17,-85.5073"/>
<polygon fill="midnightblue" stroke="midnightblue" points="444.486,-88.1341 449.98,-79.0752 440.036,-82.7305 444.486,-88.1341"/>
</g>
<!-- Node10 -->
<g id="node19" class="node"><title>Node10</title>
<polygon fill="white" stroke="#bfbfbf" points="504.5,-59 504.5,-79 533.5,-79 533.5,-59 504.5,-59"/>
<text text-anchor="middle" x="518.609" y="-66" font-family="Helvetica,sans-Serif" font-size="10.00">list</text>
</g>
<!-- Node2&#45;&gt;Node10 -->
<g id="edge18" class="edge"><title>Node2&#45;&gt;Node10</title>
<path fill="none" stroke="midnightblue" d="M413.525,-116.878C435.857,-106.953 471.518,-91.1033 495.096,-80.6239"/>
<polygon fill="midnightblue" stroke="midnightblue" points="496.671,-83.7543 504.387,-76.4945 493.828,-77.3576 496.671,-83.7543"/>
</g>
<!-- Node11 -->
<g id="node21" class="node"><title>Node11</title>
<a xlink:href="selection_function_8h.html" target="_top" xlink:title="selectionFunction.h">
<polygon fill="white" stroke="black" points="551.933,-59 551.933,-79 654.067,-79 654.067,-59 551.933,-59"/>
<text text-anchor="middle" x="603" y="-66" font-family="Helvetica,sans-Serif" font-size="10.00">selectionFunction.h</text>
</a>
</g>
<!-- Node2&#45;&gt;Node11 -->
<g id="edge20" class="edge"><title>Node2&#45;&gt;Node11</title>
<path fill="none" stroke="midnightblue" d="M420.024,-118.794C455.303,-109.386 517.487,-92.8035 559.456,-81.6117"/>
<polygon fill="midnightblue" stroke="midnightblue" points="560.375,-84.9889 569.136,-79.0304 558.572,-78.2253 560.375,-84.9889"/>
</g>
<!-- Node12 -->
<g id="node23" class="node"><title>Node12</title>
<polygon fill="white" stroke="#bfbfbf" points="618.718,-1 618.718,-21 665.282,-21 665.282,-1 618.718,-1"/>
<text text-anchor="middle" x="642" y="-8" font-family="Helvetica,sans-Serif" font-size="10.00">math.h</text>
</g>
<!-- Node11&#45;&gt;Node12 -->
<g id="edge22" class="edge"><title>Node11&#45;&gt;Node12</title>
<path fill="none" stroke="midnightblue" d="M609.44,-58.7527C614.949,-50.8427 623.031,-39.2372 629.765,-29.5683"/>
<polygon fill="midnightblue" stroke="midnightblue" points="632.837,-31.2815 635.68,-21.0752 627.093,-27.281 632.837,-31.2815"/>
</g>
<!-- Node13&#45;&gt;Node2 -->
<g id="edge26" class="edge"><title>Node13&#45;&gt;Node2</title>
<path fill="none" stroke="midnightblue" d="M658.716,-174.94C594.711,-163.633 486.792,-144.569 430.193,-134.57"/>
<polygon fill="midnightblue" stroke="midnightblue" points="430.7,-131.106 420.244,-132.813 429.482,-137.999 430.7,-131.106"/>
</g>
<!-- Node13&#45;&gt;Node12 -->
<g id="edge36" class="edge"><title>Node13&#45;&gt;Node12</title>
<path fill="none" stroke="midnightblue" d="M706.802,-174.743C699.503,-153.779 680.867,-101.141 663,-58 659.179,-48.7739 654.607,-38.6648 650.707,-30.2789"/>
<polygon fill="midnightblue" stroke="midnightblue" points="653.802,-28.6373 646.377,-21.0798 647.469,-31.6183 653.802,-28.6373"/>
</g>
<!-- Node14 -->
<g id="node28" class="node"><title>Node14</title>
<a xlink:href="sbtools_8h.html" target="_top" xlink:title="sbtools.h">
<polygon fill="white" stroke="black" points="709.994,-117 709.994,-137 766.006,-137 766.006,-117 709.994,-117"/>
<text text-anchor="middle" x="738" y="-124" font-family="Helvetica,sans-Serif" font-size="10.00">sbtools.h</text>
</a>
</g>
<!-- Node13&#45;&gt;Node14 -->
<g id="edge28" class="edge"><title>Node13&#45;&gt;Node14</title>
<path fill="none" stroke="midnightblue" d="M714.624,-174.753C718.497,-167.006 724.143,-155.714 728.916,-146.169"/>
<polygon fill="midnightblue" stroke="midnightblue" points="732.121,-147.585 733.462,-137.075 725.86,-144.454 732.121,-147.585"/>
</g>
<!-- Node16 -->
<g id="node32" class="node"><title>Node16</title>
<polygon fill="white" stroke="#bfbfbf" points="784.376,-117 784.376,-137 867.624,-137 867.624,-117 784.376,-117"/>
<text text-anchor="middle" x="826" y="-124" font-family="Helvetica,sans-Serif" font-size="10.00">healpix_base.h</text>
</g>
<!-- Node13&#45;&gt;Node16 -->
<g id="edge32" class="edge"><title>Node13&#45;&gt;Node16</title>
<path fill="none" stroke="midnightblue" d="M728.896,-174.878C747.602,-165.847 776.466,-151.913 797.868,-141.581"/>
<polygon fill="midnightblue" stroke="midnightblue" points="799.629,-144.618 807.113,-137.118 796.585,-138.314 799.629,-144.618"/>
</g>
<!-- Node17 -->
<g id="node34" class="node"><title>Node17</title>
<polygon fill="white" stroke="#bfbfbf" points="885.278,-117 885.278,-137 930.722,-137 930.722,-117 885.278,-117"/>
<text text-anchor="middle" x="908" y="-124" font-family="Helvetica,sans-Serif" font-size="10.00">cstring</text>
</g>
<!-- Node13&#45;&gt;Node17 -->
<g id="edge34" class="edge"><title>Node13&#45;&gt;Node17</title>
<path fill="none" stroke="midnightblue" d="M743.792,-174.982C775.365,-166.479 824.044,-153.177 875.065,-138.213"/>
<polygon fill="midnightblue" stroke="midnightblue" points="876.352,-141.483 884.955,-135.3 874.374,-134.768 876.352,-141.483"/>
</g>
<!-- Node15 -->
<g id="node30" class="node"><title>Node15</title>
<polygon fill="white" stroke="#bfbfbf" points="713.884,-59 713.884,-79 762.116,-79 762.116,-59 713.884,-59"/>
<text text-anchor="middle" x="738" y="-66" font-family="Helvetica,sans-Serif" font-size="10.00">stdint.h</text>
</g>
<!-- Node14&#45;&gt;Node15 -->
<g id="edge30" class="edge"><title>Node14&#45;&gt;Node15</title>
<path fill="none" stroke="midnightblue" d="M738,-116.753C738,-109.25 738,-98.4238 738,-89.0781"/>
<polygon fill="midnightblue" stroke="midnightblue" points="741.5,-89.0752 738,-79.0752 734.5,-89.0752 741.5,-89.0752"/>
</g>
</g>
</svg>
