<?xml version="1.0" encoding="UTF-8" standalone="no"?>
<!DOCTYPE svg PUBLIC "-//W3C//DTD SVG 1.1//EN"
 "http://www.w3.org/Graphics/SVG/1.1/DTD/svg11.dtd">
<!-- Generated by graphviz version 2.28.0 (20111007.0958)
 -->
<!-- Title: G Pages: 1 -->
<svg width="686pt" height="242pt"
 viewBox="0.00 0.00 686.00 242.00" xmlns="http://www.w3.org/2000/svg" xmlns:xlink="http://www.w3.org/1999/xlink">
<g id="graph1" class="graph" transform="scale(1 1) rotate(0) translate(4 238)">
<title>G</title>
<polygon fill="white" stroke="white" points="-4,5 -4,-238 683,-238 683,5 -4,5"/>
<!-- Node1 -->
<g id="node1" class="node"><title>Node1</title>
<polygon fill="#bfbfbf" stroke="black" points="0.167,-116 0.167,-136 37.833,-136 37.833,-116 0.167,-116"/>
<text text-anchor="middle" x="19" y="-123" font-family="Helvetica,sans-Serif" font-size="10.00">main</text>
</g>
<!-- Node2 -->
<g id="node3" class="node"><title>Node2</title>
<a xlink:href="survey2almn_8cpp.html#af1a9804dc0cbb73e425349b79e862b32" target="_top" xlink:title="__f3dex_fitstools_MOD_almn2fits">
<polygon fill="white" stroke="black" points="78.2635,-214 78.2635,-234 243.736,-234 243.736,-214 78.2635,-214"/>
<text text-anchor="middle" x="161" y="-221" font-family="Helvetica,sans-Serif" font-size="10.00">__f3dex_fitstools_MOD_almn2fits</text>
</a>
</g>
<!-- Node1&#45;&gt;Node2 -->
<g id="edge2" class="edge"><title>Node1&#45;&gt;Node2</title>
<path fill="none" stroke="midnightblue" d="M24.1023,-136.172C31.4544,-153.049 48.526,-186.689 74,-204 77.2588,-206.215 80.7301,-208.186 84.3385,-209.941"/>
<polygon fill="midnightblue" stroke="midnightblue" points="82.9759,-213.165 93.5471,-213.872 85.7242,-206.727 82.9759,-213.165"/>
</g>
<!-- Node3 -->
<g id="node5" class="node"><title>Node3</title>
<a xlink:href="survey2almn_8cpp.html#a0b1ce70076aad69cad826874e9d70acb" target="_top" xlink:title="__f3dex_transforms_MOD_gen_cln">
<polygon fill="white" stroke="black" points="74.093,-175 74.093,-195 247.907,-195 247.907,-175 74.093,-175"/>
<text text-anchor="middle" x="161" y="-182" font-family="Helvetica,sans-Serif" font-size="10.00">__f3dex_transforms_MOD_gen_cln</text>
</a>
</g>
<!-- Node1&#45;&gt;Node3 -->
<g id="edge4" class="edge"><title>Node1&#45;&gt;Node3</title>
<path fill="none" stroke="midnightblue" d="M31.1664,-136.128C41.5411,-145.01 57.7898,-157.625 74,-165 79.8601,-167.666 86.1122,-169.996 92.4699,-172.028"/>
<polygon fill="midnightblue" stroke="midnightblue" points="91.9251,-175.516 102.506,-174.981 93.9011,-168.801 91.9251,-175.516"/>
</g>
<!-- Node4 -->
<g id="node7" class="node"><title>Node4</title>
<a xlink:href="survey2almn_8cpp.html#ae69b1f2d86d74bfe0d285a01e8ba599e" target="_top" xlink:title="__f3dex_utils_MOD_print_almn">
<polygon fill="white" stroke="black" points="82.988,-136 82.988,-156 239.012,-156 239.012,-136 82.988,-136"/>
<text text-anchor="middle" x="161" y="-143" font-family="Helvetica,sans-Serif" font-size="10.00">__f3dex_utils_MOD_print_almn</text>
</a>
</g>
<!-- Node1&#45;&gt;Node4 -->
<g id="edge6" class="edge"><title>Node1&#45;&gt;Node4</title>
<path fill="none" stroke="midnightblue" d="M38.0159,-128.574C48.9811,-130.14 63.845,-132.264 79.4243,-134.489"/>
<polygon fill="midnightblue" stroke="midnightblue" points="79.3371,-138.012 89.7316,-135.962 80.3271,-131.083 79.3371,-138.012"/>
</g>
<!-- Node5 -->
<g id="node9" class="node"><title>Node5</title>
<a xlink:href="modulesurvey.html#ae0f55914ed9cbf025c736c1eab33ca5a" target="_top" xlink:title="survey::fromSurveyFile">
<polygon fill="white" stroke="black" points="101.889,-97 101.889,-117 220.111,-117 220.111,-97 101.889,-97"/>
<text text-anchor="middle" x="161" y="-104" font-family="Helvetica,sans-Serif" font-size="10.00">survey::fromSurveyFile</text>
</a>
</g>
<!-- Node1&#45;&gt;Node5 -->
<g id="edge8" class="edge"><title>Node1&#45;&gt;Node5</title>
<path fill="none" stroke="midnightblue" d="M38.0159,-123.555C51.8518,-121.677 71.8949,-118.957 91.7502,-116.262"/>
<polygon fill="midnightblue" stroke="midnightblue" points="92.3285,-119.716 101.767,-114.903 91.3871,-112.78 92.3285,-119.716"/>
</g>
<!-- Node6 -->
<g id="node11" class="node"><title>Node6</title>
<a xlink:href="sbtools_8cpp.html#a93e0dd464161ca86b72569c0427a62b5" target="_top" xlink:title="load_qln">
<polygon fill="white" stroke="black" points="134.104,-58 134.104,-78 187.896,-78 187.896,-58 134.104,-58"/>
<text text-anchor="middle" x="161" y="-65" font-family="Helvetica,sans-Serif" font-size="10.00">load_qln</text>
</a>
</g>
<!-- Node1&#45;&gt;Node6 -->
<g id="edge10" class="edge"><title>Node1&#45;&gt;Node6</title>
<path fill="none" stroke="midnightblue" d="M31.6208,-115.806C42.0407,-107.18 58.0958,-95.1186 74,-88 89.7239,-80.9621 108.216,-76.249 124.016,-73.176"/>
<polygon fill="midnightblue" stroke="midnightblue" points="124.732,-76.6033 133.953,-71.3854 123.491,-69.7142 124.732,-76.6033"/>
</g>
<!-- Node7 -->
<g id="node13" class="node"><title>Node7</title>
<a xlink:href="almn__survey__tools_8h.html#aa801be9dff8e7cfa0d423f25660f2be7" target="_top" xlink:title="survey2almn">
<polygon fill="white" stroke="black" points="124.664,-19 124.664,-39 197.336,-39 197.336,-19 124.664,-19"/>
<text text-anchor="middle" x="161" y="-26" font-family="Helvetica,sans-Serif" font-size="10.00">survey2almn</text>
</a>
</g>
<!-- Node1&#45;&gt;Node7 -->
<g id="edge12" class="edge"><title>Node1&#45;&gt;Node7</title>
<path fill="none" stroke="midnightblue" d="M24.139,-115.957C31.5452,-99.2958 48.6945,-66.0848 74,-49 85.9612,-40.9245 100.756,-36.0838 114.683,-33.1907"/>
<polygon fill="midnightblue" stroke="midnightblue" points="115.392,-36.6195 124.617,-31.41 114.157,-29.7294 115.392,-36.6195"/>
</g>
<!-- Node8 -->
<g id="node15" class="node"><title>Node8</title>
<a xlink:href="almn__survey__tools_8h.html#a1f981e4e6ee71554adbd1879e44875e4" target="_top" xlink:title="__f3dex_transforms_MOD_alnspring2almn">
<polygon fill="white" stroke="black" points="284.707,-39 284.707,-59 491.293,-59 491.293,-39 284.707,-39"/>
<text text-anchor="middle" x="388" y="-46" font-family="Helvetica,sans-Serif" font-size="10.00">__f3dex_transforms_MOD_alnspring2almn</text>
</a>
</g>
<!-- Node7&#45;&gt;Node8 -->
<g id="edge14" class="edge"><title>Node7&#45;&gt;Node8</title>
<path fill="none" stroke="midnightblue" d="M197.652,-32.1691C218.62,-34.0329 246.412,-36.5033 274.225,-38.9756"/>
<polygon fill="midnightblue" stroke="midnightblue" points="274.19,-42.4862 284.461,-39.8854 274.81,-35.5137 274.19,-42.4862"/>
</g>
<!-- Node9 -->
<g id="node17" class="node"><title>Node9</title>
<a xlink:href="sbtools_8cpp.html#a59592d47006c78f79e11ae10d9df5760" target="_top" xlink:title="sphericalBesselJ">
<polygon fill="white" stroke="black" points="342.495,-0 342.495,-20 433.505,-20 433.505,-0 342.495,-0"/>
<text text-anchor="middle" x="388" y="-7" font-family="Helvetica,sans-Serif" font-size="10.00">sphericalBesselJ</text>
</a>
</g>
<!-- Node7&#45;&gt;Node9 -->
<g id="edge16" class="edge"><title>Node7&#45;&gt;Node9</title>
<path fill="none" stroke="midnightblue" d="M197.652,-25.9894C233.826,-22.9347 290.306,-18.1653 332.176,-14.6296"/>
<polygon fill="midnightblue" stroke="midnightblue" points="332.545,-18.111 342.215,-13.7818 331.956,-11.1358 332.545,-18.111"/>
</g>
<!-- Node10 -->
<g id="node19" class="node"><title>Node10</title>
<a xlink:href="sbtools_8h.html#a1c1234e193b7123b6b9b55f97a395aea" target="_top" xlink:title="__f3dex_transforms_MOD_bjl">
<polygon fill="white" stroke="black" points="528.601,-0 528.601,-20 677.399,-20 677.399,-0 528.601,-0"/>
<text text-anchor="middle" x="603" y="-7" font-family="Helvetica,sans-Serif" font-size="10.00">__f3dex_transforms_MOD_bjl</text>
</a>
</g>
<!-- Node9&#45;&gt;Node10 -->
<g id="edge18" class="edge"><title>Node9&#45;&gt;Node10</title>
<path fill="none" stroke="midnightblue" d="M433.652,-10C458.204,-10 489.469,-10 518.374,-10"/>
<polygon fill="midnightblue" stroke="midnightblue" points="518.484,-13.5001 528.484,-10 518.484,-6.5001 518.484,-13.5001"/>
</g>
</g>
</svg>
