<?xml version="1.0" encoding="UTF-8" standalone="no"?>
<!DOCTYPE svg PUBLIC "-//W3C//DTD SVG 1.1//EN"
 "http://www.w3.org/Graphics/SVG/1.1/DTD/svg11.dtd">
<!-- Generated by graphviz version 2.28.0 (20111007.0958)
 -->
<!-- Title: G Pages: 1 -->
<svg width="768pt" height="418pt"
 viewBox="0.00 0.00 768.00 418.00" xmlns="http://www.w3.org/2000/svg" xmlns:xlink="http://www.w3.org/1999/xlink">
<g id="graph1" class="graph" transform="scale(1 1) rotate(0) translate(4 414)">
<title>G</title>
<polygon fill="white" stroke="white" points="-4,5 -4,-414 765,-414 765,5 -4,5"/>
<!-- Node1 -->
<g id="node1" class="node"><title>Node1</title>
<polygon fill="#bfbfbf" stroke="black" points="0.104,-195 0.104,-215 123.896,-215 123.896,-195 0.104,-195"/>
<text text-anchor="middle" x="62" y="-202" font-family="Helvetica,sans-Serif" font-size="10.00">survey2almn_interactive</text>
</g>
<!-- Node2 -->
<g id="node3" class="node"><title>Node2</title>
<a xlink:href="namespacef3dex.html#a0e8960adb17a10a71b92df15ba3f63d8" target="_top" xlink:title="f3dex::almn2cln">
<polygon fill="white" stroke="black" points="203.992,-390 203.992,-410 290.009,-410 290.009,-390 203.992,-390"/>
<text text-anchor="middle" x="247" y="-397" font-family="Helvetica,sans-Serif" font-size="10.00">f3dex::almn2cln</text>
</a>
</g>
<!-- Node1&#45;&gt;Node2 -->
<g id="edge2" class="edge"><title>Node1&#45;&gt;Node2</title>
<path fill="none" stroke="midnightblue" d="M65.5151,-215.228C73.5379,-245.592 101.5,-335.843 160,-380 169.75,-387.359 181.762,-392.075 193.685,-395.08"/>
<polygon fill="midnightblue" stroke="midnightblue" points="193.114,-398.537 203.627,-397.222 194.588,-391.694 193.114,-398.537"/>
</g>
<!-- Node3 -->
<g id="node5" class="node"><title>Node3</title>
<a xlink:href="namespacef3dex.html#a11f3efc39a60c9d26a79c13bfe936ebc" target="_top" xlink:title="f3dex::almn2fits">
<polygon fill="white" stroke="black" points="203.992,-351 203.992,-371 290.008,-371 290.008,-351 203.992,-351"/>
<text text-anchor="middle" x="247" y="-358" font-family="Helvetica,sans-Serif" font-size="10.00">f3dex::almn2fits</text>
</a>
</g>
<!-- Node1&#45;&gt;Node3 -->
<g id="edge4" class="edge"><title>Node1&#45;&gt;Node3</title>
<path fill="none" stroke="midnightblue" d="M67.1329,-215.105C78.1135,-240.613 110.594,-307.929 160,-341 170.052,-347.728 182.077,-352.209 193.905,-355.188"/>
<polygon fill="midnightblue" stroke="midnightblue" points="193.227,-358.623 203.746,-357.354 194.732,-351.786 193.227,-358.623"/>
</g>
<!-- Node5 -->
<g id="node9" class="node"><title>Node5</title>
<a xlink:href="namespacef3dex.html#ae2e71647b18208d49ce5ebc6dcc3dbea" target="_top" xlink:title="f3dex::almn2rmap">
<polygon fill="white" stroke="black" points="198.993,-234 198.993,-254 295.007,-254 295.007,-234 198.993,-234"/>
<text text-anchor="middle" x="247" y="-241" font-family="Helvetica,sans-Serif" font-size="10.00">f3dex::almn2rmap</text>
</a>
</g>
<!-- Node1&#45;&gt;Node5 -->
<g id="edge8" class="edge"><title>Node1&#45;&gt;Node5</title>
<path fill="none" stroke="midnightblue" d="M110.127,-215.043C134.248,-220.184 163.797,-226.481 189.171,-231.889"/>
<polygon fill="midnightblue" stroke="midnightblue" points="188.523,-235.329 199.033,-233.991 189.982,-228.483 188.523,-235.329"/>
</g>
<!-- Node8 -->
<g id="node15" class="node"><title>Node8</title>
<a xlink:href="namespacef3dex.html#a9973d07e7dbafd1082de1d3b37088668" target="_top" xlink:title="f3dex::cln2fits">
<polygon fill="white" stroke="black" points="208.436,-312 208.436,-332 285.564,-332 285.564,-312 208.436,-312"/>
<text text-anchor="middle" x="247" y="-319" font-family="Helvetica,sans-Serif" font-size="10.00">f3dex::cln2fits</text>
</a>
</g>
<!-- Node1&#45;&gt;Node8 -->
<g id="edge14" class="edge"><title>Node1&#45;&gt;Node8</title>
<path fill="none" stroke="midnightblue" d="M69.9822,-215.057C84.3707,-234.974 119.4,-279.453 160,-302 171.632,-308.46 185.262,-312.838 198.199,-315.804"/>
<polygon fill="midnightblue" stroke="midnightblue" points="197.874,-319.31 208.373,-317.893 199.282,-312.453 197.874,-319.31"/>
</g>
<!-- Node9 -->
<g id="node18" class="node"><title>Node9</title>
<a xlink:href="namespacecosmotools.html#a0f920067de929a7b9ec895e881751483" target="_top" xlink:title="cosmotools::cosmo_z2s">
<polygon fill="white" stroke="black" points="185.657,-273 185.657,-293 308.343,-293 308.343,-273 185.657,-273"/>
<text text-anchor="middle" x="247" y="-280" font-family="Helvetica,sans-Serif" font-size="10.00">cosmotools::cosmo_z2s</text>
</a>
</g>
<!-- Node1&#45;&gt;Node9 -->
<g id="edge18" class="edge"><title>Node1&#45;&gt;Node9</title>
<path fill="none" stroke="midnightblue" d="M76.7366,-215.106C94.9073,-228.018 128.342,-250.219 160,-263 166.743,-265.722 173.94,-268.122 181.191,-270.226"/>
<polygon fill="midnightblue" stroke="midnightblue" points="180.507,-273.667 191.075,-272.914 182.344,-266.912 180.507,-273.667"/>
</g>
<!-- Node21 -->
<g id="node42" class="node"><title>Node21</title>
<a xlink:href="namespacef3dex.html#a2efa7687f0b6591321e5c86ea09aa1a7" target="_top" xlink:title="f3dex::extractFromFile">
<polygon fill="white" stroke="black" points="189.275,-195 189.275,-215 304.726,-215 304.726,-195 189.275,-195"/>
<text text-anchor="middle" x="247" y="-202" font-family="Helvetica,sans-Serif" font-size="10.00">f3dex::extractFromFile</text>
</a>
</g>
<!-- Node1&#45;&gt;Node21 -->
<g id="edge42" class="edge"><title>Node1&#45;&gt;Node21</title>
<path fill="none" stroke="midnightblue" d="M123.936,-205C141.575,-205 160.927,-205 178.919,-205"/>
<polygon fill="midnightblue" stroke="midnightblue" points="179.042,-208.5 189.042,-205 179.042,-201.5 179.042,-208.5"/>
</g>
<!-- Node23 -->
<g id="node46" class="node"><title>Node23</title>
<a xlink:href="namespacef3dex.html#adcf1cf51ac34f733e7a776a7df065524" target="_top" xlink:title="f3dex::gen_cln">
<polygon fill="white" stroke="black" points="392.486,-156 392.486,-176 473.514,-176 473.514,-156 392.486,-156"/>
<text text-anchor="middle" x="433" y="-163" font-family="Helvetica,sans-Serif" font-size="10.00">f3dex::gen_cln</text>
</a>
</g>
<!-- Node1&#45;&gt;Node23 -->
<g id="edge46" class="edge"><title>Node1&#45;&gt;Node23</title>
<path fill="none" stroke="midnightblue" d="M105.763,-194.899C122.582,-191.264 142.114,-187.457 160,-185 237.1,-174.407 327.352,-169.584 382.066,-167.488"/>
<polygon fill="midnightblue" stroke="midnightblue" points="382.324,-170.981 392.188,-167.116 382.067,-163.986 382.324,-170.981"/>
</g>
<!-- Node24 -->
<g id="node49" class="node"><title>Node24</title>
<a xlink:href="namespacef3dex.html#a7aceee3f16c8792cfe12b2d7a53d7acc" target="_top" xlink:title="f3dex::gen_kln">
<polygon fill="white" stroke="black" points="206.486,-117 206.486,-137 287.514,-137 287.514,-117 206.486,-117"/>
<text text-anchor="middle" x="247" y="-124" font-family="Helvetica,sans-Serif" font-size="10.00">f3dex::gen_kln</text>
</a>
</g>
<!-- Node1&#45;&gt;Node24 -->
<g id="edge50" class="edge"><title>Node1&#45;&gt;Node24</title>
<path fill="none" stroke="midnightblue" d="M78.9417,-194.878C97.7379,-183.282 130.2,-164.301 160,-152 171.565,-147.226 184.357,-142.983 196.461,-139.409"/>
<polygon fill="midnightblue" stroke="midnightblue" points="197.769,-142.676 206.426,-136.567 195.849,-135.944 197.769,-142.676"/>
</g>
<!-- Node26 -->
<g id="node53" class="node"><title>Node26</title>
<a xlink:href="namespacef3dex.html#ab59d82bd4e0bbb4ce1d8149ac252b8c4" target="_top" xlink:title="f3dex::getParameters_survey2almn">
<polygon fill="white" stroke="black" points="160.094,-78 160.094,-98 333.906,-98 333.906,-78 160.094,-78"/>
<text text-anchor="middle" x="247" y="-85" font-family="Helvetica,sans-Serif" font-size="10.00">f3dex::getParameters_survey2almn</text>
</a>
</g>
<!-- Node1&#45;&gt;Node26 -->
<g id="edge54" class="edge"><title>Node1&#45;&gt;Node26</title>
<path fill="none" stroke="midnightblue" d="M69.935,-194.799C84.2388,-174.604 119.123,-129.543 160,-107 163.69,-104.965 167.583,-103.148 171.592,-101.525"/>
<polygon fill="midnightblue" stroke="midnightblue" points="172.901,-104.773 181.115,-98.0812 170.521,-98.1905 172.901,-104.773"/>
</g>
<!-- Node28 -->
<g id="node57" class="node"><title>Node28</title>
<a xlink:href="namespacef3dex.html#a177ac0f41749e15dd33c7a4477d13a0e" target="_top" xlink:title="Performs the Fourier&#45;Bessel decomposition (backward algorithm) of a discrete survey.">
<polygon fill="white" stroke="black" points="186.213,-39 186.213,-59 307.787,-59 307.787,-39 186.213,-39"/>
<text text-anchor="middle" x="247" y="-46" font-family="Helvetica,sans-Serif" font-size="10.00">f3dex::survey2almn_srs</text>
</a>
</g>
<!-- Node1&#45;&gt;Node28 -->
<g id="edge58" class="edge"><title>Node1&#45;&gt;Node28</title>
<path fill="none" stroke="midnightblue" d="M67.0892,-194.789C77.9672,-169.017 110.227,-101.043 160,-68 164.978,-64.6951 170.44,-61.9565 176.123,-59.6882"/>
<polygon fill="midnightblue" stroke="midnightblue" points="177.557,-62.8949 185.848,-56.2981 175.253,-56.285 177.557,-62.8949"/>
</g>
<!-- Node30 -->
<g id="node62" class="node"><title>Node30</title>
<a xlink:href="namespacef3dex.html#ac014e878f644407cfc3eb1af25137d44" target="_top" xlink:title="f3dex::wtime">
<polygon fill="white" stroke="black" points="210.94,-0 210.94,-20 283.06,-20 283.06,-0 210.94,-0"/>
<text text-anchor="middle" x="247" y="-7" font-family="Helvetica,sans-Serif" font-size="10.00">f3dex::wtime</text>
</a>
</g>
<!-- Node1&#45;&gt;Node30 -->
<g id="edge64" class="edge"><title>Node1&#45;&gt;Node30</title>
<path fill="none" stroke="midnightblue" d="M65.4737,-194.685C73.3807,-164.066 101.053,-73.0962 160,-29 171.626,-20.3031 186.459,-15.4438 200.52,-12.7718"/>
<polygon fill="midnightblue" stroke="midnightblue" points="201.233,-16.2028 210.566,-11.1891 200.143,-9.28813 201.233,-16.2028"/>
</g>
<!-- Node4 -->
<g id="node7" class="node"><title>Node4</title>
<a xlink:href="namespacef3dex.html#a1c162e19667698db3dad6391a9bcd797" target="_top" xlink:title="f3dex::f90ftpcld">
<polygon fill="white" stroke="black" points="391.097,-331 391.097,-351 474.903,-351 474.903,-331 391.097,-331"/>
<text text-anchor="middle" x="433" y="-338" font-family="Helvetica,sans-Serif" font-size="10.00">f3dex::f90ftpcld</text>
</a>
</g>
<!-- Node3&#45;&gt;Node4 -->
<g id="edge6" class="edge"><title>Node3&#45;&gt;Node4</title>
<path fill="none" stroke="midnightblue" d="M290.213,-356.412C317.144,-353.484 352.221,-349.672 380.747,-346.571"/>
<polygon fill="midnightblue" stroke="midnightblue" points="381.37,-350.024 390.933,-345.464 380.613,-343.065 381.37,-350.024"/>
</g>
<!-- Node6 -->
<g id="node11" class="node"><title>Node6</title>
<a xlink:href="namespacef3dex.html#ad15a4c29088690f9ee5b97799abfc4a5" target="_top" xlink:title="f3dex::gen_jln">
<polygon fill="white" stroke="black" points="393.877,-234 393.877,-254 472.123,-254 472.123,-234 393.877,-234"/>
<text text-anchor="middle" x="433" y="-241" font-family="Helvetica,sans-Serif" font-size="10.00">f3dex::gen_jln</text>
</a>
</g>
<!-- Node5&#45;&gt;Node6 -->
<g id="edge10" class="edge"><title>Node5&#45;&gt;Node6</title>
<path fill="none" stroke="midnightblue" d="M295.385,-244C322.483,-244 356.394,-244 383.651,-244"/>
<polygon fill="midnightblue" stroke="midnightblue" points="383.744,-247.5 393.744,-244 383.744,-240.5 383.744,-247.5"/>
</g>
<!-- Node7 -->
<g id="node13" class="node"><title>Node7</title>
<a xlink:href="namespacef3dex.html#ae7f16ddea56702ffd83912c6def516d4" target="_top" xlink:title="Compute the value of the l&#45;th order spherical bessel function at x.">
<polygon fill="white" stroke="black" points="540.379,-156 540.379,-176 603.621,-176 603.621,-156 540.379,-156"/>
<text text-anchor="middle" x="572" y="-163" font-family="Helvetica,sans-Serif" font-size="10.00">f3dex::BJL</text>
</a>
</g>
<!-- Node6&#45;&gt;Node7 -->
<g id="edge12" class="edge"><title>Node6&#45;&gt;Node7</title>
<path fill="none" stroke="midnightblue" d="M472.227,-233.965C480.292,-231.221 488.596,-227.903 496,-224 516.936,-212.963 538.013,-196.028 552.469,-183.302"/>
<polygon fill="midnightblue" stroke="midnightblue" points="555.075,-185.664 560.164,-176.371 550.391,-180.463 555.075,-185.664"/>
</g>
<!-- Node8&#45;&gt;Node4 -->
<g id="edge16" class="edge"><title>Node8&#45;&gt;Node4</title>
<path fill="none" stroke="midnightblue" d="M285.679,-325.891C313.048,-328.717 350.409,-332.575 380.528,-335.685"/>
<polygon fill="midnightblue" stroke="midnightblue" points="380.544,-339.205 390.851,-336.751 381.263,-332.242 380.544,-339.205"/>
</g>
<!-- Node10 -->
<g id="node20" class="node"><title>Node10</title>
<a xlink:href="namespacecosmotools.html#ab39be67e673296c9e6586952f5e6c181" target="_top" xlink:title="cosmotools::chi_z">
<polygon fill="white" stroke="black" points="385.271,-273 385.271,-293 480.729,-293 480.729,-273 385.271,-273"/>
<text text-anchor="middle" x="433" y="-280" font-family="Helvetica,sans-Serif" font-size="10.00">cosmotools::chi_z</text>
</a>
</g>
<!-- Node9&#45;&gt;Node10 -->
<g id="edge20" class="edge"><title>Node9&#45;&gt;Node10</title>
<path fill="none" stroke="midnightblue" d="M308.503,-283C329.927,-283 353.942,-283 375.059,-283"/>
<polygon fill="midnightblue" stroke="midnightblue" points="375.168,-286.5 385.168,-283 375.168,-279.5 375.168,-286.5"/>
</g>
<!-- Node11 -->
<g id="node22" class="node"><title>Node11</title>
<a xlink:href="namespacecosmotools.html#a681aca576953f69092d54f5474c18c2b" target="_top" xlink:title="cosmotools::fz">
<polygon fill="white" stroke="black" points="532.05,-292 532.05,-312 611.95,-312 611.95,-292 532.05,-292"/>
<text text-anchor="middle" x="572" y="-299" font-family="Helvetica,sans-Serif" font-size="10.00">cosmotools::fz</text>
</a>
</g>
<!-- Node10&#45;&gt;Node11 -->
<g id="edge22" class="edge"><title>Node10&#45;&gt;Node11</title>
<path fill="none" stroke="midnightblue" d="M480.764,-289.486C493.983,-291.319 508.407,-293.319 521.766,-295.172"/>
<polygon fill="midnightblue" stroke="midnightblue" points="521.351,-298.648 531.737,-296.555 522.313,-291.714 521.351,-298.648"/>
</g>
<!-- Node12 -->
<g id="node24" class="node"><title>Node12</title>
<a xlink:href="quadpack_8f90.html#a44906a25a31588f7e4f41f0e5253193a" target="_top" xlink:title="qag">
<polygon fill="white" stroke="black" points="555.662,-253 555.662,-273 588.338,-273 588.338,-253 555.662,-253"/>
<text text-anchor="middle" x="572" y="-260" font-family="Helvetica,sans-Serif" font-size="10.00">qag</text>
</a>
</g>
<!-- Node10&#45;&gt;Node12 -->
<g id="edge24" class="edge"><title>Node10&#45;&gt;Node12</title>
<path fill="none" stroke="midnightblue" d="M480.764,-276.173C502.435,-273.01 527.343,-269.373 545.492,-266.724"/>
<polygon fill="midnightblue" stroke="midnightblue" points="546.186,-270.16 555.576,-265.252 545.175,-263.233 546.186,-270.16"/>
</g>
<!-- Node13 -->
<g id="node26" class="node"><title>Node13</title>
<a xlink:href="quadpack_8f90.html#ab602437c218a2c74d6a13f9462f98854" target="_top" xlink:title="qage">
<polygon fill="white" stroke="black" points="647.882,-253 647.882,-273 686.118,-273 686.118,-253 647.882,-253"/>
<text text-anchor="middle" x="667" y="-260" font-family="Helvetica,sans-Serif" font-size="10.00">qage</text>
</a>
</g>
<!-- Node12&#45;&gt;Node13 -->
<g id="edge26" class="edge"><title>Node12&#45;&gt;Node13</title>
<path fill="none" stroke="midnightblue" d="M588.357,-263C601.73,-263 621.464,-263 637.69,-263"/>
<polygon fill="midnightblue" stroke="midnightblue" points="637.744,-266.5 647.744,-263 637.744,-259.5 637.744,-266.5"/>
</g>
<!-- Node14 -->
<g id="node28" class="node"><title>Node14</title>
<a xlink:href="quadpack_8f90.html#a1722ad5ba07cec52d38c9ebf9df80a2d" target="_top" xlink:title="qk15">
<polygon fill="white" stroke="black" points="722.162,-370 722.162,-390 759.838,-390 759.838,-370 722.162,-370"/>
<text text-anchor="middle" x="741" y="-377" font-family="Helvetica,sans-Serif" font-size="10.00">qk15</text>
</a>
</g>
<!-- Node13&#45;&gt;Node14 -->
<g id="edge28" class="edge"><title>Node13&#45;&gt;Node14</title>
<path fill="none" stroke="midnightblue" d="M672.672,-273.076C681.277,-291.205 700.71,-330.204 722,-360 722.448,-360.627 722.913,-361.257 723.391,-361.885"/>
<polygon fill="midnightblue" stroke="midnightblue" points="720.903,-364.366 730.006,-369.787 726.271,-359.872 720.903,-364.366"/>
</g>
<!-- Node15 -->
<g id="node30" class="node"><title>Node15</title>
<a xlink:href="quadpack_8f90.html#a27241a527b249e9de59a5ed6bee5f805" target="_top" xlink:title="qk21">
<polygon fill="white" stroke="black" points="722.162,-331 722.162,-351 759.838,-351 759.838,-331 722.162,-331"/>
<text text-anchor="middle" x="741" y="-338" font-family="Helvetica,sans-Serif" font-size="10.00">qk21</text>
</a>
</g>
<!-- Node13&#45;&gt;Node15 -->
<g id="edge30" class="edge"><title>Node13&#45;&gt;Node15</title>
<path fill="none" stroke="midnightblue" d="M677.413,-273.197C689.098,-285.857 709.228,-307.664 723.501,-323.126"/>
<polygon fill="midnightblue" stroke="midnightblue" points="721,-325.577 730.355,-330.551 726.144,-320.829 721,-325.577"/>
</g>
<!-- Node16 -->
<g id="node32" class="node"><title>Node16</title>
<a xlink:href="quadpack_8f90.html#aded2e8dd2218fbd159b78c0e8975a4cd" target="_top" xlink:title="qk31">
<polygon fill="white" stroke="black" points="722.162,-292 722.162,-312 759.838,-312 759.838,-292 722.162,-292"/>
<text text-anchor="middle" x="741" y="-299" font-family="Helvetica,sans-Serif" font-size="10.00">qk31</text>
</a>
</g>
<!-- Node13&#45;&gt;Node16 -->
<g id="edge32" class="edge"><title>Node13&#45;&gt;Node16</title>
<path fill="none" stroke="midnightblue" d="M686.169,-272.841C694.331,-277.263 704.13,-282.57 713.117,-287.439"/>
<polygon fill="midnightblue" stroke="midnightblue" points="711.627,-290.612 722.087,-292.297 714.961,-284.456 711.627,-290.612"/>
</g>
<!-- Node17 -->
<g id="node34" class="node"><title>Node17</title>
<a xlink:href="quadpack_8f90.html#aface4edf24710a0b323f5aaeb6bdec34" target="_top" xlink:title="qk41">
<polygon fill="white" stroke="black" points="722.162,-253 722.162,-273 759.838,-273 759.838,-253 722.162,-253"/>
<text text-anchor="middle" x="741" y="-260" font-family="Helvetica,sans-Serif" font-size="10.00">qk41</text>
</a>
</g>
<!-- Node13&#45;&gt;Node17 -->
<g id="edge34" class="edge"><title>Node13&#45;&gt;Node17</title>
<path fill="none" stroke="midnightblue" d="M686.169,-263C693.988,-263 703.308,-263 711.978,-263"/>
<polygon fill="midnightblue" stroke="midnightblue" points="712.087,-266.5 722.087,-263 712.087,-259.5 712.087,-266.5"/>
</g>
<!-- Node18 -->
<g id="node36" class="node"><title>Node18</title>
<a xlink:href="quadpack_8f90.html#a73edb4987a87a40ebf4731ab63d7f03e" target="_top" xlink:title="qk51">
<polygon fill="white" stroke="black" points="722.162,-214 722.162,-234 759.838,-234 759.838,-214 722.162,-214"/>
<text text-anchor="middle" x="741" y="-221" font-family="Helvetica,sans-Serif" font-size="10.00">qk51</text>
</a>
</g>
<!-- Node13&#45;&gt;Node18 -->
<g id="edge36" class="edge"><title>Node13&#45;&gt;Node18</title>
<path fill="none" stroke="midnightblue" d="M686.169,-253.159C694.331,-248.737 704.13,-243.43 713.117,-238.561"/>
<polygon fill="midnightblue" stroke="midnightblue" points="714.961,-241.544 722.087,-233.703 711.627,-235.388 714.961,-241.544"/>
</g>
<!-- Node19 -->
<g id="node38" class="node"><title>Node19</title>
<a xlink:href="quadpack_8f90.html#acb4a48f5e54a2c5f951d0828e8f8146d" target="_top" xlink:title="qk61">
<polygon fill="white" stroke="black" points="722.162,-175 722.162,-195 759.838,-195 759.838,-175 722.162,-175"/>
<text text-anchor="middle" x="741" y="-182" font-family="Helvetica,sans-Serif" font-size="10.00">qk61</text>
</a>
</g>
<!-- Node13&#45;&gt;Node19 -->
<g id="edge38" class="edge"><title>Node13&#45;&gt;Node19</title>
<path fill="none" stroke="midnightblue" d="M677.12,-252.93C687.815,-241.146 706.103,-221.072 722,-204 722.511,-203.451 723.031,-202.894 723.556,-202.333"/>
<polygon fill="midnightblue" stroke="midnightblue" points="726.129,-204.706 730.439,-195.027 721.034,-199.906 726.129,-204.706"/>
</g>
<!-- Node20 -->
<g id="node40" class="node"><title>Node20</title>
<a xlink:href="quadpack_8f90.html#a55e08a684c5a6315fb37dd0fdc66d8e6" target="_top" xlink:title="qsort">
<polygon fill="white" stroke="black" points="721.887,-136 721.887,-156 760.113,-156 760.113,-136 721.887,-136"/>
<text text-anchor="middle" x="741" y="-143" font-family="Helvetica,sans-Serif" font-size="10.00">qsort</text>
</a>
</g>
<!-- Node13&#45;&gt;Node20 -->
<g id="edge40" class="edge"><title>Node13&#45;&gt;Node20</title>
<path fill="none" stroke="midnightblue" d="M672.575,-252.76C681.027,-234.349 700.225,-194.802 722,-165 722.281,-164.615 722.57,-164.229 722.865,-163.844"/>
<polygon fill="midnightblue" stroke="midnightblue" points="725.719,-165.894 729.592,-156.032 720.414,-161.326 725.719,-165.894"/>
</g>
<!-- Node22 -->
<g id="node44" class="node"><title>Node22</title>
<a xlink:href="namespacef3dex.html#ac32aa4a30199fa62b6212bea55f59ff5" target="_top" xlink:title="f3dex::BSORT">
<polygon fill="white" stroke="black" points="392.771,-195 392.771,-215 473.229,-215 473.229,-195 392.771,-195"/>
<text text-anchor="middle" x="433" y="-202" font-family="Helvetica,sans-Serif" font-size="10.00">f3dex::BSORT</text>
</a>
</g>
<!-- Node21&#45;&gt;Node22 -->
<g id="edge44" class="edge"><title>Node21&#45;&gt;Node22</title>
<path fill="none" stroke="midnightblue" d="M304.959,-205C329.69,-205 358.394,-205 382.254,-205"/>
<polygon fill="midnightblue" stroke="midnightblue" points="382.5,-208.5 392.5,-205 382.5,-201.5 382.5,-208.5"/>
</g>
<!-- Node23&#45;&gt;Node7 -->
<g id="edge48" class="edge"><title>Node23&#45;&gt;Node7</title>
<path fill="none" stroke="midnightblue" d="M473.626,-166C491.33,-166 512.184,-166 530.042,-166"/>
<polygon fill="midnightblue" stroke="midnightblue" points="530.164,-169.5 540.164,-166 530.164,-162.5 530.164,-169.5"/>
</g>
<!-- Node25 -->
<g id="node51" class="node"><title>Node25</title>
<a xlink:href="namespacef3dex.html#ac7199c2a98971bf758240066422f4a5e" target="_top" xlink:title="f3dex::gen_qln">
<polygon fill="white" stroke="black" points="392.207,-117 392.207,-137 473.793,-137 473.793,-117 392.207,-117"/>
<text text-anchor="middle" x="433" y="-124" font-family="Helvetica,sans-Serif" font-size="10.00">f3dex::gen_qln</text>
</a>
</g>
<!-- Node24&#45;&gt;Node25 -->
<g id="edge52" class="edge"><title>Node24&#45;&gt;Node25</title>
<path fill="none" stroke="midnightblue" d="M287.925,-127C315.533,-127 352.47,-127 382.031,-127"/>
<polygon fill="midnightblue" stroke="midnightblue" points="382.153,-130.5 392.153,-127 382.153,-123.5 382.153,-130.5"/>
</g>
<!-- Node27 -->
<g id="node55" class="node"><title>Node27</title>
<a xlink:href="namespacef3dex.html#a4e944841262cc3bac00e25f2d188804d" target="_top" xlink:title="f3dex::txtfile2parameters">
<polygon fill="white" stroke="black" points="370.266,-78 370.266,-98 495.734,-98 495.734,-78 370.266,-78"/>
<text text-anchor="middle" x="433" y="-85" font-family="Helvetica,sans-Serif" font-size="10.00">f3dex::txtfile2parameters</text>
</a>
</g>
<!-- Node26&#45;&gt;Node27 -->
<g id="edge56" class="edge"><title>Node26&#45;&gt;Node27</title>
<path fill="none" stroke="midnightblue" d="M334.074,-88C342.718,-88 351.433,-88 359.91,-88"/>
<polygon fill="midnightblue" stroke="midnightblue" points="360.113,-91.5001 370.113,-88 360.113,-84.5001 360.113,-91.5001"/>
</g>
<!-- Node28&#45;&gt;Node7 -->
<g id="edge62" class="edge"><title>Node28&#45;&gt;Node7</title>
<path fill="none" stroke="midnightblue" d="M307.93,-40.4537C360.684,-35.8644 437.926,-36.4984 496,-68 528.317,-85.5302 551.009,-123.594 562.458,-146.786"/>
<polygon fill="midnightblue" stroke="midnightblue" points="559.367,-148.437 566.797,-155.99 565.699,-145.452 559.367,-148.437"/>
</g>
<!-- Node29 -->
<g id="node59" class="node"><title>Node29</title>
<a xlink:href="namespacef3dex.html#ae28575da877299326cf5d412b7bda063" target="_top" xlink:title="f3dex::alnspring2almn">
<polygon fill="white" stroke="black" points="376.099,-0 376.099,-20 489.901,-20 489.901,-0 376.099,-0"/>
<text text-anchor="middle" x="433" y="-7" font-family="Helvetica,sans-Serif" font-size="10.00">f3dex::alnspring2almn</text>
</a>
</g>
<!-- Node28&#45;&gt;Node29 -->
<g id="edge60" class="edge"><title>Node28&#45;&gt;Node29</title>
<path fill="none" stroke="midnightblue" d="M295.385,-38.9565C319.637,-33.816 349.348,-27.5187 374.86,-22.1111"/>
<polygon fill="midnightblue" stroke="midnightblue" points="375.719,-25.5069 384.776,-20.0094 374.268,-18.6591 375.719,-25.5069"/>
</g>
</g>
</svg>
