<?xml version="1.0" encoding="UTF-8" standalone="no"?>
<!DOCTYPE svg PUBLIC "-//W3C//DTD SVG 1.1//EN"
 "http://www.w3.org/Graphics/SVG/1.1/DTD/svg11.dtd">
<!-- Generated by graphviz version 2.28.0 (20111007.0958)
 -->
<!-- Title: G Pages: 1 -->
<svg width="480pt" height="262pt"
 viewBox="0.00 0.00 480.00 262.00" xmlns="http://www.w3.org/2000/svg" xmlns:xlink="http://www.w3.org/1999/xlink">
<g id="graph1" class="graph" transform="scale(1 1) rotate(0) translate(4 258)">
<title>G</title>
<polygon fill="white" stroke="white" points="-4,5 -4,-258 477,-258 477,5 -4,5"/>
<!-- Node1 -->
<g id="node1" class="node"><title>Node1</title>
<polygon fill="#bfbfbf" stroke="black" points="0.6105,-117 0.6105,-137 89.3895,-137 89.3895,-117 0.6105,-117"/>
<text text-anchor="middle" x="45" y="-124" font-family="Helvetica,sans-Serif" font-size="10.00">survey2almn_lm</text>
</g>
<!-- Node2 -->
<g id="node3" class="node"><title>Node2</title>
<a xlink:href="namespacef3dex__stats.html#af82543b20c426be1736a4fed0d1ca80c" target="_top" xlink:title="f3dex_stats::almn2cln_naive">
<polygon fill="white" stroke="black" points="142.926,-234 142.926,-254 285.074,-254 285.074,-234 142.926,-234"/>
<text text-anchor="middle" x="214" y="-241" font-family="Helvetica,sans-Serif" font-size="10.00">f3dex_stats::almn2cln_naive</text>
</a>
</g>
<!-- Node1&#45;&gt;Node2 -->
<g id="edge2" class="edge"><title>Node1&#45;&gt;Node2</title>
<path fill="none" stroke="midnightblue" d="M51.2944,-137.086C62.3267,-157.055 89.7906,-201.622 126,-224 129.811,-226.355 133.87,-228.433 138.074,-230.267"/>
<polygon fill="midnightblue" stroke="midnightblue" points="136.876,-233.557 147.465,-233.904 139.404,-227.029 136.876,-233.557"/>
</g>
<!-- Node3 -->
<g id="node5" class="node"><title>Node3</title>
<a xlink:href="namespacef3dex__fitstools.html#a3bb8fd149a1c137d3176d484e28bbef0" target="_top" xlink:title="f3dex_fitstools::almn2fits">
<polygon fill="white" stroke="black" points="151.266,-195 151.266,-215 276.734,-215 276.734,-195 151.266,-195"/>
<text text-anchor="middle" x="214" y="-202" font-family="Helvetica,sans-Serif" font-size="10.00">f3dex_fitstools::almn2fits</text>
</a>
</g>
<!-- Node1&#45;&gt;Node3 -->
<g id="edge4" class="edge"><title>Node1&#45;&gt;Node3</title>
<path fill="none" stroke="midnightblue" d="M56.7505,-137.014C71.321,-150.035 98.6697,-172.577 126,-185 131.833,-187.651 138.051,-189.968 144.378,-191.989"/>
<polygon fill="midnightblue" stroke="midnightblue" points="143.788,-195.464 154.37,-194.927 145.763,-188.748 143.788,-195.464"/>
</g>
<!-- Node5 -->
<g id="node9" class="node"><title>Node5</title>
<a xlink:href="namespacef3dex__fitstools.html#aab1f14e65c2837494cb15ff4fd54b372" target="_top" xlink:title="f3dex_fitstools::cln2fits">
<polygon fill="white" stroke="black" points="155.71,-156 155.71,-176 272.29,-176 272.29,-156 155.71,-156"/>
<text text-anchor="middle" x="214" y="-163" font-family="Helvetica,sans-Serif" font-size="10.00">f3dex_fitstools::cln2fits</text>
</a>
</g>
<!-- Node1&#45;&gt;Node5 -->
<g id="edge8" class="edge"><title>Node1&#45;&gt;Node5</title>
<path fill="none" stroke="midnightblue" d="M87.9212,-137.016C100.19,-139.932 113.628,-143.109 126,-146 136.746,-148.511 148.244,-151.173 159.245,-153.707"/>
<polygon fill="midnightblue" stroke="midnightblue" points="158.643,-157.159 169.173,-155.99 160.212,-150.337 158.643,-157.159"/>
</g>
<!-- Node6 -->
<g id="node12" class="node"><title>Node6</title>
<a xlink:href="namespacef3dex__transforms.html#aa6cd797c56b97503bf2d52131f6e5554" target="_top" xlink:title="f3dex_transforms::gen_cln">
<polygon fill="white" stroke="black" points="147.096,-117 147.096,-137 280.904,-137 280.904,-117 147.096,-117"/>
<text text-anchor="middle" x="214" y="-124" font-family="Helvetica,sans-Serif" font-size="10.00">f3dex_transforms::gen_cln</text>
</a>
</g>
<!-- Node1&#45;&gt;Node6 -->
<g id="edge12" class="edge"><title>Node1&#45;&gt;Node6</title>
<path fill="none" stroke="midnightblue" d="M89.4413,-127C103.927,-127 120.521,-127 136.747,-127"/>
<polygon fill="midnightblue" stroke="midnightblue" points="136.781,-130.5 146.781,-127 136.781,-123.5 136.781,-130.5"/>
</g>
<!-- Node8 -->
<g id="node16" class="node"><title>Node8</title>
<a xlink:href="namespacef3dex__transforms.html#a4b80bc7cad52998fd0aff935a1695ee7" target="_top" xlink:title="f3dex_transforms::gen_kln">
<polygon fill="white" stroke="black" points="147.096,-39 147.096,-59 280.904,-59 280.904,-39 147.096,-39"/>
<text text-anchor="middle" x="214" y="-46" font-family="Helvetica,sans-Serif" font-size="10.00">f3dex_transforms::gen_kln</text>
</a>
</g>
<!-- Node1&#45;&gt;Node8 -->
<g id="edge16" class="edge"><title>Node1&#45;&gt;Node8</title>
<path fill="none" stroke="midnightblue" d="M56.7505,-116.986C71.321,-103.965 98.6697,-81.4231 126,-69 131.833,-66.3485 138.051,-64.0318 144.378,-62.0109"/>
<polygon fill="midnightblue" stroke="midnightblue" points="145.763,-65.2519 154.37,-59.0731 143.788,-58.5362 145.763,-65.2519"/>
</g>
<!-- Node10 -->
<g id="node20" class="node"><title>Node10</title>
<a xlink:href="namespacef3dex__transforms.html#aa03041ae9480a0e4abc522b846a40cc8" target="_top" xlink:title="f3dex_transforms::survey2almn_opt">
<polygon fill="white" stroke="black" points="126.538,-78 126.538,-98 301.462,-98 301.462,-78 126.538,-78"/>
<text text-anchor="middle" x="214" y="-85" font-family="Helvetica,sans-Serif" font-size="10.00">f3dex_transforms::survey2almn_opt</text>
</a>
</g>
<!-- Node1&#45;&gt;Node10 -->
<g id="edge20" class="edge"><title>Node1&#45;&gt;Node10</title>
<path fill="none" stroke="midnightblue" d="M87.9212,-116.984C100.19,-114.068 113.628,-110.891 126,-108 136.746,-105.489 148.244,-102.827 159.245,-100.293"/>
<polygon fill="midnightblue" stroke="midnightblue" points="160.212,-103.663 169.173,-98.0103 158.643,-96.8408 160.212,-103.663"/>
</g>
<!-- Node11 -->
<g id="node23" class="node"><title>Node11</title>
<a xlink:href="namespacef3dex__utils.html#ac5aa172010ec6cd9bd4c5273904b0405" target="_top" xlink:title="f3dex_utils::wtime">
<polygon fill="white" stroke="black" points="166.273,-0 166.273,-20 261.727,-20 261.727,-0 166.273,-0"/>
<text text-anchor="middle" x="214" y="-7" font-family="Helvetica,sans-Serif" font-size="10.00">f3dex_utils::wtime</text>
</a>
</g>
<!-- Node1&#45;&gt;Node11 -->
<g id="edge24" class="edge"><title>Node1&#45;&gt;Node11</title>
<path fill="none" stroke="midnightblue" d="M51.2944,-116.914C62.3267,-96.9452 89.7906,-52.3776 126,-30 135.092,-24.3813 145.598,-20.3385 156.098,-17.4302"/>
<polygon fill="midnightblue" stroke="midnightblue" points="157.236,-20.7548 166.116,-14.975 155.57,-13.956 157.236,-20.7548"/>
</g>
<!-- Node4 -->
<g id="node7" class="node"><title>Node4</title>
<a xlink:href="namespacef3dex__fitstools.html#a83e1158f828e86e43f1dc68bc0e7c59b" target="_top" xlink:title="f3dex_fitstools::f90ftpcld">
<polygon fill="white" stroke="black" points="343.371,-175 343.371,-195 466.629,-195 466.629,-175 343.371,-175"/>
<text text-anchor="middle" x="405" y="-182" font-family="Helvetica,sans-Serif" font-size="10.00">f3dex_fitstools::f90ftpcld</text>
</a>
</g>
<!-- Node3&#45;&gt;Node4 -->
<g id="edge6" class="edge"><title>Node3&#45;&gt;Node4</title>
<path fill="none" stroke="midnightblue" d="M276.886,-198.451C294.871,-196.548 314.653,-194.455 333.144,-192.498"/>
<polygon fill="midnightblue" stroke="midnightblue" points="333.689,-195.96 343.265,-191.427 332.952,-188.999 333.689,-195.96"/>
</g>
<!-- Node5&#45;&gt;Node4 -->
<g id="edge10" class="edge"><title>Node5&#45;&gt;Node4</title>
<path fill="none" stroke="midnightblue" d="M272.476,-171.778C291.615,-173.702 313.16,-175.868 333.188,-177.881"/>
<polygon fill="midnightblue" stroke="midnightblue" points="332.89,-181.369 343.19,-178.887 333.591,-174.404 332.89,-181.369"/>
</g>
<!-- Node7 -->
<g id="node14" class="node"><title>Node7</title>
<a xlink:href="namespacef3dex__transforms.html#a9b68481c890d75c3e3f4cbd4a7109830" target="_top" xlink:title="Compute the value of the l&#45;th order spherical bessel FUNCTION at x.">
<polygon fill="white" stroke="black" points="346.988,-97 346.988,-117 463.012,-117 463.012,-97 346.988,-97"/>
<text text-anchor="middle" x="405" y="-104" font-family="Helvetica,sans-Serif" font-size="10.00">f3dex_transforms::BJL</text>
</a>
</g>
<!-- Node6&#45;&gt;Node7 -->
<g id="edge14" class="edge"><title>Node6&#45;&gt;Node7</title>
<path fill="none" stroke="midnightblue" d="M281.103,-120.005C299.073,-118.103 318.552,-116.042 336.593,-114.133"/>
<polygon fill="midnightblue" stroke="midnightblue" points="337.161,-117.593 346.737,-113.06 336.424,-110.631 337.161,-117.593"/>
</g>
<!-- Node9 -->
<g id="node18" class="node"><title>Node9</title>
<a xlink:href="namespacef3dex__transforms.html#a02b926f933d186f2c9d9ab6d478a1601" target="_top" xlink:title="f3dex_transforms::gen_qln">
<polygon fill="white" stroke="black" points="337.816,-39 337.816,-59 472.184,-59 472.184,-39 337.816,-39"/>
<text text-anchor="middle" x="405" y="-46" font-family="Helvetica,sans-Serif" font-size="10.00">f3dex_transforms::gen_qln</text>
</a>
</g>
<!-- Node8&#45;&gt;Node9 -->
<g id="edge18" class="edge"><title>Node8&#45;&gt;Node9</title>
<path fill="none" stroke="midnightblue" d="M281.103,-49C296.122,-49 312.197,-49 327.604,-49"/>
<polygon fill="midnightblue" stroke="midnightblue" points="327.615,-52.5001 337.615,-49 327.615,-45.5001 327.615,-52.5001"/>
</g>
<!-- Node10&#45;&gt;Node7 -->
<g id="edge22" class="edge"><title>Node10&#45;&gt;Node7</title>
<path fill="none" stroke="midnightblue" d="M301.48,-96.6937C313.238,-97.8758 325.163,-99.0746 336.519,-100.216"/>
<polygon fill="midnightblue" stroke="midnightblue" points="336.468,-103.729 346.768,-101.247 337.168,-96.7637 336.468,-103.729"/>
</g>
</g>
</svg>
