<?xml version="1.0" encoding="UTF-8" standalone="no"?>
<!DOCTYPE svg PUBLIC "-//W3C//DTD SVG 1.1//EN"
 "http://www.w3.org/Graphics/SVG/1.1/DTD/svg11.dtd">
<!-- Generated by graphviz version 2.28.0 (20111007.0958)
 -->
<!-- Title: G Pages: 1 -->
<svg width="390pt" height="301pt"
 viewBox="0.00 0.00 390.00 301.00" xmlns="http://www.w3.org/2000/svg" xmlns:xlink="http://www.w3.org/1999/xlink">
<g id="graph1" class="graph" transform="scale(1 1) rotate(0) translate(4 297)">
<title>G</title>
<polygon fill="white" stroke="white" points="-4,5 -4,-297 387,-297 387,5 -4,5"/>
<!-- Node1 -->
<g id="node1" class="node"><title>Node1</title>
<polygon fill="#bfbfbf" stroke="black" points="0.664,-136 0.664,-156 73.336,-156 73.336,-136 0.664,-136"/>
<text text-anchor="middle" x="37" y="-143" font-family="Helvetica,sans-Serif" font-size="10.00">survey2almn</text>
</g>
<!-- Node2 -->
<g id="node3" class="node"><title>Node2</title>
<a xlink:href="namespacef3dex.html#a0e8960adb17a10a71b92df15ba3f63d8" target="_top" xlink:title="f3dex::almn2cln">
<polygon fill="white" stroke="black" points="127.992,-273 127.992,-293 214.008,-293 214.008,-273 127.992,-273"/>
<text text-anchor="middle" x="171" y="-280" font-family="Helvetica,sans-Serif" font-size="10.00">f3dex::almn2cln</text>
</a>
</g>
<!-- Node1&#45;&gt;Node2 -->
<g id="edge2" class="edge"><title>Node1&#45;&gt;Node2</title>
<path fill="none" stroke="midnightblue" d="M41.4631,-156.092C49.7027,-178.622 72.6241,-233.362 110,-263 112.624,-265.081 115.474,-266.95 118.46,-268.628"/>
<polygon fill="midnightblue" stroke="midnightblue" points="117.205,-271.908 127.732,-273.109 120.252,-265.606 117.205,-271.908"/>
</g>
<!-- Node3 -->
<g id="node5" class="node"><title>Node3</title>
<a xlink:href="namespacef3dex.html#a11f3efc39a60c9d26a79c13bfe936ebc" target="_top" xlink:title="f3dex::almn2fits">
<polygon fill="white" stroke="black" points="127.992,-234 127.992,-254 214.008,-254 214.008,-234 127.992,-234"/>
<text text-anchor="middle" x="171" y="-241" font-family="Helvetica,sans-Serif" font-size="10.00">f3dex::almn2fits</text>
</a>
</g>
<!-- Node1&#45;&gt;Node3 -->
<g id="edge4" class="edge"><title>Node1&#45;&gt;Node3</title>
<path fill="none" stroke="midnightblue" d="M44.7476,-156.134C56.2458,-172.652 81.2075,-205.4 110,-224 113.379,-226.183 117.021,-228.151 120.779,-229.921"/>
<polygon fill="midnightblue" stroke="midnightblue" points="119.708,-233.267 130.283,-233.92 122.423,-226.815 119.708,-233.267"/>
</g>
<!-- Node5 -->
<g id="node9" class="node"><title>Node5</title>
<a xlink:href="namespacef3dex.html#a9973d07e7dbafd1082de1d3b37088668" target="_top" xlink:title="f3dex::cln2fits">
<polygon fill="white" stroke="black" points="132.436,-195 132.436,-215 209.564,-215 209.564,-195 132.436,-195"/>
<text text-anchor="middle" x="171" y="-202" font-family="Helvetica,sans-Serif" font-size="10.00">f3dex::cln2fits</text>
</a>
</g>
<!-- Node1&#45;&gt;Node5 -->
<g id="edge8" class="edge"><title>Node1&#45;&gt;Node5</title>
<path fill="none" stroke="midnightblue" d="M54.7473,-156.159C69.079,-164.586 90.4356,-176.518 110,-185 115.357,-187.322 121.076,-189.543 126.778,-191.603"/>
<polygon fill="midnightblue" stroke="midnightblue" points="125.692,-194.932 136.287,-194.91 127.991,-188.32 125.692,-194.932"/>
</g>
<!-- Node6 -->
<g id="node12" class="node"><title>Node6</title>
<a xlink:href="namespacef3dex.html#adcf1cf51ac34f733e7a776a7df065524" target="_top" xlink:title="f3dex::gen_cln">
<polygon fill="white" stroke="black" points="130.486,-117 130.486,-137 211.514,-137 211.514,-117 130.486,-117"/>
<text text-anchor="middle" x="171" y="-124" font-family="Helvetica,sans-Serif" font-size="10.00">f3dex::gen_cln</text>
</a>
</g>
<!-- Node1&#45;&gt;Node6 -->
<g id="edge12" class="edge"><title>Node1&#45;&gt;Node6</title>
<path fill="none" stroke="midnightblue" d="M73.3736,-140.908C87.7819,-138.834 104.692,-136.4 120.304,-134.153"/>
<polygon fill="midnightblue" stroke="midnightblue" points="120.938,-137.598 130.337,-132.709 119.94,-130.67 120.938,-137.598"/>
</g>
<!-- Node8 -->
<g id="node16" class="node"><title>Node8</title>
<a xlink:href="namespacef3dex.html#a7aceee3f16c8792cfe12b2d7a53d7acc" target="_top" xlink:title="f3dex::gen_kln">
<polygon fill="white" stroke="black" points="130.486,-156 130.486,-176 211.514,-176 211.514,-156 130.486,-156"/>
<text text-anchor="middle" x="171" y="-163" font-family="Helvetica,sans-Serif" font-size="10.00">f3dex::gen_kln</text>
</a>
</g>
<!-- Node1&#45;&gt;Node8 -->
<g id="edge16" class="edge"><title>Node1&#45;&gt;Node8</title>
<path fill="none" stroke="midnightblue" d="M73.3736,-151.36C87.7819,-153.543 104.692,-156.105 120.304,-158.47"/>
<polygon fill="midnightblue" stroke="midnightblue" points="119.925,-161.953 130.337,-159.99 120.974,-155.032 119.925,-161.953"/>
</g>
<!-- Node10 -->
<g id="node20" class="node"><title>Node10</title>
<a xlink:href="namespacef3dex.html#aa083709f672c84c29ddbe82767394723" target="_top" xlink:title="f3dex::print_almn">
<polygon fill="white" stroke="black" points="124.658,-78 124.658,-98 217.342,-98 217.342,-78 124.658,-78"/>
<text text-anchor="middle" x="171" y="-85" font-family="Helvetica,sans-Serif" font-size="10.00">f3dex::print_almn</text>
</a>
</g>
<!-- Node1&#45;&gt;Node10 -->
<g id="edge20" class="edge"><title>Node1&#45;&gt;Node10</title>
<path fill="none" stroke="midnightblue" d="M55.07,-135.969C69.4196,-127.788 90.633,-116.273 110,-108 115.434,-105.679 121.234,-103.45 127.007,-101.377"/>
<polygon fill="midnightblue" stroke="midnightblue" points="128.322,-104.626 136.627,-98.0467 126.032,-98.0107 128.322,-104.626"/>
</g>
<!-- Node11 -->
<g id="node22" class="node"><title>Node11</title>
<a xlink:href="namespacef3dex.html#a177ac0f41749e15dd33c7a4477d13a0e" target="_top" xlink:title="Performs the Fourier&#45;Bessel decomposition (backward algorithm) of a discrete survey.">
<polygon fill="white" stroke="black" points="110.213,-39 110.213,-59 231.787,-59 231.787,-39 110.213,-39"/>
<text text-anchor="middle" x="171" y="-46" font-family="Helvetica,sans-Serif" font-size="10.00">f3dex::survey2almn_srs</text>
</a>
</g>
<!-- Node1&#45;&gt;Node11 -->
<g id="edge22" class="edge"><title>Node1&#45;&gt;Node11</title>
<path fill="none" stroke="midnightblue" d="M44.7164,-135.817C56.1696,-119.229 81.0682,-86.3826 110,-68 112.813,-66.2128 115.807,-64.5818 118.9,-63.095"/>
<polygon fill="midnightblue" stroke="midnightblue" points="120.558,-66.1929 128.389,-59.056 117.817,-59.7521 120.558,-66.1929"/>
</g>
<!-- Node13 -->
<g id="node27" class="node"><title>Node13</title>
<a xlink:href="namespacef3dex.html#ac014e878f644407cfc3eb1af25137d44" target="_top" xlink:title="f3dex::wtime">
<polygon fill="white" stroke="black" points="134.94,-0 134.94,-20 207.06,-20 207.06,-0 134.94,-0"/>
<text text-anchor="middle" x="171" y="-7" font-family="Helvetica,sans-Serif" font-size="10.00">f3dex::wtime</text>
</a>
</g>
<!-- Node1&#45;&gt;Node13 -->
<g id="edge28" class="edge"><title>Node1&#45;&gt;Node13</title>
<path fill="none" stroke="midnightblue" d="M41.4312,-135.868C49.6055,-113.254 72.4018,-58.3558 110,-29 114.634,-25.3815 119.972,-22.4447 125.512,-20.0629"/>
<polygon fill="midnightblue" stroke="midnightblue" points="126.786,-23.3234 134.938,-16.5562 124.345,-16.7627 126.786,-23.3234"/>
</g>
<!-- Node4 -->
<g id="node7" class="node"><title>Node4</title>
<a xlink:href="namespacef3dex.html#a1c162e19667698db3dad6391a9bcd797" target="_top" xlink:title="f3dex::f90ftpcld">
<polygon fill="white" stroke="black" points="283.097,-214 283.097,-234 366.903,-234 366.903,-214 283.097,-214"/>
<text text-anchor="middle" x="325" y="-221" font-family="Helvetica,sans-Serif" font-size="10.00">f3dex::f90ftpcld</text>
</a>
</g>
<!-- Node3&#45;&gt;Node4 -->
<g id="edge6" class="edge"><title>Node3&#45;&gt;Node4</title>
<path fill="none" stroke="midnightblue" d="M214.34,-238.429C232.509,-236.038 253.893,-233.225 272.931,-230.72"/>
<polygon fill="midnightblue" stroke="midnightblue" points="273.478,-234.178 282.935,-229.403 272.564,-227.238 273.478,-234.178"/>
</g>
<!-- Node5&#45;&gt;Node4 -->
<g id="edge10" class="edge"><title>Node5&#45;&gt;Node4</title>
<path fill="none" stroke="midnightblue" d="M209.573,-209.697C228.6,-212.075 251.989,-214.999 272.651,-217.581"/>
<polygon fill="midnightblue" stroke="midnightblue" points="272.499,-221.089 282.856,-218.857 273.367,-214.144 272.499,-221.089"/>
</g>
<!-- Node7 -->
<g id="node14" class="node"><title>Node7</title>
<a xlink:href="namespacef3dex.html#ae7f16ddea56702ffd83912c6def516d4" target="_top" xlink:title="Compute the value of the l&#45;th order spherical bessel function at x.">
<polygon fill="white" stroke="black" points="293.379,-97 293.379,-117 356.621,-117 356.621,-97 293.379,-97"/>
<text text-anchor="middle" x="325" y="-104" font-family="Helvetica,sans-Serif" font-size="10.00">f3dex::BJL</text>
</a>
</g>
<!-- Node6&#45;&gt;Node7 -->
<g id="edge14" class="edge"><title>Node6&#45;&gt;Node7</title>
<path fill="none" stroke="midnightblue" d="M211.539,-121.797C233.561,-118.9 260.935,-115.298 283.162,-112.373"/>
<polygon fill="midnightblue" stroke="midnightblue" points="283.835,-115.815 293.293,-111.04 282.922,-108.875 283.835,-115.815"/>
</g>
<!-- Node9 -->
<g id="node18" class="node"><title>Node9</title>
<a xlink:href="namespacef3dex.html#ac7199c2a98971bf758240066422f4a5e" target="_top" xlink:title="f3dex::gen_qln">
<polygon fill="white" stroke="black" points="284.207,-156 284.207,-176 365.793,-176 365.793,-156 284.207,-156"/>
<text text-anchor="middle" x="325" y="-163" font-family="Helvetica,sans-Serif" font-size="10.00">f3dex::gen_qln</text>
</a>
</g>
<!-- Node8&#45;&gt;Node9 -->
<g id="edge18" class="edge"><title>Node8&#45;&gt;Node9</title>
<path fill="none" stroke="midnightblue" d="M211.539,-166C230.653,-166 253.798,-166 274.111,-166"/>
<polygon fill="midnightblue" stroke="midnightblue" points="274.131,-169.5 284.131,-166 274.13,-162.5 274.131,-169.5"/>
</g>
<!-- Node11&#45;&gt;Node7 -->
<g id="edge26" class="edge"><title>Node11&#45;&gt;Node7</title>
<path fill="none" stroke="midnightblue" d="M205.827,-59.0983C214.419,-61.8306 223.595,-64.8957 232,-68 252.459,-75.5566 275.011,-85.0968 292.666,-92.85"/>
<polygon fill="midnightblue" stroke="midnightblue" points="291.366,-96.1019 301.927,-96.9495 294.2,-89.701 291.366,-96.1019"/>
</g>
<!-- Node12 -->
<g id="node24" class="node"><title>Node12</title>
<a xlink:href="namespacef3dex.html#ae28575da877299326cf5d412b7bda063" target="_top" xlink:title="f3dex::alnspring2almn">
<polygon fill="white" stroke="black" points="268.099,-39 268.099,-59 381.901,-59 381.901,-39 268.099,-39"/>
<text text-anchor="middle" x="325" y="-46" font-family="Helvetica,sans-Serif" font-size="10.00">f3dex::alnspring2almn</text>
</a>
</g>
<!-- Node11&#45;&gt;Node12 -->
<g id="edge24" class="edge"><title>Node11&#45;&gt;Node12</title>
<path fill="none" stroke="midnightblue" d="M232.074,-49C240.452,-49 249.099,-49 257.585,-49"/>
<polygon fill="midnightblue" stroke="midnightblue" points="257.826,-52.5001 267.826,-49 257.826,-45.5001 257.826,-52.5001"/>
</g>
</g>
</svg>
