<?xml version="1.0" encoding="UTF-8" standalone="no"?>
<!DOCTYPE svg PUBLIC "-//W3C//DTD SVG 1.1//EN"
 "http://www.w3.org/Graphics/SVG/1.1/DTD/svg11.dtd">
<!-- Generated by graphviz version 2.28.0 (20111007.0958)
 -->
<!-- Title: G Pages: 1 -->
<svg width="842pt" height="418pt"
 viewBox="0.00 0.00 842.00 418.00" xmlns="http://www.w3.org/2000/svg" xmlns:xlink="http://www.w3.org/1999/xlink">
<g id="graph1" class="graph" transform="scale(1 1) rotate(0) translate(4 414)">
<title>G</title>
<polygon fill="white" stroke="white" points="-4,5 -4,-414 839,-414 839,5 -4,5"/>
<!-- Node1 -->
<g id="node1" class="node"><title>Node1</title>
<polygon fill="#bfbfbf" stroke="black" points="0.104,-195 0.104,-215 123.896,-215 123.896,-195 0.104,-195"/>
<text text-anchor="middle" x="62" y="-202" font-family="Helvetica,sans-Serif" font-size="10.00">survey2almn_interactive</text>
</g>
<!-- Node2 -->
<g id="node3" class="node"><title>Node2</title>
<a xlink:href="namespacef3dex__stats.html#af82543b20c426be1736a4fed0d1ca80c" target="_top" xlink:title="f3dex_stats::almn2cln_naive">
<polygon fill="white" stroke="black" points="203.926,-390 203.926,-410 346.074,-410 346.074,-390 203.926,-390"/>
<text text-anchor="middle" x="275" y="-397" font-family="Helvetica,sans-Serif" font-size="10.00">f3dex_stats::almn2cln_naive</text>
</a>
</g>
<!-- Node1&#45;&gt;Node2 -->
<g id="edge2" class="edge"><title>Node1&#45;&gt;Node2</title>
<path fill="none" stroke="midnightblue" d="M65.405,-215.378C73.1201,-246.162 100.311,-337.463 160,-380 170.071,-387.177 181.889,-392.06 194.032,-395.336"/>
<polygon fill="midnightblue" stroke="midnightblue" points="193.277,-398.753 203.812,-397.631 194.877,-391.939 193.277,-398.753"/>
</g>
<!-- Node3 -->
<g id="node5" class="node"><title>Node3</title>
<a xlink:href="namespacef3dex__fitstools.html#a3bb8fd149a1c137d3176d484e28bbef0" target="_top" xlink:title="f3dex_fitstools::almn2fits">
<polygon fill="white" stroke="black" points="212.266,-351 212.266,-371 337.734,-371 337.734,-351 212.266,-351"/>
<text text-anchor="middle" x="275" y="-358" font-family="Helvetica,sans-Serif" font-size="10.00">f3dex_fitstools::almn2fits</text>
</a>
</g>
<!-- Node1&#45;&gt;Node3 -->
<g id="edge4" class="edge"><title>Node1&#45;&gt;Node3</title>
<path fill="none" stroke="midnightblue" d="M67.0271,-215.267C77.7597,-241.158 109.706,-309.296 160,-341 172.568,-348.923 187.386,-353.937 202.106,-357.063"/>
<polygon fill="midnightblue" stroke="midnightblue" points="201.782,-360.562 212.251,-358.937 203.054,-353.679 201.782,-360.562"/>
</g>
<!-- Node5 -->
<g id="node9" class="node"><title>Node5</title>
<a xlink:href="namespacef3dex__transforms.html#a3e792eb35f030b601d9262ac031cfdb9" target="_top" xlink:title="f3dex_transforms::almn2rmap">
<polygon fill="white" stroke="black" points="200.602,-234 200.602,-254 349.398,-254 349.398,-234 200.602,-234"/>
<text text-anchor="middle" x="275" y="-241" font-family="Helvetica,sans-Serif" font-size="10.00">f3dex_transforms::almn2rmap</text>
</a>
</g>
<!-- Node1&#45;&gt;Node5 -->
<g id="edge8" class="edge"><title>Node1&#45;&gt;Node5</title>
<path fill="none" stroke="midnightblue" d="M113.309,-215.05C128.318,-217.996 144.815,-221.181 160,-224 174.688,-226.727 190.459,-229.556 205.445,-232.199"/>
<polygon fill="midnightblue" stroke="midnightblue" points="205.218,-235.713 215.672,-233.996 206.429,-228.818 205.218,-235.713"/>
</g>
<!-- Node8 -->
<g id="node15" class="node"><title>Node8</title>
<a xlink:href="namespacef3dex__fitstools.html#aab1f14e65c2837494cb15ff4fd54b372" target="_top" xlink:title="f3dex_fitstools::cln2fits">
<polygon fill="white" stroke="black" points="216.71,-312 216.71,-332 333.29,-332 333.29,-312 216.71,-312"/>
<text text-anchor="middle" x="275" y="-319" font-family="Helvetica,sans-Serif" font-size="10.00">f3dex_fitstools::cln2fits</text>
</a>
</g>
<!-- Node1&#45;&gt;Node8 -->
<g id="edge14" class="edge"><title>Node1&#45;&gt;Node8</title>
<path fill="none" stroke="midnightblue" d="M69.8795,-215.248C84.0835,-235.508 118.797,-280.574 160,-302 174.112,-309.339 190.397,-314.051 206.162,-317.06"/>
<polygon fill="midnightblue" stroke="midnightblue" points="205.974,-320.578 216.418,-318.802 207.145,-313.677 205.974,-320.578"/>
</g>
<!-- Node9 -->
<g id="node18" class="node"><title>Node9</title>
<a xlink:href="namespacef3dex__cosmotools.html#a78ae43d2bd5f180e65c710dc694bcee4" target="_top" xlink:title="f3dex_cosmotools::cosmo_z2s">
<polygon fill="white" stroke="black" points="198.649,-273 198.649,-293 351.351,-293 351.351,-273 198.649,-273"/>
<text text-anchor="middle" x="275" y="-280" font-family="Helvetica,sans-Serif" font-size="10.00">f3dex_cosmotools::cosmo_z2s</text>
</a>
</g>
<!-- Node1&#45;&gt;Node9 -->
<g id="edge18" class="edge"><title>Node1&#45;&gt;Node9</title>
<path fill="none" stroke="midnightblue" d="M76.3226,-215.148C94.3076,-228.318 127.819,-251.023 160,-263 169.11,-266.39 178.848,-269.214 188.651,-271.563"/>
<polygon fill="midnightblue" stroke="midnightblue" points="187.931,-274.989 198.454,-273.758 189.461,-268.158 187.931,-274.989"/>
</g>
<!-- Node16 -->
<g id="node32" class="node"><title>Node16</title>
<a xlink:href="namespacef3dex__cosmotools.html#aaef3c07f112a83e6ff7a2762d5202fae" target="_top" xlink:title="f3dex_cosmotools::extractFromFile">
<polygon fill="white" stroke="black" points="189.214,-195 189.214,-215 360.786,-215 360.786,-195 189.214,-195"/>
<text text-anchor="middle" x="275" y="-202" font-family="Helvetica,sans-Serif" font-size="10.00">f3dex_cosmotools::extractFromFile</text>
</a>
</g>
<!-- Node1&#45;&gt;Node16 -->
<g id="edge32" class="edge"><title>Node1&#45;&gt;Node16</title>
<path fill="none" stroke="midnightblue" d="M124.03,-205C141.259,-205 160.425,-205 179.14,-205"/>
<polygon fill="midnightblue" stroke="midnightblue" points="179.173,-208.5 189.173,-205 179.173,-201.5 179.173,-208.5"/>
</g>
<!-- Node18 -->
<g id="node36" class="node"><title>Node18</title>
<a xlink:href="namespacef3dex__transforms.html#aa6cd797c56b97503bf2d52131f6e5554" target="_top" xlink:title="f3dex_transforms::gen_cln">
<polygon fill="white" stroke="black" points="450.096,-156 450.096,-176 583.904,-176 583.904,-156 450.096,-156"/>
<text text-anchor="middle" x="517" y="-163" font-family="Helvetica,sans-Serif" font-size="10.00">f3dex_transforms::gen_cln</text>
</a>
</g>
<!-- Node1&#45;&gt;Node18 -->
<g id="edge36" class="edge"><title>Node1&#45;&gt;Node18</title>
<path fill="none" stroke="midnightblue" d="M104.785,-194.954C121.814,-191.235 141.753,-187.355 160,-185 255.806,-172.638 367.115,-168.287 439.413,-166.774"/>
<polygon fill="midnightblue" stroke="midnightblue" points="439.861,-170.266 449.791,-166.571 439.724,-163.267 439.861,-170.266"/>
</g>
<!-- Node19 -->
<g id="node39" class="node"><title>Node19</title>
<a xlink:href="namespacef3dex__transforms.html#a4b80bc7cad52998fd0aff935a1695ee7" target="_top" xlink:title="f3dex_transforms::gen_kln">
<polygon fill="white" stroke="black" points="208.096,-117 208.096,-137 341.904,-137 341.904,-117 208.096,-117"/>
<text text-anchor="middle" x="275" y="-124" font-family="Helvetica,sans-Serif" font-size="10.00">f3dex_transforms::gen_kln</text>
</a>
</g>
<!-- Node1&#45;&gt;Node19 -->
<g id="edge40" class="edge"><title>Node1&#45;&gt;Node19</title>
<path fill="none" stroke="midnightblue" d="M78.1408,-194.945C96.6958,-183.052 129.445,-163.43 160,-152 173.646,-146.895 188.62,-142.686 203.1,-139.271"/>
<polygon fill="midnightblue" stroke="midnightblue" points="204.038,-142.648 213.023,-137.033 202.498,-135.819 204.038,-142.648"/>
</g>
<!-- Node21 -->
<g id="node43" class="node"><title>Node21</title>
<a xlink:href="namespacef3dex__cosmotools.html#a8405dbd12e86a408520f40f1b0a68919" target="_top" xlink:title="f3dex_cosmotools::getParameters_survey2almn">
<polygon fill="white" stroke="black" points="160.032,-78 160.032,-98 389.968,-98 389.968,-78 160.032,-78"/>
<text text-anchor="middle" x="275" y="-85" font-family="Helvetica,sans-Serif" font-size="10.00">f3dex_cosmotools::getParameters_survey2almn</text>
</a>
</g>
<!-- Node1&#45;&gt;Node21 -->
<g id="edge44" class="edge"><title>Node1&#45;&gt;Node21</title>
<path fill="none" stroke="midnightblue" d="M69.6213,-194.929C83.6101,-174.56 118.335,-128.577 160,-107 164.017,-104.92 168.211,-103.058 172.519,-101.394"/>
<polygon fill="midnightblue" stroke="midnightblue" points="173.816,-104.648 182.11,-98.0547 171.515,-98.0374 173.816,-104.648"/>
</g>
<!-- Node23 -->
<g id="node47" class="node"><title>Node23</title>
<a xlink:href="namespacef3dex__transforms.html#ae19f381573ccd64c64102bbd4181483f" target="_top" xlink:title="Performs the Fourier&#45;Bessel decomposition (backward algorithm) of a discrete survey.">
<polygon fill="white" stroke="black" points="187.822,-39 187.822,-59 362.178,-59 362.178,-39 187.822,-39"/>
<text text-anchor="middle" x="275" y="-46" font-family="Helvetica,sans-Serif" font-size="10.00">f3dex_transforms::survey2almn_srs</text>
</a>
</g>
<!-- Node1&#45;&gt;Node23 -->
<g id="edge48" class="edge"><title>Node1&#45;&gt;Node23</title>
<path fill="none" stroke="midnightblue" d="M66.9883,-194.633C77.6298,-168.494 109.38,-99.7308 160,-68 165.523,-64.5382 171.479,-61.649 177.671,-59.2429"/>
<polygon fill="midnightblue" stroke="midnightblue" points="179.243,-62.4037 187.565,-55.8465 176.971,-55.7828 179.243,-62.4037"/>
</g>
<!-- Node25 -->
<g id="node52" class="node"><title>Node25</title>
<a xlink:href="namespacef3dex__utils.html#ac5aa172010ec6cd9bd4c5273904b0405" target="_top" xlink:title="f3dex_utils::wtime">
<polygon fill="white" stroke="black" points="227.273,-0 227.273,-20 322.727,-20 322.727,-0 227.273,-0"/>
<text text-anchor="middle" x="275" y="-7" font-family="Helvetica,sans-Serif" font-size="10.00">f3dex_utils::wtime</text>
</a>
</g>
<!-- Node1&#45;&gt;Node25 -->
<g id="edge54" class="edge"><title>Node1&#45;&gt;Node25</title>
<path fill="none" stroke="midnightblue" d="M65.2617,-194.977C72.7279,-164.392 99.6354,-71.7418 160,-29 176.455,-17.3491 197.556,-11.9172 217.121,-9.61728"/>
<polygon fill="midnightblue" stroke="midnightblue" points="217.545,-13.093 227.179,-8.6837 216.898,-6.12297 217.545,-13.093"/>
</g>
<!-- Node4 -->
<g id="node7" class="node"><title>Node4</title>
<a xlink:href="namespacef3dex__fitstools.html#a83e1158f828e86e43f1dc68bc0e7c59b" target="_top" xlink:title="f3dex_fitstools::f90ftpcld">
<polygon fill="white" stroke="black" points="455.371,-331 455.371,-351 578.629,-351 578.629,-331 455.371,-331"/>
<text text-anchor="middle" x="517" y="-338" font-family="Helvetica,sans-Serif" font-size="10.00">f3dex_fitstools::f90ftpcld</text>
</a>
</g>
<!-- Node3&#45;&gt;Node4 -->
<g id="edge6" class="edge"><title>Node3&#45;&gt;Node4</title>
<path fill="none" stroke="midnightblue" d="M337.806,-355.85C370.531,-353.122 410.875,-349.76 444.895,-346.925"/>
<polygon fill="midnightblue" stroke="midnightblue" points="445.56,-350.382 455.234,-346.064 444.978,-343.406 445.56,-350.382"/>
</g>
<!-- Node6 -->
<g id="node11" class="node"><title>Node6</title>
<a xlink:href="namespacef3dex__transforms.html#ad1ab102a8307876c7af8bd6868ea7ef2" target="_top" xlink:title="f3dex_transforms::gen_jln">
<polygon fill="white" stroke="black" points="451.486,-234 451.486,-254 582.514,-254 582.514,-234 451.486,-234"/>
<text text-anchor="middle" x="517" y="-241" font-family="Helvetica,sans-Serif" font-size="10.00">f3dex_transforms::gen_jln</text>
</a>
</g>
<!-- Node5&#45;&gt;Node6 -->
<g id="edge10" class="edge"><title>Node5&#45;&gt;Node6</title>
<path fill="none" stroke="midnightblue" d="M349.639,-244C378.728,-244 412.112,-244 441.304,-244"/>
<polygon fill="midnightblue" stroke="midnightblue" points="441.44,-247.5 451.44,-244 441.44,-240.5 441.44,-247.5"/>
</g>
<!-- Node7 -->
<g id="node13" class="node"><title>Node7</title>
<a xlink:href="namespacef3dex__transforms.html#a9b68481c890d75c3e3f4cbd4a7109830" target="_top" xlink:title="Compute the value of the l&#45;th order spherical bessel FUNCTION at x.">
<polygon fill="white" stroke="black" points="643.988,-156 643.988,-176 760.012,-176 760.012,-156 643.988,-156"/>
<text text-anchor="middle" x="702" y="-163" font-family="Helvetica,sans-Serif" font-size="10.00">f3dex_transforms::BJL</text>
</a>
</g>
<!-- Node6&#45;&gt;Node7 -->
<g id="edge12" class="edge"><title>Node6&#45;&gt;Node7</title>
<path fill="none" stroke="midnightblue" d="M576.98,-233.91C587.503,-231.264 598.222,-227.998 608,-224 634.337,-213.231 661.636,-195.254 679.788,-182.164"/>
<polygon fill="midnightblue" stroke="midnightblue" points="681.938,-184.927 687.92,-176.183 677.791,-179.288 681.938,-184.927"/>
</g>
<!-- Node8&#45;&gt;Node4 -->
<g id="edge16" class="edge"><title>Node8&#45;&gt;Node4</title>
<path fill="none" stroke="midnightblue" d="M333.486,-326.551C366.933,-329.199 409.37,-332.558 444.905,-335.372"/>
<polygon fill="midnightblue" stroke="midnightblue" points="444.966,-338.887 455.211,-336.188 445.519,-331.909 444.966,-338.887"/>
</g>
<!-- Node10 -->
<g id="node20" class="node"><title>Node10</title>
<a xlink:href="namespacef3dex__cosmotools.html#abdbb37c7c522bf29ebf089412b9d7854" target="_top" xlink:title="f3dex_cosmotools::chi_z0">
<polygon fill="white" stroke="black" points="451.484,-273 451.484,-293 582.516,-293 582.516,-273 451.484,-273"/>
<text text-anchor="middle" x="517" y="-280" font-family="Helvetica,sans-Serif" font-size="10.00">f3dex_cosmotools::chi_z0</text>
</a>
</g>
<!-- Node9&#45;&gt;Node10 -->
<g id="edge20" class="edge"><title>Node9&#45;&gt;Node10</title>
<path fill="none" stroke="midnightblue" d="M351.608,-283C380.121,-283 412.526,-283 440.984,-283"/>
<polygon fill="midnightblue" stroke="midnightblue" points="441.276,-286.5 451.275,-283 441.275,-279.5 441.276,-286.5"/>
</g>
<!-- Node11 -->
<g id="node22" class="node"><title>Node11</title>
<a xlink:href="namespacef3dex__cosmotools.html#abba0e9b02d0f46a5abce5a0830da7f4d" target="_top" xlink:title="f3dex_cosmotools::fz">
<polygon fill="white" stroke="black" points="647.043,-292 647.043,-312 756.957,-312 756.957,-292 647.043,-292"/>
<text text-anchor="middle" x="702" y="-299" font-family="Helvetica,sans-Serif" font-size="10.00">f3dex_cosmotools::fz</text>
</a>
</g>
<!-- Node10&#45;&gt;Node11 -->
<g id="edge22" class="edge"><title>Node10&#45;&gt;Node11</title>
<path fill="none" stroke="midnightblue" d="M582.519,-289.699C600.067,-291.521 619.07,-293.494 636.611,-295.315"/>
<polygon fill="midnightblue" stroke="midnightblue" points="636.44,-298.816 646.748,-296.367 637.163,-291.853 636.44,-298.816"/>
</g>
<!-- Node12 -->
<g id="node24" class="node"><title>Node12</title>
<a xlink:href="quadpack_8f90.html#a99cf2a02a14029fad4762555f04cac0e" target="_top" xlink:title="qagp">
<polygon fill="white" stroke="black" points="682.882,-253 682.882,-273 721.118,-273 721.118,-253 682.882,-253"/>
<text text-anchor="middle" x="702" y="-260" font-family="Helvetica,sans-Serif" font-size="10.00">qagp</text>
</a>
</g>
<!-- Node10&#45;&gt;Node12 -->
<g id="edge24" class="edge"><title>Node10&#45;&gt;Node12</title>
<path fill="none" stroke="midnightblue" d="M582.519,-275.949C613.216,-272.594 648.364,-268.753 672.354,-266.131"/>
<polygon fill="midnightblue" stroke="midnightblue" points="672.975,-269.584 682.536,-265.018 672.215,-262.625 672.975,-269.584"/>
</g>
<!-- Node13 -->
<g id="node26" class="node"><title>Node13</title>
<a xlink:href="quadpack_8f90.html#a5a75101d080f224c63adde98a0e64386" target="_top" xlink:title="qextr">
<polygon fill="white" stroke="black" points="795.887,-292 795.887,-312 834.113,-312 834.113,-292 795.887,-292"/>
<text text-anchor="middle" x="815" y="-299" font-family="Helvetica,sans-Serif" font-size="10.00">qextr</text>
</a>
</g>
<!-- Node12&#45;&gt;Node13 -->
<g id="edge26" class="edge"><title>Node12&#45;&gt;Node13</title>
<path fill="none" stroke="midnightblue" d="M721.278,-268.923C732.486,-272.597 747.109,-277.466 760,-282 768.448,-284.972 777.596,-288.312 785.919,-291.4"/>
<polygon fill="midnightblue" stroke="midnightblue" points="784.968,-294.781 795.56,-294.999 787.416,-288.223 784.968,-294.781"/>
</g>
<!-- Node14 -->
<g id="node28" class="node"><title>Node14</title>
<a xlink:href="quadpack_8f90.html#a27241a527b249e9de59a5ed6bee5f805" target="_top" xlink:title="qk21">
<polygon fill="white" stroke="black" points="796.162,-253 796.162,-273 833.838,-273 833.838,-253 796.162,-253"/>
<text text-anchor="middle" x="815" y="-260" font-family="Helvetica,sans-Serif" font-size="10.00">qk21</text>
</a>
</g>
<!-- Node12&#45;&gt;Node14 -->
<g id="edge28" class="edge"><title>Node12&#45;&gt;Node14</title>
<path fill="none" stroke="midnightblue" d="M721.329,-263C738.867,-263 765.569,-263 785.813,-263"/>
<polygon fill="midnightblue" stroke="midnightblue" points="786.012,-266.5 796.012,-263 786.012,-259.5 786.012,-266.5"/>
</g>
<!-- Node15 -->
<g id="node30" class="node"><title>Node15</title>
<a xlink:href="quadpack_8f90.html#a55e08a684c5a6315fb37dd0fdc66d8e6" target="_top" xlink:title="qsort">
<polygon fill="white" stroke="black" points="795.887,-214 795.887,-234 834.113,-234 834.113,-214 795.887,-214"/>
<text text-anchor="middle" x="815" y="-221" font-family="Helvetica,sans-Serif" font-size="10.00">qsort</text>
</a>
</g>
<!-- Node12&#45;&gt;Node15 -->
<g id="edge30" class="edge"><title>Node12&#45;&gt;Node15</title>
<path fill="none" stroke="midnightblue" d="M721.329,-256.56C738.923,-250.378 765.741,-240.956 786.008,-233.835"/>
<polygon fill="midnightblue" stroke="midnightblue" points="787.369,-237.067 795.643,-230.45 785.049,-230.462 787.369,-237.067"/>
</g>
<!-- Node17 -->
<g id="node34" class="node"><title>Node17</title>
<a xlink:href="namespacef3dex__utils.html#a2cce76cb1a695da8315cbf60507ec322" target="_top" xlink:title="f3dex_utils::BSORT">
<polygon fill="white" stroke="black" points="465.103,-195 465.103,-215 568.897,-215 568.897,-195 465.103,-195"/>
<text text-anchor="middle" x="517" y="-202" font-family="Helvetica,sans-Serif" font-size="10.00">f3dex_utils::BSORT</text>
</a>
</g>
<!-- Node16&#45;&gt;Node17 -->
<g id="edge34" class="edge"><title>Node16&#45;&gt;Node17</title>
<path fill="none" stroke="midnightblue" d="M360.953,-205C391.938,-205 426.34,-205 454.851,-205"/>
<polygon fill="midnightblue" stroke="midnightblue" points="455.071,-208.5 465.071,-205 455.071,-201.5 455.071,-208.5"/>
</g>
<!-- Node18&#45;&gt;Node7 -->
<g id="edge38" class="edge"><title>Node18&#45;&gt;Node7</title>
<path fill="none" stroke="midnightblue" d="M584.067,-166C600.108,-166 617.281,-166 633.392,-166"/>
<polygon fill="midnightblue" stroke="midnightblue" points="633.803,-169.5 643.803,-166 633.803,-162.5 633.803,-169.5"/>
</g>
<!-- Node20 -->
<g id="node41" class="node"><title>Node20</title>
<a xlink:href="namespacef3dex__transforms.html#a02b926f933d186f2c9d9ab6d478a1601" target="_top" xlink:title="f3dex_transforms::gen_qln">
<polygon fill="white" stroke="black" points="449.816,-117 449.816,-137 584.184,-137 584.184,-117 449.816,-117"/>
<text text-anchor="middle" x="517" y="-124" font-family="Helvetica,sans-Serif" font-size="10.00">f3dex_transforms::gen_qln</text>
</a>
</g>
<!-- Node19&#45;&gt;Node20 -->
<g id="edge42" class="edge"><title>Node19&#45;&gt;Node20</title>
<path fill="none" stroke="midnightblue" d="M342.216,-127C372.258,-127 407.971,-127 439.185,-127"/>
<polygon fill="midnightblue" stroke="midnightblue" points="439.584,-130.5 449.584,-127 439.583,-123.5 439.584,-130.5"/>
</g>
<!-- Node22 -->
<g id="node45" class="node"><title>Node22</title>
<a xlink:href="namespacef3dex__cosmotools.html#a609d3f29da9fc1be3bf27757e25532eb" target="_top" xlink:title="f3dex_cosmotools::txtfile2parameters">
<polygon fill="white" stroke="black" points="426.205,-78 426.205,-98 607.795,-98 607.795,-78 426.205,-78"/>
<text text-anchor="middle" x="517" y="-85" font-family="Helvetica,sans-Serif" font-size="10.00">f3dex_cosmotools::txtfile2parameters</text>
</a>
</g>
<!-- Node21&#45;&gt;Node22 -->
<g id="edge46" class="edge"><title>Node21&#45;&gt;Node22</title>
<path fill="none" stroke="midnightblue" d="M390.026,-88C398.719,-88 407.453,-88 416.047,-88"/>
<polygon fill="midnightblue" stroke="midnightblue" points="416.059,-91.5001 426.059,-88 416.059,-84.5001 416.059,-91.5001"/>
</g>
<!-- Node23&#45;&gt;Node7 -->
<g id="edge52" class="edge"><title>Node23&#45;&gt;Node7</title>
<path fill="none" stroke="midnightblue" d="M342.133,-38.9866C411.721,-31.5137 522.765,-28.4578 608,-68 644.841,-85.091 674.389,-123.893 689.658,-147.219"/>
<polygon fill="midnightblue" stroke="midnightblue" points="686.833,-149.301 695.137,-155.882 692.749,-145.56 686.833,-149.301"/>
</g>
<!-- Node24 -->
<g id="node49" class="node"><title>Node24</title>
<a xlink:href="namespacef3dex__transforms.html#aef309274871cf8eb0405b63f14ab26a2" target="_top" xlink:title="f3dex_transforms::alnspring2almn">
<polygon fill="white" stroke="black" points="433.709,-0 433.709,-20 600.291,-20 600.291,-0 433.709,-0"/>
<text text-anchor="middle" x="517" y="-7" font-family="Helvetica,sans-Serif" font-size="10.00">f3dex_transforms::alnspring2almn</text>
</a>
</g>
<!-- Node23&#45;&gt;Node24 -->
<g id="edge50" class="edge"><title>Node23&#45;&gt;Node24</title>
<path fill="none" stroke="midnightblue" d="M337.806,-38.9565C370.28,-33.6796 410.255,-27.1835 444.109,-21.6823"/>
<polygon fill="midnightblue" stroke="midnightblue" points="445.094,-25.0682 454.403,-20.0094 443.972,-18.1588 445.094,-25.0682"/>
</g>
</g>
</svg>
