<?xml version="1.0" encoding="UTF-8" standalone="no"?>
<!DOCTYPE svg PUBLIC "-//W3C//DTD SVG 1.1//EN"
 "http://www.w3.org/Graphics/SVG/1.1/DTD/svg11.dtd">
<!-- Generated by graphviz version 2.28.0 (20111102.2313)
 -->
<!-- Title: G Pages: 1 -->
<svg width="626pt" height="262pt"
 viewBox="0.00 0.00 626.00 262.00" xmlns="http://www.w3.org/2000/svg" xmlns:xlink="http://www.w3.org/1999/xlink">
<g id="graph1" class="graph" transform="scale(1 1) rotate(0) translate(4 258)">
<title>G</title>
<polygon fill="white" stroke="white" points="-4,5 -4,-258 623,-258 623,5 -4,5"/>
<!-- Node1 -->
<g id="node1" class="node"><title>Node1</title>
<polygon fill="#bfbfbf" stroke="black" points="0.6105,-117 0.6105,-137 89.3895,-137 89.3895,-117 0.6105,-117"/>
<text text-anchor="middle" x="45" y="-124" font-family="Helvetica,sans-Serif" font-size="10.00">survey2almn_lm</text>
</g>
<!-- Node2 -->
<g id="node3" class="node"><title>Node2</title>
<a xlink:href="namespacef3dex__stats.html#af82543b20c426be1736a4fed0d1ca80c" target="_top" xlink:title="Naive estimator for the almn&#39;s.">
<polygon fill="white" stroke="black" points="142.926,-234 142.926,-254 285.074,-254 285.074,-234 142.926,-234"/>
<text text-anchor="middle" x="214" y="-241" font-family="Helvetica,sans-Serif" font-size="10.00">f3dex_stats::almn2cln_naive</text>
</a>
</g>
<!-- Node1&#45;&gt;Node2 -->
<g id="edge2" class="edge"><title>Node1&#45;&gt;Node2</title>
<path fill="none" stroke="midnightblue" d="M51.2944,-137.086C62.3267,-157.055 89.7906,-201.622 126,-224 129.811,-226.355 133.87,-228.433 138.074,-230.267"/>
<polygon fill="midnightblue" stroke="midnightblue" points="136.876,-233.557 147.465,-233.904 139.404,-227.029 136.876,-233.557"/>
</g>
<!-- Node3 -->
<g id="node5" class="node"><title>Node3</title>
<a xlink:href="namespacef3dex__fitstools.html#a3bb8fd149a1c137d3176d484e28bbef0" target="_top" xlink:title="Write a_lmn&#39;s to file.">
<polygon fill="white" stroke="black" points="151.266,-156 151.266,-176 276.734,-176 276.734,-156 151.266,-156"/>
<text text-anchor="middle" x="214" y="-163" font-family="Helvetica,sans-Serif" font-size="10.00">f3dex_fitstools::almn2fits</text>
</a>
</g>
<!-- Node1&#45;&gt;Node3 -->
<g id="edge4" class="edge"><title>Node1&#45;&gt;Node3</title>
<path fill="none" stroke="midnightblue" d="M87.9212,-137.016C100.19,-139.932 113.628,-143.109 126,-146 136.746,-148.511 148.244,-151.173 159.245,-153.707"/>
<polygon fill="midnightblue" stroke="midnightblue" points="158.643,-157.159 169.173,-155.99 160.212,-150.337 158.643,-157.159"/>
</g>
<!-- Node5 -->
<g id="node9" class="node"><title>Node5</title>
<a xlink:href="namespacef3dex__fitstools.html#aab1f14e65c2837494cb15ff4fd54b372" target="_top" xlink:title="Write power spectrum to file.">
<polygon fill="white" stroke="black" points="155.71,-195 155.71,-215 272.29,-215 272.29,-195 155.71,-195"/>
<text text-anchor="middle" x="214" y="-202" font-family="Helvetica,sans-Serif" font-size="10.00">f3dex_fitstools::cln2fits</text>
</a>
</g>
<!-- Node1&#45;&gt;Node5 -->
<g id="edge8" class="edge"><title>Node1&#45;&gt;Node5</title>
<path fill="none" stroke="midnightblue" d="M56.7505,-137.014C71.321,-150.035 98.6697,-172.577 126,-185 132.162,-187.801 138.753,-190.228 145.448,-192.328"/>
<polygon fill="midnightblue" stroke="midnightblue" points="144.714,-195.759 155.293,-195.175 146.659,-189.034 144.714,-195.759"/>
</g>
<!-- Node6 -->
<g id="node12" class="node"><title>Node6</title>
<a xlink:href="namespacef3dex__transforms.html#aa6cd797c56b97503bf2d52131f6e5554" target="_top" xlink:title="Computes series of normalization coefficients.">
<polygon fill="white" stroke="black" points="147.096,-39 147.096,-59 280.904,-59 280.904,-39 147.096,-39"/>
<text text-anchor="middle" x="214" y="-46" font-family="Helvetica,sans-Serif" font-size="10.00">f3dex_transforms::gen_cln</text>
</a>
</g>
<!-- Node1&#45;&gt;Node6 -->
<g id="edge12" class="edge"><title>Node1&#45;&gt;Node6</title>
<path fill="none" stroke="midnightblue" d="M56.7505,-116.986C71.321,-103.965 98.6697,-81.4231 126,-69 131.833,-66.3485 138.051,-64.0318 144.378,-62.0109"/>
<polygon fill="midnightblue" stroke="midnightblue" points="145.763,-65.2519 154.37,-59.0731 143.788,-58.5362 145.763,-65.2519"/>
</g>
<!-- Node9 -->
<g id="node18" class="node"><title>Node9</title>
<a xlink:href="namespacef3dex__transforms.html#a4b80bc7cad52998fd0aff935a1695ee7" target="_top" xlink:title="Computes k spectrum.">
<polygon fill="white" stroke="black" points="147.096,-117 147.096,-137 280.904,-137 280.904,-117 147.096,-117"/>
<text text-anchor="middle" x="214" y="-124" font-family="Helvetica,sans-Serif" font-size="10.00">f3dex_transforms::gen_kln</text>
</a>
</g>
<!-- Node1&#45;&gt;Node9 -->
<g id="edge18" class="edge"><title>Node1&#45;&gt;Node9</title>
<path fill="none" stroke="midnightblue" d="M89.4413,-127C103.927,-127 120.521,-127 136.747,-127"/>
<polygon fill="midnightblue" stroke="midnightblue" points="136.781,-130.5 146.781,-127 136.781,-123.5 136.781,-130.5"/>
</g>
<!-- Node11 -->
<g id="node23" class="node"><title>Node11</title>
<a xlink:href="namespacef3dex__transforms.html#aa03041ae9480a0e4abc522b846a40cc8" target="_top" xlink:title="f3dex_transforms::survey2almn_opt">
<polygon fill="white" stroke="black" points="126.538,-78 126.538,-98 301.462,-98 301.462,-78 126.538,-78"/>
<text text-anchor="middle" x="214" y="-85" font-family="Helvetica,sans-Serif" font-size="10.00">f3dex_transforms::survey2almn_opt</text>
</a>
</g>
<!-- Node1&#45;&gt;Node11 -->
<g id="edge24" class="edge"><title>Node1&#45;&gt;Node11</title>
<path fill="none" stroke="midnightblue" d="M87.9212,-116.984C100.19,-114.068 113.628,-110.891 126,-108 136.746,-105.489 148.244,-102.827 159.245,-100.293"/>
<polygon fill="midnightblue" stroke="midnightblue" points="160.212,-103.663 169.173,-98.0103 158.643,-96.8408 160.212,-103.663"/>
</g>
<!-- Node12 -->
<g id="node27" class="node"><title>Node12</title>
<a xlink:href="namespacef3dex__utils.html#ac5aa172010ec6cd9bd4c5273904b0405" target="_top" xlink:title="Measures system time.">
<polygon fill="white" stroke="black" points="166.273,-0 166.273,-20 261.727,-20 261.727,-0 166.273,-0"/>
<text text-anchor="middle" x="214" y="-7" font-family="Helvetica,sans-Serif" font-size="10.00">f3dex_utils::wtime</text>
</a>
</g>
<!-- Node1&#45;&gt;Node12 -->
<g id="edge30" class="edge"><title>Node1&#45;&gt;Node12</title>
<path fill="none" stroke="midnightblue" d="M51.2944,-116.914C62.3267,-96.9452 89.7906,-52.3776 126,-30 135.092,-24.3813 145.598,-20.3385 156.098,-17.4302"/>
<polygon fill="midnightblue" stroke="midnightblue" points="157.236,-20.7548 166.116,-14.975 155.57,-13.956 157.236,-20.7548"/>
</g>
<!-- Node4 -->
<g id="node7" class="node"><title>Node4</title>
<a xlink:href="namespacef3dex__fitstools.html#a83e1158f828e86e43f1dc68bc0e7c59b" target="_top" xlink:title="f3dex_fitstools::f90ftpcld">
<polygon fill="white" stroke="black" points="343.371,-175 343.371,-195 466.629,-195 466.629,-175 343.371,-175"/>
<text text-anchor="middle" x="405" y="-182" font-family="Helvetica,sans-Serif" font-size="10.00">f3dex_fitstools::f90ftpcld</text>
</a>
</g>
<!-- Node3&#45;&gt;Node4 -->
<g id="edge6" class="edge"><title>Node3&#45;&gt;Node4</title>
<path fill="none" stroke="midnightblue" d="M276.886,-172.221C294.871,-174.029 314.653,-176.018 333.144,-177.877"/>
<polygon fill="midnightblue" stroke="midnightblue" points="332.965,-181.376 343.265,-178.894 333.665,-174.412 332.965,-181.376"/>
</g>
<!-- Node5&#45;&gt;Node4 -->
<g id="edge10" class="edge"><title>Node5&#45;&gt;Node4</title>
<path fill="none" stroke="midnightblue" d="M272.476,-198.918C291.615,-196.893 313.16,-194.613 333.188,-192.493"/>
<polygon fill="midnightblue" stroke="midnightblue" points="333.614,-195.968 343.19,-191.435 332.878,-189.007 333.614,-195.968"/>
</g>
<!-- Node7 -->
<g id="node14" class="node"><title>Node7</title>
<a xlink:href="namespacef3dex__transforms.html#a9b68481c890d75c3e3f4cbd4a7109830" target="_top" xlink:title="Compute the value of the l&#45;th order spherical bessel FUNCTION at x.">
<polygon fill="white" stroke="black" points="346.988,-39 346.988,-59 463.012,-59 463.012,-39 346.988,-39"/>
<text text-anchor="middle" x="405" y="-46" font-family="Helvetica,sans-Serif" font-size="10.00">f3dex_transforms::BJL</text>
</a>
</g>
<!-- Node6&#45;&gt;Node7 -->
<g id="edge14" class="edge"><title>Node6&#45;&gt;Node7</title>
<path fill="none" stroke="midnightblue" d="M281.103,-49C299.073,-49 318.552,-49 336.593,-49"/>
<polygon fill="midnightblue" stroke="midnightblue" points="336.737,-52.5001 346.737,-49 336.737,-45.5001 336.737,-52.5001"/>
</g>
<!-- Node8 -->
<g id="node16" class="node"><title>Node8</title>
<a xlink:href="namespacef3dex__utils.html#a92226ca7c662562058c56ba005f6fc36" target="_top" xlink:title="Print preformated messages.">
<polygon fill="white" stroke="black" points="508.043,-78 508.043,-98 617.957,-98 617.957,-78 508.043,-78"/>
<text text-anchor="middle" x="563" y="-85" font-family="Helvetica,sans-Serif" font-size="10.00">f3dex_utils::message</text>
</a>
</g>
<!-- Node6&#45;&gt;Node8 -->
<g id="edge16" class="edge"><title>Node6&#45;&gt;Node8</title>
<path fill="none" stroke="midnightblue" d="M268.072,-38.9819C289.678,-35.3796 314.948,-31.77 338,-30 397.381,-25.4407 414.867,-13.1852 472,-30 499.182,-37.9999 525.902,-57.0361 543.074,-71.1297"/>
<polygon fill="midnightblue" stroke="midnightblue" points="541.244,-74.167 551.135,-77.9646 545.771,-68.8278 541.244,-74.167"/>
</g>
<!-- Node10 -->
<g id="node20" class="node"><title>Node10</title>
<a xlink:href="namespacef3dex__transforms.html#a02b926f933d186f2c9d9ab6d478a1601" target="_top" xlink:title="Computes series of roots of Bessel functions.">
<polygon fill="white" stroke="black" points="337.816,-117 337.816,-137 472.184,-137 472.184,-117 337.816,-117"/>
<text text-anchor="middle" x="405" y="-124" font-family="Helvetica,sans-Serif" font-size="10.00">f3dex_transforms::gen_qln</text>
</a>
</g>
<!-- Node9&#45;&gt;Node10 -->
<g id="edge20" class="edge"><title>Node9&#45;&gt;Node10</title>
<path fill="none" stroke="midnightblue" d="M281.103,-127C296.122,-127 312.197,-127 327.604,-127"/>
<polygon fill="midnightblue" stroke="midnightblue" points="327.615,-130.5 337.615,-127 327.615,-123.5 327.615,-130.5"/>
</g>
<!-- Node10&#45;&gt;Node8 -->
<g id="edge22" class="edge"><title>Node10&#45;&gt;Node8</title>
<path fill="none" stroke="midnightblue" d="M446.174,-116.957C466.281,-111.93 490.813,-105.797 512.115,-100.471"/>
<polygon fill="midnightblue" stroke="midnightblue" points="513.11,-103.83 521.962,-98.0094 511.412,-97.0394 513.11,-103.83"/>
</g>
<!-- Node11&#45;&gt;Node7 -->
<g id="edge26" class="edge"><title>Node11&#45;&gt;Node7</title>
<path fill="none" stroke="midnightblue" d="M263.672,-77.9565C288.694,-72.7933 319.372,-66.463 345.655,-61.0394"/>
<polygon fill="midnightblue" stroke="midnightblue" points="346.406,-64.4582 355.493,-59.0094 344.992,-57.6026 346.406,-64.4582"/>
</g>
<!-- Node11&#45;&gt;Node8 -->
<g id="edge28" class="edge"><title>Node11&#45;&gt;Node8</title>
<path fill="none" stroke="midnightblue" d="M301.668,-88C362.613,-88 442.818,-88 498.012,-88"/>
<polygon fill="midnightblue" stroke="midnightblue" points="498.017,-91.5001 508.017,-88 498.017,-84.5001 498.017,-91.5001"/>
</g>
</g>
</svg>
