<?xml version="1.0" encoding="UTF-8" standalone="no"?>
<!DOCTYPE svg PUBLIC "-//W3C//DTD SVG 1.1//EN"
 "http://www.w3.org/Graphics/SVG/1.1/DTD/svg11.dtd">
<!-- Generated by graphviz version 2.28.0 (20111007.0958)
 -->
<!-- Title: G Pages: 1 -->
<svg width="496pt" height="262pt"
 viewBox="0.00 0.00 496.00 262.00" xmlns="http://www.w3.org/2000/svg" xmlns:xlink="http://www.w3.org/1999/xlink">
<g id="graph1" class="graph" transform="scale(1 1) rotate(0) translate(4 258)">
<title>G</title>
<polygon fill="white" stroke="white" points="-4,5 -4,-258 493,-258 493,5 -4,5"/>
<!-- Node1 -->
<g id="node1" class="node"><title>Node1</title>
<polygon fill="#bfbfbf" stroke="black" points="0.664,-117 0.664,-137 73.336,-137 73.336,-117 0.664,-117"/>
<text text-anchor="middle" x="37" y="-124" font-family="Helvetica,sans-Serif" font-size="10.00">survey2almn</text>
</g>
<!-- Node2 -->
<g id="node3" class="node"><title>Node2</title>
<a xlink:href="namespacef3dex__stats.html#af82543b20c426be1736a4fed0d1ca80c" target="_top" xlink:title="f3dex_stats::almn2cln_naive">
<polygon fill="white" stroke="black" points="125.926,-234 125.926,-254 268.074,-254 268.074,-234 125.926,-234"/>
<text text-anchor="middle" x="197" y="-241" font-family="Helvetica,sans-Serif" font-size="10.00">f3dex_stats::almn2cln_naive</text>
</a>
</g>
<!-- Node1&#45;&gt;Node2 -->
<g id="edge2" class="edge"><title>Node1&#45;&gt;Node2</title>
<path fill="none" stroke="midnightblue" d="M42.4905,-137.078C51.9262,-157.032 75.8002,-201.575 110,-224 113.533,-226.317 117.303,-228.367 121.216,-230.18"/>
<polygon fill="midnightblue" stroke="midnightblue" points="119.985,-233.458 130.567,-233.996 122.631,-226.977 119.985,-233.458"/>
</g>
<!-- Node3 -->
<g id="node5" class="node"><title>Node3</title>
<a xlink:href="namespacef3dex__fitstools.html#a3bb8fd149a1c137d3176d484e28bbef0" target="_top" xlink:title="f3dex_fitstools::almn2fits">
<polygon fill="white" stroke="black" points="134.266,-156 134.266,-176 259.734,-176 259.734,-156 134.266,-156"/>
<text text-anchor="middle" x="197" y="-163" font-family="Helvetica,sans-Serif" font-size="10.00">f3dex_fitstools::almn2fits</text>
</a>
</g>
<!-- Node1&#45;&gt;Node3 -->
<g id="edge4" class="edge"><title>Node1&#45;&gt;Node3</title>
<path fill="none" stroke="midnightblue" d="M73.4696,-136.582C85.0918,-139.663 98.0801,-143.042 110,-146 120.26,-148.546 131.233,-151.172 141.79,-153.649"/>
<polygon fill="midnightblue" stroke="midnightblue" points="141.214,-157.109 151.748,-155.972 142.804,-150.292 141.214,-157.109"/>
</g>
<!-- Node5 -->
<g id="node9" class="node"><title>Node5</title>
<a xlink:href="namespacef3dex__fitstools.html#aab1f14e65c2837494cb15ff4fd54b372" target="_top" xlink:title="f3dex_fitstools::cln2fits">
<polygon fill="white" stroke="black" points="138.71,-195 138.71,-215 255.29,-215 255.29,-195 138.71,-195"/>
<text text-anchor="middle" x="197" y="-202" font-family="Helvetica,sans-Serif" font-size="10.00">f3dex_fitstools::cln2fits</text>
</a>
</g>
<!-- Node1&#45;&gt;Node5 -->
<g id="edge8" class="edge"><title>Node1&#45;&gt;Node5</title>
<path fill="none" stroke="midnightblue" d="M47.7008,-137.275C60.6527,-150.37 84.8915,-172.769 110,-185 115.788,-187.82 121.992,-190.252 128.319,-192.349"/>
<polygon fill="midnightblue" stroke="midnightblue" points="127.736,-195.829 138.321,-195.375 129.763,-189.129 127.736,-195.829"/>
</g>
<!-- Node6 -->
<g id="node12" class="node"><title>Node6</title>
<a xlink:href="namespacef3dex__transforms.html#aa6cd797c56b97503bf2d52131f6e5554" target="_top" xlink:title="f3dex_transforms::gen_cln">
<polygon fill="white" stroke="black" points="130.096,-117 130.096,-137 263.904,-137 263.904,-117 130.096,-117"/>
<text text-anchor="middle" x="197" y="-124" font-family="Helvetica,sans-Serif" font-size="10.00">f3dex_transforms::gen_cln</text>
</a>
</g>
<!-- Node1&#45;&gt;Node6 -->
<g id="edge12" class="edge"><title>Node1&#45;&gt;Node6</title>
<path fill="none" stroke="midnightblue" d="M73.4583,-127C87.2466,-127 103.608,-127 119.812,-127"/>
<polygon fill="midnightblue" stroke="midnightblue" points="119.857,-130.5 129.857,-127 119.857,-123.5 119.857,-130.5"/>
</g>
<!-- Node8 -->
<g id="node16" class="node"><title>Node8</title>
<a xlink:href="namespacef3dex__transforms.html#a4b80bc7cad52998fd0aff935a1695ee7" target="_top" xlink:title="f3dex_transforms::gen_kln">
<polygon fill="white" stroke="black" points="130.096,-39 130.096,-59 263.904,-59 263.904,-39 130.096,-39"/>
<text text-anchor="middle" x="197" y="-46" font-family="Helvetica,sans-Serif" font-size="10.00">f3dex_transforms::gen_kln</text>
</a>
</g>
<!-- Node1&#45;&gt;Node8 -->
<g id="edge16" class="edge"><title>Node1&#45;&gt;Node8</title>
<path fill="none" stroke="midnightblue" d="M47.7008,-116.725C60.6527,-103.63 84.8915,-81.2314 110,-69 115.385,-66.3766 121.13,-64.0881 127,-62.0934"/>
<polygon fill="midnightblue" stroke="midnightblue" points="128.44,-65.3114 136.954,-59.0064 126.366,-58.6256 128.44,-65.3114"/>
</g>
<!-- Node10 -->
<g id="node20" class="node"><title>Node10</title>
<a xlink:href="namespacef3dex__transforms.html#ae19f381573ccd64c64102bbd4181483f" target="_top" xlink:title="Performs the Fourier&#45;Bessel decomposition (backward algorithm) of a discrete survey.">
<polygon fill="white" stroke="black" points="109.823,-78 109.823,-98 284.178,-98 284.178,-78 109.823,-78"/>
<text text-anchor="middle" x="197" y="-85" font-family="Helvetica,sans-Serif" font-size="10.00">f3dex_transforms::survey2almn_srs</text>
</a>
</g>
<!-- Node1&#45;&gt;Node10 -->
<g id="edge20" class="edge"><title>Node1&#45;&gt;Node10</title>
<path fill="none" stroke="midnightblue" d="M73.4696,-117.418C85.0918,-114.337 98.0801,-110.958 110,-108 120.26,-105.454 131.233,-102.828 141.79,-100.351"/>
<polygon fill="midnightblue" stroke="midnightblue" points="142.804,-103.708 151.748,-98.0279 141.214,-96.891 142.804,-103.708"/>
</g>
<!-- Node12 -->
<g id="node25" class="node"><title>Node12</title>
<a xlink:href="namespacef3dex__utils.html#ac5aa172010ec6cd9bd4c5273904b0405" target="_top" xlink:title="f3dex_utils::wtime">
<polygon fill="white" stroke="black" points="149.273,-0 149.273,-20 244.727,-20 244.727,-0 149.273,-0"/>
<text text-anchor="middle" x="197" y="-7" font-family="Helvetica,sans-Serif" font-size="10.00">f3dex_utils::wtime</text>
</a>
</g>
<!-- Node1&#45;&gt;Node12 -->
<g id="edge26" class="edge"><title>Node1&#45;&gt;Node12</title>
<path fill="none" stroke="midnightblue" d="M42.4399,-116.786C51.7846,-96.5687 75.5032,-51.4684 110,-29 118.739,-23.3084 128.925,-19.3009 139.168,-16.4841"/>
<polygon fill="midnightblue" stroke="midnightblue" points="140.054,-19.871 148.96,-14.1323 138.419,-13.0645 140.054,-19.871"/>
</g>
<!-- Node4 -->
<g id="node7" class="node"><title>Node4</title>
<a xlink:href="namespacef3dex__fitstools.html#a83e1158f828e86e43f1dc68bc0e7c59b" target="_top" xlink:title="f3dex_fitstools::f90ftpcld">
<polygon fill="white" stroke="black" points="342.371,-175 342.371,-195 465.629,-195 465.629,-175 342.371,-175"/>
<text text-anchor="middle" x="404" y="-182" font-family="Helvetica,sans-Serif" font-size="10.00">f3dex_fitstools::f90ftpcld</text>
</a>
</g>
<!-- Node3&#45;&gt;Node4 -->
<g id="edge6" class="edge"><title>Node3&#45;&gt;Node4</title>
<path fill="none" stroke="midnightblue" d="M259.785,-171.726C282.48,-173.83 308.356,-176.228 331.812,-178.402"/>
<polygon fill="midnightblue" stroke="midnightblue" points="331.767,-181.913 342.048,-179.351 332.413,-174.943 331.767,-181.913"/>
</g>
<!-- Node5&#45;&gt;Node4 -->
<g id="edge10" class="edge"><title>Node5&#45;&gt;Node4</title>
<path fill="none" stroke="midnightblue" d="M255.377,-199.402C279.113,-197.087 306.882,-194.377 331.892,-191.937"/>
<polygon fill="midnightblue" stroke="midnightblue" points="332.442,-195.4 342.055,-190.946 331.762,-188.434 332.442,-195.4"/>
</g>
<!-- Node7 -->
<g id="node14" class="node"><title>Node7</title>
<a xlink:href="namespacef3dex__transforms.html#a9b68481c890d75c3e3f4cbd4a7109830" target="_top" xlink:title="Compute the value of the l&#45;th order spherical bessel FUNCTION at x.">
<polygon fill="white" stroke="black" points="345.988,-117 345.988,-137 462.012,-137 462.012,-117 345.988,-117"/>
<text text-anchor="middle" x="404" y="-124" font-family="Helvetica,sans-Serif" font-size="10.00">f3dex_transforms::BJL</text>
</a>
</g>
<!-- Node6&#45;&gt;Node7 -->
<g id="edge14" class="edge"><title>Node6&#45;&gt;Node7</title>
<path fill="none" stroke="midnightblue" d="M263.992,-127C286.932,-127 312.68,-127 335.723,-127"/>
<polygon fill="midnightblue" stroke="midnightblue" points="335.758,-130.5 345.758,-127 335.758,-123.5 335.758,-130.5"/>
</g>
<!-- Node9 -->
<g id="node18" class="node"><title>Node9</title>
<a xlink:href="namespacef3dex__transforms.html#a02b926f933d186f2c9d9ab6d478a1601" target="_top" xlink:title="f3dex_transforms::gen_qln">
<polygon fill="white" stroke="black" points="336.816,-39 336.816,-59 471.184,-59 471.184,-39 336.816,-39"/>
<text text-anchor="middle" x="404" y="-46" font-family="Helvetica,sans-Serif" font-size="10.00">f3dex_transforms::gen_qln</text>
</a>
</g>
<!-- Node8&#45;&gt;Node9 -->
<g id="edge18" class="edge"><title>Node8&#45;&gt;Node9</title>
<path fill="none" stroke="midnightblue" d="M263.992,-49C283.918,-49 305.961,-49 326.51,-49"/>
<polygon fill="midnightblue" stroke="midnightblue" points="326.781,-52.5001 336.781,-49 326.781,-45.5001 326.781,-52.5001"/>
</g>
<!-- Node10&#45;&gt;Node7 -->
<g id="edge24" class="edge"><title>Node10&#45;&gt;Node7</title>
<path fill="none" stroke="midnightblue" d="M250.793,-98.0435C278.172,-103.252 311.794,-109.649 340.469,-115.104"/>
<polygon fill="midnightblue" stroke="midnightblue" points="339.908,-118.56 350.386,-116.991 341.217,-111.683 339.908,-118.56"/>
</g>
<!-- Node11 -->
<g id="node22" class="node"><title>Node11</title>
<a xlink:href="namespacef3dex__transforms.html#aef309274871cf8eb0405b63f14ab26a2" target="_top" xlink:title="f3dex_transforms::alnspring2almn">
<polygon fill="white" stroke="black" points="320.709,-78 320.709,-98 487.291,-98 487.291,-78 320.709,-78"/>
<text text-anchor="middle" x="404" y="-85" font-family="Helvetica,sans-Serif" font-size="10.00">f3dex_transforms::alnspring2almn</text>
</a>
</g>
<!-- Node10&#45;&gt;Node11 -->
<g id="edge22" class="edge"><title>Node10&#45;&gt;Node11</title>
<path fill="none" stroke="midnightblue" d="M284.344,-88C292.996,-88 301.804,-88 310.516,-88"/>
<polygon fill="midnightblue" stroke="midnightblue" points="310.682,-91.5001 320.682,-88 310.682,-84.5001 310.682,-91.5001"/>
</g>
</g>
</svg>
