<?xml version="1.0" encoding="UTF-8" standalone="no"?>
<!DOCTYPE svg PUBLIC "-//W3C//DTD SVG 1.1//EN"
 "http://www.w3.org/Graphics/SVG/1.1/DTD/svg11.dtd">
<!-- Generated by graphviz version 2.28.0 (20111007.0958)
 -->
<!-- Title: G Pages: 1 -->
<svg width="662pt" height="146pt"
 viewBox="0.00 0.00 662.00 146.00" xmlns="http://www.w3.org/2000/svg" xmlns:xlink="http://www.w3.org/1999/xlink">
<g id="graph1" class="graph" transform="scale(1 1) rotate(0) translate(4 142)">
<title>G</title>
<polygon fill="white" stroke="white" points="-4,5 -4,-142 659,-142 659,5 -4,5"/>
<!-- Node1 -->
<g id="node1" class="node"><title>Node1</title>
<polygon fill="#bfbfbf" stroke="black" points="223.324,-117 223.324,-137 422.676,-137 422.676,-117 223.324,-117"/>
<text text-anchor="middle" x="323" y="-124" font-family="Helvetica,sans-Serif" font-size="10.00">/Users/bl/Dropbox/3DEX/src/cxx/survey.h</text>
</g>
<!-- Node2 -->
<g id="node3" class="node"><title>Node2</title>
<polygon fill="white" stroke="#bfbfbf" points="-0.2775,-59 -0.2775,-79 36.2775,-79 36.2775,-59 -0.2775,-59"/>
<text text-anchor="middle" x="18" y="-66" font-family="Helvetica,sans-Serif" font-size="10.00">arr.h</text>
</g>
<!-- Node1&#45;&gt;Node2 -->
<g id="edge2" class="edge"><title>Node1&#45;&gt;Node2</title>
<path fill="none" stroke="midnightblue" d="M243.663,-116.964C190.104,-109.919 117.804,-98.5772 46.4947,-80.0244"/>
<polygon fill="midnightblue" stroke="midnightblue" points="47.0043,-76.5387 36.4412,-77.3584 45.2099,-83.3048 47.0043,-76.5387"/>
</g>
<!-- Node3 -->
<g id="node5" class="node"><title>Node3</title>
<polygon fill="white" stroke="#bfbfbf" points="54.2755,-59 54.2755,-79 119.725,-79 119.725,-59 54.2755,-59"/>
<text text-anchor="middle" x="87" y="-66" font-family="Helvetica,sans-Serif" font-size="10.00">paramfile.h</text>
</g>
<!-- Node1&#45;&gt;Node3 -->
<g id="edge4" class="edge"><title>Node1&#45;&gt;Node3</title>
<path fill="none" stroke="midnightblue" d="M284.132,-116.922C246.837,-108.192 188.66,-94.5202 129.924,-80.4516"/>
<polygon fill="midnightblue" stroke="midnightblue" points="130.654,-77.0274 120.113,-78.0991 129.021,-83.8344 130.654,-77.0274"/>
</g>
<!-- Node4 -->
<g id="node7" class="node"><title>Node4</title>
<polygon fill="white" stroke="#bfbfbf" points="137.328,-59 137.328,-79 186.672,-79 186.672,-59 137.328,-59"/>
<text text-anchor="middle" x="162" y="-66" font-family="Helvetica,sans-Serif" font-size="10.00">trafos.h</text>
</g>
<!-- Node1&#45;&gt;Node4 -->
<g id="edge6" class="edge"><title>Node1&#45;&gt;Node4</title>
<path fill="none" stroke="midnightblue" d="M296.774,-116.878C269.476,-107.383 226.591,-92.4663 196.546,-82.0161"/>
<polygon fill="midnightblue" stroke="midnightblue" points="197.486,-78.6372 186.891,-78.6577 195.186,-85.2487 197.486,-78.6372"/>
</g>
<!-- Node5 -->
<g id="node9" class="node"><title>Node5</title>
<polygon fill="white" stroke="#bfbfbf" points="204.38,-59 204.38,-79 277.62,-79 277.62,-59 204.38,-59"/>
<text text-anchor="middle" x="241" y="-66" font-family="Helvetica,sans-Serif" font-size="10.00">planck_rng.h</text>
</g>
<!-- Node1&#45;&gt;Node5 -->
<g id="edge8" class="edge"><title>Node1&#45;&gt;Node5</title>
<path fill="none" stroke="midnightblue" d="M309.459,-116.753C296.802,-108.109 277.683,-95.0518 262.864,-84.9314"/>
<polygon fill="midnightblue" stroke="midnightblue" points="264.521,-81.8245 254.289,-79.0752 260.573,-87.6052 264.521,-81.8245"/>
</g>
<!-- Node6 -->
<g id="node11" class="node"><title>Node6</title>
<polygon fill="white" stroke="#bfbfbf" points="295.834,-59 295.834,-79 350.166,-79 350.166,-59 295.834,-59"/>
<text text-anchor="middle" x="323" y="-66" font-family="Helvetica,sans-Serif" font-size="10.00">iostream</text>
</g>
<!-- Node1&#45;&gt;Node6 -->
<g id="edge10" class="edge"><title>Node1&#45;&gt;Node6</title>
<path fill="none" stroke="midnightblue" d="M323,-116.753C323,-109.25 323,-98.4238 323,-89.0781"/>
<polygon fill="midnightblue" stroke="midnightblue" points="326.5,-89.0752 323,-79.0752 319.5,-89.0752 326.5,-89.0752"/>
</g>
<!-- Node7 -->
<g id="node13" class="node"><title>Node7</title>
<polygon fill="white" stroke="#bfbfbf" points="368.333,-59 368.333,-79 417.667,-79 417.667,-59 368.333,-59"/>
<text text-anchor="middle" x="393" y="-66" font-family="Helvetica,sans-Serif" font-size="10.00">fstream</text>
</g>
<!-- Node1&#45;&gt;Node7 -->
<g id="edge12" class="edge"><title>Node1&#45;&gt;Node7</title>
<path fill="none" stroke="midnightblue" d="M334.559,-116.753C345.16,-108.272 361.071,-95.543 373.616,-85.5073"/>
<polygon fill="midnightblue" stroke="midnightblue" points="376.034,-88.0552 381.656,-79.0752 371.661,-82.5891 376.034,-88.0552"/>
</g>
<!-- Node8 -->
<g id="node15" class="node"><title>Node8</title>
<polygon fill="white" stroke="#bfbfbf" points="435.223,-59 435.223,-79 486.777,-79 486.777,-59 435.223,-59"/>
<text text-anchor="middle" x="461" y="-66" font-family="Helvetica,sans-Serif" font-size="10.00">sstream</text>
</g>
<!-- Node1&#45;&gt;Node8 -->
<g id="edge14" class="edge"><title>Node1&#45;&gt;Node8</title>
<path fill="none" stroke="midnightblue" d="M345.479,-116.878C368.234,-107.644 403.624,-93.283 429.239,-82.8887"/>
<polygon fill="midnightblue" stroke="midnightblue" points="430.58,-86.1215 438.53,-79.1181 427.948,-79.6352 430.58,-86.1215"/>
</g>
<!-- Node9 -->
<g id="node17" class="node"><title>Node9</title>
<polygon fill="white" stroke="#bfbfbf" points="504.5,-59 504.5,-79 533.5,-79 533.5,-59 504.5,-59"/>
<text text-anchor="middle" x="518.609" y="-66" font-family="Helvetica,sans-Serif" font-size="10.00">list</text>
</g>
<!-- Node1&#45;&gt;Node9 -->
<g id="edge16" class="edge"><title>Node1&#45;&gt;Node9</title>
<path fill="none" stroke="midnightblue" d="M362.728,-116.971C397.88,-108.605 450.375,-95.1883 495,-80 495.096,-79.9673 495.192,-79.9344 495.289,-79.9012"/>
<polygon fill="midnightblue" stroke="midnightblue" points="496.286,-83.2665 504.396,-76.449 493.804,-76.721 496.286,-83.2665"/>
</g>
<!-- Node10 -->
<g id="node19" class="node"><title>Node10</title>
<a xlink:href="selection_function_8h.html" target="_top" xlink:title="selectionFunction.h">
<polygon fill="white" stroke="black" points="551.933,-59 551.933,-79 654.067,-79 654.067,-59 551.933,-59"/>
<text text-anchor="middle" x="603" y="-66" font-family="Helvetica,sans-Serif" font-size="10.00">selectionFunction.h</text>
</a>
</g>
<!-- Node1&#45;&gt;Node10 -->
<g id="edge18" class="edge"><title>Node1&#45;&gt;Node10</title>
<path fill="none" stroke="midnightblue" d="M368.298,-116.94C417.3,-107.14 495.441,-91.5118 547.949,-81.0102"/>
<polygon fill="midnightblue" stroke="midnightblue" points="548.648,-84.4399 557.767,-79.0466 547.275,-77.5758 548.648,-84.4399"/>
</g>
<!-- Node11 -->
<g id="node21" class="node"><title>Node11</title>
<polygon fill="white" stroke="#bfbfbf" points="579.718,-1 579.718,-21 626.282,-21 626.282,-1 579.718,-1"/>
<text text-anchor="middle" x="603" y="-8" font-family="Helvetica,sans-Serif" font-size="10.00">math.h</text>
</g>
<!-- Node10&#45;&gt;Node11 -->
<g id="edge20" class="edge"><title>Node10&#45;&gt;Node11</title>
<path fill="none" stroke="midnightblue" d="M603,-58.7527C603,-51.2504 603,-40.4238 603,-31.0781"/>
<polygon fill="midnightblue" stroke="midnightblue" points="606.5,-31.0752 603,-21.0752 599.5,-31.0752 606.5,-31.0752"/>
</g>
</g>
</svg>
