<?xml version="1.0" encoding="UTF-8" standalone="no"?>
<!DOCTYPE svg PUBLIC "-//W3C//DTD SVG 1.1//EN"
 "http://www.w3.org/Graphics/SVG/1.1/DTD/svg11.dtd">
<!-- Generated by graphviz version 2.28.0 (20111102.2313)
 -->
<!-- Title: G Pages: 1 -->
<svg width="658pt" height="515pt"
 viewBox="0.00 0.00 658.00 515.00" xmlns="http://www.w3.org/2000/svg" xmlns:xlink="http://www.w3.org/1999/xlink">
<g id="graph1" class="graph" transform="scale(1 1) rotate(0) translate(4 511)">
<title>G</title>
<polygon fill="white" stroke="white" points="-4,5 -4,-511 655,-511 655,5 -4,5"/>
<!-- Node1 -->
<g id="node1" class="node"><title>Node1</title>
<polygon fill="#bfbfbf" stroke="black" points="0.662,-273 0.662,-293 43.338,-293 43.338,-273 0.662,-273"/>
<text text-anchor="middle" x="22" y="-280" font-family="Helvetica,sans-Serif" font-size="10.00">utests</text>
</g>
<!-- Node2 -->
<g id="node3" class="node"><title>Node2</title>
<a xlink:href="namespacef3dex__utests.html#a711e4fe7b4894dfb823cfaede48d377d" target="_top" xlink:title="Test bilinear form functionalty.">
<polygon fill="white" stroke="black" points="96.4805,-273 96.4805,-293 267.519,-293 267.519,-273 96.4805,-273"/>
<text text-anchor="middle" x="182" y="-280" font-family="Helvetica,sans-Serif" font-size="10.00">f3dex_utests::utest_bilini_form_par</text>
</a>
</g>
<!-- Node1&#45;&gt;Node2 -->
<g id="edge2" class="edge"><title>Node1&#45;&gt;Node2</title>
<path fill="none" stroke="midnightblue" d="M43.6557,-283C55.0855,-283 70.1966,-283 86.2101,-283"/>
<polygon fill="midnightblue" stroke="midnightblue" points="86.2726,-286.5 96.2726,-283 86.2725,-279.5 86.2726,-286.5"/>
</g>
<!-- Node6 -->
<g id="node11" class="node"><title>Node6</title>
<a xlink:href="namespacef3dex__utests.html#a1ac11b22f78f0d83a22ab998cc2e1112" target="_top" xlink:title="Test inverse functionalty.">
<polygon fill="white" stroke="black" points="113.146,-351 113.146,-371 250.854,-371 250.854,-351 113.146,-351"/>
<text text-anchor="middle" x="182" y="-358" font-family="Helvetica,sans-Serif" font-size="10.00">f3dex_utests::utest_inverse</text>
</a>
</g>
<!-- Node1&#45;&gt;Node6 -->
<g id="edge10" class="edge"><title>Node1&#45;&gt;Node6</title>
<path fill="none" stroke="midnightblue" d="M43.3323,-293.037C70.7506,-306.573 119.769,-330.772 151.311,-346.343"/>
<polygon fill="midnightblue" stroke="midnightblue" points="149.979,-349.589 160.495,-350.878 153.078,-343.312 149.979,-349.589"/>
</g>
<!-- Node9 -->
<g id="node18" class="node"><title>Node9</title>
<a xlink:href="namespacef3dex__utests.html#a0bd9e3f3f7857cd59dd4787f27053ed2" target="_top" xlink:title="Test legendre functionalty.">
<polygon fill="white" stroke="black" points="109.807,-458 109.807,-478 254.193,-478 254.193,-458 109.807,-458"/>
<text text-anchor="middle" x="182" y="-465" font-family="Helvetica,sans-Serif" font-size="10.00">f3dex_utests::utest_legendre</text>
</a>
</g>
<!-- Node1&#45;&gt;Node9 -->
<g id="edge18" class="edge"><title>Node1&#45;&gt;Node9</title>
<path fill="none" stroke="midnightblue" d="M23.6734,-293C26.0622,-320.373 36.5096,-397.194 80,-438 87.3033,-444.853 96.1024,-450.146 105.423,-454.234"/>
<polygon fill="midnightblue" stroke="midnightblue" points="104.294,-457.551 114.882,-457.934 106.844,-451.032 104.294,-457.551"/>
</g>
<!-- Node12 -->
<g id="node26" class="node"><title>Node12</title>
<a xlink:href="namespacef3dex__utests.html#a57da44b855f549d74b66e6f5766ad969" target="_top" xlink:title="Test legendre angmatrices functionalty.">
<polygon fill="white" stroke="black" points="79.802,-409 79.802,-429 284.198,-429 284.198,-409 79.802,-409"/>
<text text-anchor="middle" x="182" y="-416" font-family="Helvetica,sans-Serif" font-size="10.00">f3dex_utests::utest_legendre_angmatrices</text>
</a>
</g>
<!-- Node1&#45;&gt;Node12 -->
<g id="edge28" class="edge"><title>Node1&#45;&gt;Node12</title>
<path fill="none" stroke="midnightblue" d="M26.4363,-293.299C33.4595,-312.858 51.2647,-355.599 80,-380 93.5341,-391.493 110.832,-399.814 127.273,-405.74"/>
<polygon fill="midnightblue" stroke="midnightblue" points="126.225,-409.08 136.819,-408.957 128.461,-402.447 126.225,-409.08"/>
</g>
<!-- Node14 -->
<g id="node32" class="node"><title>Node14</title>
<a xlink:href="namespacef3dex__utests.html#af92f9fe6f9ec9dade31e9fc47ea73551" target="_top" xlink:title="Test parallel matrix multiplication functionalty.">
<polygon fill="white" stroke="black" points="102.868,-215 102.868,-235 261.132,-235 261.132,-215 102.868,-215"/>
<text text-anchor="middle" x="182" y="-222" font-family="Helvetica,sans-Serif" font-size="10.00">f3dex_utests::utest_matmul_par</text>
</a>
</g>
<!-- Node1&#45;&gt;Node14 -->
<g id="edge36" class="edge"><title>Node1&#45;&gt;Node14</title>
<path fill="none" stroke="midnightblue" d="M43.6557,-275.418C69.0923,-266.08 112.762,-250.049 144.034,-238.57"/>
<polygon fill="midnightblue" stroke="midnightblue" points="145.531,-241.749 153.712,-235.017 143.119,-235.177 145.531,-241.749"/>
</g>
<!-- Node16 -->
<g id="node38" class="node"><title>Node16</title>
<a xlink:href="namespacef3dex__utests.html#a9afe88e0ae4f7e4e96f5f6c4516310d9" target="_top" xlink:title="Test trave functionalty.">
<polygon fill="white" stroke="black" points="118.145,-39 118.145,-59 245.855,-59 245.855,-39 118.145,-39"/>
<text text-anchor="middle" x="182" y="-46" font-family="Helvetica,sans-Serif" font-size="10.00">f3dex_utests::utest_trace</text>
</a>
</g>
<!-- Node1&#45;&gt;Node16 -->
<g id="edge44" class="edge"><title>Node1&#45;&gt;Node16</title>
<path fill="none" stroke="midnightblue" d="M23.783,-272.653C26.4838,-243.452 37.7201,-159.138 80,-107 96.2351,-86.9793 121.345,-72.5158 142.466,-63.0393"/>
<polygon fill="midnightblue" stroke="midnightblue" points="144.022,-66.1807 151.844,-59.0341 141.273,-59.7433 144.022,-66.1807"/>
</g>
<!-- Node18 -->
<g id="node43" class="node"><title>Node18</title>
<a xlink:href="namespacef3dex__utests.html#aaa91fc8ed84fd3255d97e9b51f2cb970" target="_top" xlink:title="Test trace_prod functionalty.">
<polygon fill="white" stroke="black" points="108.142,-117 108.142,-137 255.858,-137 255.858,-117 108.142,-117"/>
<text text-anchor="middle" x="182" y="-124" font-family="Helvetica,sans-Serif" font-size="10.00">f3dex_utests::utest_traceprod</text>
</a>
</g>
<!-- Node1&#45;&gt;Node18 -->
<g id="edge50" class="edge"><title>Node1&#45;&gt;Node18</title>
<path fill="none" stroke="midnightblue" d="M29.0377,-272.954C38.6605,-257.399 58.5865,-226.989 80,-205 103.668,-180.695 135.158,-157.56 156.644,-142.89"/>
<polygon fill="midnightblue" stroke="midnightblue" points="158.844,-145.628 165.188,-137.143 154.937,-139.82 158.844,-145.628"/>
</g>
<!-- Node3 -->
<g id="node5" class="node"><title>Node3</title>
<a xlink:href="namespacef3dex__utils.html#ad4cb6613ee589637f453ef808466a0f9" target="_top" xlink:title="Assert if two doubles are equal.">
<polygon fill="white" stroke="black" points="524.989,-195 524.989,-215 641.011,-215 641.011,-195 524.989,-195"/>
<text text-anchor="middle" x="583" y="-202" font-family="Helvetica,sans-Serif" font-size="10.00">f3dex_utils::assert_DP</text>
</a>
</g>
<!-- Node2&#45;&gt;Node3 -->
<g id="edge4" class="edge"><title>Node2&#45;&gt;Node3</title>
<path fill="none" stroke="midnightblue" d="M212.563,-293.002C267.507,-309.868 388.119,-338.713 480,-302 519.466,-286.23 552.384,-247.12 569.437,-223.659"/>
<polygon fill="midnightblue" stroke="midnightblue" points="572.473,-225.427 575.367,-215.235 566.749,-221.398 572.473,-225.427"/>
</g>
<!-- Node4 -->
<g id="node7" class="node"><title>Node4</title>
<a xlink:href="namespacef3dex__stats.html#af0a10f88c8029206196ea18b3ad579ba" target="_top" xlink:title="Parallel bilinear form.">
<polygon fill="white" stroke="black" points="320.597,-273 320.597,-293 479.403,-293 479.403,-273 320.597,-273"/>
<text text-anchor="middle" x="400" y="-280" font-family="Helvetica,sans-Serif" font-size="10.00">f3dex_stats::BILIN_FORM_PAR</text>
</a>
</g>
<!-- Node2&#45;&gt;Node4 -->
<g id="edge6" class="edge"><title>Node2&#45;&gt;Node4</title>
<path fill="none" stroke="midnightblue" d="M267.749,-283C281.73,-283 296.256,-283 310.33,-283"/>
<polygon fill="midnightblue" stroke="midnightblue" points="310.483,-286.5 320.483,-283 310.483,-279.5 310.483,-286.5"/>
</g>
<!-- Node5 -->
<g id="node9" class="node"><title>Node5</title>
<a xlink:href="namespacef3dex__utils.html#ac5aa172010ec6cd9bd4c5273904b0405" target="_top" xlink:title="Measures system time.">
<polygon fill="white" stroke="black" points="352.273,-234 352.273,-254 447.727,-254 447.727,-234 352.273,-234"/>
<text text-anchor="middle" x="400" y="-241" font-family="Helvetica,sans-Serif" font-size="10.00">f3dex_utils::wtime</text>
</a>
</g>
<!-- Node2&#45;&gt;Node5 -->
<g id="edge8" class="edge"><title>Node2&#45;&gt;Node5</title>
<path fill="none" stroke="midnightblue" d="M238.625,-272.957C270.32,-267.234 309.955,-260.078 341.892,-254.311"/>
<polygon fill="midnightblue" stroke="midnightblue" points="342.752,-257.713 351.971,-252.491 341.508,-250.824 342.752,-257.713"/>
</g>
<!-- Node7 -->
<g id="node13" class="node"><title>Node7</title>
<a xlink:href="namespacef3dex__utils.html#a234414d8daaf5e3bfd03754331b467ed" target="_top" xlink:title="Assert if two arrays are equal.">
<polygon fill="white" stroke="black" points="331.436,-390 331.436,-410 468.564,-410 468.564,-390 331.436,-390"/>
<text text-anchor="middle" x="400" y="-397" font-family="Helvetica,sans-Serif" font-size="10.00">f3dex_utils::assert_DPARR</text>
</a>
</g>
<!-- Node6&#45;&gt;Node7 -->
<g id="edge12" class="edge"><title>Node6&#45;&gt;Node7</title>
<path fill="none" stroke="midnightblue" d="M238.625,-371.043C267.6,-376.275 303.21,-382.705 333.509,-388.175"/>
<polygon fill="midnightblue" stroke="midnightblue" points="333.1,-391.658 343.563,-389.991 334.344,-384.769 333.1,-391.658"/>
</g>
<!-- Node8 -->
<g id="node16" class="node"><title>Node8</title>
<a xlink:href="namespacef3dex__stats.html#a564304481b43b3d55989683f03460410" target="_top" xlink:title="Inverts matrix.">
<polygon fill="white" stroke="black" points="341.709,-351 341.709,-371 458.291,-371 458.291,-351 341.709,-351"/>
<text text-anchor="middle" x="400" y="-358" font-family="Helvetica,sans-Serif" font-size="10.00">f3dex_stats::INVERSE</text>
</a>
</g>
<!-- Node6&#45;&gt;Node8 -->
<g id="edge16" class="edge"><title>Node6&#45;&gt;Node8</title>
<path fill="none" stroke="midnightblue" d="M251.047,-361C276.588,-361 305.6,-361 331.125,-361"/>
<polygon fill="midnightblue" stroke="midnightblue" points="331.459,-364.5 341.459,-361 331.459,-357.5 331.459,-364.5"/>
</g>
<!-- Node7&#45;&gt;Node3 -->
<g id="edge14" class="edge"><title>Node7&#45;&gt;Node3</title>
<path fill="none" stroke="midnightblue" d="M461.966,-389.937C468.408,-387.342 474.575,-384.086 480,-380 533.714,-339.545 564.094,-261.888 576.03,-225.175"/>
<polygon fill="midnightblue" stroke="midnightblue" points="579.51,-225.772 579.147,-215.183 572.828,-223.687 579.51,-225.772"/>
</g>
<!-- Node9&#45;&gt;Node7 -->
<g id="edge20" class="edge"><title>Node9&#45;&gt;Node7</title>
<path fill="none" stroke="midnightblue" d="M222.874,-457.891C241.678,-452.686 264.265,-445.795 284,-438 300.638,-431.428 303.232,-426.231 320,-420 327.1,-417.361 334.686,-414.952 342.244,-412.791"/>
<polygon fill="midnightblue" stroke="midnightblue" points="343.394,-416.105 352.119,-410.094 341.551,-409.352 343.394,-416.105"/>
</g>
<!-- Node10 -->
<g id="node21" class="node"><title>Node10</title>
<a xlink:href="namespacef3dex__stats.html#aa2fb45e013179295e3b876ced9eff015" target="_top" xlink:title="Computes legendre coefs of an array using recurrence.">
<polygon fill="white" stroke="black" points="333.091,-468 333.091,-488 466.909,-488 466.909,-468 333.091,-468"/>
<text text-anchor="middle" x="400" y="-475" font-family="Helvetica,sans-Serif" font-size="10.00">f3dex_stats::legendre_mat</text>
</a>
</g>
<!-- Node9&#45;&gt;Node10 -->
<g id="edge22" class="edge"><title>Node9&#45;&gt;Node10</title>
<path fill="none" stroke="midnightblue" d="M254.325,-471.302C276.277,-472.318 300.523,-473.441 322.789,-474.472"/>
<polygon fill="midnightblue" stroke="midnightblue" points="322.714,-477.972 332.865,-474.938 323.038,-470.979 322.714,-477.972"/>
</g>
<!-- Node11 -->
<g id="node23" class="node"><title>Node11</title>
<a xlink:href="namespacef3dex__stats.html#a1f360b2a41b5a63c3379390a55ef07b2" target="_top" xlink:title="Computes legendre coefs of a double using recurrence.">
<polygon fill="white" stroke="black" points="516.645,-487 516.645,-507 649.355,-507 649.355,-487 516.645,-487"/>
<text text-anchor="middle" x="583" y="-494" font-family="Helvetica,sans-Serif" font-size="10.00">f3dex_stats::legendre_vec</text>
</a>
</g>
<!-- Node9&#45;&gt;Node11 -->
<g id="edge26" class="edge"><title>Node9&#45;&gt;Node11</title>
<path fill="none" stroke="midnightblue" d="M220.17,-478.065C247.539,-484.936 285.786,-493.418 320,-497 382.451,-503.537 453.735,-503.024 506.166,-501.164"/>
<polygon fill="midnightblue" stroke="midnightblue" points="506.533,-504.652 516.392,-500.775 506.267,-497.657 506.533,-504.652"/>
</g>
<!-- Node10&#45;&gt;Node11 -->
<g id="edge24" class="edge"><title>Node10&#45;&gt;Node11</title>
<path fill="none" stroke="midnightblue" d="M467.113,-484.94C479.783,-486.27 493.142,-487.672 506.092,-489.032"/>
<polygon fill="midnightblue" stroke="midnightblue" points="506.058,-492.547 516.368,-490.11 506.789,-485.586 506.058,-492.547"/>
</g>
<!-- Node12&#45;&gt;Node7 -->
<g id="edge30" class="edge"><title>Node12&#45;&gt;Node7</title>
<path fill="none" stroke="midnightblue" d="M284.359,-410.084C296.652,-409.003 309.06,-407.911 320.942,-406.866"/>
<polygon fill="midnightblue" stroke="midnightblue" points="321.578,-410.324 331.233,-405.961 320.965,-403.351 321.578,-410.324"/>
</g>
<!-- Node12&#45;&gt;Node10 -->
<g id="edge34" class="edge"><title>Node12&#45;&gt;Node10</title>
<path fill="none" stroke="midnightblue" d="M217.267,-429.057C244.932,-437.103 284.894,-448.562 320,-458 329.228,-460.481 339.085,-463.045 348.598,-465.475"/>
<polygon fill="midnightblue" stroke="midnightblue" points="347.791,-468.882 358.345,-467.951 349.514,-462.097 347.791,-468.882"/>
</g>
<!-- Node13 -->
<g id="node29" class="node"><title>Node13</title>
<a xlink:href="namespacef3dex__stats.html#ac34a6421249816395b51048aa0a3dde3" target="_top" xlink:title="Generates &lt;xxt&gt; correlation angles map.">
<polygon fill="white" stroke="black" points="325.307,-429 325.307,-449 474.693,-449 474.693,-429 325.307,-429"/>
<text text-anchor="middle" x="400" y="-436" font-family="Helvetica,sans-Serif" font-size="10.00">f3dex_stats::gen_angles_map</text>
</a>
</g>
<!-- Node12&#45;&gt;Node13 -->
<g id="edge32" class="edge"><title>Node12&#45;&gt;Node13</title>
<path fill="none" stroke="midnightblue" d="M284.359,-428.385C294.528,-429.327 304.776,-430.276 314.74,-431.198"/>
<polygon fill="midnightblue" stroke="midnightblue" points="314.725,-434.712 325.006,-432.149 315.371,-427.742 314.725,-434.712"/>
</g>
<!-- Node14&#45;&gt;Node3 -->
<g id="edge38" class="edge"><title>Node14&#45;&gt;Node3</title>
<path fill="none" stroke="midnightblue" d="M261.353,-221.073C335.225,-217.37 444.761,-211.879 514.761,-208.37"/>
<polygon fill="midnightblue" stroke="midnightblue" points="514.981,-211.864 524.793,-207.868 514.63,-204.873 514.981,-211.864"/>
</g>
<!-- Node14&#45;&gt;Node5 -->
<g id="edge42" class="edge"><title>Node14&#45;&gt;Node5</title>
<path fill="none" stroke="midnightblue" d="M261.286,-231.886C287.908,-234.228 317.142,-236.8 341.8,-238.969"/>
<polygon fill="midnightblue" stroke="midnightblue" points="341.798,-242.482 352.067,-239.872 342.412,-235.509 341.798,-242.482"/>
</g>
<!-- Node15 -->
<g id="node35" class="node"><title>Node15</title>
<a xlink:href="namespacef3dex__stats.html#a046613d05a3a2eb1808a7ee99fba7509" target="_top" xlink:title="Parallel matrix multiplication.">
<polygon fill="white" stroke="black" points="329.49,-156 329.49,-176 470.51,-176 470.51,-156 329.49,-156"/>
<text text-anchor="middle" x="400" y="-163" font-family="Helvetica,sans-Serif" font-size="10.00">f3dex_stats::MATMUL_PAR</text>
</a>
</g>
<!-- Node14&#45;&gt;Node15 -->
<g id="edge40" class="edge"><title>Node14&#45;&gt;Node15</title>
<path fill="none" stroke="midnightblue" d="M219.641,-214.991C256.258,-204.99 312.683,-189.577 352.45,-178.715"/>
<polygon fill="midnightblue" stroke="midnightblue" points="353.454,-182.069 362.179,-176.058 351.61,-175.316 353.454,-182.069"/>
</g>
<!-- Node16&#45;&gt;Node3 -->
<g id="edge46" class="edge"><title>Node16&#45;&gt;Node3</title>
<path fill="none" stroke="midnightblue" d="M241.362,-38.9701C304.278,-31.1566 405.417,-27.5115 480,-68 528.232,-94.1836 560.037,-154.114 573.958,-185.31"/>
<polygon fill="midnightblue" stroke="midnightblue" points="570.828,-186.892 577.991,-194.698 577.259,-184.129 570.828,-186.892"/>
</g>
<!-- Node17 -->
<g id="node41" class="node"><title>Node17</title>
<a xlink:href="namespacef3dex__stats.html#aa88d6eefa32a9edc04b3d93af96f5a2e" target="_top" xlink:title="TRACE.">
<polygon fill="white" stroke="black" points="346.712,-0 346.712,-20 453.288,-20 453.288,-0 346.712,-0"/>
<text text-anchor="middle" x="400" y="-7" font-family="Helvetica,sans-Serif" font-size="10.00">f3dex_stats::TRACE</text>
</a>
</g>
<!-- Node16&#45;&gt;Node17 -->
<g id="edge48" class="edge"><title>Node16&#45;&gt;Node17</title>
<path fill="none" stroke="midnightblue" d="M238.625,-38.9565C268.498,-33.5628 305.425,-26.8956 336.312,-21.3187"/>
<polygon fill="midnightblue" stroke="midnightblue" points="337.317,-24.6939 346.536,-19.4727 336.073,-17.8053 337.317,-24.6939"/>
</g>
<!-- Node18&#45;&gt;Node3 -->
<g id="edge52" class="edge"><title>Node18&#45;&gt;Node3</title>
<path fill="none" stroke="midnightblue" d="M256.054,-122.501C317.203,-120.887 406.074,-123.605 480,-146 510.222,-155.155 541.082,-174.72 560.823,-188.813"/>
<polygon fill="midnightblue" stroke="midnightblue" points="558.932,-191.766 569.069,-194.846 563.065,-186.117 558.932,-191.766"/>
</g>
<!-- Node19 -->
<g id="node46" class="node"><title>Node19</title>
<a xlink:href="namespacef3dex__stats.html#ae106140bb309de7d7779b6b086050bf4" target="_top" xlink:title="TRACE of a product of matrices.">
<polygon fill="white" stroke="black" points="332.269,-78 332.269,-98 467.731,-98 467.731,-78 332.269,-78"/>
<text text-anchor="middle" x="400" y="-85" font-family="Helvetica,sans-Serif" font-size="10.00">f3dex_stats::TRACEPROD</text>
</a>
</g>
<!-- Node18&#45;&gt;Node19 -->
<g id="edge54" class="edge"><title>Node18&#45;&gt;Node19</title>
<path fill="none" stroke="midnightblue" d="M238.625,-116.957C267.6,-111.725 303.21,-105.295 333.509,-99.8248"/>
<polygon fill="midnightblue" stroke="midnightblue" points="334.344,-103.231 343.563,-98.0094 333.1,-96.342 334.344,-103.231"/>
</g>
</g>
</svg>
