<?xml version="1.0" encoding="UTF-8" standalone="no"?>
<!DOCTYPE svg PUBLIC "-//W3C//DTD SVG 1.1//EN"
 "http://www.w3.org/Graphics/SVG/1.1/DTD/svg11.dtd">
<!-- Generated by graphviz version 2.28.0 (20111007.0958)
 -->
<!-- Title: G Pages: 1 -->
<svg width="410pt" height="106pt"
 viewBox="0.00 0.00 410.00 106.00" xmlns="http://www.w3.org/2000/svg" xmlns:xlink="http://www.w3.org/1999/xlink">
<g id="graph1" class="graph" transform="scale(1 1) rotate(0) translate(4 102)">
<title>G</title>
<polygon fill="white" stroke="white" points="-4,5 -4,-102 407,-102 407,5 -4,5"/>
<!-- Node1 -->
<g id="node1" class="node"><title>Node1</title>
<polygon fill="#bfbfbf" stroke="black" points="0.27,-39 0.27,-59 75.73,-59 75.73,-39 0.27,-39"/>
<text text-anchor="middle" x="38" y="-46" font-family="Helvetica,sans-Serif" font-size="10.00">utest_inverse</text>
</g>
<!-- Node2 -->
<g id="node3" class="node"><title>Node2</title>
<a xlink:href="namespacef3dex__utils.html#a234414d8daaf5e3bfd03754331b467ed" target="_top" xlink:title="Assert if two arrays are equal.">
<polygon fill="white" stroke="black" points="112.436,-78 112.436,-98 249.564,-98 249.564,-78 112.436,-78"/>
<text text-anchor="middle" x="181" y="-85" font-family="Helvetica,sans-Serif" font-size="10.00">f3dex_utils::assert_DPARR</text>
</a>
</g>
<!-- Node1&#45;&gt;Node2 -->
<g id="edge2" class="edge"><title>Node1&#45;&gt;Node2</title>
<path fill="none" stroke="midnightblue" d="M75.311,-59.0435C93.238,-64.002 115.056,-70.0369 134.126,-75.3114"/>
<polygon fill="midnightblue" stroke="midnightblue" points="133.241,-78.698 143.812,-77.9906 135.107,-71.9513 133.241,-78.698"/>
</g>
<!-- Node4 -->
<g id="node7" class="node"><title>Node4</title>
<a xlink:href="namespacef3dex__stats.html#a564304481b43b3d55989683f03460410" target="_top" xlink:title="Inverts matrix.">
<polygon fill="white" stroke="black" points="122.709,-39 122.709,-59 239.291,-59 239.291,-39 122.709,-39"/>
<text text-anchor="middle" x="181" y="-46" font-family="Helvetica,sans-Serif" font-size="10.00">f3dex_stats::INVERSE</text>
</a>
</g>
<!-- Node1&#45;&gt;Node4 -->
<g id="edge6" class="edge"><title>Node1&#45;&gt;Node4</title>
<path fill="none" stroke="midnightblue" d="M76.0461,-49C87.2486,-49 99.9182,-49 112.463,-49"/>
<polygon fill="midnightblue" stroke="midnightblue" points="112.466,-52.5001 122.466,-49 112.466,-45.5001 112.466,-52.5001"/>
</g>
<!-- Node5 -->
<g id="node9" class="node"><title>Node5</title>
<a xlink:href="namespacef3dex__utils.html#a92226ca7c662562058c56ba005f6fc36" target="_top" xlink:title="Print preformated messages.">
<polygon fill="white" stroke="black" points="126.043,-0 126.043,-20 235.957,-20 235.957,-0 126.043,-0"/>
<text text-anchor="middle" x="181" y="-7" font-family="Helvetica,sans-Serif" font-size="10.00">f3dex_utils::message</text>
</a>
</g>
<!-- Node1&#45;&gt;Node5 -->
<g id="edge8" class="edge"><title>Node1&#45;&gt;Node5</title>
<path fill="none" stroke="midnightblue" d="M75.311,-38.9565C93.238,-33.998 115.056,-27.9631 134.126,-22.6886"/>
<polygon fill="midnightblue" stroke="midnightblue" points="135.107,-26.0487 143.812,-20.0094 133.241,-19.302 135.107,-26.0487"/>
</g>
<!-- Node3 -->
<g id="node5" class="node"><title>Node3</title>
<a xlink:href="namespacef3dex__utils.html#ad4cb6613ee589637f453ef808466a0f9" target="_top" xlink:title="Assert if two doubles are equal.">
<polygon fill="white" stroke="black" points="285.989,-78 285.989,-98 402.011,-98 402.011,-78 285.989,-78"/>
<text text-anchor="middle" x="344" y="-85" font-family="Helvetica,sans-Serif" font-size="10.00">f3dex_utils::assert_DP</text>
</a>
</g>
<!-- Node2&#45;&gt;Node3 -->
<g id="edge4" class="edge"><title>Node2&#45;&gt;Node3</title>
<path fill="none" stroke="midnightblue" d="M249.812,-88C258.459,-88 267.307,-88 275.943,-88"/>
<polygon fill="midnightblue" stroke="midnightblue" points="275.958,-91.5001 285.958,-88 275.958,-84.5001 275.958,-91.5001"/>
</g>
</g>
</svg>
