<?xml version="1.0" encoding="UTF-8" standalone="no"?>
<!DOCTYPE svg PUBLIC "-//W3C//DTD SVG 1.1//EN"
 "http://www.w3.org/Graphics/SVG/1.1/DTD/svg11.dtd">
<!-- Generated by graphviz version 2.28.0 (20111007.0958)
 -->
<!-- Title: G Pages: 1 -->
<svg width="226pt" height="106pt"
 viewBox="0.00 0.00 226.00 106.00" xmlns="http://www.w3.org/2000/svg" xmlns:xlink="http://www.w3.org/1999/xlink">
<g id="graph1" class="graph" transform="scale(1 1) rotate(0) translate(4 102)">
<title>G</title>
<polygon fill="white" stroke="white" points="-4,5 -4,-102 223,-102 223,5 -4,5"/>
<!-- Node1 -->
<g id="node1" class="node"><title>Node1</title>
<polygon fill="#bfbfbf" stroke="black" points="0.2695,-39 0.2695,-59 65.7305,-59 65.7305,-39 0.2695,-39"/>
<text text-anchor="middle" x="33" y="-46" font-family="Helvetica,sans-Serif" font-size="10.00">utest_trace</text>
</g>
<!-- Node2 -->
<g id="node3" class="node"><title>Node2</title>
<a xlink:href="namespacef3dex__utils.html#ad4cb6613ee589637f453ef808466a0f9" target="_top" xlink:title="Assert if two doubles are equal.">
<polygon fill="white" stroke="black" points="101.989,-78 101.989,-98 218.011,-98 218.011,-78 101.989,-78"/>
<text text-anchor="middle" x="160" y="-85" font-family="Helvetica,sans-Serif" font-size="10.00">f3dex_utils::assert_DP</text>
</a>
</g>
<!-- Node1&#45;&gt;Node2 -->
<g id="edge2" class="edge"><title>Node1&#45;&gt;Node2</title>
<path fill="none" stroke="midnightblue" d="M65.8662,-58.9423C81.4664,-63.8095 100.449,-69.7322 117.197,-74.9575"/>
<polygon fill="midnightblue" stroke="midnightblue" points="116.169,-78.303 126.757,-77.9403 118.254,-71.6207 116.169,-78.303"/>
</g>
<!-- Node3 -->
<g id="node5" class="node"><title>Node3</title>
<a xlink:href="namespacef3dex__utils.html#a92226ca7c662562058c56ba005f6fc36" target="_top" xlink:title="Print preformated messages.">
<polygon fill="white" stroke="black" points="105.043,-39 105.043,-59 214.957,-59 214.957,-39 105.043,-39"/>
<text text-anchor="middle" x="160" y="-46" font-family="Helvetica,sans-Serif" font-size="10.00">f3dex_utils::message</text>
</a>
</g>
<!-- Node1&#45;&gt;Node3 -->
<g id="edge4" class="edge"><title>Node1&#45;&gt;Node3</title>
<path fill="none" stroke="midnightblue" d="M65.8662,-49C74.7631,-49 84.7604,-49 94.8158,-49"/>
<polygon fill="midnightblue" stroke="midnightblue" points="94.852,-52.5001 104.852,-49 94.8519,-45.5001 94.852,-52.5001"/>
</g>
<!-- Node4 -->
<g id="node7" class="node"><title>Node4</title>
<a xlink:href="namespacef3dex__stats.html#aa88d6eefa32a9edc04b3d93af96f5a2e" target="_top" xlink:title="TRACE.">
<polygon fill="white" stroke="black" points="106.713,-0 106.713,-20 213.287,-20 213.287,-0 106.713,-0"/>
<text text-anchor="middle" x="160" y="-7" font-family="Helvetica,sans-Serif" font-size="10.00">f3dex_stats::TRACE</text>
</a>
</g>
<!-- Node1&#45;&gt;Node4 -->
<g id="edge6" class="edge"><title>Node1&#45;&gt;Node4</title>
<path fill="none" stroke="midnightblue" d="M65.8662,-39.0577C81.4664,-34.1905 100.449,-28.2678 117.197,-23.0425"/>
<polygon fill="midnightblue" stroke="midnightblue" points="118.254,-26.3793 126.757,-20.0597 116.169,-19.697 118.254,-26.3793"/>
</g>
</g>
</svg>
