<?xml version="1.0" encoding="UTF-8" standalone="no"?>
<!DOCTYPE svg PUBLIC "-//W3C//DTD SVG 1.1//EN"
 "http://www.w3.org/Graphics/SVG/1.1/DTD/svg11.dtd">
<!-- Generated by graphviz version 2.28.0 (20111007.0958)
 -->
<!-- Title: G Pages: 1 -->
<svg width="506pt" height="106pt"
 viewBox="0.00 0.00 506.00 106.00" xmlns="http://www.w3.org/2000/svg" xmlns:xlink="http://www.w3.org/1999/xlink">
<g id="graph1" class="graph" transform="scale(1 1) rotate(0) translate(4 102)">
<title>G</title>
<polygon fill="white" stroke="white" points="-4,5 -4,-102 503,-102 503,5 -4,5"/>
<!-- Node1 -->
<g id="node1" class="node"><title>Node1</title>
<polygon fill="#bfbfbf" stroke="black" points="-0.0735,-39 -0.0735,-59 142.073,-59 142.073,-39 -0.0735,-39"/>
<text text-anchor="middle" x="71" y="-46" font-family="Helvetica,sans-Serif" font-size="10.00">utest_legendre_angmatrices</text>
</g>
<!-- Node2 -->
<g id="node3" class="node"><title>Node2</title>
<a xlink:href="namespacef3dex__utils.html#a234414d8daaf5e3bfd03754331b467ed" target="_top" xlink:title="Assert if two arrays are equal.">
<polygon fill="white" stroke="black" points="184.436,-78 184.436,-98 321.564,-98 321.564,-78 184.436,-78"/>
<text text-anchor="middle" x="253" y="-85" font-family="Helvetica,sans-Serif" font-size="10.00">f3dex_utils::assert_DPARR</text>
</a>
</g>
<!-- Node1&#45;&gt;Node2 -->
<g id="edge2" class="edge"><title>Node1&#45;&gt;Node2</title>
<path fill="none" stroke="midnightblue" d="M118.354,-59.0435C141.975,-64.1612 170.887,-70.4256 195.771,-75.8171"/>
<polygon fill="midnightblue" stroke="midnightblue" points="195.288,-79.2936 205.803,-77.9906 196.771,-72.4523 195.288,-79.2936"/>
</g>
<!-- Node4 -->
<g id="node7" class="node"><title>Node4</title>
<a xlink:href="namespacef3dex__stats.html#ac34a6421249816395b51048aa0a3dde3" target="_top" xlink:title="Generates &lt;xxt&gt; correlation angles map.">
<polygon fill="white" stroke="black" points="178.307,-39 178.307,-59 327.693,-59 327.693,-39 178.307,-39"/>
<text text-anchor="middle" x="253" y="-46" font-family="Helvetica,sans-Serif" font-size="10.00">f3dex_stats::gen_angles_map</text>
</a>
</g>
<!-- Node1&#45;&gt;Node4 -->
<g id="edge6" class="edge"><title>Node1&#45;&gt;Node4</title>
<path fill="none" stroke="midnightblue" d="M142.108,-49C150.622,-49 159.386,-49 168.074,-49"/>
<polygon fill="midnightblue" stroke="midnightblue" points="168.219,-52.5001 178.219,-49 168.219,-45.5001 168.219,-52.5001"/>
</g>
<!-- Node5 -->
<g id="node9" class="node"><title>Node5</title>
<a xlink:href="namespacef3dex__stats.html#aa2fb45e013179295e3b876ced9eff015" target="_top" xlink:title="Computes legendre coefs of an array using recurrence.">
<polygon fill="white" stroke="black" points="186.091,-0 186.091,-20 319.909,-20 319.909,-0 186.091,-0"/>
<text text-anchor="middle" x="253" y="-7" font-family="Helvetica,sans-Serif" font-size="10.00">f3dex_stats::legendre_mat</text>
</a>
</g>
<!-- Node1&#45;&gt;Node5 -->
<g id="edge8" class="edge"><title>Node1&#45;&gt;Node5</title>
<path fill="none" stroke="midnightblue" d="M118.354,-38.9565C141.975,-33.8388 170.887,-27.5744 195.771,-22.1829"/>
<polygon fill="midnightblue" stroke="midnightblue" points="196.771,-25.5477 205.803,-20.0094 195.288,-18.7064 196.771,-25.5477"/>
</g>
<!-- Node3 -->
<g id="node5" class="node"><title>Node3</title>
<a xlink:href="namespacef3dex__utils.html#ad4cb6613ee589637f453ef808466a0f9" target="_top" xlink:title="Assert if two doubles are equal.">
<polygon fill="white" stroke="black" points="372.989,-78 372.989,-98 489.011,-98 489.011,-78 372.989,-78"/>
<text text-anchor="middle" x="431" y="-85" font-family="Helvetica,sans-Serif" font-size="10.00">f3dex_utils::assert_DP</text>
</a>
</g>
<!-- Node2&#45;&gt;Node3 -->
<g id="edge4" class="edge"><title>Node2&#45;&gt;Node3</title>
<path fill="none" stroke="midnightblue" d="M321.794,-88C335.221,-88 349.312,-88 362.721,-88"/>
<polygon fill="midnightblue" stroke="midnightblue" points="362.821,-91.5001 372.821,-88 362.821,-84.5001 362.821,-91.5001"/>
</g>
<!-- Node6 -->
<g id="node11" class="node"><title>Node6</title>
<a xlink:href="namespacef3dex__stats.html#a1f360b2a41b5a63c3379390a55ef07b2" target="_top" xlink:title="Computes legendre coefs of a double using recurrence.">
<polygon fill="white" stroke="black" points="364.645,-0 364.645,-20 497.355,-20 497.355,-0 364.645,-0"/>
<text text-anchor="middle" x="431" y="-7" font-family="Helvetica,sans-Serif" font-size="10.00">f3dex_stats::legendre_vec</text>
</a>
</g>
<!-- Node5&#45;&gt;Node6 -->
<g id="edge10" class="edge"><title>Node5&#45;&gt;Node6</title>
<path fill="none" stroke="midnightblue" d="M320.037,-10C331.164,-10 342.792,-10 354.144,-10"/>
<polygon fill="midnightblue" stroke="midnightblue" points="354.471,-13.5001 364.471,-10 354.471,-6.5001 354.471,-13.5001"/>
</g>
</g>
</svg>
