<?xml version="1.0" encoding="UTF-8" standalone="no"?>
<!DOCTYPE svg PUBLIC "-//W3C//DTD SVG 1.1//EN"
 "http://www.w3.org/Graphics/SVG/1.1/DTD/svg11.dtd">
<!-- Generated by graphviz version 2.28.0 (20111007.0958)
 -->
<!-- Title: G Pages: 1 -->
<svg width="266pt" height="67pt"
 viewBox="0.00 0.00 266.00 67.00" xmlns="http://www.w3.org/2000/svg" xmlns:xlink="http://www.w3.org/1999/xlink">
<g id="graph1" class="graph" transform="scale(1 1) rotate(0) translate(4 63)">
<title>G</title>
<polygon fill="white" stroke="white" points="-4,5 -4,-63 263,-63 263,5 -4,5"/>
<!-- Node1 -->
<g id="node1" class="node"><title>Node1</title>
<polygon fill="#bfbfbf" stroke="black" points="0.2665,-19 0.2665,-39 85.7335,-39 85.7335,-19 0.2665,-19"/>
<text text-anchor="middle" x="43" y="-26" font-family="Helvetica,sans-Serif" font-size="10.00">utest_traceprod</text>
</g>
<!-- Node2 -->
<g id="node3" class="node"><title>Node2</title>
<a xlink:href="namespacef3dex__utils.html#ad4cb6613ee589637f453ef808466a0f9" target="_top" xlink:title="Assert if two doubles are equal.">
<polygon fill="white" stroke="black" points="131.989,-39 131.989,-59 248.011,-59 248.011,-39 131.989,-39"/>
<text text-anchor="middle" x="190" y="-46" font-family="Helvetica,sans-Serif" font-size="10.00">f3dex_utils::assert_DP</text>
</a>
</g>
<!-- Node1&#45;&gt;Node2 -->
<g id="edge2" class="edge"><title>Node1&#45;&gt;Node2</title>
<path fill="none" stroke="midnightblue" d="M85.94,-34.7848C97.1139,-36.3261 109.473,-38.0308 121.639,-39.7088"/>
<polygon fill="midnightblue" stroke="midnightblue" points="121.397,-43.2085 131.782,-41.1078 122.354,-36.2742 121.397,-43.2085"/>
</g>
<!-- Node3 -->
<g id="node5" class="node"><title>Node3</title>
<a xlink:href="namespacef3dex__stats.html#ae106140bb309de7d7779b6b086050bf4" target="_top" xlink:title="TRACE of a product of matrices.">
<polygon fill="white" stroke="black" points="122.269,-0 122.269,-20 257.731,-20 257.731,-0 122.269,-0"/>
<text text-anchor="middle" x="190" y="-7" font-family="Helvetica,sans-Serif" font-size="10.00">f3dex_stats::TRACEPROD</text>
</a>
</g>
<!-- Node1&#45;&gt;Node3 -->
<g id="edge4" class="edge"><title>Node1&#45;&gt;Node3</title>
<path fill="none" stroke="midnightblue" d="M85.94,-23.5044C94.144,-22.4294 102.987,-21.2707 111.923,-20.0997"/>
<polygon fill="midnightblue" stroke="midnightblue" points="112.562,-23.546 122.023,-18.7763 111.653,-16.6053 112.562,-23.546"/>
</g>
</g>
</svg>
