<?xml version="1.0" encoding="UTF-8" standalone="no"?>
<!DOCTYPE svg PUBLIC "-//W3C//DTD SVG 1.1//EN"
 "http://www.w3.org/Graphics/SVG/1.1/DTD/svg11.dtd">
<!-- Generated by graphviz version 2.28.0 (20111007.0958)
 -->
<!-- Title: G Pages: 1 -->
<svg width="434pt" height="86pt"
 viewBox="0.00 0.00 434.00 86.00" xmlns="http://www.w3.org/2000/svg" xmlns:xlink="http://www.w3.org/1999/xlink">
<g id="graph1" class="graph" transform="scale(1 1) rotate(0) translate(4 82)">
<title>G</title>
<polygon fill="white" stroke="white" points="-4,5 -4,-82 431,-82 431,5 -4,5"/>
<!-- Node1 -->
<g id="node1" class="node"><title>Node1</title>
<polygon fill="#bfbfbf" stroke="black" points="-0.0685,-19 -0.0685,-39 82.0685,-39 82.0685,-19 -0.0685,-19"/>
<text text-anchor="middle" x="41" y="-26" font-family="Helvetica,sans-Serif" font-size="10.00">utest_legendre</text>
</g>
<!-- Node2 -->
<g id="node3" class="node"><title>Node2</title>
<a xlink:href="namespacef3dex__utils.html#a234414d8daaf5e3bfd03754331b467ed" target="_top" xlink:title="Assert if two arrays are equal.">
<polygon fill="white" stroke="black" points="118.436,-58 118.436,-78 255.564,-78 255.564,-58 118.436,-58"/>
<text text-anchor="middle" x="187" y="-65" font-family="Helvetica,sans-Serif" font-size="10.00">f3dex_utils::assert_DPARR</text>
</a>
</g>
<!-- Node1&#45;&gt;Node2 -->
<g id="edge2" class="edge"><title>Node1&#45;&gt;Node2</title>
<path fill="none" stroke="midnightblue" d="M79.0836,-39.0435C97.392,-44.002 119.675,-50.0369 139.15,-55.3114"/>
<polygon fill="midnightblue" stroke="midnightblue" points="138.475,-58.7546 149.042,-57.9906 140.305,-51.998 138.475,-58.7546"/>
</g>
<!-- Node4 -->
<g id="node7" class="node"><title>Node4</title>
<a xlink:href="namespacef3dex__stats.html#aa2fb45e013179295e3b876ced9eff015" target="_top" xlink:title="Computes legendre coefs of an array using recurrence.">
<polygon fill="white" stroke="black" points="120.091,-19 120.091,-39 253.909,-39 253.909,-19 120.091,-19"/>
<text text-anchor="middle" x="187" y="-26" font-family="Helvetica,sans-Serif" font-size="10.00">f3dex_stats::legendre_mat</text>
</a>
</g>
<!-- Node1&#45;&gt;Node4 -->
<g id="edge6" class="edge"><title>Node1&#45;&gt;Node4</title>
<path fill="none" stroke="midnightblue" d="M82.112,-29C90.7292,-29 100.11,-29 109.593,-29"/>
<polygon fill="midnightblue" stroke="midnightblue" points="109.892,-32.5001 119.892,-29 109.892,-25.5001 109.892,-32.5001"/>
</g>
<!-- Node5 -->
<g id="node9" class="node"><title>Node5</title>
<a xlink:href="namespacef3dex__stats.html#a1f360b2a41b5a63c3379390a55ef07b2" target="_top" xlink:title="Computes legendre coefs of a double using recurrence.">
<polygon fill="white" stroke="black" points="292.645,-0 292.645,-20 425.355,-20 425.355,-0 292.645,-0"/>
<text text-anchor="middle" x="359" y="-7" font-family="Helvetica,sans-Serif" font-size="10.00">f3dex_stats::legendre_vec</text>
</a>
</g>
<!-- Node1&#45;&gt;Node5 -->
<g id="edge10" class="edge"><title>Node1&#45;&gt;Node5</title>
<path fill="none" stroke="midnightblue" d="M72.7029,-18.9959C86.4042,-15.0339 102.845,-10.9607 118,-9 172.667,-1.92738 234.926,-2.43164 282.331,-4.57052"/>
<polygon fill="midnightblue" stroke="midnightblue" points="282.359,-8.07593 292.517,-5.0654 282.699,-1.08418 282.359,-8.07593"/>
</g>
<!-- Node3 -->
<g id="node5" class="node"><title>Node3</title>
<a xlink:href="namespacef3dex__utils.html#ad4cb6613ee589637f453ef808466a0f9" target="_top" xlink:title="Assert if two doubles are equal.">
<polygon fill="white" stroke="black" points="300.989,-58 300.989,-78 417.011,-78 417.011,-58 300.989,-58"/>
<text text-anchor="middle" x="359" y="-65" font-family="Helvetica,sans-Serif" font-size="10.00">f3dex_utils::assert_DP</text>
</a>
</g>
<!-- Node2&#45;&gt;Node3 -->
<g id="edge4" class="edge"><title>Node2&#45;&gt;Node3</title>
<path fill="none" stroke="midnightblue" d="M255.677,-68C267.279,-68 279.33,-68 290.916,-68"/>
<polygon fill="midnightblue" stroke="midnightblue" points="290.955,-71.5001 300.955,-68 290.955,-64.5001 290.955,-71.5001"/>
</g>
<!-- Node4&#45;&gt;Node5 -->
<g id="edge8" class="edge"><title>Node4&#45;&gt;Node5</title>
<path fill="none" stroke="midnightblue" d="M254.213,-21.5997C263.456,-20.5667 273.011,-19.4988 282.41,-18.4483"/>
<polygon fill="midnightblue" stroke="midnightblue" points="282.977,-21.9068 292.526,-17.3177 282.199,-14.9501 282.977,-21.9068"/>
</g>
</g>
</svg>
